<mxfile host="app.diagrams.net" agent="Mozilla/5.0 (Windows NT 10.0; Win64; x64) AppleWebKit/537.36 (KHTML, like Gecko) Chrome/131.0.0.0 Safari/537.36 Edg/131.0.0.0" version="26.0.4">
  <diagram name="第 1 页" id="QOAtvF1AGIrHGDuA5N3y">
    <mxGraphModel dx="1797" dy="999" grid="1" gridSize="10" guides="1" tooltips="1" connect="1" arrows="1" fold="1" page="1" pageScale="1" pageWidth="827" pageHeight="1169" math="0" shadow="0">
      <root>
        <mxCell id="0" />
        <mxCell id="1" parent="0" />
        <mxCell id="5nhjHc1FSObKlHAFbtzU-17" value="&lt;font face=&quot;Times New Roman&quot; style=&quot;font-size: 48px;&quot;&gt;DG with loss&lt;sub&gt;pf&lt;/sub&gt;&lt;/font&gt;" style="text;html=1;align=center;verticalAlign=middle;whiteSpace=wrap;rounded=0;" parent="1" vertex="1">
          <mxGeometry x="680" y="30" width="430" height="60" as="geometry" />
        </mxCell>
        <mxCell id="5nhjHc1FSObKlHAFbtzU-18" value="&lt;font face=&quot;Times New Roman&quot; style=&quot;font-size: 48px;&quot;&gt;3-2Dmix with loss&lt;sub&gt;pf&lt;/sub&gt;&lt;/font&gt;" style="text;html=1;align=center;verticalAlign=middle;whiteSpace=wrap;rounded=0;" parent="1" vertex="1">
          <mxGeometry x="1420" y="30" width="430" height="60" as="geometry" />
        </mxCell>
        <mxCell id="5nhjHc1FSObKlHAFbtzU-19" value="&lt;font face=&quot;Times New Roman&quot;&gt;&lt;font style=&quot;font-size: 48px;&quot;&gt;DG with loss&lt;/font&gt;&lt;font style=&quot;font-size: 40px;&quot;&gt;&lt;sub style=&quot;&quot;&gt;mse&lt;/sub&gt;&lt;/font&gt;&lt;/font&gt;" style="text;html=1;align=center;verticalAlign=middle;whiteSpace=wrap;rounded=0;" parent="1" vertex="1">
          <mxGeometry x="667" y="630" width="430" height="60" as="geometry" />
        </mxCell>
        <mxCell id="5nhjHc1FSObKlHAFbtzU-20" value="&lt;font face=&quot;Times New Roman&quot;&gt;&lt;font style=&quot;font-size: 48px;&quot;&gt;3-2Dmix with loss&lt;/font&gt;&lt;font style=&quot;font-size: 40px;&quot;&gt;&lt;sub style=&quot;&quot;&gt;mse&lt;/sub&gt;&lt;/font&gt;&lt;/font&gt;" style="text;html=1;align=center;verticalAlign=middle;whiteSpace=wrap;rounded=0;" parent="1" vertex="1">
          <mxGeometry x="1430" y="630" width="430" height="60" as="geometry" />
        </mxCell>
        <mxCell id="zEoZg1Jp4J7SSyQUYtt9-1" value="" style="shape=image;verticalLabelPosition=bottom;labelBackgroundColor=default;verticalAlign=top;imageAspect=0;image=data:image/png,iVBORw0KGgoAAAANSUhEUgAAAooAAAH0CAYAAAC6tAygAAAAOXRFWHRTb2Z0d2FyZQBNYXRwbG90bGliIHZlcnNpb24zLjcuMiwgaHR0cHM6Ly9tYXRwbG90bGliLm9yZy8pXeV/AAAACXBIWXMAAA9hAAAPYQGoP6dpAABh1UlEQVR4nO3deXxU1d0G8OfOPpNMdrKxBFC2gCIERAQEtYZFEVALFcvy1tJGAYlUiooUqr4i1r0IimXRukBtBHkrKqAQRYJAWESJojSSsISYQCb7bPe8f9zJwJghBMiseb6fz3ySuffMvb8zS+bJuZskhBAgIiIiIvoFVaALICIiIqLgxKBIRERERF4xKBIRERGRVwyKREREROQVgyIRERERecWgSEREREReMSgSERERkVcMikRERETkFYMiEREREXnFoEhEREREXjEoEhEREZFXDIpERERE5BWDIhERERF5xaBIRERERF4xKBIRERGRVwyKREREROQVgyIRERERecWgSEREREReMSgSERERkVcMikRERETkFYMiEREREXnFoEhEREREXjEoEhEREZFXDIpERERE5BWDIhERERF5xaBIRERERF4xKBIRERGRVwyKREREROQVgyIRERERecWgSEREREReMSgSERERkVcMikRERETkFYMiEREREXnFoEhEREREXjEoEhEREZFXDIpERERE5BWDIhERERF5xaBIRERERF4xKBIRERGRVwyKREREROQVgyIRERERecWgSEREREReMSgSERERkVcMikRERETkFYMiEREREXnFoEhEREREXjEoEhEREZFXDIpERERE5BWDIhERERF5xaBIRERERF4xKBIRERGRVwyKREREROQVgyIRERERecWgSEREREReMSgSERERkVcMikRERETkFYMiEREREXnFoEhEREREXmkCXUCok2UZJ06cgNlshiRJgS6HiIiIWoAQAlVVVUhNTYVK1XrH1RgUL9OJEyfQvn37QJdBREREPlBcXIx27doFuoyAYVC8TGazGYDyRoqKigpwNURERNQSKisr0b59e/f3fGvFoHiZGjY3R0VFMSgSERGFmda+W1nr3ehORERERE1iUCQiIiIirxgUiYiIiMgr7qNIRBQGnE4n7HZ7oMsgChlarRZqtTrQZQQ9BkUiohAmhEBJSQkqKioCXQpRyImJiUFycnKrP2ClKQyKREQhrCEkJiYmwmQy8QuPqBmEEKitrUVpaSkAICUlJcAVBS8GRSKiEOV0Ot0hMT4+PtDlEIUUo9EIACgtLUViYiI3Q58HD2YhIgpRDfskmkymAFdCFJoaPjvcv/f8GBSJiEIcNzcTXRp+di6MQZGIiIiIvGJQJCKiVuGnn36CJEnYv3//ZS1n2LBhyM7ObpGammvhwoW45ppr/LpOIoBBkYiIAmDq1KkYO3ZsoMtoccOGDYMkSee9dezY8ZKW+9BDD+HTTz+9rNpWr16NmJiYy1oGtT486pmIiKiFvP/++7DZbACA4uJiXHvttdiyZQt69uwJAI2OrLXZbNDpdBdcbmRkJCIjI1u+YKIL4IhiMMv9G/DxI0DVqUBXQkTkV7m5ubj22muh1+uRkpKChx9+GA6Hwz3/448/xuDBgxETE4P4+HjcdtttOHLkiMcydu3ahT59+sBgMKBfv37Yt29fo/UcOnQIo0aNQmRkJJKSkjBp0iSUlZW559fU1GDy5MmIjIxESkoKnnvuuSbrjouLQ3JyMpKTk9GmTRsAQHx8vHta//798eSTT2Lq1KmIjo7GtGnTAABz585F165dYTKZ0LlzZ8yfP9/jSNxfbnpuGJF99tlnkZKSgvj4eEyfPv2yjt4tKirCmDFjEBkZiaioKIwfPx6nTp39/jlw4ABuvPFGmM1mREVFISMjA3v27AEAHD16FKNHj0ZsbCwiIiLQs2dPbNy48ZJroeDBoBjMdv8D2LkUqGZQJKLmEUKg1uYIyE0I0SJ9OH78OEaNGoX+/fvjwIEDWLZsGVasWIEnn3zS3aampgazZ8/G7t278emnn0KlUmHcuHGQZdk9/7bbbkO3bt2Qn5+PhQsX4qGHHvJYz8mTJzF06FBcc8012LNnDz7++GOcOnUK48ePd7eZM2cOtm7dinXr1mHTpk3Ytm0b8vPzL6t/f/vb39CrVy/k5+dj/vz5AACz2YzVq1fj0KFDeOmll/D666/jhRdeaHI5W7duxZEjR7B161a88cYbWL16NVavXn1JNQkhMHbsWJw+fRq5ubnYvHkzjhw5ggkTJrjb3HPPPWjXrh12796N/Px8PPzww9BqtQCA6dOnw2q14vPPP8fBgwexePFijoCGCW56DmZa5WSgsNcFtg4iChl1difS//JJQNZ96PHhMOku/2tl6dKlaN++PZYsWQJJktC9e3ecOHECc+fOxV/+8heoVCrceeedHo9ZsWIFEhMTcejQIfTq1Qtvv/02nE4nVq5cCZPJhJ49e+LYsWO477773I9ZtmwZ+vbti6eeeso9beXKlWjfvj0OHz6M1NRUrFixAm+++SZuueUWAMAbb7yBdu3aXVb/brrppkah9bHHHnP/3rFjR/zpT3/C2rVr8ec///m8y4mNjcWSJUugVqvRvXt33Hrrrfj000/do5QXY8uWLfj6669RWFiI9u3bAwD++c9/omfPnti9ezf69++PoqIizJkzB927dwcAdOnSxf34oqIi3HnnnbjqqqsAAJ07d77oGig4+W1EcenSpejUqRMMBgMyMjLwxRdfNNk+NzcXGRkZMBgM6Ny5M1599dVGbXJycpCeng69Xo/09HSsW7fOY/6iRYvQv39/mM1mJCYmYuzYsfj+++892kydOrXRzsbXXXfd5Xe4JWhdJ9G11wa2DiIiPyooKMDAgQM9znE3aNAgVFdX49ixYwCAI0eOYOLEiejcuTOioqLQqVMnAEpgaVhG7969PU5GPnDgQI/15OfnY+vWre79/yIjI90h6MiRIzhy5AhsNpvH4+Li4tCtW7fL6l+/fv0aTfv3v/+NwYMHIzk5GZGRkZg/f767L+fTs2dPj30eU1JS3Jeku1gFBQVo3769OyQCQHp6OmJiYlBQUAAAmD17Nn7/+9/jV7/6FZ5++mmPTf0PPPAAnnzySQwaNAgLFizA119/fUl1UPDxy4ji2rVrkZ2djaVLl2LQoEF47bXXMHLkSBw6dAgdOnRo1L6wsBCjRo3CtGnT8NZbb+HLL7/E/fffjzZt2rj/i8zLy8OECRPwxBNPYNy4cVi3bh3Gjx+P7du3Y8CAAQCUsDl9+nT0798fDocD8+bNQ2ZmJg4dOoSIiAj3+kaMGIFVq1a57zdnx2K/4IgiEV0ko1aNQ48PD9i6W4IQotGJkBs2azdMHz16NNq3b4/XX38dqampkGUZvXr1ch9I0pzN4LIsY/To0Vi8eHGjeSkpKfjhhx8utytenfv9AwA7d+7Eb37zG/z1r3/F8OHDER0djTVr1lxwf8iGzb4NJElyb3q/WN6e819OX7hwISZOnIgPP/wQH330ERYsWIA1a9Zg3Lhx+P3vf4/hw4fjww8/xKZNm7Bo0SI899xzmDlz5iXVQ8HDL0Hx+eefx7333ovf//73AIAXX3wRn3zyCZYtW4ZFixY1av/qq6+iQ4cOePHFFwEAPXr0wJ49e/Dss8+6g+KLL76IW265BY888ggA4JFHHkFubi5efPFFvPvuuwCUnZ3PtWrVKiQmJiI/Px833HCDe7per0dycnKL9/uyuYMiRxSJqHkkSWqRzb+BlJ6ejpycHI+QsmPHDpjNZrRt2xbl5eUoKCjAa6+9hiFDhgAAtm/f3mgZ//znP1FXV+e+pu/OnTs92vTt2xc5OTno2LEjNJrGz9mVV14JrVaLnTt3ugc1zpw5g8OHD2Po0KEt1t8vv/wSaWlpmDdvnnva0aNHW2z5zZGeno6ioiIUFxe7RxUPHToEi8WCHj16uNt17doVXbt2xYMPPoi7774bq1atwrhx4wAA7du3R1ZWFrKysvDII4/g9ddfZ1AMAz7f9Gyz2ZCfn4/MzEyP6ZmZmdixY4fXx+Tl5TVqP3z4cOzZs8d9RNf52pxvmQBgsVgAKJsOzrVt2zYkJiaia9eumDZtWpND91arFZWVlR43n3FveuaIIhGFH4vFgv3793vcioqKcP/996O4uBgzZ87Ed999hw8++AALFizA7NmzoVKpEBsbi/j4eCxfvhw//vgjPvvsM8yePdtj2RMnToRKpcK9996LQ4cOYePGjXj22Wc92kyfPh2nT5/G3XffjV27duG///0vNm3ahN/97ndwOp2IjIzEvffeizlz5uDTTz/FN998g6lTp0KlatmvziuvvBJFRUVYs2YNjhw5gpdffrnRrlQtxel0NnrODx06hF/96le4+uqrcc8992Dv3r3YtWsXJk+ejKFDh6Jfv36oq6vDjBkzsG3bNhw9ehRffvkldu/e7Q6R2dnZ+OSTT1BYWIi9e/fis88+8wiYFLp8/m9nWVkZnE4nkpKSPKYnJSWhpKTE62NKSkq8tnc4HCgrK0NKSsp525xvmUIIzJ49G4MHD0avXr3c00eOHIlf//rXSEtLQ2FhIebPn4+bbroJ+fn50Ov1jZazaNEi/PWvf21W3y8bNz0TURjbtm0b+vTp4zFtypQpWL16NTZu3Ig5c+agd+/eiIuLw7333us+4EOlUmHNmjV44IEH0KtXL3Tr1g0vv/wyhg0b5l5OZGQk/u///g9ZWVno06cP0tPTsXjxYo+DYFJTU/Hll19i7ty5GD58OKxWK9LS0jBixAh3GPzb3/6G6upq3H777TCbzfjTn/7kHnRoKWPGjMGDDz6IGTNmwGq14tZbb8X8+fOxcOHCFl0PAFRXVzd6ztPS0vDTTz9h/fr1mDlzJm644QaoVCqMGDECf//73wEo538sLy/H5MmTcerUKSQkJOCOO+5wfx86nU5Mnz4dx44dQ1RUFEaMGHHBo7YpRAgfO378uAAgduzY4TH9ySefFN26dfP6mC5duoinnnrKY9r27dsFAHHy5EkhhBBarVa88847Hm3eeustodfrvS7z/vvvF2lpaaK4uLjJek+cOCG0Wq3IycnxOr++vl5YLBb3rbi4WAAQFoulyeVekvezhFgQJcT2F1t+2UQU8urq6sShQ4dEXV1doEshCklNfYYsFovvvt9DiM9HFBMSEqBWqxuN9JWWljYaEWyQnJzstb1Go0F8fHyTbbwtc+bMmdiwYQM+//zzC57WICUlBWlpaefdiVmv13sdafQJrUH5yRFFIiIiCgCf76Oo0+mQkZGBzZs3e0zfvHkzrr/+eq+PGThwYKP2mzZtQr9+/dxHeZ2vzbnLFEJgxowZeP/99/HZZ5+5T5/QlPLychQXFyMlJaVZ/fMpnh6HiIiIAsgv51GcPXs2/vGPf2DlypUoKCjAgw8+iKKiImRlZQFQjliePHmyu31WVhaOHj2K2bNno6CgACtXrsSKFSs8TlA6a9YsbNq0CYsXL8Z3332HxYsXY8uWLcjOzna3mT59Ot566y288847MJvNKCkpQUlJCerqlBG66upqPPTQQ8jLy8NPP/2Ebdu2YfTo0UhISHAfxRVQ3EeRiIiIAsgv51CYMGECysvL8fjjj+PkyZPo1asXNm7ciLS0NADKZZTOPbFop06dsHHjRjz44IN45ZVXkJqaipdfftljJ+Trr78ea9aswWOPPYb58+fjiiuuwNq1a93nUASUs+4D8NjBGVBOkzN16lSo1WocPHgQb775JioqKpCSkoIbb7wRa9euhdls9uEz0jwF5Q70AGCrq0GQnNmRiIiIWhFJiBa6OGcrVVlZiejoaFgsFkRFRbXosp97PBt/klfBcsXtiJ70zxZdNhGFvvr6ehQWFrqvekVEF6epz5Avv99Did8u4UcXz6lRNj0LG/dRJCIiIv9jUAxispr7KBIREVHgMCgGMcGDWYiIiCiAGBSDmKRx7S/hYFAkIrpcP/30EyRJwv79+y9rOcOGDfM4w4YvLFy4ENdcc437/tSpUzF27Fi/1OWP/lHoYFAMZjrlPIoqR32ACyEialnNCT6h6LnnnkN0dDRqaxvvW15fX4+YmBg8//zzF73cl156CatXr26BCs/atm0bJElCRUWFx/T3338fTzzxRIuu65daKrST7zEoBjHJdcJtlZMjikREoWDy5Mmoq6tDTk5Oo3k5OTmora3FpEmTLnq50dHRiImJaYEKLywuLi4oThFHwYFBMYhJrhFFtZMjikTUuuTm5uLaa6+FXq9HSkoKHn74YTgcDvf8jz/+GIMHD0ZMTAzi4+Nx22234ciRIx7L2LVrF/r06QODwYB+/fph3759jdZz6NAhjBo1CpGRkUhKSsKkSZNQVlbmnl9TU4PJkycjMjISKSkpeO6555qsu02bNhg9ejRWrlzZaN7KlStx++23o02bNpg7dy66du0Kk8mEzp07Y/78+bDb7edd7i9HYJtT11tvvYV+/frBbDYjOTkZEydORGlpKQBlRO/GG28EAMTGxkKSJEydOhVA403PZ86cweTJkxEbGwuTyYSRI0d6XOZ29erViImJwSeffIIePXogMjISI0aMwMmTJ5t8rppitVrxwAMPIDExEQaDAYMHD8bu3bs9arrnnnvQpk0bGI1GdOnSBatWrQIA2Gw2zJgxAykpKTAYDOjYsSMWLVp0ybW0dgyKQUylUw5m0XBEkYhakePHj2PUqFHo378/Dhw4gGXLlmHFihV48skn3W1qamowe/Zs7N69G59++ilUKhXGjRsHWZbd82+77TZ069YN+fn5WLhwocfVvQDlYg9Dhw7FNddcgz179uDjjz/GqVOnMH78eHebOXPmYOvWrVi3bh02bdqEbdu2IT8/v8n67733XuTm5qKwsNA97aeffsLWrVtx7733AgDMZjNWr16NQ4cO4aWXXsLrr7+OF154odnPUXPqstlseOKJJ3DgwAGsX78ehYWF7jDYvn1796jn999/j5MnT+Kll17yuq6pU6diz5492LBhA/Ly8iCEwKhRozyCbW1tLZ599ln885//xOeff46ioqJGz/fF+POf/4ycnBy88cYb2Lt3L6688koMHz4cp0+fBgDMnz8fhw4dwkcffYSCggIsW7YMCQkJAICXX34ZGzZswL/+9S98//33eOutt9CxY8dLrqXVE3RZLBaLACAsFkuLL/uF9duFWBCl3JzOFl8+EYW2uro6cejQIVFXV3d2oiwLYa0OzE2Wm137lClTxJgxY7zOe/TRR0W3bt2EfM7yXnnlFREZGSmc5/lbWFpaKgCIgwcPCiGEeO2110RcXJyoqalxt1m2bJkAIPbt2yeEEGL+/PkiMzPTYznFxcUCgPj+++9FVVWV0Ol0Ys2aNe755eXlwmg0ilmzZp23bw6HQ7Rt21b85S9/cU/7y1/+Itq2bSscDofXxzzzzDMiIyPDfX/BggWid+/e7vvnPl+XWteuXbsEAFFVVSWEEGLr1q0CgDhz5oxHu6FDh7qXc/jwYQFAfPnll+75ZWVlwmg0in/9619CCCFWrVolAIgff/zR3eaVV14RSUlJ562lsLDQ47U4V3V1tdBqteLtt992T7PZbCI1NVU888wzQgghRo8eLf7nf/7H67JnzpwpbrrpJo/3z/l4/Qy5+PL7PZT45RJ+dGnU+oizdxz17oNbiIjOy14LPJUamHU/egLQRVy43QUUFBRg4MCBkCTJPW3QoEGorq7GsWPH0KFDBxw5cgTz58/Hzp07UVZW5h5JLCoqQq9evVBQUIDevXvDZDr7d3PgwIEe68nPz8fWrVsRGRnZqIYjR46grq4ONpvN43FxcXHo1q1bk/Wr1WpMmTIFq1evxoIFCyBJEt544w33pWMB4N///jdefPFF/Pjjj6iurobD4Wj21T+OHDnSrLr27duHhQsXYv/+/Th9+rTHc5Sent6sdRUUFECj0XhcHjc+Ph7dunVDQUGBe5rJZMIVV1zhvp+SkuLezH2xjhw5ArvdjkGDBrmnabVaXHvtte513nfffbjzzjuxd+9eZGZmYuzYsbj++usBKCOgt9xyC7p164YRI0bgtttuQ2Zm5iXVQtz0HNS0+nOCIc+lSESthBDCIyQ2TAPgnj569GiUl5fj9ddfx1dffYWvvvoKgLK59dz2TZFlGaNHj8b+/fs9bj/88ANuuOGGZi3jfH73u9+huLgYn332GT799FMUFRXhf/7nfwAAO3fuxG9+8xuMHDkS//nPf7Bv3z7MmzfPXfuFNKeumpoaZGZmIjIyEm+99RZ2796NdevWAUCz19PUun75Gmm1Wo/5kiRd8vP3y9fa2zpHjhyJo0ePIjs7GydOnMDNN9/s3tTdt29fFBYW4oknnkBdXR3Gjx+Pu+6665JqIYAjikHMoNPCKrTQS3ZllADxgS6JiIKd1qSM7AVq3S0gPT0dOTk5HsFgx44dMJvNaNu2LcrLy1FQUIDXXnsNQ4YMAQBs37690TL++c9/oq6uDkajsr/3zp07Pdr07dsXOTk56NixIzSaxl+HV155JbRaLXbu3IkOHToAUA6iOHz4MIYOHdpkH6644goMHToUq1atghACw4YNc4+4ffnll0hLS8O8efPc7Y8ePdrs56c5dX333XcoKyvD008/jfbt2wMA9uzZ47EcnU4HAHA6neddV3p6OhwOB7766iv3iF15eTkOHz6MHj16NLvmi3HllVdCp9Nh+/btmDhxIgDAbrdjz549HgfZtGnTBlOnTsXUqVMxZMgQzJkzB88++ywAICoqChMmTMCECRNw1113YcSIETh9+jTi4uJ8UnM4Y1AMYkadGvXQQg+7sumZiOhCJKlFNv/6g8ViaXQevbi4ONx///148cUXMXPmTMyYMQPff/89FixYgNmzZ0OlUiE2Nhbx8fFYvnw5UlJSUFRUhIcffthjORMnTsS8efNw77334rHHHsNPP/3kDhENpk+fjtdffx1333035syZg4SEBPz4449Ys2YNXn/9dURGRuLee+/FnDlzEB8fj6SkJMybNw8qVfM2xt17772YNm0aAOAf//iHe/qVV16JoqIirFmzBv3798eHH37oHu1rjubU1aFDB+h0Ovz9739HVlYWvvnmm0bnRkxLS4MkSfjPf/6DUaNGwWg0NtoM36VLF4wZMwbTpk3Da6+9BrPZjIcffhht27bFmDFjml3z+Xz//feNpqWnp+O+++7DnDlzEBcXhw4dOuCZZ55BbW2t+2Cgv/zlL8jIyEDPnj1htVrxn//8xx1cX3jhBaSkpOCaa66BSqXCe++9h+TkZL+dXijsBGbXyPDhy51d1+87Jk7+JU05mOXE/hZfPhGFtqZ2xA92U6ZMEQAa3aZMmSKEEGLbtm2if//+QqfTieTkZDF37lxht9vdj9+8ebPo0aOH0Ov14uqrrxbbtm0TAMS6devcbfLy8kTv3r2FTqcT11xzjcjJyWl0AMXhw4fFuHHjRExMjDAajaJ79+4iOzvbfSBEVVWV+O1vfytMJpNISkoSzzzzjMfBHk2pra0V0dHRIjo6WtTW1nrMmzNnjoiPjxeRkZFiwoQJ4oUXXhDR0dHu+U0dzNLcut555x3RsWNHodfrxcCBA8WGDRsa9f/xxx8XycnJQpIk93P/y+WcPn1aTJo0SURHRwuj0SiGDx8uDh8+7J6/atUqj9qFEGLdunWiqYjRcDCLt1thYaGoq6sTM2fOFAkJCUKv14tBgwaJXbt2uR//xBNPiB49egij0Sji4uLEmDFjxH//+18hhBDLly8X11xzjYiIiBBRUVHi5ptvFnv37vVaBw9muTBJiMvYCYNQWVmJ6OhoWCyWZu+I3FybD53ClWuGoJPqFPC7T4AO17Xo8okotNXX16OwsBCdOnWCwWAIdDlEIaepz5Avv99DCQ9mCWJGrRr10Ct37I0vB0VERETkSwyKQcyoU6EOys7GPOqZiIiI/I1BMYgZtGrUiYYRRQZFIiIi8i8GxSBm1KrPGVHkpmciIiLyLwbFIKacHocjikRERBQYDIpBzKTVoE64Tohq44giEXnHk1cQXRp+di6MQTGIGXQq1Ls2PTvqawJcDREFm4bLptXW8h9JokvR8Nn55SUI6SxemSWI6dQq96Znh7W2YSM0EREAQK1WIyYmBqWlpQAAk8nU6Pq4RNSYEAK1tbUoLS1FTEwM1Gp1oEsKWgyKQUySJDjUyglAnVaOKBJRY8nJyQDgDotE1HwxMTHuzxB5x6AY5BxqAyADMvdRJCIvJElCSkoKEhMTYbfbA10OUcjQarUcSWwGBsUg52RQJKJmUKvV/NIjohbHg1mCnKwxKr/YeHocIiIi8i8GxSAn1K6g6OCIIhEREfkXg2KQk7WuoMgTbhMREZGfMSgGOUmrHPUsOeoDXAkRERG1NgyKQU7SmgAAKgdHFImIiMi/GBSDnKRTgqLayRFFIiIi8i8GxSCnYlAkIiKiAGFQDHJqV1DUMCgSERGRnzEoBjm1IQIAoBVWQJYDXA0RERG1JgyKQU6tjzh7hwe0EBERkR8xKAY5ncF09g7PpUhERER+xKAY5Iw6LeqFVrlj59VZiIiIyH8YFIOcUadGPXTKHTsPaCEiIiL/YVAMcgatGnXQK3c4okhERER+xKAY5IxaNepEw4gi91EkIiIi/2FQDHLKpmeOKBIREZH/MSgGOaNWjTpwRJGIiIj8j0ExyBl13PRMREREgcGgGOSMPJiFiIiIAoRBMcgZtWdPj+O0MSgSERGR/zAoBjll07MyouiwMigSERGR/zAoBjm9RgWrpIwoOuprAlwNERERtSYMikFOkiTYVQYAgJMjikRERORHDIohwNEQFLmPIhEREfkRg2IIcKiVoCgzKBIREZEfMSiGAFljBAAIBkUiIiLyIwbFECC7RhR5HkUiIiLyJwbFECC0yogir8xCRERE/sSgGAKExgQAkBwMikREROQ/DIohQNIqm54lR32AKyEiIqLWhEExBEg6ZURRzRFFIiIi8iMGxRAgaV1B0ckRRSIiIvIfBsUQoNIzKBIREZH/MSiGAI0+AgCglRkUiYiIyH8YFEOAxqCMKGqEDZCdAa6GiIiIWgsGxRCgdo0oAuC5FImIiMhvGBRDgM61jyIAXp2FiIiI/IZBMQQY9RrUCL1yx1YT2GKIiIio1WBQDAFGrRq1YFAkIiIi/2JQDAFGnQa1Qrk6Czc9ExERkb8wKIYAzxHF6sAWQ0RERK0Gg2IIUIKia0TRxhFFIiIi8g8GxRBg1KlQy4NZiIiIyM8YFEOA4dwRRTuDIhEREfkHg2IIMOk07n0UZSv3USQiIiL/8FtQXLp0KTp16gSDwYCMjAx88cUXTbbPzc1FRkYGDAYDOnfujFdffbVRm5ycHKSnp0Ov1yM9PR3r1q3zmL9o0SL0798fZrMZiYmJGDt2LL7//nuPNkIILFy4EKmpqTAajRg2bBi+/fbby+9wCzJq1e6jnh11DIpERETkH34JimvXrkV2djbmzZuHffv2YciQIRg5ciSKioq8ti8sLMSoUaMwZMgQ7Nu3D48++igeeOAB5OTkuNvk5eVhwoQJmDRpEg4cOIBJkyZh/Pjx+Oqrr9xtcnNzMX36dOzcuRObN2+Gw+FAZmYmamrObr595pln8Pzzz2PJkiXYvXs3kpOTccstt6Cqqsp3T8hF0mtUqHFterbXMygSERGRf0hCCOHrlQwYMAB9+/bFsmXL3NN69OiBsWPHYtGiRY3az507Fxs2bEBBQYF7WlZWFg4cOIC8vDwAwIQJE1BZWYmPPvrI3WbEiBGIjY3Fu+++67WOn3/+GYmJicjNzcUNN9wAIQRSU1ORnZ2NuXPnAgCsViuSkpKwePFi/PGPf7xg3yorKxEdHQ2LxYKoqKjmPSGXYOmC3+F+KQdVV02B+c6XfbYeIiIi8t/3e7Dz+YiizWZDfn4+MjMzPaZnZmZix44dXh+Tl5fXqP3w4cOxZ88e2O32Jtucb5kAYLFYAABxcXEAlJHLkpISj+Xo9XoMHTr0vMuxWq2orKz0uPmDXa1c79lp5cEsRERE5B8+D4plZWVwOp1ISkrymJ6UlISSkhKvjykpKfHa3uFwoKysrMk251umEAKzZ8/G4MGD0atXL/cyGh7X3OUsWrQI0dHR7lv79u29tmtpssYIABA8mIWIiIj8xG8Hs0iS5HFfCNFo2oXa/3L6xSxzxowZ+Prrr71ulr6Y5TzyyCOwWCzuW3Fx8Xn70JKcmgilNp5HkYiIiPxE4+sVJCQkQK1WNxqhKy0tbTSS1yA5Odlre41Gg/j4+CbbeFvmzJkzsWHDBnz++edo166dx3oAZWQxJSWlWbXp9Xro9frzdddnhFbZ9CwxKBIREZGf+HxEUafTISMjA5s3b/aYvnnzZlx//fVeHzNw4MBG7Tdt2oR+/fpBq9U22ebcZQohMGPGDLz//vv47LPP0KlTJ4/2nTp1QnJyssdybDYbcnNzz1tbwOiUEUXJzkv4ERERkX/4fEQRAGbPno1JkyahX79+GDhwIJYvX46ioiJkZWUBUDbnHj9+HG+++SYA5QjnJUuWYPbs2Zg2bRry8vKwYsUKj83Gs2bNwg033IDFixdjzJgx+OCDD7BlyxZs377d3Wb69Ol455138MEHH8BsNrtHIKOjo2E0GiFJErKzs/HUU0+hS5cu6NKlC5566imYTCZMnDjRH09Ns0muoKhyMCgSERGRf/glKE6YMAHl5eV4/PHHcfLkSfTq1QsbN25EWloaAODkyZMe51Ts1KkTNm7ciAcffBCvvPIKUlNT8fLLL+POO+90t7n++uuxZs0aPPbYY5g/fz6uuOIKrF27FgMGDHC3aTgdz7BhwzzqWbVqFaZOnQoA+POf/4y6ujrcf//9OHPmDAYMGIBNmzbBbDb76Nm4NJI+EgCgZlAkIiIiP/HLeRTDmb/Os/Tivz5G9qEJsKojoJ9/wmfrISIiIp5HsQGv9RwiVHpl07POWQsw2xMREZEfMCiGCK1B2RQuQQCO+gBXQ0RERK0Bg2KI0Bkjzt7hKXKIiIjIDxgUQ4TJoEed0Cl3GBSJiIjIDxgUQ4RJp0YtXCf6ZlAkIiIiP2BQDBEROg1qhUG5w5NuExERkR8wKIYIk/7cEcXqwBZDRERErQKDYoiI0GlQC9eIIjc9ExERkR8wKIaICL0aNaJhRJGbnomIiMj3GBRDhEmnQZ17RJGbnomIiMj3GBRDhEmnRo1rH0WHlZueiYiIyPcYFEOESadBrWvTs6OuKsDVEBERUWvAoBgidBoV6iUjAMBez03PRERE5HsMiiHEoVaCopNBkYiIiPyAQTGENARFmfsoEhERkR8wKIYQp9YEABBWjigSERGR7zEohhBZ4wqKPD0OERER+QGDYgiRtZEAAInXeiYiIiI/YFAMIZJOGVFkUCQiIiJ/YFAMJTplRFHlYFAkIiIi32NQDCEqvTKiqGFQJCIiIj9gUAwhKr0ZAKBx1gW4EiIiImoNGBRDiNYQofx01gFCBLgaIiIiCncMiiFEY1RGFNVwAk5bgKshIiKicMegGEJ0xsizd2y8OgsRERH5FoNiCDEaDLAKrXKHJ90mIiIiH2NQDCEROjVqoFfu2HjkMxEREfkWg2IIMek1qIVBucNNz0RERORjDIohJEKnRq1wjSjaGRSJiIjItxgUQ4hJp0Gte9MzgyIRERH5FoNiCDHp1KgV3PRMRERE/sGgGEJMerV7RFG2MigSERGRbzEohpAI3dmDWRz1PD0OERER+RaDYggxas8ezGKvqwpwNURERBTuGBRDiEolwaY2AgAc9QyKRERE5FsMiiHGoVKCopP7KBIREZGPMSiGGIfGBACQrdxHkYiIiHyLQTHEODURAHjUMxEREfkeg2KIEVpl0zPPo0hERES+xqAYYmRtJABAstcGuBIiIiIKdwyKoUar7KOo4rWeiYiIyMcYFEOMpFf2UVQ5OKJIREREvsWgGGJUrqCoYVAkIiIiH2NQDDEqg7KPosZZF+BKiIiIKNwxKIYYjSEKAKBz1gJCBLgaIiIiCmcMiiFGbYxWfsIJ8MhnIiIi8iEGxRCjN5nhFJJyp74ysMUQERFRWGNQDDEmvQbVcJ1028qgSERERL7DoBhiInQaVEE5lyKsVYEthoiIiMIag2KIMenVqBKuoFhvCWwxREREFNYYFEOMSadBpXtEkZueiYiIyHcYFENMhE6NauHaR5EHsxAREZEPMSiGmAi9BlWug1kERxSJiIjIhxgUQ4zZoHHvo+io5T6KRERE5DsMiiEmQqdBtWsfRXtNRWCLISIiorDGoBhiVCoJNk0EAMBRxxFFIiIi8h0GxRBk15gBAHId91EkIiIi32FQDEFOnRIUBY96JiIiIh9iUAxBQhcFAJB41DMRERH5EINiCJIMyoiiysZL+BEREZHvMCiGIJUxGgCgcVQHuBIiIiIKZwyKIUjtCopaBkUiIiLyIQbFEKSJcAVF2Qo4bAGuhoiIiMIVg2II0puiz96xcj9FIiIi8g0GxRBkNhlRI/TKHStPuk1ERES+waAYgswGDapcl/EDz6VIREREPsKgGILMBg2qhCso8lyKRERE5CMMiiHIbNCiGkblDvdRJCIiIh9hUAxBUQYNqoQrKHLTMxEREflIk0GxuLgYx44dc9/ftWsXsrOzsXz5cp8XRucXZdSi0rWPoqjnwSxERETkG00GxYkTJ2Lr1q0AgJKSEtxyyy3YtWsXHn30UTz++ON+KZAaO3cfRXttRWCLISIiorDVZFD85ptvcO211wIA/vWvf6FXr17YsWMH3nnnHaxevfqiVrR06VJ06tQJBoMBGRkZ+OKLL5psn5ubi4yMDBgMBnTu3BmvvvpqozY5OTlIT0+HXq9Heno61q1b5zH/888/x+jRo5GamgpJkrB+/fpGy5g6dSokSfK4XXfddRfVN38zatWokZRNz7YabnomIiIi32gyKNrtduj1yvn6tmzZgttvvx0A0L17d5w8ebLZK1m7di2ys7Mxb9487Nu3D0OGDMHIkSNRVFTktX1hYSFGjRqFIUOGYN++fXj00UfxwAMPICcnx90mLy8PEyZMwKRJk3DgwAFMmjQJ48ePx1dffeVuU1NTg969e2PJkiVN1jdixAicPHnSfdu4cWOz+xYIkiTBpokEADjqKgJbDBEREYUtSQghzjdzwIABuPHGG3HrrbciMzMTO3fuRO/evbFz507cddddHvsvNmXAgAHo27cvli1b5p7Wo0cPjB07FosWLWrUfu7cudiwYQMKCgrc07KysnDgwAHk5eUBACZMmIDKykp89NFH7jYjRoxAbGws3n333cYdlSSsW7cOY8eO9Zg+depUVFRUeB1tbI7KykpER0fDYrEgKirqkpZxKV763wcxy74Spzvdhrgpb/ttvURERK1BoL7fg02TI4qLFy/Ga6+9hmHDhuHuu+9G7969AQAbNmxwb5K+EJvNhvz8fGRmZnpMz8zMxI4dO7w+Ji8vr1H74cOHY8+ePbDb7U22Od8ym7Jt2zYkJiaia9eumDZtGkpLSy96Gf4m65Q3reBRz0REROQjmqZmDhs2DGVlZaisrERsbKx7+h/+8AeYTKZmraCsrAxOpxNJSUke05OSklBSUuL1MSUlJV7bOxwOlJWVISUl5bxtzrfM8xk5ciR+/etfIy0tDYWFhZg/fz5uuukm5Ofnuze7n8tqtcJqtbrvV1YGJqjJOjNQA0g8jyIRERH5SJNBsa6uDkIId0g8evQo1q1bhx49emD48OEXtSJJkjzuCyEaTbtQ+19Ov9hlejNhwgT377169UK/fv2QlpaGDz/8EHfccUej9osWLcJf//rXi1qHTxiUEUWVjSOKRERE5BtNbnoeM2YM3nzzTQBARUUFBgwYgOeeew5jx4712N+wKQkJCVCr1Y1G+kpLSxuNCDZITk722l6j0SA+Pr7JNudbZnOlpKQgLS0NP/zwg9f5jzzyCCwWi/tWXFx8Weu7VJIrKGrs1QFZPxEREYW/JoPi3r17MWTIEADAv//9byQlJeHo0aN488038fLLLzdrBTqdDhkZGdi8ebPH9M2bN+P666/3+piBAwc2ar9p0yb069cPWq22yTbnW2ZzlZeXo7i4GCkpKV7n6/V6REVFedwCQWOMAQBoHdz0TERERL7R5Kbn2tpamM1mAEoIu+OOO6BSqXDdddfh6NGjzV7J7NmzMWnSJPTr1w8DBw7E8uXLUVRUhKysLADKKN3x48fdo5dZWVlYsmQJZs+ejWnTpiEvLw8rVqzwOJp51qxZuOGGG7B48WKMGTMGH3zwAbZs2YLt27e721RXV+PHH3903y8sLMT+/fsRFxeHDh06oLq6GgsXLsSdd96JlJQU/PTTT3j00UeRkJCAcePGNbt/gaA1RQMA9M5aQJYBFa/GSERERC1MNOGqq64SL730kigqKhJRUVFix44dQggh9uzZI5KSkpp6aCOvvPKKSEtLEzqdTvTt21fk5ua6502ZMkUMHTrUo/22bdtEnz59hE6nEx07dhTLli1rtMz33ntPdOvWTWi1WtG9e3eRk5PjMX/r1q0CQKPblClThBBC1NbWiszMTNGmTRuh1WpFhw4dxJQpU0RRUVGz+2WxWAQAYbFYmv9ktIAVnx0SYkGUcqur8Ou6iYiIwl2gvt+DTZPnUfz3v/+NiRMnwul04qabbnJv6l20aBE+//xzj3MYtlaBOs/Sml1FGPdhH+glB5D9DRDT3m/rJiIiCnc8j6KiyU3Pd911FwYPHoyTJ0+6z6EIADfffHPQb5oNd2aDFlUwQY9KwMojn4mIiKjlNRkUAeXo4uTkZBw7dgySJKFt27bNPtk2+Y7ZoEGVMCJBqgR4LkUiIiLygSaPgJBlGY8//jiio6ORlpaGDh06ICYmBk888QRkWfZXjeRFlFGLahiVO7w6CxEREflAkyOK8+bNw4oVK/D0009j0KBBEELgyy+/xMKFC1FfX4///d//9Ved9AtmgwanhOvqONz0TERERD7QZFB844038I9//AO33367e1rv3r3Rtm1b3H///QyKAWQ2aPAjlKAo11maHhomIiIiugRN5ovTp0+je/fujaZ3794dp0+f9llRdGFRroNZAMBeWxHYYoiIiCgsNRkUe/fujSVLljSavmTJElx99dU+K4ouTK9Roda1j6KtxhLgaoiIiCgcNbnp+ZlnnsGtt96KLVu2YODAgZAkCTt27EBxcTE2btzorxrJC0mSYNNEAgJwcESRiIiIfKDJEcWhQ4fi8OHDGDduHCoqKnD69Gnccccd+Pbbb7Fq1Sp/1UjnYdcql1d01nFEkYiIiFreBc+jmJqa2uiglQMHDuCNN97AypUrfVYYXZhDawZsgOB5FImIiMgHeLBsCBO6SACAxPMoEhERkQ8wKIYyg3LtSZWNI4pERETU8hgUQ5khFgCgsXNEkYiIiFqe130U77jjjiYfVFFR4Yta6CKpTHEAAJ2dB7MQERFRy/MaFKOjo5t8UHR0NCZPnuyTgqj51BHKiKLBWQM47YBaG+CKiIiIKJx4DYo89U1o0EXEnL1TbwEiEgJWCxEREYUf7qMYwswRRlQK5TJ+qDsT2GKIiIgo7DAohrAogwYVIkK5U1cR0FqIiIgo/DAohjCzQQsLGoIiRxSJiIioZTEohrBooxYVQjnpNoMiERERtTQGxRAWY9LCAiUoirrTAa6GiIiIwg2DYgiLNenc+yg6ajiiSERERC2LQTGEmXRqVEpmAIC1qjzA1RAREVG4YVAMYZIkwaZVrvfsqOamZyIiImpZDIohzqFTrqLDfRSJiIiopTEohjjZEKP8wqOeiYiIqIUxKIY4YYgDAKislgBXQkREROGGQTHEaVzXe9baGBSJiIioZTEohjhtpDKiaLBXAkIEuBoiIiIKJwyKIU5nTgAAqOAErFUBroaIiIjCCYNiiIuMNKNeaJU7PKCFiIiIWhCDYoiLNelQ4bqMH+orAloLERERhRcGxRAXY9LC4rqMH0cUiYiIqCUxKIa4aKP27IgigyIRERG1IAbFEBcboXOPKIpaBkUiIiJqOQyKIS7GqEWFUEYU7TXlAa6GiIiIwgmDYogz6dSolJSgaKvi9Z6JiIio5TAohjhJkmDTRgEA7NUMikRERNRyGBTDgF0XDQCQaxkUiYiIqOUwKIYBWR+j/MKjnomIiKgFMSiGAWGMBQCorBWBLYSIiIjCCoNiGFCblKCosVUGuBIiIiIKJwyKYUATEQcA0NstAa6EiIiIwgmDYhjQRSUoP+V6wF4f4GqIiIgoXDAohgGTOQZOISl36isCWgsRERGFDwbFMBBjMsAC5TJ+PPKZiIiIWgqDYhiIMWnd13tGXUVAayEiIqLwwaAYBmJMWligXMaPI4pERETUUhgUw0CMSYcKoQRFUcersxAREVHLYFAMAzFGLSpc+yjaeL1nIiIiaiEMimHApFOj2rXp2VrFoEhEREQtg0ExDEiShHptFADAUV0e4GqIiIgoXDAohgmbNhoA4KzhiCIRERG1DAbFMCEblOs9gwezEBERUQthUAwTDmM8AEBdx03PRERE1DIYFMOFSbnes97KoEhEREQtg0ExTKijkgAABvsZQJYDXA0RERGFAwbFMKExJwIA1MIJ1FcEthgiIiIKCwyKYSIq0gSLMCl3asoCWwwRERGFBQbFMBEfoUOZUE6Rg5qfA1sMERERhQUGxTCREKlHOZSTbjMoEhERUUtgUAwTCZF6lAsGRSIiImo5DIphIj5S5w6K9spTAa6GiIiIwgGDYpiI1GtQoYoBANRXMCgSERHR5WNQDBOSJMGqiwMAOKpKA1wNERERhQMGxTDicF2dhfsoEhERUUtgUAwnrqDI6z0TERFRS2BQDCNqs3IZPx2v90xEREQtgEExjOijlcv4GRxVgMMW4GqIiIgo1DEohpHImATYhVq5U8vL+BEREdHlYVAMI/FmI07DrNzhAS1ERER0mRgUw0hCpA7lvN4zERERtRC/BcWlS5eiU6dOMBgMyMjIwBdffNFk+9zcXGRkZMBgMKBz58549dVXG7XJyclBeno69Ho90tPTsW7dOo/5n3/+OUaPHo3U1FRIkoT169c3WoYQAgsXLkRqaiqMRiOGDRuGb7/99rL6GihtIvUoa7iMXzWDIhEREV0evwTFtWvXIjs7G/PmzcO+ffswZMgQjBw5EkVFRV7bFxYWYtSoURgyZAj27duHRx99FA888ABycnLcbfLy8jBhwgRMmjQJBw4cwKRJkzB+/Hh89dVX7jY1NTXo3bs3lixZct7annnmGTz//PNYsmQJdu/ejeTkZNxyyy2oqqpquSfATxIi9SiHEhR50m0iIiK6XJIQQvh6JQMGDEDfvn2xbNky97QePXpg7NixWLRoUaP2c+fOxYYNG1BQUOCelpWVhQMHDiAvLw8AMGHCBFRWVuKjjz5ytxkxYgRiY2Px7rvvNlqmJElYt24dxo4d654mhEBqaiqys7Mxd+5cAIDVakVSUhIWL16MP/7xjxfsW2VlJaKjo2GxWBAVFXXhJ8OHZFlg1YKJuFe9EdUZ9yNydOPnloiIiC4smL7fA8nnI4o2mw35+fnIzMz0mJ6ZmYkdO3Z4fUxeXl6j9sOHD8eePXtgt9ubbHO+ZXpTWFiIkpISj+Xo9XoMHTr0vMuxWq2orKz0uAULlUpCnTYWAGCv5IgiERERXR6fB8WysjI4nU4kJSV5TE9KSkJJSYnXx5SUlHht73A4UFZW1mSb8y3zfOtpeFxzl7No0SJER0e7b+3bt2/2+vzBbogHAMjcR5GIiIguk98OZpEkyeO+EKLRtAu1/+X0i11mS9T2yCOPwGKxuG/FxcUXvT5fkiOUk25LtQyKREREdHk0vl5BQkIC1Gp1oxG60tLSRiN5DZKTk72212g0iI+Pb7LN+ZZ5vvUAyshiSkpKs5aj1+uh1+ubvQ5/U0UkAD8D2vrTgS6FiIiIQpzPRxR1Oh0yMjKwefNmj+mbN2/G9ddf7/UxAwcObNR+06ZN6NevH7RabZNtzrdMbzp16oTk5GSP5dhsNuTm5l7UcoKJNloJuEbbacD3xykRERFRGPP5iCIAzJ49G5MmTUK/fv0wcOBALF++HEVFRcjKygKgbM49fvw43nzzTQDKEc5LlizB7NmzMW3aNOTl5WHFihUeRzPPmjULN9xwAxYvXowxY8bggw8+wJYtW7B9+3Z3m+rqavz444/u+4WFhdi/fz/i4uLQoUMHSJKE7OxsPPXUU+jSpQu6dOmCp556CiaTCRMnTvTHU9PijDHKpmeNsAHWKsDQeo/UIiIiossk/OSVV14RaWlpQqfTib59+4rc3Fz3vClTpoihQ4d6tN+2bZvo06eP0Ol0omPHjmLZsmWNlvnee++Jbt26Ca1WK7p37y5ycnI85m/dulUAaHSbMmWKu40sy2LBggUiOTlZ6PV6ccMNN4iDBw82u18Wi0UAEBaLpdmP8aWc/GJR9ZdEIRZECVH2Y6DLISIiCknB9v0eKH45j2I4C7bzLH1++GekvXU90lSlwO8+ATpcF+iSiIiIQk6wfb8HCq/1HGbiI3Xuq7Pwes9ERER0ORgUw0ybSD3KRTQAnkuRiIiILg+DYpiJizg7olhX0fyTjxMRERH9EoNimNGoVajRKJfxszEoEhER0WVgUAxDdfoEAICz8mSAKyEiIqJQxqAYhqxG5YozqmqOKBIREdGlY1AMQ8KsXI5QV3sqwJUQERFRKGNQDEOq6FQAgMlaBsjOAFdDREREoYpBMQwZY5PhFBJUcPJcikRERHTJGBTDUFJMJH5GjHKn8kRAayEiIqLQxaAYhpKjDTgllFPkoIpHPhMREdGlYVAMQynRRndQFDxFDhEREV0iBsUwlBxlQImIAwDYKo4HuBoiIiIKVQyKYcioU6NCo5x0u778WICrISIiolDFoBimrMYkAIBs4YgiERERXRoGxTAlu066zauzEBER0aViUAxTGtdJtw11vDoLERERXRoGxTBliGsHANA7qwFbTYCrISIiolDEoBim4uPiUSP0yp0qbn4mIiKii8egGKaSY4zuU+Tw6ixERER0KRgUwxSvzkJERESXi0ExTKVEGVECZUTRzpNuExER0SVgUAxTUUYNyqV4AEBdWXGAqyEiIqJQxKAYpiRJQp0hEQBHFImIiOjSMCiGMUdEMgBA4j6KREREdAkYFMOYOlq5Oou2lifdJiIioovHoBjGtLHKSbdN1p8BWQ5wNURERBRqGBTDmDkhFbKQoIYTqC0LdDlEREQUYhgUw1hSjBlliFbu8KTbREREdJEYFMNYcrQBJTzpNhEREV0iBsUwplydRTnpttPCU+QQERHRxWFQDGMJEXocRxsAQF3J4QBXQ0RERKGGQTGMqVQSTuqvAADIJ78JcDVEREQUahgUw9zpqG4AAEP5t4AQAa6GiIiIQgmDYpizxXWDQ6igs1XwyGciIiK6KAyKYa5DYix+FG2VOyUHA1sMERERhRQGxTDXMzUKh0SacodBkYiIiC4Cg2KY65kajUOyEhTlk18HuBoiIiIKJQyKYa5drBFHtZ0BAPYTBwJcDREREYUSBsUwJ0kSpKSrAAD6yqNAfWWAKyIiIqJQwaDYCnRo3x4nXFdowalvA1sMERERhQwGxVagV9uz+ynygBYiIiJqLgbFVuDcI59lBkUiIiJqJgbFVqBzm0j8KHUCANiO8YAWIiIiah4GxVZArZJgb9MLAKAtLwCcjgBXRERERKGAQbGVSGjfBVXCCLVsA8p/CHQ5REREFAIYFFuJnm1jz16hpXhXYIshIiKikMCg2Er0TI3GF07lfIri+40BroaIiIhCAYNiK9E1ORKfor9y58hWwFod2IKIiIgo6DEothJ6jRpo0wM/yUmQnFbgyGeBLomIiIiCHINiK3LdFfHYJPdT7nz3YWCLISIioqDHoNiKjOyVgk3ODACAOPwx4LQHuCIiIiIKZgyKrUhGWiyKTD1RJqIg1VcAR3cEuiQiIiIKYgyKrYhaJeHmnm2xxdlXmcDNz0RERNQEBsVWZmSvZPd+iuK7DwEhAlwRERERBSsGxVbmus7xOKi7BjVCD6nyGHByf6BLIiIioiDFoNjK6DQqDElvj21yb2XCoQ8CWxAREREFLQbFVmhEz2RsdF4HABDfrufmZyIiIvKKQbEVuqFrG3ylyUCd0EE6UwiUHAx0SURERBSEGBRbIYNWjeu6dzhn8/P6gNZDREREwYlBsZW67epUbHQOAMDNz0REROQdg2IrNaxbG3yl7Q+r0EI6fQQ49U2gSyIiIqIgw6DYShm0agxK78ijn4mIiOi8GBRbsduuTsGH3PxMRERE58Gg2IoN6dIGu3Wuzc/lPwD/3RbokoiIiCiIMCi2YjqNCkN6dcY7zpuUCVsWArIc0JqIiIgoeDAotnK3XZ2KJY6xqIFBuZwfT5VDRERELgyKrdz1V8RDZU7EcvutyoTPngCc9sAWRUREREGBQbGV06hVmHVzF/zDOQrliAZO/xfY+0agyyIiIqIgwKBI+E3/9khuk4CX7GOVCVsXAVWnAloTERERBR6DIkGjVuGRkT3wrvNmfC/aA7VlwPvTANkZ6NKIiIgogPwWFJcuXYpOnTrBYDAgIyMDX3zxRZPtc3NzkZGRAYPBgM6dO+PVV19t1CYnJwfp6enQ6/VIT0/HunXrLnq9U6dOhSRJHrfrrrvu8jobgm7ukYiMzom43/YArJIBKMwFPn820GURERFRAPklKK5duxbZ2dmYN28e9u3bhyFDhmDkyJEoKiry2r6wsBCjRo3CkCFDsG/fPjz66KN44IEHkJOT426Tl5eHCRMmYNKkSThw4AAmTZqE8ePH46uvvrro9Y4YMQInT5503zZu3OibJyKISZKEeaPScUS0xSPWqcrEbYuA/+YGtC4iIiIKHEkI31+OY8CAAejbty+WLVvmntajRw+MHTsWixYtatR+7ty52LBhAwoKCtzTsrKycODAAeTl5QEAJkyYgMrKSnz00UfuNiNGjEBsbCzefffdZq936tSpqKiowPr16y+pb5WVlYiOjobFYkFUVNQlLSOYPP3Rd3g19wie07+OO6WtQEQikLUdMCcFujQiIiK/Cbfv90vl8xFFm82G/Px8ZGZmekzPzMzEjh07vD4mLy+vUfvhw4djz549sNvtTbZpWObFrHfbtm1ITExE165dMW3aNJSWll58R8PEQ5ldcV3nOMyzTkahKg2oKQXe/z33VyQiImqFfB4Uy8rK4HQ6kZTkOSKVlJSEkpISr48pKSnx2t7hcKCsrKzJNg3LbO56R44cibfffhufffYZnnvuOezevRs33XQTrFar19qsVisqKys9buFEo1bh73f3RZQ5Cr+vm+HaX/Fz4PO/Bbo0IiIi8jO/HcwiSZLHfSFEo2kXav/L6c1Z5oXaTJgwAbfeeit69eqF0aNH46OPPsLhw4fx4Ycfeq1r0aJFiI6Odt/at29/3j6EqjZmPZbe0xdHpXaYa/2dMnHb08CPWwJbGBEREfmVz4NiQkIC1Gp1o9HD0tLSRqN9DZKTk72212g0iI+Pb7JNwzIvZb0AkJKSgrS0NPzwww9e5z/yyCOwWCzuW3Fx8XmXFcr6dYzDI6N6YL08GP9y3ghAAO9MAL58mdeDJiIiaiV8HhR1Oh0yMjKwefNmj+mbN2/G9ddf7/UxAwcObNR+06ZN6NevH7RabZNtGpZ5KesFgPLychQXFyMlJcXrfL1ej6ioKI9buPrdoI649aoUzLdPwRbV9YDsADbPB94ZD1T/HOjyiIiIyMf8sul59uzZ+Mc//oGVK1eioKAADz74IIqKipCVlQVAGaWbPHmyu31WVhaOHj2K2bNno6CgACtXrsSKFSvw0EMPudvMmjULmzZtwuLFi/Hdd99h8eLF2LJlC7Kzs5u93urqajz00EPIy8vDTz/9hG3btmH06NFISEjAuHHj/PHUBDVJkrD4rqvRtk0sfl87HS8a74es1gM/bgaWZAC7V/AgFyIionAm/OSVV14RaWlpQqfTib59+4rc3Fz3vClTpoihQ4d6tN+2bZvo06eP0Ol0omPHjmLZsmWNlvnee++Jbt26Ca1WK7p37y5ycnIuar21tbUiMzNTtGnTRmi1WtGhQwcxZcoUUVRU1Ox+WSwWAUBYLJZmPybUHC6pFBlPbBZpc/8jbpv3qih79lohFkQpt9eGCVG4PdAlEhERtajW8P3eHH45j2I4ay3nWfq5yoo5/z6Abd//DDWcmJ+Yh0n1/4TaVqU06HwjcOM8oF0/oImDlIiIiEJBa/l+vxAGxcvUmt5IQgis3vETnv7oO1gdMpJVFViSugkZp/8DSXYojRK6Aj1uB3qOBZKvCmi9REREl6o1fb83hUHxMrXGN1Lx6Vo8+eEhfPLtKQBAV105nk36BFed3gTJaTvbMKkX0Ptu4Kpf88ouREQUUlrj97s3DIqXqTW/kT4//DOe/ug7HDqpnHQ8QWvF/ak/YoTqK6SUfgHJec5Jy5OvUjZPdxoKtMsAjLEBqpqIiOjCWvP3+7kYFC9Ta38jCSGw+dApvPTpD/j2xNmr1CSoazE79RuMcm5FzOkDjR+Y0BVo0x0wpwDmZCA2DYi7Aoi/AtCb/dgDIiKixlr793sDBsXLxDeSQgiBr49Z8Mm3Jfj42xL89+ca97yO+mr8NrEQwzTfoEPNQegqf2p6YYZowJyqBMioVCVMRiYCkAAhA2oNYEoAItq4bgmAIQZQ+ehsT04H4KgDtCZApfbNOojIf2RZOeiOB961HCEAWw3gtAH6KOXvdAPZCUDy3d9oH+H3u4JB8TLxjdSYEAKHTlZi3d7jWL//BMqqPa+b3VZXg9HxJ9DTVIEkqQJtRDnibMcRWX0U6rqyS1upSgNojMpJwWW7Mk1SK8FOUit/oFQa102rTFdrz95Xaxr/bq8HLMVA5XEloAKAWg9ojUpobPipM3lO0xgB4QScdqUWp6smp+3s70IAap1Sg5CBeotyU2uVcBzVVvkSq68ErFXK8txcX26S5Fp/BKDRAw4rYK8D7LWun3VKDapznweN63fVOb83TFed/V1SAU6r8hw4rcp9SaWsW7Yry3X3r+FmU55/rRGITFLCvewAak8rN60BMMW7djuQlD7JznN+ymfvO6yAtRKoq1CeK2OM8jiN3vU82pXnSh+ljEA7rGefw4abvVb5ZyMmDYhKUfpirVJCf8N7Q3YCtmrXcywDukhAH6n81EUqz629Fqj52dUHo1KHIQaw1yj1Nbw+QlYCiHDdJJVrWRHK+mw1yrpkp+s10ZxzUzd8eJTHWquUPtiqlXXqIpWfgOu9KFxthet3WfndaTv72mv0gCkOMMYpzxXE2XWc/bA2/HL2d0ml1KyLUOqyVit12KrP/i47lNdQklw/Xe8PrcFVq0lp47Qqr5WkcgUz1QVukvJceZvn7rPsWa/OpLwHNAal39YqwFF/9nVouMmy8p6qLlVeT7UWiG6nfNY0Ble7c9+HQmmjMSjrr68A6s4o/VfrlOkNPzU65TEN7z1JBRiilPenSuP5GjW8hu7XTpzto6qhv2plXsNnS5LO/o1Rac6+Zg39tVYpr4Naq9SkNyv/cDe8f61Vyvuv4e9Gw9+Rhudba1RuslPpY90ZZV7Da6nWnn3P1FUANaXK50F2uF4Tp2v557y3dGblebHVKp85SEpNpjjlM9Rwkx2uz1Hl2b/lDX+jG/4W2euUz5vDprzeDZ+pcz/vWV8on/cWxO93BYPiZeIbqWlOWeCb4xZ8eaQMO34sx76iM6ixnf8k3bHqevQyV+NKQzU66S1oq65AknQa0bLyR0QA0AgHTE4LjLbT0NaXQ2W1+Kk3REQUlO7/Ckjs3qKL5Pe7gkHxMvGNdHGcssCRn6uxv7gCx87U4eeqepRY6lF0uhbFp+tgc178daS1cKCdrhoxWifqnSrYhLJ5QyPJ0EoCWpWARpKhkwS0ahl6SUAvOaFVyTCoZGglWbkvOaFTycpPOFEv1Cioi8GBqiiU2fWIUjsQrXUgRmtHtNqBKI0dZrUdZpXyM0JlQ4RkhVGyQ4YEm9DADhXsQg2b0MAm1K6bCk4hQa+SYVQ54BQSyhwG/GzXwyg5cYXBgvaaCqggYBFGVDgNsEMZcXKN3wAAVJARobIjUrLCINlRJ3SoFVrUyDpUy1pUObWwCTU0koBWkqGWZOgkGRpJQA3ZPU0DGRpJhgYCGskJtSRDDRn1QoNaWYd6oYEKAmpJhgTAJjSwChWsstKfeqGGTVbBKmtQL6sQrbahg74KbTUW2IUGp5wROGWPQITKjmRNDRLUNZAkwClUcEAFJyQ4hRpOSHAINRyQYJXVKHMYUGo3wimAFF0dkrR1MEhO1LvWb5CciFHXwyzVwSq0OCMbUe4wosxhQIndgEq7Gl2NVehhOI22mkrUCj0swoBaWQcVlL4LIeGMU4/TTgMEgBi1DTFqG8yqekSprIiU6lErdChxmlFqNyFCbUcbdR1iVLWoFTqUO00449TD4a5fgiwkOKGCBk5Eqe2IUddDJQlUOvWwOHWwCxU0knC9FrL7JwDIAGRXTT/b9Thj18GscSBOY4NZbYcAIAtAhgoyJAgByJDgdP1eL6tQ6dSh0qFBhMqBtoY6JGvqoFM5XWM9SjsByXUTyjQ0DHZJUEtORKnsMKvqoYGMKqGHxalHhVOPMw49zji0sMpqqCQBSVIu76WCgEYSiFQ7EKuxwqy2wSarUSc0qJPVUENAJQFqyFBJAmoAakl2v6/UkrIMlSQr8yC7f1e53o8CEmRIkIVKeR4gARAwq6wwuz4DtUKPaqFHrayF0/UcOYXyOIeQUOnQ4r/WSPxQE4FItRO9IipxpaECRrXseu1UcLrek7KQoJccMKgcUENGudOIU3YTzjh0MKpkGNUORLjmn/s5LrMbIEkCCRor4jX10EjCVbvy2jb8LiBBdn37qlzPo/LZE1B6KGATalihhkoIRKpsiFTZoZFkCCjLrJW1qHAalPevENDBAR3siEA9IlADk6iHTaVHvSoCdpXBNZooPP6OaOGESWWHSbLBCRXKnSb87DBCQEK02oYoVT00ktzwUJQ5jThmjcQxqxFWoYJTqOAUQLldi3K7Dg5oEKeuR4reigi1A2ccOpTbtdBARjujFW11dUjS1SFJU4t4VQ0cUKPcaXJ9BiVoJdl1c0Lreh9UyzpUOXWol9Uwq+2IVtuggRPlTiN+thtQatfjmT/eicS4mIv+/mgKv98Vmgs3IWo5apWErklmdE1qfMCKUxY4aanDqUorTlXWu25WlFbWo7zGpmwlAWB3CpyuseF0jQ3lNVbYnRoU2mIAW6NFtqg6J3DKCaDet+uhlpNf0wZA50CXETiVF27SatmBQ/Vxga4iLJ1yRuJUbWSj6cerfLdOi12NRN8tvlVjUKSgoVZJaBdrQrtYU7MfI4RAldWB8mob6u1OaNUS1K4dpp2ygCwEnLJw/+5w/W53ynDKAg6nMs3hlJWfsuyeplFJaBtjRNtYI8wGLertTtTZnaizOd2/19tl5afNNc+uzFNLEjRqFbRqCRrVub+roFFLUEkSHLIMm0OGJEmIMmhgNmhhc8oosSijrAJAlEGDCL0GGpXy//+5w/+yLFBvd6LW7oTVLsOgVcOgVcGoVbt+V0Orlhr1XRZKv5XnBnAKAadThlMoy3S6njO9RgW9RgWdRqXs/iYEhAC0aglatQoatQq6c/qkc02rtTlQWmXFz1VW6NQqxEboEGPUot7hxJlaOyy1SqJXqSSoJQlqlfJ8qFWSe5pWLcFs0CLKqIEECZY6OypqbbDLAnq1sj6HU6Cy3o5qqwN6jRpmgwZRRq3y06CFQavCqcp6FJ+uQ1m1FQatGpF6DQxaFWShvD9UkoRIgwaRejUkSKi1OVFjdaDG5kCtzYlqqwNGrRpxETrEmnSwuvpQWWeHSadGtFGLCL0GWrUESVL6oZLgen0Fal3LccoCkXoNjDo1NCrJ/Z50nPN6AMqAj0qSYNKpEWXUwqRTw+qQUWN1oN6uHBDQ0EY6pz1c/0Rp1Sr3+8DmkFFRa0dFne2c5Svvo4bHNqxTco0vSZLyvNTanKi1OeCQBSJ0ynswQqeGyfVTo1ZBCHHOSKTyXqq3O919Vt4fKug0rpFPAchCQAjh/l0WcN0XkOWG+WfnNbR3ysL1/CpFSlD6LSBQ53qd6u0yTDo1TDrlva+8r5Q+N7Q36dRoY9YjIVIPq0PGCUsdSiz1cDhlqBreh5LyPlT+KZVhc/2tiDJoEWPSwqTTKNMdyjyrwwmbQ4ZKcr1nDRoIAFX1DlTV2yELAcn1ukm/eN0aXgOPPrveEwDcfzeEaHhune55AKDXqmHWaxCp10ClUnbDdLqfs4ZlNnzuz/7NPPdvicOp/B2pdyh/t6KNWkQblX0Sa1zvA6cs3LtXRhm1iI9UPg8a13OmUsH9PtGoJVTXO1BZb4fNobwmRp0GsixgqbO7PsvK+7Ki1g6tWkKUQYtIg8b9uXGe83dYFgJGrfK6atUq1NmdqLU64ZAFoowa93N+Md8bdHEYFCmkKSFLiyiD9sKNqdXpmRod6BIoiHVL5qm4fCHKoEUqjI2mtw9ALXT5QutYdSIiIiLyGwZFIiIiIvKKQZGIiIiIvGJQJCIiIiKvGBSJiIiIyCsGRSIiIiLyikGRiIiIiLxiUCQiIiIirxgUiYiIiMgrBkUiIiIi8opBkYiIiIi8YlAkIiIiIq8YFImIiIjIKwZFIiIiIvJKE+gCQp0QAgBQWVkZ4EqIiIiopTR8rzd8z7dWDIqXqaqqCgDQvn37AFdCRERELa2qqgrR0dGBLiNgJNHao/JlkmUZJ06cgNlshiRJLbrsyspKtG/fHsXFxYiKimrRZQeT1tDP1tBHgP0MJ62hj0Dr6Gdr6CPQ8v0UQqCqqgqpqalQqVrvnnocUbxMKpUK7dq18+k6oqKiwvrD3aA19LM19BFgP8NJa+gj0Dr62Rr6CLRsP1vzSGKD1huRiYiIiKhJDIpERERE5BWDYhDT6/VYsGAB9Hp9oEvxqdbQz9bQR4D9DCetoY9A6+hna+gj0Hr66W88mIWIiIiIvOKIIhERERF5xaBIRERERF4xKBIRERGRVwyKREREROQVg2IQW7p0KTp16gSDwYCMjAx88cUXgS7pki1atAj9+/eH2WxGYmIixo4di++//96jjRACCxcuRGpqKoxGI4YNG4Zvv/02QBVfvkWLFkGSJGRnZ7unhUsfjx8/jt/+9reIj4+HyWTCNddcg/z8fPf8cOinw+HAY489hk6dOsFoNKJz5854/PHHIcuyu02o9fPzzz/H6NGjkZqaCkmSsH79eo/5zemP1WrFzJkzkZCQgIiICNx+++04duyYH3txYU310263Y+7cubjqqqsQERGB1NRUTJ48GSdOnPBYRqj385f++Mc/QpIkvPjiix7Tg72fzeljQUEBbr/9dkRHR8NsNuO6665DUVGRe36w9zHYMSgGqbVr1yI7Oxvz5s3Dvn37MGTIEIwcOdLjzR9KcnNzMX36dOzcuRObN2+Gw+FAZmYmampq3G2eeeYZPP/881iyZAl2796N5ORk3HLLLe7raYeS3bt3Y/ny5bj66qs9podDH8+cOYNBgwZBq9Xio48+wqFDh/Dcc88hJibG3SYc+rl48WK8+uqrWLJkCQoKCvDMM8/gb3/7G/7+97+724RaP2tqatC7d28sWbLE6/zm9Cc7Oxvr1q3DmjVrsH37dlRXV+O2226D0+n0VzcuqKl+1tbWYu/evZg/fz727t2L999/H4cPH8btt9/u0S7U+3mu9evX46uvvkJqamqjecHezwv18ciRIxg8eDC6d++Obdu24cCBA5g/fz4MBoO7TbD3MegJCkrXXnutyMrK8pjWvXt38fDDDweoopZVWloqAIjc3FwhhBCyLIvk5GTx9NNPu9vU19eL6Oho8eqrrwaqzEtSVVUlunTpIjZv3iyGDh0qZs2aJYQInz7OnTtXDB48+Lzzw6Wft956q/jd737nMe2OO+4Qv/3tb4UQod9PAGLdunXu+83pT0VFhdBqtWLNmjXuNsePHxcqlUp8/PHHfqv9Yvyyn97s2rVLABBHjx4VQoRXP48dOybatm0rvvnmG5GWliZeeOEF97xQ66e3Pk6YMMH9mfQm1PoYjDiiGIRsNhvy8/ORmZnpMT0zMxM7duwIUFUty2KxAADi4uIAAIWFhSgpKfHos16vx9ChQ0Ouz9OnT8ett96KX/3qVx7Tw6WPGzZsQL9+/fDrX/8aiYmJ6NOnD15//XX3/HDp5+DBg/Hpp5/i8OHDAIADBw5g+/btGDVqFIDw6WeD5vQnPz8fdrvdo01qaip69eoVkn1uYLFYIEmSe1Q8XPopyzImTZqEOXPmoGfPno3mh3o/ZVnGhx9+iK5du2L48OFITEzEgAEDPDZPh3ofgwGDYhAqKyuD0+lEUlKSx/SkpCSUlJQEqKqWI4TA7NmzMXjwYPTq1QsA3P0K9T6vWbMGe/fuxaJFixrNC5c+/ve//8WyZcvQpUsXfPLJJ8jKysIDDzyAN998E0D49HPu3Lm4++670b17d2i1WvTp0wfZ2dm4++67AYRPPxs0pz8lJSXQ6XSIjY09b5tQU19fj4cffhgTJ05EVFQUgPDp5+LFi6HRaPDAAw94nR/q/SwtLUV1dTWefvppjBgxAps2bcK4ceNwxx13IDc3F0Do9zEYaAJdAJ2fJEke94UQjaaFohkzZuDrr7/G9u3bG80L5T4XFxdj1qxZ2LRpk8f+Mb8Uyn0ElP/i+/Xrh6eeegoA0KdPH3z77bdYtmwZJk+e7G4X6v1cu3Yt3nrrLbzzzjvo2bMn9u/fj+zsbKSmpmLKlCnudqHez1+6lP6Eap/tdjt+85vfQJZlLF269ILtQ6mf+fn5eOmll7B3796LrjlU+tlwYNmYMWPw4IMPAgCuueYa7NixA6+++iqGDh163seGSh+DAUcUg1BCQgLUanWj/3ZKS0sb/bcfambOnIkNGzZg69ataNeunXt6cnIyAIR0n/Pz81FaWoqMjAxoNBpoNBrk5ubi5ZdfhkajcfcjlPsIACkpKUhPT/eY1qNHD/eBVuHwWgLAnDlz8PDDD+M3v/kNrrrqKkyaNAkPPvige7Q4XPrZoDn9SU5Ohs1mw5kzZ87bJlTY7XaMHz8ehYWF2Lx5s3s0EQiPfn7xxRcoLS1Fhw4d3H+Pjh49ij/96U/o2LEjgNDvZ0JCAjQazQX/HoVyH4MBg2IQ0ul0yMjIwObNmz2mb968Gddff32Aqro8QgjMmDED77//Pj777DN06tTJY36nTp2QnJzs0WebzYbc3NyQ6fPNN9+MgwcPYv/+/e5bv379cM8992D//v3o3LlzyPcRAAYNGtTo1EaHDx9GWloagPB4LQHl6FiVyvNPpFqtdo9ihEs/GzSnPxkZGdBqtR5tTp48iW+++Sak+twQEn/44Qds2bIF8fHxHvPDoZ+TJk3C119/7fH3KDU1FXPmzMEnn3wCIPT7qdPp0L9//yb/HoV6H4NCYI6hoQtZs2aN0Gq1YsWKFeLQoUMiOztbREREiJ9++inQpV2S++67T0RHR4tt27aJkydPum+1tbXuNk8//bSIjo4W77//vjh48KC4++67RUpKiqisrAxg5Zfn3KOehQiPPu7atUtoNBrxv//7v+KHH34Qb7/9tjCZTOKtt95ytwmHfk6ZMkW0bdtW/Oc//xGFhYXi/fffFwkJCeLPf/6zu02o9bOqqkrs27dP7Nu3TwAQzz//vNi3b5/7aN/m9CcrK0u0a9dObNmyRezdu1fcdNNNonfv3sLhcASqW4001U+73S5uv/120a5dO7F//36Pv0dWq9W9jFDvpze/POpZiODv54X6+P777wutViuWL18ufvjhB/H3v/9dqNVq8cUXX7iXEex9DHYMikHslVdeEWlpaUKn04m+ffu6TyUTigB4va1atcrdRpZlsWDBApGcnCz0er244YYbxMGDBwNXdAv4ZVAMlz7+3//9n+jVq5fQ6/Wie/fuYvny5R7zw6GflZWVYtasWaJDhw7CYDCIzp07i3nz5nmEiVDr59atW71+DqdMmSKEaF5/6urqxIwZM0RcXJwwGo3itttuE0VFRQHozfk11c/CwsLz/j3aunWrexmh3k9vvAXFYO9nc/q4YsUKceWVVwqDwSB69+4t1q9f77GMYO9jsJOEEMK3Y5ZEREREFIq4jyIRERERecWgSEREREReMSgSERERkVcMikRERETkFYMiEREREXnFoEhEREREXjEoEhEREZFXDIpERD4mSRLWr18f6DKIiC4agyIRhbWpU6dCkqRGtxEjRgS6NCKioKcJdAFERL42YsQIrFq1ymOaXq8PUDVERKGDI4pEFPb0ej2Sk5M9brGxsQCUzcLLli3DyJEjYTQa0alTJ7z33nsejz948CBuuukmGI1GxMfH4w9/+AOqq6s92qxcuRI9e/aEXq9HSkoKZsyY4TG/rKwM48aNg8lkQpcuXbBhwwbfdpqIqAUwKBJRqzd//nzceeedOHDgAH7729/i7rvvRkFBAQCgtrYWI0aMQGxsLHbv3o333nsPW7Zs8QiCy5Ytw/Tp0/GHP/wBBw8exIYNG3DllVd6rOOvf/0rxo8fj6+//hqjRo3CPffcg9OnT/u1n0REF00QEYWxKVOmCLVaLSIiIjxujz/+uBBCCAAiKyvL4zEDBgwQ9913nxBCiOXLl4vY2FhRXV3tnv/hhx8KlUolSkpKhBBCpKaminnz5p23BgDisccec9+vrq4WkiSJjz76qMX6SUTkC9xHkYjC3o033ohly5Z5TIuLi3P/PnDgQI95AwcOxP79+wEABQUF6N27NyIiItzzBw0aBFmW8f3330OSJJw4cQI333xzkzVcffXV7t8jIiJgNptRWlp6qV0iIvILBkUiCnsRERGNNgVfiCRJAAAhhPt3b22MRmOzlqfVahs9Vpbli6qJiMjfuI8iEbV6O3fubHS/e/fuAID09HTs378fNTU17vlffvklVCoVunbtCrPZjI4dO+LTTz/1a81ERP7AEUUiCntWqxUlJSUe0zQaDRISEgAA7733Hvr164fBgwfj7bffxq5du7BixQoAwD333IMFCxZgypQpWLhwIX7++WfMnDkTkyZNQlJSEgBg4cKFyMrKQmJiIkaOHImqqip8+eWXmDlzpn87SkTUwhgUiSjsffzxx0hJSfGY1q1bN3z33XcAlCOS16xZg/vvvx/Jycl4++23kZ6eDgAwmUz45JNPMGvWLPTv3x8mkwl33nknnn/+efeypkyZgvr6erzwwgt46KGHkJCQgLvuust/HSQi8hFJCCECXQQRUaBIkoR169Zh7NixgS6FiCjocB9FIiIiIvKKQZGIiIiIvOI+ikTUqnHvGyKi8+OIIhERERF5xaBIRERERF4xKBIRERGRVwyKREREROQVgyIRERERecWgSEREREReMSgSERERkVcMikRERETkFYMiEREREXnFoEhEREREXjEoEhEREZFX/w8tl/TE67cWXgAAAABJRU5ErkJggg==;" vertex="1" parent="1">
          <mxGeometry x="557" y="111" width="650" height="509" as="geometry" />
        </mxCell>
        <mxCell id="zEoZg1Jp4J7SSyQUYtt9-2" value="" style="shape=image;verticalLabelPosition=bottom;labelBackgroundColor=default;verticalAlign=top;aspect=fixed;imageAspect=0;image=data:image/png,iVBORw0KGgoAAAANSUhEUgAAArcAAAH0CAYAAAAnuQUoAAAAOXRFWHRTb2Z0d2FyZQBNYXRwbG90bGliIHZlcnNpb24zLjcuMiwgaHR0cHM6Ly9tYXRwbG90bGliLm9yZy8pXeV/AAAACXBIWXMAAA9hAAAPYQGoP6dpAABoKElEQVR4nO3deXwU9f3H8dfsnc2dQC4uQZFDWuRQiop4VMATkFaqFqG1/koVFWgtXlTUVsTWoxbFoyha20ItoraiAgooiooIaIV60ECQQwyQO9lzfn9MsrImQILAktn38/HYB8zsd2c+39nN5r3ffHfGME3TRERERETEBhyJLkBERERE5FBRuBURERER21C4FRERERHbULgVEREREdtQuBURERER21C4FRERERHbULgVEREREdtQuBURERER21C4FRERERHbULgVEREREdtQuBURERER21C4FRERERHbULgVEREREdtQuBURERER21C4FRERERHbULgVEREREdtQuBURERER21C4FRERERHbULgVEREREdtQuBURERER21C4FRERERHbULgVEREREdtQuBURERER21C4FRERERHbULgVEREREdtQuBURERER21C4FRERERHbULgVEREREdtQuBURERER21C4FRERERHbULgVEREREdtQuBURERER21C4FRERERHbULgVEREREdtQuBURERER21C4FRERERHbULgVEREREdtQuBURERER21C4FRERERHbULgVEREREdtQuBURERER21C4FRERERHbULgVEREREdtQuBURERER21C4FRERERHbULgVEREREdtQuBURERER21C4FRERERHbULgVEREREdtQuBURERER21C4FRERERHbULgVEREREdtQuBURERER21C4FRERERHbULgVEREREdtQuBURERER21C4FRERERHbULgVEREREdtwJboAu4pGo2zbto309HQMw0h0OSIiImIzpmlSWVlJUVERDofGKxso3B4m27Zto0OHDokuQ0RERGxuy5YttG/fPtFlHDUUbg+T9PR0wHrBZWRkJLgaERERsZuKigo6dOgQyxxiUbg9TBqmImRkZCjcioiIyGGj6Y/xNEFDRERERGxD4VZEREREbEPhVkRERERsQ3NuRUTkiIhEIoRCoUSXIdJquN1unE5nostodRRuRUTksDJNkx07dlBWVpboUkRanaysLAoKCvSlsRZQuBURkcOqIdjm5eXh9/v1S1qkGUzTpKamhp07dwJQWFiY4IpaD4VbERE5bCKRSCzY5ubmJrockVYlJSUFgJ07d5KXl6cpCs2kL5SJiMhh0zDH1u/3J7gSkdap4WdH89WbT+FWREQOO01FEDk4+tlpOYVbEREREbENhVsREZGjwKZNmzAMg7Vr136r7ZxxxhlMnDjxkNTUXNOmTePEE088ovsU2ReFWxERkW8YN24cI0aMSHQZh9wZZ5yBYRj7vB1zzDEHtd1f/epXvPbaa9+qtjlz5pCVlfWttiECOluCiIhI0njuuecIBoMAbNmyhZNPPpklS5ZwwgknADT6Nn4wGMTj8Rxwu2lpaaSlpR36gkUOgkZuW6u1f4NXboYv3k90JSIiSWf58uWcfPLJeL1eCgsLufHGGwmHw7H7X3nlFU477TSysrLIzc3lggsuYOPGjXHbeO+99+jTpw8+n4/+/fuzZs2aRvtZv3495513HmlpaeTn5zNmzBhKS0tj91dXV3PFFVeQlpZGYWEh9957737rzsnJoaCggIKCAtq2bQtAbm5ubN1JJ53Eb3/7W8aNG0dmZiZXXXUVAFOmTOH444/H7/fTpUsXpk6dGvft/W9OS2gY+f7DH/5AYWEhubm5XHPNNd/qG/8lJSUMHz6ctLQ0MjIyuOSSS/jyyy9j969bt44zzzyT9PR0MjIy6NevH++/b/2O3Lx5MxdeeCHZ2dmkpqZywgknsHDhwoOuRY5uCret1YZ/wzsPwY6PEl2JiEizmaZJTTCckJtpmoekD1u3buW8887jpJNOYt26dcyaNYvZs2fz29/+NtamurqayZMns2rVKl577TUcDgcjR44kGo3G7r/gggvo1q0bq1evZtq0afzqV7+K28/27dsZPHgwJ554Iu+//z6vvPIKX375JZdcckmszQ033MDSpUtZsGABixYtYtmyZaxevfpb9e/3v/89vXr1YvXq1UydOhWA9PR05syZw/r16/njH//I448/zv3337/f7SxdupSNGzeydOlSnnrqKebMmcOcOXMOqibTNBkxYgS7d+9m+fLlLF68mI0bNzJ69OhYm8svv5z27duzatUqVq9ezY033ojb7QbgmmuuIRAI8MYbb/DRRx8xY8YMjTTbmKYltFZu68TOhGoSW4eISAvUhiL0/M2rCdn3+juG4vd8+197Dz/8MB06dGDmzJkYhkH37t3Ztm0bU6ZM4Te/+Q0Oh4NRo0bFPWb27Nnk5eWxfv16evXqxV//+lcikQhPPPEEfr+fE044gS+++IJf/OIXscfMmjWLvn37ctddd8XWPfHEE3To0IFPP/2UoqIiZs+ezdNPP80555wDwFNPPUX79u2/Vf/OOuusRkH71ltvjf3/mGOO4Ze//CXz5s3j17/+9T63k52dzcyZM3E6nXTv3p3zzz+f1157LTYa3BJLlizhww8/pLi4mA4dOgDwl7/8hRNOOIFVq1Zx0kknUVJSwg033ED37t0B6Nq1a+zxJSUljBo1iu985zsAdOnSpcU1SOuhkdvWylN/QvSgwq2IyJG0YcMGBg4cGHf+0VNPPZWqqiq++OILADZu3Mhll11Gly5dyMjIoHPnzoAVshq20bt377iLWwwcODBuP6tXr2bp0qWx+axpaWmx4LZx40Y2btxIMBiMe1xOTg7dunX7Vv3r379/o3X//Oc/Oe200ygoKCAtLY2pU6fG+rIvJ5xwQtwc3sLCwtilZFtqw4YNdOjQIRZsAXr27ElWVhYbNmwAYPLkyfzsZz/j+9//PnfffXfcNJDrrruO3/72t5x66qncdtttfPjhhwdVh7QOGrltrdyp1r8auRWRViTF7WT9HUMTtu9DwTTNRifWb5jy0LD+wgsvpEOHDjz++OMUFRURjUbp1atX7MtczZkiEY1GufDCC5kxY0aj+woLC/nss8++bVealJqaGrf8zjvv8KMf/Yjbb7+doUOHkpmZydy5cw84v7dhSkADwzBi0zJaqqlj/s3106ZN47LLLuOll17i5Zdf5rbbbmPu3LmMHDmSn/3sZwwdOpSXXnqJRYsWMX36dO69916uvfbag6pHjm4Kt61Vw8itwq2ItCKGYRySqQGJ1LNnT+bPnx8XrN5++23S09Np164du3btYsOGDTz66KMMGjQIgBUrVjTaxl/+8hdqa2tJSbGmmb3zzjtxbfr27cv8+fM55phjcLkaH7PjjjsOt9vNO++8Q8eOHQHYs2cPn376KYMHDz5k/X3rrbfo1KkTt9xyS2zd5s2bD9n2m6Nnz56UlJSwZcuW2Ojt+vXrKS8vp0ePHrF2xx9/PMcffzyTJk3i0ksv5cknn2TkyJEAdOjQgfHjxzN+/HhuuukmHn/8cYVbm9K0hNaqYc5tsDqxdYiI2FR5eTlr166Nu5WUlHD11VezZcsWrr32Wv773//ywgsvcNtttzF58mQcDgfZ2dnk5uby2GOP8fnnn/P6668zefLkuG1fdtllOBwOrrzyStavX8/ChQv5wx/+ENfmmmuuYffu3Vx66aW89957/O9//2PRokX89Kc/JRKJkJaWxpVXXskNN9zAa6+9xn/+8x/GjRuHw3Fof7Ufd9xxlJSUMHfuXDZu3MiDDz7IggULDuk+GkQikUbHfP369Xz/+9/nu9/9LpdffjkffPAB7733HldccQWDBw+mf//+1NbWMmHCBJYtW8bmzZt56623WLVqVSz4Tpw4kVdffZXi4mI++OADXn/99bhQLPbSuj8+J7PYtITaxNYhImJTy5Yto0+fPnHrxo4dy5w5c1i4cCE33HADvXv3JicnhyuvvDL2pSuHw8HcuXO57rrr6NWrF926dePBBx/kjDPOiG0nLS2Nf/3rX4wfP54+ffrQs2dPZsyYEfdFtKKiIt566y2mTJnC0KFDCQQCdOrUiWHDhsUC7O9//3uqqqq46KKLSE9P55e//CXl5eWH9DgMHz6cSZMmMWHCBAKBAOeffz5Tp05l2rRph3Q/AFVVVY2OeadOndi0aRPPP/881157LaeffjoOh4Nhw4bxpz/9CbDOz7tr1y6uuOIKvvzyS9q0acPFF1/M7bffDlih+ZprruGLL74gIyODYcOGHfBsD9J6GeahOjeKxKmoqCAzM5Py8nIyMjIO/Q5Wz4F/XQ/dzoNL/37oty8icgjU1dVRXFxM586d8fl8iS5HpNXZ38/QYc8arZSmJbRW7oazJWhagoiIiEgDhdvWqiHcalqCiIiISIzCbWulsyWIiIiINKJw20oFDC8AUU1LEBEREYlRuG2lfrfYOsdgoKYqwZWIiIiIHD0UblsphycNAGdEc25FREREGijctlIOrzXn1hWuBZ3NTURERARQuG21XF7rIg4OIhAJJbgaERERkaODwm0r5fSlfb0Q0pfKRERau02bNmEYBmvXrv1W2znjjDOYOHHiIalpX6ZNm8aJJ54YWx43bhwjRow4InUdif5J66Zw20r5vD5CptNaCOp0YCIih1JzwlprdO+995KZmUlNTePfG3V1dWRlZXHfffe1eLt//OMfmTNnziGo8GvLli3DMAzKysri1j/33HPceeedh3Rf33SoPmhIYijctlJ+j5NarNOB6UIOIiLSHFdccQW1tbXMnz+/0X3z58+npqaGMWPGtHi7mZmZZGVlHYIKDywnJ4f09PQjsi9pnRRuW6kUj5OaWLjVtAQRkSNp+fLlnHzyyXi9XgoLC7nxxhsJh8Ox+1955RVOO+00srKyyM3N5YILLmDjxo1x23jvvffo06cPPp+P/v37s2bNmkb7Wb9+Peeddx5paWnk5+czZswYSktLY/dXV1dzxRVXkJaWRmFhIffee+9+627bti0XXnghTzzxRKP7nnjiCS666CLatm3LlClTOP744/H7/XTp0oWpU6cSCu37+x3fHOluTl3PPPMM/fv3Jz09nYKCAi677DJ27twJWCOnZ555JgDZ2dkYhsG4ceOAxtMS9uzZwxVXXEF2djZ+v59zzz2Xzz77LHb/nDlzyMrK4tVXX6VHjx6kpaUxbNgwtm/fvt9jtT+BQIDrrruOvLw8fD4fp512GqtWrYqr6fLLL6dt27akpKTQtWtXnnzySQCCwSATJkygsLAQn8/HMcccw/Tp0w+6FmlM4baV8nuc1Joea0HTEkREjpitW7dy3nnncdJJJ7Fu3TpmzZrF7Nmz+e1vfxtrU11dzeTJk1m1ahWvvfYaDoeDkSNHEo1GY/dfcMEFdOvWjdWrVzNt2jR+9atfxe1n+/btDB48mBNPPJH333+fV155hS+//JJLLrkk1uaGG25g6dKlLFiwgEWLFrFs2TJWr1693/qvvPJKli9fTnFxcWzdpk2bWLp0KVdeeSUA6enpzJkzh/Xr1/PHP/6Rxx9/nPvvv7/Zx6g5dQWDQe68807WrVvH888/T3FxcSzAdujQITa6/Mknn7B9+3b++Mc/NrmvcePG8f777/Piiy+ycuVKTNPkvPPOiwvjNTU1/OEPf+Avf/kLb7zxBiUlJY2Od0v8+te/Zv78+Tz11FN88MEHHHfccQwdOpTdu3cDMHXqVNavX8/LL7/Mhg0bmDVrFm3atAHgwQcf5MUXX+Qf//gHn3zyCc888wzHHHPMQdciTTAT6KGHHjKPOeYY0+v1mn379jXfeOON/bZftmyZ2bdvX9Pr9ZqdO3c2Z82a1ajNP//5T7NHjx6mx+Mxe/ToYT733HNx9991111m//79zbS0NLNt27bm8OHDzf/+979xbcaOHWsCcbcBAwa0qG/l5eUmYJaXl7focc318kfbzI+nfsc0b8swzc+WHJZ9iIh8W7W1teb69evN2tpaa0U0apqBqsTcotFm1z127Fhz+PDhTd538803m926dTOje23voYceMtPS0sxIJNLkY3bu3GkC5kcffWSapmk++uijZk5OjlldXR1rM2vWLBMw16xZY5qmaU6dOtUcMmRI3Ha2bNliAuYnn3xiVlZWmh6Px5w7d27s/l27dpkpKSnm9ddfv8++hcNhs127duZvfvOb2Lrf/OY3Zrt27cxwONzkY+655x6zX79+seXbbrvN7N27d2x57+N1sHW99957JmBWVlaapmmaS5cuNQFzz549ce0GDx4c286nn35qAuZbb70Vu7+0tNRMSUkx//GPf5imaZpPPvmkCZiff/55rM1DDz1k5ufn77OW4uLiuOdib1VVVabb7Tb/+te/xtYFg0GzqKjIvOeee0zTNM0LL7zQ/MlPftLktq+99lrzrLPOinv97E+jn6G9HO6s0Vq5EhGoAebNm8fEiRN5+OGHOfXUU3n00Uc599xzWb9+PR07dmzUvri4mPPOO4+rrrqKZ555hrfeeourr76atm3bMmrUKABWrlzJ6NGjufPOOxk5ciQLFizgkksuYcWKFQwYMACw/pR0zTXXcNJJJxEOh7nlllsYMmQI69evJzU1Nba/YcOGxf6EAODxeA7zEWmZFI9rr2kJGrkVkVYiVAN3FSVm3zdvA0/qgdsdwIYNGxg4cCCGYcTWnXrqqVRVVfHFF1/QsWNHNm7cyNSpU3nnnXcoLS2NjdiWlJTQq1cvNmzYQO/evfH7/bFtDBw4MG4/q1evZunSpaSlpfFNGzdupLa2lmAwGPe4nJwcunXrtt/6nU4nY8eOZc6cOdx2220YhsFTTz3FuHHjcDqtLyr/85//5IEHHuDzzz+nqqqKcDhMRkZGs47Pxo0bm1XXmjVrmDZtGmvXrmX37t1xx6hnz57N2teGDRtwuVyx3/EAubm5dOvWjQ0bNsTW+f1+jj322NhyYWFhbApES23cuJFQKMSpp54aW+d2uzn55JNj+/zFL37BqFGj+OCDDxgyZAgjRozglFNOAayR5nPOOYdu3boxbNgwLrjgAoYMGXJQtUjTEjYt4b777uPKK6/kZz/7GT169OCBBx6gQ4cOzJo1q8n2jzzyCB07duSBBx6gR48e/OxnP+OnP/0pf/jDH2JtHnjgAc455xxuuukmunfvzk033cTZZ5/NAw88EGvzyiuvMG7cOE444QR69+7Nk08+SUlJSaM/l3i9XgoKCmK3nJycw3IcDpamJYiIJIZpmnHBtmEdEFt/4YUXsmvXLh5//HHeffdd3n33XcD6U/ze7fcnGo1y4YUXsnbt2rjbZ599xumnn96sbezLT3/6U7Zs2cLrr7/Oa6+9RklJCT/5yU8AeOedd/jRj37Eueeey7///W/WrFnDLbfcEqv9QJpTV3V1NUOGDCEtLY1nnnmGVatWsWDBAoBm72d/+/rmc+R2u+PuNwzjoI/fN5/rpvZ57rnnsnnzZiZOnMi2bds4++yzY9Mg+vbtS3FxMXfeeSe1tbVccskl/OAHPzioWqRpCRm5DQaDrF69mhtvvDFu/ZAhQ3j77bebfMzKlSsbfbIZOnQos2fPJhQK4Xa7WblyJZMmTWrUZu9w+03l5eUAjcLrsmXLyMvLIysri8GDB/O73/2OvLy85nbxsEtxO9mjL5SJSGvj9lsjqIna9yHQs2dP5s+fHxdm3n77bdLT02nXrh27du1iw4YNPProowwaNAiAFStWNNrGX/7yF2pra0lJSQGsULm3vn37Mn/+fI455hhcrsa/ro877jjcbjfvvPNO7C+ee/bs4dNPP2Xw4MH77cOxxx7L4MGDefLJJzFNkzPOOCM2svnWW2/RqVMnbrnlllj7zZs3N/v4NKeu//73v5SWlnL33XfToUMHAN5///247TT8xTQSiexzXz179iQcDvPuu+/GRkZ37drFp59+So8ePZpdc0scd9xxeDweVqxYwWWXXQZAKBTi/fffj/uiW9u2bRk3bhzjxo1j0KBB3HDDDbEBuYyMDEaPHs3o0aP5wQ9+wLBhw9i9e/dRN5DWWiUk3JaWlhKJRMjPz49bn5+fz44dO5p8zI4dO5psHw6HKS0tpbCwcJ9t9rVN0zSZPHkyp512Gr169YqtP/fcc/nhD39Ip06dKC4uZurUqZx11lmsXr0ar9fb5LYCgQCBQCC2XFFRse8DcAj4486WoFOBiUgrYRiHZGrAkVBeXt7oPKc5OTlcffXVPPDAA1x77bVMmDCBTz75hNtuu43JkyfjcDjIzs4mNzeXxx57jMLCQkpKShoN5lx22WXccsstXHnlldx6661s2rQp7i+RANdccw2PP/44l156KTfccANt2rTh888/Z+7cuTz++OOkpaVx5ZVXcsMNN5Cbm0t+fj633HILDkfz/ih75ZVXctVVVwHw5z//Obb+uOOOo6SkhLlz53LSSSfx0ksvxUZVm6M5dXXs2BGPx8Of/vQnxo8fz3/+859G567t1KkThmHw73//m/POO4+UlJRGUzS6du3K8OHDueqqq3j00UdJT0/nxhtvpF27dgwfPrzZNe/LJ5980mhdz549+cUvfsENN9xATk4OHTt25J577qGmpib2hbzf/OY39OvXjxNOOIFAIMC///3vWNi+//77KSws5MQTT8ThcPDss89SUFBwxE6llgwSNucW9j+k39z231zfkm1OmDCBDz/8sNEn6tGjR8f+36tXL/r370+nTp146aWXuPjii5vc1vTp07n99tv3Wfuh5ve4qDGtcGsGq9n3URMRkYOxbNky+vTpE7euYa7qwoULueGGG+jduzc5OTmxkArgcDiYO3cu1113Hb169aJbt248+OCDnHHGGbHtpKWl8a9//Yvx48fTp08fevbsyYwZM2LfIQEoKirirbfeYsqUKQwdOpRAIECnTp0YNmxYLCj+/ve/p6qqiosuuoj09HR++ctfxv4ieSCjRo1iwoQJAHG/24YPH86kSZOYMGECgUCA888/n6lTpzJt2rRmH7sD1dW2bVvmzJnDzTffzIMPPkjfvn35wx/+wEUXXRRr065dO26//XZuvPFGfvKTn3DFFVc0eaGIJ598kuuvv54LLriAYDDI6aefzsKFCxtNRTgYP/rRjxqtKy4u5u677yYajTJmzBgqKyvp378/r776KtnZ2YA16nzTTTexadMmUlJSGDRoEHPnzgWs537GjBl89tlnOJ1OTjrpJBYuXNjsDyVyYIb5bSbtHKRgMIjf7+fZZ59l5MiRsfXXX389a9euZfny5Y0ec/rpp9OnT5+4U4E0fGGspqYGt9tNx44dmTRpUtzUhPvvv58HHnig0Z9Urr32Wp5//nneeOMNOnfufMCau3btys9+9jOmTJnS5P1Njdx26NCB8vLyZk/Cb4ny2hDzf/djfup6hfApE3ENOXLBWkSkuerq6iguLqZz5874fL5ElyPS6uzvZ6iiooLMzMzDljVaq4R8TPB4PPTr14/FixfHrV+8eHFszsw3DRw4sFH7RYsW0b9//9ins3212XubpmkyYcIEnnvuOV5//fVmBdtdu3axZcsWCgsL99nG6/WSkZERdzuc9p6WEAlozq2IiIgIJPBsCZMnT+bPf/4zTzzxBBs2bGDSpEmUlJQwfvx4AG666SauuOKKWPvx48ezefNmJk+ezIYNG3jiiSeYPXt23EmYr7/+ehYtWsSMGTP473//y4wZM1iyZEncBO9rrrmGZ555hr/97W+kp6ezY8cOduzYQW2tNW+1qqqKX/3qV6xcuZJNmzaxbNkyLrzwQtq0aRM3ypxobqeDgGF9ggvXKdyKiIiIQALn3I4ePZpdu3Zxxx13sH37dnr16sXChQvp1KkTYF2ZpaSkJNa+c+fOLFy4kEmTJvHQQw9RVFTEgw8+GDc/6ZRTTmHu3LnceuutTJ06lWOPPZZ58+bFnf+u4VRje899AmvOTsM5/j766COefvppysrKKCws5Mwzz2TevHlH3bWsI04r3EY1cisiIiICJGjObTI4EvNgpt95IzdFZlHR8RwyfvrPw7IPEZFvQ3NuRb4dzbltOX01rxWLuKxzI5q6QpmIiIgIoHDbqpluK9wS1LQEETm66Y+EIgdHPzstp3DbmtVfbccI6yIOInJ0ajibTU2N/sIkcjAafnYOxXl7k0VCL+Ig345Zf5Ufh6YliMhRyul0kpWVxc6dOwHw+/37vViPiFhM06SmpoadO3eSlZWF0+lMdEmthsJtK+aoH7l1RDRyKyJHr4KCAoBYwBWR5svKyor9DEnzKNy2Yg6vNXLrCtcluBIRkX0zDIPCwkLy8vIIhUKJLkek1XC73RqxPQgKt61YLNxGasE0QX/qE5GjmNPp1C9qETns9IWyVszlrZ+WQAQiwQRXIyIiIpJ4CretmMu31xXT9KUyEREREYXb1szn8xI06//EF1S4FREREVG4bcX8Hid1eK0FjdyKiIiIKNy2ZiluJzUKtyIiIiIxCretmN/josasD7ealiAiIiKicNua+T1OamMjt9WJLUZERETkKKBw24qlxIVbXaVMREREROG2FfN7nJqWICIiIrIXhdtWTNMSREREROIp3LZiKR4XtXisBU1LEBEREVG4bc387q+nJUQDGrkVERERUbhtxawvlPkACNVVJbgaERERkcRTuG3FvC4HdfXTEiIauRURERFRuG3NDMMg7EwBFG5FREREQOG21WsIt5pzKyIiIqJw2+pFXVa4NXWeWxERERGF29Yu0hBuQwq3IiIiIgq3rZzp9gNgaORWREREROG2tTMawm1YF3EQERERUbht7TypADjCGrkVERERUbht5QyPNXLr1MitiIiIiMJta+f01ofbiMKtiIiIiMJtK+fwpAHgjtSBaSa4GhEREZHEUrht5Vw+K9w6iEAkmOBqRERERBJL4baVc/v8Xy/oXLciIiKS5BRuWzmfz0fQdFoLOtetiIiIJDmF21bO73FSi9da0MitiIiIJDmF21YuxeOiBp+1oHArIiIiSU7htpXzu53Umh5rQdMSREREJMkp3LZy8dMSqhNbjIiIiEiCKdy2cikeJzWxcKsLOYiIiEhyU7ht5fweF7VmfbjVtAQRERFJcgq3rZymJYiIiIh8TeG2ldt7WkJUI7ciIiKS5BRuWzm/xxmblhCuq0pwNSIiIiKJpXDbyvlcTqpIASBcW5HgakREREQSS+G2lXM4DAIOK9xG6yoTXI2IiIhIYinc2kDImQoo3IqIiIgo3NpA0GWFW1PhVkRERJKcwq0NROrDLUGFWxEREUluCrc2EHGnAWAEdZ5bERERSW4KtzYQdVsjt46QTgUmIiIiyU3h1gZMbzoAToVbERERSXIKt3bgsaYluMKaliAiIiLJTeHWBhw+a+TWHamFaCTB1YiIiIgkjsKtDThT0r9eCGpqgoiIiCQvhVsb8Pv8BE2ntRBQuBUREZHkpXBrA6k+N9VYl+DVyK2IiIgkM4VbG0jzuajGZy1o5FZERESSmMKtDaR5XVSZ9SO3gYrEFiMiIiKSQAq3NpDmdVGlaQkiIiIiCrd2kOZ1UW1qWoKIiIiIwq0NpPlcVMXm3FYmthgRERGRBFK4tQFr5LZhWoLCrYiIiCQvhVsb2HvObbRO0xJEREQkeSnc2sDe0xLCtTpbgoiIiCQvhVsb8Lqc1BnWyG24tjzB1YiIiIgkjsKtTYRdqQBE6zTnVkRERJKXwq1NhN1pAER1KjARERFJYgq3NhGtD7c6FZiIiIgkM4Vbu/BY4dahK5SJiIhIElO4tQtvfbgNKdyKiIhI8kpouH344Yfp3LkzPp+Pfv368eabb+63/fLly+nXrx8+n48uXbrwyCOPNGozf/58evbsidfrpWfPnixYsCDu/unTp3PSSSeRnp5OXl4eI0aM4JNPPolrY5om06ZNo6ioiJSUFM444ww+/vjjb9/hw8jhywDAGa5OcCUiIiIiiZOwcDtv3jwmTpzILbfcwpo1axg0aBDnnnsuJSUlTbYvLi7mvPPOY9CgQaxZs4abb76Z6667jvnz58farFy5ktGjRzNmzBjWrVvHmDFjuOSSS3j33XdjbZYvX84111zDO++8w+LFiwmHwwwZMoTq6q9D4T333MN9993HzJkzWbVqFQUFBZxzzjlUVh6981ldKekAuMM1YJoJrkZEREQkMQzTTEwSGjBgAH379mXWrFmxdT169GDEiBFMnz69UfspU6bw4osvsmHDhti68ePHs27dOlauXAnA6NGjqaio4OWXX461GTZsGNnZ2fz9739vso6vvvqKvLw8li9fzumnn45pmhQVFTFx4kSmTJkCQCAQID8/nxkzZvDzn/+8Wf2rqKggMzOT8vJyMjIymvWYb2PGC+8zZc3Z1sLN28CTetj3KSIiIolzpLNGa5GQkdtgMMjq1asZMmRI3PohQ4bw9ttvN/mYlStXNmo/dOhQ3n//fUKh0H7b7GubAOXl1kUPcnJyAGuEeMeOHXHb8Xq9DB48eL/bCQQCVFRUxN2OJK8/nahp1BejebciIiKSnBISbktLS4lEIuTn58etz8/PZ8eOHU0+ZseOHU22D4fDlJaW7rfNvrZpmiaTJ0/mtNNOo1evXrFtNDyuudsBay5vZmZm7NahQ4d9tj0c0nzu2CV40RkTREREJEkl9AtlhmHELZum2Wjdgdp/c31LtjlhwgQ+/PDDJqcstLS2m266ifLy8thty5Yt+2x7OKR5XVRjXYKXwJEdNRYRERE5WrgSsdM2bdrgdDobjYTu3Lmz0Yhpg4KCgibbu1wucnNz99umqW1ee+21vPjii7zxxhu0b98+bj9gjeAWFhY2qzawpi54vd593n+4pflcVJs+MNC0BBEREUlaCRm59Xg89OvXj8WLF8etX7x4MaecckqTjxk4cGCj9osWLaJ///643e79ttl7m6ZpMmHCBJ577jlef/11OnfuHNe+c+fOFBQUxG0nGAyyfPnyfdZ2NEjzujQtQURERJJeQkZuASZPnsyYMWPo378/AwcO5LHHHqOkpITx48cD1p/5t27dytNPPw1YZ0aYOXMmkydP5qqrrmLlypXMnj07bkrB9ddfz+mnn86MGTMYPnw4L7zwAkuWLGHFihWxNtdccw1/+9vfeOGFF0hPT4+N9GZmZpKSkoJhGEycOJG77rqLrl270rVrV+666y78fj+XXXbZETxCLZPmdVFlNkxLULgVERGR5JSwcDt69Gh27drFHXfcwfbt2+nVqxcLFy6kU6dOAGzfvj3unLedO3dm4cKFTJo0iYceeoiioiIefPBBRo0aFWtzyimnMHfuXG699VamTp3Ksccey7x58xgwYECsTcOpx84444y4ep588knGjRsHwK9//Wtqa2u5+uqr2bNnDwMGDGDRokWkp6cfpqPx7aX5XOzSnFsRERFJcgk7z63dHelzz32xp4Z37/sho5wr4Jw74NTrD/s+RUREJHF0ntumJfRsCXLopHldVNdPS4jUHb1XUhMRERE5nBRubSLV66KqflpCuKY8wdWIiIiIJIbCrU24nQ4CDivchmo1cisiIiLJSeHWRsKuVACimpYgIiIiSUrh1kYi9eHWDCjcioiISHJSuLWRiKf+VGUKtyIiIpKkFG5txPSkAWDoCmUiIiKSpBRubcThtcKtI1Sd4EpEREREEkPh1kYcPmtagiuscCsiIiLJSeHWRhw+6+ok7rCmJYiIiEhyUri1EZffCrdOMwzhQIKrERERETnyFG5txJOS/vVCQKO3IiIiknwUbm0kNcVHremxFgIViS1GREREJAEUbm0kzeuiCusSvOh0YCIiIpKEFG5tJM3rosr0WQualiAiIiJJSOHWRtJ8Lqo1cisiIiJJTOHWRuKmJWjOrYiIiCQhhVsb0bQEERERSXYKtzay97QEM1CZ4GpEREREjjyFWxtJ87qorh+5DddqWoKIiIgkH4VbG0n1uKisH7kNKdyKiIhIElK4tRGHwyDoSAUgUlOe4GpEREREjjyFW5sJuK1L8EZrFW5FREQk+Sjc2kyoPtyadQq3IiIiknwUbm0mWh9uDZ3nVkRERJKQwq3NRH2ZADiDCrciIiKSfBRubcb0ZAAKtyIiIpKcFG5txkixRm7dYV2hTERERJKPwq3NOP1ZALiiQQjVJbYYERERkSNM4dZm3P4MoqZhLehLZSIiIpJkFG5tJiPFS1X9VcrQ6cBEREQkySjc2kxGipsK/NZCnUZuRUREJLko3NpMhs9NpdkQbssSWouIiIjIkaZwazMZKa69Rm41LUFERESSi8KtzWT43FQ0jNzqC2UiIiKSZBRubSZ+zq1GbkVERCS5KNzaTIbPFZtzG61VuBUREZHkonBrM+m+r0duQ9V7ElyNiIiIyJGlcGszHpeDWkcaAOGassQWIyIiInKEKdzaUNidDkBE0xJEREQkySjc2lDEk2H9R+FWREREkozCrQ2ZXivcGkGdCkxERESSi8KtDRm+TAAcOs+tiIiIJBmFWxty+LMAcIeqEluIiIiIyBGmcGtDrpQsADyRKohGEluMiIiIyBGkcGtDnrTMrxc0NUFERESSiMKtDaWlplJnuq2FOoVbERERSR4KtzaU4XNTQaq1UKfTgYmIiEjyULi1oYwUN5VmirWgaQkiIiKSRBRubUgjtyIiIpKsFG5tKCPFRYXptxYUbkVERCSJtDjcbtmyhS+++CK2/N577zFx4kQee+yxQ1qYHLwMn5tKGsKtpiWIiIhI8mhxuL3ssstYunQpADt27OCcc87hvffe4+abb+aOO+445AVKy2WkuGMjt5HassQWIyIiInIEtTjc/uc//+Hkk08G4B//+Ae9evXi7bff5m9/+xtz5sw51PXJQUj3uaioH7kNVZclthgRERGRI6jF4TYUCuH1egFYsmQJF110EQDdu3dn+/bth7Y6OShup4M6RxoA4Zo9Ca5GRERE5Mhpcbg94YQTeOSRR3jzzTdZvHgxw4YNA2Dbtm3k5uYe8gLl4ITc6QBEavSFMhEREUkeLQ63M2bM4NFHH+WMM87g0ksvpXfv3gC8+OKLsekKkngRjxVuTZ0tQURERJKIq6UPOOOMMygtLaWiooLs7OzY+v/7v//D7/cf0uLk4EW9mVALhsKtiIiIJJEWj9zW1tYSCARiwXbz5s088MADfPLJJ+Tl5R3yAuXgGL4MABzBygRXIiIiInLktDjcDh8+nKeffhqAsrIyBgwYwL333suIESOYNWvWIS9QDo6RkgmAK6Tz3IqIiEjyaHG4/eCDDxg0aBAA//znP8nPz2fz5s08/fTTPPjgg4e8QDk4Lr81su4JV4FpJrgaERERkSOjxeG2pqaG9HTry0qLFi3i4osvxuFw8L3vfY/Nmzcf8gLl4LhTswBwmmEI1Sa2GBEREZEjpMXh9rjjjuP5559ny5YtvPrqqwwZMgSAnTt3kpGRccgLlIOTkppBxDSshYCmJoiIiEhyaHG4/c1vfsOvfvUrjjnmGE4++WQGDhwIWKO4ffr0OeQFysHJ9HuorL9KGTpjgoiIiCSJFp8K7Ac/+AGnnXYa27dvj53jFuDss89m5MiRh7Q4OXgZPjcVpp8so1rhVkRERJJGi8MtQEFBAQUFBXzxxRcYhkG7du10AYejTEaKmwpSga+gTtMSREREJDm0eFpCNBrljjvuIDMzk06dOtGxY0eysrK48847iUajh6NGOQgZPjeVZsO0hLKE1iIiIiJypLR45PaWW25h9uzZ3H333Zx66qmYpslbb73FtGnTqKur43e/+93hqFNaKCPFxbaGObf6QpmIiIgkiRaH26eeeoo///nPXHTRRbF1vXv3pl27dlx99dUKt0eJDJ879oWySE0ZzgTXIyIiInIktHhawu7du+nevXuj9d27d2f37t0t2tbDDz9M586d8fl89OvXjzfffHO/7ZcvX06/fv3w+Xx06dKFRx55pFGb+fPn07NnT7xeLz179mTBggVx97/xxhtceOGFFBUVYRgGzz//fKNtjBs3DsMw4m7f+973WtS3REv3uaion5YQrN6T4GpEREREjowWh9vevXszc+bMRutnzpzJd7/73WZvZ968eUycOJFbbrmFNWvWMGjQIM4991xKSkqabF9cXMx5553HoEGDWLNmDTfffDPXXXcd8+fPj7VZuXIlo0ePZsyYMaxbt44xY8ZwySWX8O6778baVFdX77MPexs2bBjbt2+P3RYuXNjsvh0NXE4Hdc5UAMI1OluCiIiIJAfDNFt2bdbly5dz/vnn07FjRwYOHIhhGLz99tts2bKFhQsXxi7NeyADBgygb9++zJo1K7auR48ejBgxgunTpzdqP2XKFF588UU2bNgQWzd+/HjWrVvHypUrARg9ejQVFRW8/PLLsTbDhg0jOzubv//97422aRgGCxYsYMSIEXHrx40bR1lZWZOjus1VUVFBZmYm5eXlCbu4xR/vnMj1kScp63IRWVf8JSE1iIiIyOFxNGSNo1GLR24HDx7Mp59+ysiRIykrK2P37t1cfPHFfPzxxzz55JPN2kYwGGT16tWxq5s1GDJkCG+//XaTj1m5cmWj9kOHDuX9998nFArtt82+trk/y5YtIy8vj+OPP56rrrqKnTt3tngbiRb0ZAFg1rRsuoiIiIhIa3VQ57ktKipq9MWxdevW8dRTT/HEE08c8PGlpaVEIhHy8/Pj1ufn57Njx44mH7Njx44m24fDYUpLSyksLNxnm31tc1/OPfdcfvjDH9KpUyeKi4uZOnUqZ511FqtXr8br9Tb5mEAgQCAQiC1XVCT+DAUhXxbUgqNO4VZERESSw0GF20PFMIy4ZdM0G607UPtvrm/pNpsyevTo2P979epF//796dSpEy+99BIXX3xxk4+ZPn06t99+e4v2c7hFfTkAuOr0hTIRERFJDi2elnAotGnTBqfT2WhEdefOnY1GXhsUFBQ02d7lcpGbm7vfNvvaZnMVFhbSqVMnPvvss322uemmmygvL4/dtmzZ8q32eSgYfivcekJliS1ERERE5AhJSLj1eDz069ePxYsXx61fvHgxp5xySpOPGThwYKP2ixYton///rjd7v222dc2m2vXrl1s2bKFwsLCfbbxer1kZGTE3RLN4bdCvztSC6G6BFcjIiIicvg1e1rCvv4c36CsrKxFO548eTJjxoyhf//+DBw4kMcee4ySkhLGjx8PWCOhW7du5emnnwasMyPMnDmTyZMnc9VVV7Fy5Upmz54ddxaE66+/ntNPP50ZM2YwfPhwXnjhBZYsWcKKFStibaqqqvj8889jy8XFxaxdu5acnBw6duxIVVUV06ZNY9SoURQWFrJp0yZuvvlm2rRpw8iRI1vUx0TzpGUTNh24jCjU7gZ3UaJLEhERETmsmh1uMzMzD3j/FVdc0ewdjx49ml27dnHHHXewfft2evXqxcKFC+nUqRMA27dvjzvnbefOnVm4cCGTJk3ioYceoqioiAcffJBRo0bF2pxyyinMnTuXW2+9lalTp3Lssccyb948BgwYEGvz/vvvc+aZZ8aWJ0+eDMDYsWOZM2cOTqeTjz76iKeffpqysjIKCws588wzmTdvHunp6c3u39EgI8VDGWm0oQJqdkOGwq2IiIjYW4vPcyvNczSce+6fq7+g9wtD6OrYCmP/BZ1PT0gdIiIicugdDVnjaJSQObdyZOSkutlDmrVQsyuxxYiIiIgcAQq3Npbt91BmNoRbnetWRERE7E/h1sZyUj3sNuvnCdcq3IqIiIj9KdzaWHaqhzKscBuuKk1wNSIiIiKHn8KtjaV7XZTXz7kNVircioiIiP0p3NqYYRgEvNkARKo0LUFERETsT+HW5iLeLOs/OluCiIiIJAGFW5szU3IAcNTtSXAlIiIiIoefwq3NOVLbAOAKKNyKiIiI/Snc2pw7PRcAb7gSIuEEVyMiIiJyeCnc2pyvPtwCUKvRWxEREbE3hVuby0rzU2amWgv6UpmIiIjYnMKtzeWkutnTcAleXaVMREREbE7h1uay/V9fpYwahVsRERGxN4Vbm8tJ9bDbbAi3mpYgIiIi9qZwa3PWyK01LcHUyK2IiIjYnMKtzeWkemJzbsPVGrkVERERe1O4tTm/x0mFkQFAsOKrBFcjIiIicngp3NqcYRgEPVkARKo0cisiIiL2pnCbBMLebABMnQpMREREbE7hNgmY/hwAHAq3IiIiYnMKt0nAkWpdgtcVKEtsISIiIiKHmcJtEnCnWeHWGyqHaDTB1YiIiIgcPgq3ScCb0RYAB1GoK0tsMSIiIiKHkcJtEshMS6XK9FkLtXsSW4yIiIjIYaRwmwSyU7++Shm6SpmIiIjYmMJtEshJ9bDbTLcWanSuWxEREbEvhdskkO33UFZ/CV50OjARERGxMYXbJJCT6mEP1sitqZFbERERsTGF2ySQ7f96WkKwsjTB1YiIiIgcPgq3SSDF46TKUR9uKxRuRURExL4UbpNE0JMFQKRa0xJERETEvhRuk0TIm2P9p/qrxBYiIiIichgp3CaJiD8PAGeNpiWIiIiIfSncJgkz1boEr7dO4VZERETsS+E2SbgyCgDwRKogVJvgakREREQOD4XbJJGSnkPAdFkLVTsTW4yIiIjIYaJwmyRy0jx8RZa1oC+ViYiIiE0p3CaJnFQvpWaGtVD1ZWKLERERETlMFG6TRNt0L1+ZWdaCpiWIiIiITSncJom8dC9fmZnWgsKtiIiI2JTCbZJom+6lFCvchsq3J7gaERERkcND4TZJpHpdlDusq5QFyzXnVkREROxJ4TaJhFLaABCtVLgVERERe1K4TSINVylz1OhUYCIiImJPCrdJxJGeD4CnTuFWRERE7EnhNol4Mq1L8LojtRCoSnA1IiIiIoeewm0SyczMptb0WAvVOh2YiIiI2I/CbRLJy0jZ61y3mpogIiIi9qNwm0T2PtetLsErIiIidqRwm0TiLsGraQkiIiJiQwq3SaTtXpfg1bluRURExI4UbpNIbqonNi0hUKZL8IqIiIj9KNwmEZfTQa0nF4CQLsErIiIiNqRwm2RCPusqZfpCmYiIiNiRwm2SMdPyAHDWlCa4EhEREZFDT+E2ybgyrKuUeQOlYJoJrkZERETk0FK4TTK+LCvcuqIBCFQmuBoRERGRQ0vhNslkZWVRZfqshSqd61ZERETsReE2yex9rltdyEFERETsRuE2yeTpErwiIiJiYwq3SSbuErxVXyW0FhEREZFDTeE2ybRN91JaPy0hVK6rlImIiIi9KNwmmXSviz1GFgCBsh2JLUZERETkEFO4TTKGYRBIaQNAuFLhVkREROxF4TYJhVOsq5QZlfpCmYiIiNiLwm0SiqYXAuCp0citiIiI2IvCbRIysjoAkBLcBaG6BFcjIiIicugo3Cah9Kw8akyvtVCxNbHFiIiIiBxCCrdJqG2Gj21mrrVQ/kViixERERE5hBIabh9++GE6d+6Mz+ejX79+vPnmm/ttv3z5cvr164fP56NLly488sgjjdrMnz+fnj174vV66dmzJwsWLIi7/4033uDCCy+kqKgIwzB4/vnnG23DNE2mTZtGUVERKSkpnHHGGXz88cffqq9Hk7ZpXoVbERERsaWEhdt58+YxceJEbrnlFtasWcOgQYM499xzKSkpabJ9cXEx5513HoMGDWLNmjXcfPPNXHfddcyfPz/WZuXKlYwePZoxY8awbt06xowZwyWXXMK7774ba1NdXU3v3r2ZOXPmPmu75557uO+++5g5cyarVq2ioKCAc845h8rKykN3ABKoKCtF4VZERERsyTBN00zEjgcMGEDfvn2ZNWtWbF2PHj0YMWIE06dPb9R+ypQpvPjii2zYsCG2bvz48axbt46VK1cCMHr0aCoqKnj55ZdjbYYNG0Z2djZ///vfG23TMAwWLFjAiBEjYutM06SoqIiJEycyZcoUAAKBAPn5+cyYMYOf//znzepfRUUFmZmZlJeXk5GR0azHHCnlNSFm/248k93/JNz7x7hGPpTokkRERKSFjuaskUgJGbkNBoOsXr2aIUOGxK0fMmQIb7/9dpOPWblyZaP2Q4cO5f333ycUCu23zb622ZTi4mJ27NgRtx2v18vgwYP3u51AIEBFRUXc7WiVkeJil8s6121wV9Mj5SIiIiKtUULCbWlpKZFIhPz8/Lj1+fn57NjR9LlXd+zY0WT7cDhMaWnpftvsa5v72k/D41qynenTp5OZmRm7dejQodn7PNIMwyCUVgSAWaFpCSIiImIfCf1CmWEYccumaTZad6D231zf0m0eqtpuuukmysvLY7ctW7a0eJ9HkqP+XLfe6u2QmJkpIiIiIoecKxE7bdOmDU6ns9FI6M6dOxuNmDYoKChosr3L5SI3N3e/bfa1zX3tB6wR3MLCwmZvx+v14vV6m72fREvJ7QBbwRWphdo94M9JdEkiIiIi31pCRm49Hg/9+vVj8eLFcesXL17MKaec0uRjBg4c2Kj9okWL6N+/P263e79t9rXNpnTu3JmCgoK47QSDQZYvX96i7Rzt8nOz+MrMtBbKj+5RZhEREZHmSsjILcDkyZMZM2YM/fv3Z+DAgTz22GOUlJQwfvx4wPoz/9atW3n66acB68wIM2fOZPLkyVx11VWsXLmS2bNnx50F4frrr+f0009nxowZDB8+nBdeeIElS5awYsWKWJuqqio+//zz2HJxcTFr164lJyeHjh07YhgGEydO5K677qJr16507dqVu+66C7/fz2WXXXaEjs7h1y4rha1mLm2Ncut0YIW9E12SiIiIyLeWsHA7evRodu3axR133MH27dvp1asXCxcupFOnTgBs37497py3nTt3ZuHChUyaNImHHnqIoqIiHnzwQUaNGhVrc8oppzB37lxuvfVWpk6dyrHHHsu8efMYMGBArM3777/PmWeeGVuePHkyAGPHjmXOnDkA/PrXv6a2tparr76aPXv2MGDAABYtWkR6evrhPCRHlHWu2zacyP90rlsRERGxjYSd59bujvZzz31ZUce/7hnHz1wvEx04AcfQ3yW6JBEREWmBoz1rJEpCz5YgidM2zcuXRlsA6kp1rlsRERGxB4XbJOVwGNT5rTNDRPboC2UiIiJiDwq3SczMaA+Aq2pbgisREREROTQUbpOYO6cjAL66nRAJJbgaERERkW9P4TaJZeQWEjDdGJhQodFbERERaf0UbpNYu5xUtpn1VybT6cBERETEBhRuk1j7+nPdAgq3IiIiYgsKt0msXXYK28xcAExdgldERERsQOE2iRVmprANa+Q2sGtzgqsRERER+fYUbpOYx+Wg0psPQHCXLuQgIiIirZ/CbZKLpLcDwNCcWxEREbEBhdskF84+FgB/1SYI1SW2GBEREZFvSeE2yfnbHsMuMx2nGYadHye6HBEREZFvReE2ybXP9vNRtIu1sG1NYosRERER+ZYUbpNcu+wUPjQ7WwsKtyIiItLKKdwmuU65qbGRW3Orwq2IiIi0bgq3Sa5zbir/cx9vLXz1XwjWJLYgERERkW9B4TbJORwG+e2OYaeZhWFGYMdHiS5JRERE5KAp3Aq9O2bzYVTzbkVERKT1U7gVerfP5MOodb5bhVsRERFpzRRuhd4dsmJnTIhu/SDB1YiIiIgcPIVboSDDxw5/dwCMXZ9BoDLBFYmIiIgcHIVbwTAM2nc4hq1mLgYmbP8w0SWJiIiIHBSFWwHgxA6ZulKZiIiItHoKtwLAd9tn6YwJIiIi0uop3AoA322fyUemNXIb+WJ1gqsREREROTgKtwJAlt9DWfZ3iJgGzrJi2LM50SWJiIiItJjCrcR06dCO981u1sKnryS2GBEREZGDoHArMb3bZ7Ek0tda+OTlxBYjIiIichAUbiWmd4dMlkT7AWBuWgF1FQmuSERERKRlFG4lple7THa627MxWogRDcHG1xJdkoiIiEiLKNxKjNfl5IxuebwWbZiaoHm3IiIi0roo3EqcISfkfz3v9rNXIRJObEEiIiIiLaBwK3HO6JbHOqMbZWYq1O6BL95LdEkiIiIizaZwK3EyU9yc1CWPpdETrRWfLExoPSIiIiItoXArjVhTE6yzJuiUYCIiItKaKNxKI9/vkc8b0e8SMF2w63PY8Z9ElyQiIiLSLAq30khRVgqd2xeyNNrHWvHRPxJbkIiIiEgzKdxKk87pkc+CyKnWwofPQjSa2IJEREREmkHhVpo05IQClkVPpNxMhcptsOnNRJckIiIickAKt9Kk4/PT6JCXw0uRk60VH2pqgoiIiBz9FG6lSYZhMKpvexZEBlkr1r8AodrEFiUiIiJyAAq3sk8j+7TjA47nC7MNBCt1WjARERE56incyj4VZPo45bg8no99sUxTE0REROTopnAr+/WDfu1j4db8fDGUb01wRSIiIiL7pnAr+zWkZwE7PMfwTrQHRjQMS+9KdEkiIiIi+6RwK/uV4nFy3ncKmBH6kbVi3d/gy48TW5SIiIjIPijcygGN6tueNWZXXjW/B2YUlkxLdEkiIiIiTVK4lQM6uXMOx+WlMT34QyKGEz5bBMVvJLosERERkUYUbuWADMPgxmHd2WQW8vfI2dbKxb/RJXlFRETkqKNwK81ydo88BnbJ5f7gSOqMFNi2Bl6/I9FliYiIiMRRuJVmMQyDW87vwW4jkxsDP7FWrrgfPng6sYWJiIiI7EXhVpqtV7tMftC3Pc9HT+MfqZdZK/89Cf63LKF1iYiIiDRQuJUW+dXQbqS4nfx61/msbzMUomGYdwV89WmiSxMRERFRuJWWyc/wccfwEwCDkV9cys7sPhAoh3mXQ11FossTERGRJKdwKy32w/4dmPj9rgTwcMGOq6hLyYPST+H5X+gMCiIiIpJQCrdyUK4/uyuX9G/PTjOLcVXXEnV44L//hhX3Jro0ERERSWIKt3JQDMPgdyO/w+nHt+Wd0LHc7bjSuuP138G7j4JpJrZAERERSUoKt3LQ3E4Hf7q0D13apvJY1SAWplwImPDyr2HBeAjVJrpEERERSTIKt/KtZKa4+fMV/Un3ubh6z4/4V8EETMMJH86F2UNgx0eJLlFERESSiMKtfGtd2qYx87K+OAyDazedwqyO92Km5MKOD+GRQbDgF1C+NdFlioiISBJQuJVDYvDxbbljeC8cBtzzSR5j3L+nqutFgAnr/gZ/6gtLboe68kSXKiIiIjamcCuHzI+/14lnfjaANmkeVuz0MfDTH/NC/78Q7TAQwnWw4j54sI/1hbNwMNHlioiIiA0ZpqmvtR8OFRUVZGZmUl5eTkZGRqLLOaK+rKhjwt8+YNWmPQC0y/Qx4ztbOXXTnzBK669kltkBBv0STrwcXJ4EVisiItI6JXPW2B+F28Mk2V9w4UiUf67+ggeWfMaOijoAurVN4f6uH9Lj01kYVTushpkdYNBkOPHHCrkiIiItkOxZY18Ubg8TveAsdaEIT729iYeXbaS8NgTA9zqkcFenNXT+72PxIfe0SdDnx+DyJrBiERGR1kFZo2kKt4eJXnDxymtDPLJ8I0++VUxdyLpE78kd/NzZ/n2O/+zPX4fc9CI45VroNxY8qQmsWERE5OimrNE0hdvDRC+4pn1ZUcfDSz9n7qotBMJWyO1d4OOuTh/Q83+zMSq3Ww1TcqDfOOj9I2jbLXEFi4iIHKWUNZqmcHuY6AW3fzsr65j9ZjF/eWczNcEIAD3aevlt54/ou+UpjD3FXzcuPBF6XADtT4Z2/cCblpiiRUREjiLKGk1L6KnAHn74YTp37ozP56Nfv368+eab+22/fPly+vXrh8/no0uXLjzyyCON2syfP5+ePXvi9Xrp2bMnCxYsaPF+x40bh2EYcbfvfe97366zEicv3cdN5/XgrSlncd3ZXUn3udjwVYBR7x3PoOp7WNLrHsLHDQWHC7avhdd/C09fBHd3gMfPgjfvha8+TXQ3RERE5CiTsJHbefPmMWbMGB5++GFOPfVUHn30Uf785z+zfv16Onbs2Kh9cXExvXr14qqrruLnP/85b731FldffTV///vfGTVqFAArV65k0KBB3HnnnYwcOZIFCxbwm9/8hhUrVjBgwIBm73fcuHF8+eWXPPnkk7H9ezwecnJymt0/fZpqmYq6EM+8s5knVmyitCoAgNflYMTxXsZlruH4wEc4t74P5VviH5hWAFkdIasDZLa3vpiW2aF+uQP4dOxFRMSelDWalrBwO2DAAPr27cusWbNi63r06MGIESOYPn16o/ZTpkzhxRdfZMOGDbF148ePZ926daxcuRKA0aNHU1FRwcsvvxxrM2zYMLKzs/n73//e7P2OGzeOsrIynn/++YPun15wB6cuFOH5NVv584piPt9ZFVvvdhr0LMrk9PwQQ9xr6VG2HNfmNyEa2v8GvZmQUQjeDGs6Q0o25Ha15vG2Od4KxL5MMIzD3DMREZFDS1mjaa5E7DQYDLJ69WpuvPHGuPVDhgzh7bffbvIxK1euZMiQIXHrhg4dyuzZswmFQrjdblauXMmkSZMatXnggQdavN9ly5aRl5dHVlYWgwcP5ne/+x15eXkH011pAZ/byY9O7sjokzrw8bYKnl+zlX99uI0vKwKs21LGui3wJ7ricXbjjM7XMTSvgo6u3RREd5Id3om/ZhuOii1Q/gXU7oFAOXx1gEv+ulMhPR/cfnB6rKkQ4ToI1UA4AP5cyO5kjRC7U4H6z4Oxz4UmBKqgphRqdoEZtQKzN8M6rVk0DJEwGPX78vjBcEKgEgIVUFdhXZY4UG5duS0tD9IL6m9F1r/+XKjdDRXboOpLwLC27fRY2w/VQKjWqslwgMNpfSkvuxNkdbLOPBEJWNsPVEB1qVVvOFC/Ha8V8AOVEKyCSKj+A0G6VW80DNGItT4asvqDCWn51geE9EJre+VfWDW6/VbNKdlW3yrq12NYo+nedOsYRILWNgMV1rGrLv16u2n54M+x+uh0W8e1tsx6XkO19dvJsPoWqrWOQbD66/+HA5DaBjLaWfWZkfr7a6x9mqa1zoxat2jE2pc7xarfnfL1/+HrY2w4rL75c8HhsPpVsc2qy7S+JEkkZD1fNbusmhuOmxm1HpeWb9UWDljPf7ASHO7G+22qFrfP+reuAvZsgrLN1vHp8D3ocDL4sqC8BL76xHo+QrUQrrWeh7ItUFZi1eXPgdS21nMUroNgjfUaScu3/uqRUWQ9pnKH9ZrzZlg/J2kF1gdFhxucLus1U/ml1SYSsJ5Xh3Ovfx3xy04PeNKsbbh81jEI11nH3+WxXosOl/U6DFZBqM6qMa2tdexCddbrJVBRf8zqjw3Uv07DVk01u63nxDDAk27tr2G/nnSr1vKtULHVem49qdb9sTb1c/vL9z5mbaxj4M+16g5WW6/hzPaQe5z17+7/wfYPYecG62crtY31OIBQ/evT4a7fX6r1+Noy6/USjXy93pNm/etNs45hoP54NPyMBqqs57XhfcgwrA/zvsyvtxuuq3/+9/o3WF1/XGsh+xho19/6LoNhWH0t32r9LNfusY6h4YCULOs5iL1vVVqvZ5fXeg5dvr3eRxzW6zlQZfWpfOvX78dtj7e+Q5Hfy/o5D1Zbx9Hj//o9Mxz4+vnd+32u4ebyWj9PoWrr8U6P9TpObWP9XIQDX7/Xxf0bsI5JNFJfd/12I6Gvj1X1V/XvjbusfTuc1s+Wv401SJJeZB0Hb7p1w7S2H677el/huvrtBb6uZcAvrJ8VOWIScrRLS0uJRCLk5+fHrc/Pz2fHjh1NPmbHjh1Ntg+Hw5SWllJYWLjPNg3bbO5+zz33XH74wx/SqVMniouLmTp1KmeddRarV6/G6236HKyBQIBAIBBbrqioOMBRkP0xDINe7TLp1S6TW87vwZbdtazZsoc1JWUs//QrikurWfR5DYs+dwF59TdwOgzy070UZaXQqb1JN185HdwVpDvqSKeWzGgZbQMl+Ms/x9j1WX1QqrZ+Ie1L+RZr3u+RUvrJkduX2I8rxQo9B1K2+fDXIke3L1bBR88euf1tX2fdkk3fseDUqOqRlNCPEsY3/hRsmmajdQdq/831zdnmgdqMHj069v9evXrRv39/OnXqxEsvvcTFF1/cZG3Tp0/n9ttv32ftcvAMw6Bjrp+OuX6Gn9gOgM93VrFkw5d8sqOSrWW1bCurZUd5HeGoybbyOraV1/F+bAvp9TeAjsB3SfU46dw2lU75BselVNHBXYHfEcZrhHARIWC6qTK91EWd5DvKaW+U0iayAzfh2FZNvn7NBIwUKp2ZlJFJFIM0akg1q3ETImI4iZhODEy8Zh2eaB2GGaHOmUqtI41q/FQafsqjfgKmgzyjkrbsJjtSSlqoFE/NlxjVpZj+XIL+Aqo9uWA4cJlBnNEQUYebkOEhaHgxDQcOM4pBFH9oN/7qL3CUlVijCQ0jFd40ov42BD3ZhJ0+nNEQzmgATJOQK5Wg008EJ95oDZ5wFa5IHabDSRQnUYeLqOEmajgBk5S6r3BWfAFVO8DfhmhGe2pT8nBFg3gCezDq9mB6M6hLKaDCY30A8UWr8YarAJOow03EcBNw+Kl0ZFLmyATTJMfcQ2ZkF75wJY5oGIcZwjQh6M6k1pVB0PCSYtbgDVfhitQScXoJOVIIOnwEHV4C+AgZLjIjZWSEduKr+wqcbkyXn4grhajhIoqDCAZRHERxYGLgJIw7UoczUocrUosRrsUI1QImptuP6UoBM4KjdjdU74JoGDOjiHBqIXWebMz695EITqqdmVQY6VSQRhA3IZxETWhjVJBjlpEeLSNkeKl1pFKDD5cRxWsG8JgBPNE63NEA7qhVizNSiyNSZ9USqrVGrDyphDI6Uu4rwh2qIuOr1dYHtnAtOD2YuccRyexE2JVCxOGjzpFCqTOfrbTlq2g6uY5q2hrlpJvVBA0PtYaPkOmkjbmbnPCXpAa+IuhOp8LdljIjCz+1ZIZLSQ3uwhmpxYiGMaJhIu5Uaj1tqHJlE3J4649mFMOM4DAbjm4Eo/7/zmgQd6QGV7gaRyRI1Okl6vRi4sBhhnBEAhhmhIjLT8iZSsThwRsqx1VbilG7G9wpmN4MIu40ax8Nz5FhgMOFaTiIetIJuDOpdaZbA7eRGjyRGpzhapzBaghUYjrdhNOKqPLkEXD68UZr8URrcYercUVqcASrMc0IgdQiyjyFVDkzyYiWkxbahTdUTsThJexMIWI48ddsxbn7f9YH4ayOBNr24kt/V1xGlLRwGSnBPZiGg7AzhbDDi8MM447W4gpVE3W4CbgzqHVlEsWB16zDHamtP0Y1OEI1EA0T9aQSdqURcvkJOvwEHH4ChjVSagIOM0KKWYMvUoU7XE3U4SHs9BIyrFvQ4SGIhzp8VOOjznTRMVJCu+r1eL5cZ71mMtoRSC2kxpNLjTODSiMNA0g3q/BHKjCIUudIpc7hJ4QLDyHcZhC3GcQVDeIygxhmlKDTT50jlSrDz3Yzl5JIDrtCXr7r2UoP83+0qduE6fAQdvoIO7y4I7V4QhU4ghWYrhTC7nRCLus8504zhCMSxGEGcURDGJEgGC7CLj9hZwoOM4SnthSj+itrlNTp/fovAC4vptND1OEh6vQQNdzWe2Q0hDMaxIgGMR3u2PtQjTubSmc2ZUYGhuHASQSXGSIzsoeM0Ff4Al/hqCuvH1mutEapG0aTG0auXV5Mp9fan8NjvX6BfScbORwSEm7btGmD0+lsNEq7c+fORqOqDQoKCpps73K5yM3N3W+bhm0ezH4BCgsL6dSpE5999tk+29x0001Mnjw5tlxRUUGHDh322V6+nePy0jguL/6UYJGoSWlVgG1ltWwrq7P+La9lZ2WA6kCY6kCYXdVBSnbVUB2M8J+tFfwn9uj9XTDCB+QDJxyWvjSWCbSPLXmcDrL8bsp2hAhGoi3aktNhUJDhI9XrJBiOEqyLUrk7TGVd+MAPbqacVA9t07zsrghSui0Q91fSNK+LmmCESDSxZxw0jL1mkbSAw4AUtxPDMKgNfd2PdK+LrFQ3TsNgR0ld7MIkzdOm5YVg9SHF7STF7cTndlK5J0TF5q+fx3TfxQxuB+18IVaVZ/DZzloqS/b3PPuBtk2sb/yF3n1xOw1CkSPz3HqcDjL9bupCEaoC4djz6TCs6UwA4ahJpP62L26nQarXRTAcjZ2GcF/tDIxm/cwZBhRlplCU52Hznjp27ggc8DHN5XYaOAwjdl7wQ6sQGECHnBQIw5fFgRa/x7RMu/rboCbvdTkMwgd4r2jqZ9lhQE6qF5/bQTAcJRSJWu93keghf32meV3WzefCNE2CwSjBGmt/gbD17zf7sH6kH/8hrUIOJCHh1uPx0K9fPxYvXszIkSNj6xcvXszw4cObfMzAgQP517/+Fbdu0aJF9O/fH7fbHWuzePHiuHm3ixYt4pRTTjno/QLs2rWLLVu2UFhYuM82Xq93n1MW5MhwOgzyM3zkZ/jos5/fz8FwlJLd1RSX1rCjoo4vy+v4qtJ6U294Y/S6naS4HXhdTkqrAnyxp5atZbWE9v4Fs9dH8VSPi+xUDzmpbhyGQUVdmMq6EMFwFLfTgdNhYJomtcEINfUhKcPnJt1nvVGm+1yk+9y4nAa7qoJ8WWHVtKs6SDASZWfl178sc1I9GPX9CESieJwOfPW1OhwQjULUNNlVZT12a1nTf6J2GOB1OQmEIzS8F3tcDlI9TpwOB9WBMLWhxr/8XQ4Dl9PANCEQjrK7Osju6mDs/obAY5rEQrTTYZCX7sUAKus/aERNK7C4nAZ+j4vcVA/ZqdbPcmlVkK8qA7FLNjdoCDg+t4PqQISK2hDhqInDAL/HRYrHCn9+jzPuWDb1+9Iw6vfvMHDW38IRM/b8AERNqG4iAFUGwlQG4oNjqseJo37k1uk0yEpxk+X3kJHixuty4HZa9+2uDlJaZR2zFLeTVK8Tv8dFJGpSF4pQG4pQF4pQF4rGBWrThJpgpFEgy031UBuKUFkX5t8bwXphVsYfN5eDNK+Loiwf7bJSyEn1UF4borQqSEVtCK/bid9tHbOvKgNsLaulsi6M22mQl+6jTbqX6kCYLyvq4j4YNQQHj9NBmzQPPreTiGkSNU2iUesDZ8Q0idb/G4masRDQHA7Dqr0uZAWVryobh8Zo/XH5JpfDIDPFjQlUB8KxfYYiJmU1X7+usvxuUj0uautDc3CvdmC9tvIzfGT7PeypsV6XDeHF7bReN3Uh6+es4WfNMKBjjp+oabK7Khh7DTkdBiluJ+FoNO4Dkc/tIDPF+rBUE4pQE4jEQmZDHbHn0ukg1esk1evC53biMMDAIByNUhWwPrjWBCO4nQY+lxNv/XtDw3tEqtdJiseFx+lg41dVFJdWs2X31+8RhkHcaxegvCZIeW2ISNQk3ecmzevC5TTiAl0gHCEQjhI1TVI9LlLr39cKM1MoyvKR5nXx6ZdVfLytnO3ldbHnyOd2UhO03g/2DoVelzUiHfzGa2XvYOswrOc/ahI7y86B7O+DbrbfTW6alxy/Bwzr9RuKRGPvI+GoSVUgTFUgDC2YeRgMR/F7mt9evr2ETUuYPHkyY8aMoX///gwcOJDHHnuMkpISxo8fD1gjoVu3buXpp58GrDMjzJw5k8mTJ3PVVVexcuVKZs+eHTsLAsD111/P6aefzowZMxg+fDgvvPACS5YsYcWKFc3eb1VVFdOmTWPUqFEUFhayadMmbr75Ztq0aRMXiKX18rgcHJeXznF56QdunGDBcJSvqgLsqQ6S5XeTl+7D42re6amj9SPZW/bUEAhF8bgceFyOWJDMTHHjcFiBKxyJYgJuZ/y2w5EodeFoLAC6HEZsCo9pmlTUhmOj4zl+D0VZPnJSPUSiJmW1IcpqgqT73LRJ8+J0fP1poKkpRU0x6wNRQ4jyuR1xjzFN6z6309jntsKRKLtrgjgMA7fTgcdpHYe96/mmUMQKlnVBK2yaJvg9TnweJ5GIyZ6aIHtqQoQjUQoyrQ9UDaOHh1JD/+rCVi0Ngbc2FMHvcdI+OwW/x0U4EuW/Oyp5f9NuKuvCdGlr/WWjQ04KPpcz9jy3RG0w0uh4A/XBO0IoYhKORvF7XGT4XAd8LvcWjkSpDkYIhqN43Y7Yh4xQxAq/oWiUVI8rtv+6UIRd1UH2VAfxuZ1kpFgfCsNRM/YcGRg4nQZOwyDN5yLV44yrKRSxRmob/orjcjooyPCR4ol/3vZuFzVN8jN8cT8X0ahJdTCM1+XE43Jgmia7q4Ns2lXN1rI62men0L0gHb/n61+vdaEITocRt51I1KQmGMbtdDT52mmooyYYJhI1SfO68Htczfr5j0bNZj/n5TUhPt5ejtvpoDDT16L3mINVEwzjcjhi+zFNk+pghMq6ED6XFdz3vi9cHzKD9UHa5XTg9zjxuhyEoyZ7qoN8VRUgGLbe56wPk9b2G37eG/5vGAbhiBXKQxFrW26ngdvh2O8xi0atn/uKOuv1U1kXtj4g12/X63LEXhN7729/701yGJkJ9NBDD5mdOnUyPR6P2bdvX3P58uWx+8aOHWsOHjw4rv2yZcvMPn36mB6PxzzmmGPMWbNmNdrms88+a3br1s10u91m9+7dzfnz57dovzU1NeaQIUPMtm3bmm632+zYsaM5duxYs6SkpEV9Ky8vNwGzvLy8RY8TERERaQ5ljabp8ruHic49JyIiIoeTskbTEnr5XRERERGRQ0nhVkRERERsQ+FWRERERGxD4VZEREREbEPhVkRERERsQ+FWRERERGxD4VZEREREbEPhVkRERERsQ+FWRERERGxD4VZEREREbEPhVkRERERsQ+FWRERERGxD4VZEREREbMOV6ALsyjRNACoqKhJciYiIiNhRQ8ZoyBxiUbg9TCorKwHo0KFDgisRERERO6usrCQzMzPRZRw1DFNx/7CIRqNs27aN9PR0DMM45NuvqKigQ4cObNmyhYyMjEO+/aOV+p08/U7GPkNy9jsZ+wzqdzL1+3D12TRNKisrKSoqwuHQTNMGGrk9TBwOB+3btz/s+8nIyEiaN4e9qd/JIxn7DMnZ72TsM6jfyeRw9Fkjto0p5ouIiIiIbSjcioiIiIhtKNy2Ul6vl9tuuw2v15voUo4o9Tt5+p2MfYbk7Hcy9hnU72TqdzL2OZH0hTIRERERsQ2N3IqIiIiIbSjcioiIiIhtKNyKiIiIiG0o3IqIiIiIbSjctlIPP/wwnTt3xufz0a9fP958881El3TITJ8+nZNOOon09HTy8vIYMWIEn3zySVwb0zSZNm0aRUVFpKSkcMYZZ/Dxxx8nqOJDb/r06RiGwcSJE2Pr7NrnrVu38uMf/5jc3Fz8fj8nnngiq1evjt1vx36Hw2FuvfVWOnfuTEpKCl26dOGOO+4gGo3G2tih32+88QYXXnghRUVFGIbB888/H3d/c/oYCAS49tpradOmDampqVx00UV88cUXR7AXLbO/PodCIaZMmcJ3vvMdUlNTKSoq4oorrmDbtm1x22htfYYDP9d7+/nPf45hGDzwwANx61tbv5vT5w0bNnDRRReRmZlJeno63/ve9ygpKYnd39r63Foo3LZC8+bNY+LEidxyyy2sWbOGQYMGce6558b9wLRmy5cv55prruGdd95h8eLFhMNhhgwZQnV1dazNPffcw3333cfMmTNZtWoVBQUFnHPOOVRWViaw8kNj1apVPPbYY3z3u9+NW2/HPu/Zs4dTTz0Vt9vNyy+/zPr167n33nvJysqKtbFjv2fMmMEjjzzCzJkz2bBhA/fccw+///3v+dOf/hRrY4d+V1dX07t3b2bOnNnk/c3p48SJE1mwYAFz585lxYoVVFVVccEFFxCJRI5UN1pkf32uqanhgw8+YOrUqXzwwQc899xzfPrpp1x00UVx7Vpbn+HAz3WD559/nnfffZeioqJG97W2fh+ozxs3buS0006je/fuLFu2jHXr1jF16lR8Pl+sTWvrc6thSqtz8sknm+PHj49b1717d/PGG29MUEWH186dO03AXL58uWmaphmNRs2CggLz7rvvjrWpq6szMzMzzUceeSRRZR4SlZWVZteuXc3FixebgwcPNq+//nrTNO3b5ylTppinnXbaPu+3a7/PP/9886c//Wncuosvvtj88Y9/bJqmPfsNmAsWLIgtN6ePZWVlptvtNufOnRtrs3XrVtPhcJivvPLKEav9YH2zz0157733TMDcvHmzaZqtv8+mue9+f/HFF2a7du3M//znP2anTp3M+++/P3Zfa+93U30ePXp07Ge6Ka29z0czjdy2MsFgkNWrVzNkyJC49UOGDOHtt99OUFWHV3l5OQA5OTkAFBcXs2PHjrhj4PV6GTx4cKs/Btdccw3nn38+3//+9+PW27XPL774Iv379+eHP/wheXl59OnTh8cffzx2v137fdppp/Haa6/x6aefArBu3TpWrFjBeeedB9i333trTh9Xr15NKBSKa1NUVESvXr1scxzKy8sxDCP21wq79jkajTJmzBhuuOEGTjjhhEb3263f0WiUl156ieOPP56hQ4eSl5fHgAED4qYu2K3PRxOF21amtLSUSCRCfn5+3Pr8/Hx27NiRoKoOH9M0mTx5Mqeddhq9evUCiPXTbsdg7ty5fPDBB0yfPr3RfXbt8//+9z9mzZpF165defXVVxk/fjzXXXcdTz/9NGDffk+ZMoVLL72U7t2743a76dOnDxMnTuTSSy8F7NvvvTWnjzt27MDj8ZCdnb3PNq1ZXV0dN954I5dddhkZGRmAffs8Y8YMXC4X1113XZP3263fO3fupKqqirvvvpthw4axaNEiRo4cycUXX8zy5csB+/X5aOJKdAFycAzDiFs2TbPROjuYMGECH374IStWrGh0n52OwZYtW7j++utZtGhR3Hysb7JTn8Ea3ejfvz933XUXAH369OHjjz9m1qxZXHHFFbF2duv3vHnzeOaZZ/jb3/7GCSecwNq1a5k4cSJFRUWMHTs21s5u/W7KwfTRDschFArxox/9iGg0ysMPP3zA9q25z6tXr+aPf/wjH3zwQYv70Fr73fDl0OHDhzNp0iQATjzxRN5++20eeeQRBg8evM/HttY+H000ctvKtGnTBqfT2ehT3c6dOxuNgLR21157LS+++CJLly6lffv2sfUFBQUAtjoGq1evZufOnfTr1w+Xy4XL5WL58uU8+OCDuFyuWL/s1GeAwsJCevbsGbeuR48esS9H2vG5Brjhhhu48cYb+dGPfsR3vvMdxowZw6RJk2Kj9nbt996a08eCggKCwSB79uzZZ5vWKBQKcckll1BcXMzixYtjo7Zgzz6/+eab7Ny5k44dO8be3zZv3swvf/lLjjnmGMB+/W7Tpg0ul+uA72926vPRROG2lfF4PPTr14/FixfHrV+8eDGnnHJKgqo6tEzTZMKECTz33HO8/vrrdO7cOe7+zp07U1BQEHcMgsEgy5cvb7XH4Oyzz+ajjz5i7dq1sVv//v25/PLLWbt2LV26dLFdnwFOPfXURqd5+/TTT+nUqRNgz+carG/NOxzxb79OpzM22mPXfu+tOX3s168fbrc7rs327dv5z3/+02qPQ0Ow/eyzz1iyZAm5ublx99uxz2PGjOHDDz+Me38rKirihhtu4NVXXwXs12+Px8NJJ5203/c3u/X5qJKY77HJtzF37lzT7Xabs2fPNtevX29OnDjRTE1NNTdt2pTo0g6JX/ziF2ZmZqa5bNkyc/v27bFbTU1NrM3dd99tZmZmms8995z50UcfmZdeeqlZWFhoVlRUJLDyQ2vvsyWYpj37/N5775kul8v83e9+Z3722WfmX//6V9Pv95vPPPNMrI0d+z127FizXbt25r///W+zuLjYfO6558w2bdqYv/71r2Nt7NDvyspKc82aNeaaNWtMwLzvvvvMNWvWxM4M0Jw+jh8/3mzfvr25ZMkS84MPPjDPOusss3fv3mY4HE5Ut/Zrf30OhULmRRddZLZv395cu3Zt3PtbIBCIbaO19dk0D/xcf9M3z5Zgmq2v3wfq83PPPWe63W7zscceMz/77DPzT3/6k+l0Os0333wzto3W1ufWQuG2lXrooYfMTp06mR6Px+zbt2/sNFl2ADR5e/LJJ2NtotGoedttt5kFBQWm1+s1Tz/9dPOjjz5KXNGHwTfDrV37/K9//cvs1auX6fV6ze7du5uPPfZY3P127HdFRYV5/fXXmx07djR9Pp/ZpUsX85ZbbokLOHbo99KlS5v8WR47dqxpms3rY21trTlhwgQzJyfHTElJMS+44AKzpKQkAb1pnv31ubi4eJ/vb0uXLo1to7X12TQP/Fx/U1PhtrX1uzl9nj17tnnccceZPp/P7N27t/n888/HbaO19bm1MEzTNA/v2LCIiIiIyJGhObciIiIiYhsKtyIiIiJiGwq3IiIiImIbCrciIiIiYhsKtyIiIiJiGwq3IiIiImIbCrciIiIiYhsKtyIirZhhGDz//POJLkNE5KihcCsicpDGjRuHYRiNbsOGDUt0aSIiScuV6AJERFqzYcOG8eSTT8at83q9CapGREQ0cisi8i14vV4KCgribtnZ2YA1ZWDWrFmce+65pKSk0LlzZ5599tm4x3/00UecddZZpKSkkJuby//93/9RVVUV1+aJJ57ghBNOwOv1UlhYyIQJE+LuLy0tZeTIkfj9frp27cqLL754eDstInIUU7gVETmMpk6dyqhRo1i3bh0//vGPufTSS9mwYQMANTU1DBs2jOzsbFatWsWzzz7LkiVL4sLrrFmzuOaaa/i///s/PvroI1588UWOO+64uH3cfvvtXHLJJXz44Yecd955XH755ezevfuI9lNE5GhhmKZpJroIEZHWaNy4cTzzzDP4fL649VOmTGHq1KkYhsH48eOZNWtW7L7vfe979O3bl4cffpjHH3+cKVOmsGXLFlJTUwFYuHAhF154Idu2bSM/P5927drxk5/8hN/+9rdN1mAYBrfeeit33nknANXV1aSnp7Nw4ULN/RWRpKQ5tyIi38KZZ54ZF14BcnJyYv8fOHBg3H0DBw5k7dq1AGzYsIHevXvHgi3AqaeeSjQa5ZNPPsEwDLZt28bZZ5+93xq++93vxv6fmppKeno6O3fuPNguiYi0agq3IiLfQmpqaqNpAgdiGAYApmnG/t9Um5SUlGZtz+12N3psNBptUU0iInahObciIofRO++802i5e/fuAPTs2ZO1a9dSXV0du/+tt97C4XBw/PHHk56ezjHHHMNrr712RGsWEWnNNHIrIvItBAIBduzYEbfO5XLRpk0bAJ599ln69+/Paaedxl//+lfee+89Zs+eDcDll1/ObbfdxtixY5k2bRpfffUV1157LWPGjCE/Px+AadOmMX78ePLy8jj33HOprKzkrbfe4tprrz2yHRURaSUUbkVEvoVXXnmFwsLCuHXdunXjv//9L2CdyWDu3LlcffXVFBQU8Ne//pWePXsC4Pf7efXVV7n++us56aST8Pv9jBo1ivvuuy+2rbFjx1JXV8f999/Pr371K9q0acMPfvCDI9dBEZFWRmdLEBE5TAzDYMGCBYwYMSLRpYiIJA3NuRURERER21C4FRERERHb0JxbEZHDRLO+RESOPI3cioiIiIhtKNyKiIiIiG0o3IqIiIiIbSjcioiIiIhtKNyKiIiIiG0o3IqIiIiIbSjcioiIiIhtKNyKiIiIiG0o3IqIiIiIbSjcioiIiIhtKNyKiIiIiG38P3fLAtHcEqfBAAAAAElFTkSuQmCC;" vertex="1" parent="1">
          <mxGeometry x="555.35" y="704.63" width="660.76" height="475.37" as="geometry" />
        </mxCell>
        <mxCell id="zEoZg1Jp4J7SSyQUYtt9-4" value="" style="shape=image;verticalLabelPosition=bottom;labelBackgroundColor=default;verticalAlign=top;imageAspect=0;image=data:image/png,iVBORw0KGgoAAAANSUhEUgAAAoAAAAHgCAYAAAA10dzkAAAAOnRFWHRTb2Z0d2FyZQBNYXRwbG90bGliIHZlcnNpb24zLjEwLjAsIGh0dHBzOi8vbWF0cGxvdGxpYi5vcmcvlHJYcgAAAAlwSFlzAAAPYQAAD2EBqD+naQAAo2JJREFUeJzs3Xd8U/X+x/FXki66SwsdrLL3HhVEcaDFhbjXFfWiqNfNdVy8iPNevHr14rp69V7nTwXXRa4iCrgB2XvvMjoodO8m+f3xzWigLQVSWsr7+Xj0EUhOTk7SNOedz3dZnE6nExERERE5ZVgb+gBERERE5MRSABQRERE5xSgAioiIiJxiFABFRERETjEKgCIiIiKnGAVAERERkVOMAqCIiIjIKUYBUEREROQUowAoIiIicopRABQRERE5xSgAioiIiJxiFABFRERETjEKgCIiIiKnGAVAERERkVOMAqCIiIjIKUYBUEREROQUowAoIiIicopRABQRERE5xSgAioiIiJxiFABFRERETjEKgCIiIiKnGAVAERERkVOMAqCIiIjIKUYBUEREROQUowAoIiIicopRABQRERE5xSgAioiIiJxiFABFRERETjEKgCIiIiKnGAVAERERkVOMAqCIiIjIKUYBUEREROQUowAoIiIicopRABQRERE5xSgAioiIiJxiFABFRERETjEKgCIiIiKnGAVAERERkVOMAqCIiIjIKUYBUEREROQUowAoIiIicopRABQRERE5xSgAioiIiJxiFABFRERETjEKgCIiIiKnGAVAERERkVOMAqCIiIjIKUYBUEREROQUowAoIiIicopRABQRERE5xSgAioiIiJxiFABFRERETjEKgCIiIiKnGAVAERERkVOMAqCIiIjIKUYBUEREROQUE9DQB3Ayczgc7Nu3j4iICCwWS0MfjoiIiNSB0+mkoKCApKQkrNZTsxamAHgc9u3bR5s2bRr6MEREROQY7N69m9atWzf0YTQIBcDjEBERAZg3UGRkZAMfjYiIiNRFfn4+bdq08ZzHT0UKgMfB3ewbGRmpACgiInKSOZW7b52aDd8iIiIipzAFQBEREZFTjAKgiIiIyClGfQBFRKTB2O12KioqGvowpImx2WwEBASc0n38jkQBUEREGkRhYSF79uzB6XQ29KFIExQaGkpiYiJBQUENfSiNkgKgiIiccHa7nT179hAaGkqLFi1UqRG/cTqdlJeXs3//fnbs2EHnzp1P2cmea6MAKCIiJ1xFRQVOp5MWLVrQrFmzhj4caWKaNWtGYGAgu3btory8nJCQkIY+pEZHkVhERBqMKn9SX1T1q51eHREREZFTjAKgiIhIA0pOTmbq1Kl13v7HH3/EYrGQm5tbb8ckTZ8CoIiISB1YLJZaf5544olj2u+SJUsYP358nbcfNmwY6enpREVFHdPj1ZWCZtOmQSAiIiJ1kJ6e7vn39OnTmTx5Mps2bfJcFx4e7vm30+nEbrcTEHDk02yLFi2O6jiCgoJISEg4qvuIHEoVwEbomzXp3DdtBZ8s3d3QhyIiIi4JCQmen6ioKCwWi+f/GzduJCIigm+++YaBAwcSHBzMr7/+yrZt27j00kuJj48nPDycwYMHM3fuXJ/9HtoEbLFY+Pe//81ll11GaGgonTt3ZubMmZ7bD63Mvfvuu0RHR/Ptt9/SvXt3wsPDGTVqlE9grays5N577yU6OprY2FgeeeQRbrrpJsaMGXPMr0dOTg5jx44lJiaG0NBQLrjgArZs2eK5fdeuXVxyySXExMQQFhZGz549mTVrlue+N9xwg2cUeOfOnXnnnXeO+Vjk6CkANkIbMwr4cuU+Vu3ObehDERE5IZxOJ8XllQ3y48+JqP/0pz/x7LPPsmHDBvr06UNhYSEXXngh8+bNY8WKFYwaNYpLLrmEtLS0Wvfz5JNPcvXVV7N69WouvPBCbrjhBg4ePFjj9sXFxfz973/ngw8+4OeffyYtLY0HH3zQc/vf/vY3PvzwQ9555x3mz59Pfn4+M2bMOK7nevPNN7N06VJmzpzJwoULcTqdXHjhhZ6VXe666y7Kysr4+eefWbNmDX/72988VdLHHnuM9evX880337BhwwZef/114uLijut45OioCbgRCrSZaREq7ZodX0RODSUVdnpM/rZBHnv9U6mEBvnndPjUU09x3nnnef7fvHlz+vbt6/n/008/zX//+19mzpzJ3XffXeN+br75Zq677joA/vrXv/Lyyy+zePFiRo0aVe32FRUVvPHGG3Ts2BGAu+++m6eeespz+yuvvMLEiRO57LLLAHj11Vc91bhjsWXLFmbOnMn8+fMZNmwYAB9++CFt2rRhxowZXHXVVaSlpXHFFVfQu3dvADp06OC5f1paGv3792fQoEGAqYLKiaUKYCMUaDO/lgq7o4GPREREjoY70LgVFhby4IMP0r17d6KjowkPD2fDhg1HrAD26dPH8++wsDAiIyPJysqqcfvQ0FBP+ANITEz0bJ+Xl0dmZiZDhgzx3G6z2Rg4cOBRPbeqNmzYQEBAACkpKZ7rYmNj6dq1Kxs2bADg3nvv5ZlnnuH000/n8ccfZ/Xq1Z5t77zzTqZNm0a/fv14+OGHWbBgwTEfixwbVQAboQB3AHSoAigip4ZmgTbWP5XaYI/tL2FhYT7/f/DBB5kzZw5///vf6dSpE82aNePKK6+kvLy81v0EBgb6/N9iseBw1FwUqG77hl5j+dZbbyU1NZWvv/6a7777jilTpvDCCy9wzz33cMEFF7Br1y5mzZrFnDlzOPfcc7nrrrv4+9//3qDHfCpRBbAR8jYBqwIoIqcGi8VCaFBAg/zU52ok8+fP5+abb+ayyy6jd+/eJCQksHPnznp7vOpERUURHx/PkiVLPNfZ7XaWL19+zPvs3r07lZWVLFq0yHPdgQMH2LRpEz169PBc16ZNG+644w6++OIL/vjHP/LWW295bmvRogU33XQT//d//8fUqVN58803j/l45OipAtgIqQlYRKRp6Ny5M1988QWXXHIJFouFxx57rNZKXn255557mDJlCp06daJbt2688sor5OTk1Cn8rlmzhoiICM//LRYLffv25dJLL+W2227jX//6FxEREfzpT3+iVatWXHrppQDcf//9XHDBBXTp0oWcnBx++OEHunfvDsDkyZMZOHAgPXv2pKysjK+++spzm5wYCoCNUIDV/EFWaBCIiMhJ7cUXX+T3v/89w4YNIy4ujkceeYT8/PwTfhyPPPIIGRkZjB07FpvNxvjx40lNTcVmO3Lz95lnnunzf5vNRmVlJe+88w733XcfF198MeXl5Zx55pnMmjXL0xxtt9u566672LNnD5GRkYwaNYp//OMfgJnLcOLEiezcuZNmzZpxxhlnMG3aNP8/camRxdnQnQROYvn5+URFRZGXl0dkZKTf9jtjxV7un76S0zvF8uGtp/ltvyIijUVpaSk7duygffv2hISENPThnHIcDgfdu3fn6quv5umnn27ow6kXtb3H6uv8fTJRBbAR8jQBVyqbi4jI8du1axffffcdI0aMoKysjFdffZUdO3Zw/fXXN/ShSQPRIJBGKMA1CKSiAfqJiIhI02O1Wnn33XcZPHgwp59+OmvWrGHu3Lnqd3cKUwWwEdJE0CIi4k9t2rRh/vz5DX0Y0oioAtgIaRSwiIiI1CcFwEYowKoAKCIiIvVHAbAR8jQBayUQERERqQcKgI2QuwlYfQBFRESkPigANkLuUcDlagIWERGRenBCAuBrr71GcnIyISEhpKSksHjx4lq3//TTT+nWrRshISH07t2bWbNm+dzudDqZPHkyiYmJNGvWjJEjR7JlyxafbZKTk7FYLD4/zz77rOf2nTt3Hna7xWLht99+898TP0beCqACoIiIiPhfvQfA6dOnM2HCBB5//HGWL19O3759SU1NJSsrq9rtFyxYwHXXXce4ceNYsWIFY8aMYcyYMaxdu9azzXPPPcfLL7/MG2+8waJFiwgLCyM1NZXS0lKffT311FOkp6d7fu65557DHm/u3Lk+2wwcONC/L8AxUBOwiEjTddZZZ3H//fd7/p+cnMzUqVNrvY/FYmHGjBnH/dj+2o+c/Oo9AL744ovcdttt3HLLLfTo0YM33niD0NBQ3n777Wq3f+mllxg1ahQPPfQQ3bt35+mnn2bAgAG8+uqrgKn+TZ06lUmTJnHppZfSp08f3n//ffbt23fYmzoiIoKEhATPT1hY2GGPFxsb67ONew3DhuReC1hNwCIijccll1zCqFGjqr3tl19+wWKxsHr16qPe75IlSxg/fvzxHp6PJ554gn79+h12fXp6OhdccIFfH+tQ7777LtHR0fX6GHL86jUAlpeXs2zZMkaOHOl9QKuVkSNHsnDhwmrvs3DhQp/tAVJTUz3b79ixg4yMDJ9toqKiSElJOWyfzz77LLGxsfTv35/nn3+eysrKwx5v9OjRtGzZkuHDhzNz5sxjfq7+5KkAahSwiEijMW7cOObMmcOePXsOu+2dd95h0KBB9OnT56j326JFC0JDQ/1xiEeUkJBAcHDwCXksadzqNQBmZ2djt9uJj4/3uT4+Pp6MjIxq75ORkVHr9u7LI+3z3nvvZdq0afzwww/cfvvt/PWvf+Xhhx/23B4eHs4LL7zAp59+ytdff83w4cMZM2ZMrSGwrKyM/Px8n5/64J4Gxu5w4lAIFBFpFC6++GJatGjBu+++63N9YWEhn376KePGjePAgQNcd911tGrVitDQUHr37s3HH39c634PbQLesmULZ555JiEhIfTo0YM5c+Ycdp9HHnmELl26EBoaSocOHXjssceoqKgATAXuySefZNWqVZ7+7e5jPrQJeM2aNZxzzjk0a9aM2NhYxo8fT2Fhoef2m2++mTFjxvD3v/+dxMREYmNjueuuuzyPdSzS0tK49NJLCQ8PJzIykquvvprMzEzP7atWreLss88mIiKCyMhIBg4cyNKlSwGzpvEll1xCTEwMYWFh9OzZ87BxAlI3TXYpuAkTJnj+3adPH4KCgrj99tuZMmUKwcHBxMXF+WwzePBg9u3bx/PPP8/o0aOr3eeUKVN48skn6/3YA2zeXF7hcBBstdX7Y4qINCinEyqKG+axA0PBYjniZgEBAYwdO5Z3332XP//5z1hc9/n000+x2+1cd911FBYWMnDgQB555BEiIyP5+uuvufHGG+nYsSNDhgw54mM4HA4uv/xy4uPjWbRoEXl5eT79Bd0iIiJ49913SUpKYs2aNdx2221ERETw8MMPc80117B27Vpmz57N3LlzAdNSdqiioiJSU1MZOnQoS5YsISsri1tvvZW7777bJ+T+8MMPJCYm8sMPP7B161auueYa+vXrx2233XbE51Pd83OHv59++onKykruuusurrnmGn788UcAbrjhBvr378/rr7+OzWZj5cqVnu5Zd911F+Xl5fz888+EhYWxfv16wsPDj/o4pJ4DYFxcHDabzSfZA2RmZpKQkFDtfRISEmrd3n2ZmZlJYmKizzbV9XdwS0lJobKykp07d9K1a9cat6num5bbxIkTfUJjfn4+bdq0qXH7Y+WuAIIZCBLcZGO6iIhLRTH8NalhHvvRfRB0eB/x6vz+97/n+eef56effuKss84CTPPvFVdcQVRUFFFRUTz44IOe7e+55x6+/fZbPvnkkzoFwLlz57Jx40a+/fZbkpLM6/HXv/71sH57kyZN8vw7OTmZBx98kGnTpvHwww/TrFkzwsPDCQgIqPFcC/DRRx9RWlrK+++/7+kj/+qrr3LJJZfwt7/9zdPSFhMTw6uvvorNZqNbt25cdNFFzJs375gC4Lx581izZg07duzwnD/ff/99evbsyZIlSxg8eDBpaWk89NBDdOvWDYDOnTt77p+WlsYVV1xB7969AejQocNRH4MY9doEHBQUxMCBA5k3b57nOofDwbx58xg6dGi19xk6dKjP9gBz5szxbN++fXsSEhJ8tsnPz2fRokU17hNg5cqVWK1WWrZsWes2VUPloYKDg4mMjPT5qQ9B277jmYD/MNq6QCOBRUQakW7dujFs2DDPQMatW7fyyy+/MG7cOADsdjtPP/00vXv3pnnz5oSHh/Ptt9+SlpZWp/1v2LCBNm3aeMIfUO25bfr06Zx++ukkJCQQHh7OpEmT6vwYVR+rb9++PgMkTz/9dBwOB5s2bfJc17NnT2w2b0tUYmJijTN51OUx27Rp41M86dGjB9HR0WzYsAEwLXi33norI0eO5Nlnn2Xbtm2ebe+9916eeeYZTj/9dB5//PFjGnQjRr3XliZMmMBNN93EoEGDGDJkCFOnTqWoqIhbbrkFgLFjx9KqVSumTJkCwH333ceIESN44YUXuOiii5g2bRpLly7lzTffBEz/hfvvv59nnnmGzp070759ex577DGSkpIYM2YMYAaSLFq0yNOHYOHChTzwwAP87ne/IyYmBoD33nuPoKAg+vfvD8AXX3zB22+/zb///e/6fkmOyJaxkt8FzMNZadFIYBE5NQSGmkpcQz32URg3bhz33HMPr732Gu+88w4dO3ZkxIgRADz//PO89NJLTJ06ld69exMWFsb9999PeXm53w534cKF3HDDDTz55JOkpqYSFRXFtGnTeOGFF/z2GFUdOjuGxWLB4ai/c9MTTzzB9ddfz9dff80333zD448/zrRp07jsssu49dZbSU1N5euvv+a7775jypQpvPDCC9VO8ya1q/cAeM0117B//34mT55MRkYG/fr1Y/bs2Z7SclpaGlartxA5bNgwPvroIyZNmsSjjz5K586dmTFjBr169fJs8/DDD1NUVMT48ePJzc1l+PDhzJ49m5CQEMBU6qZNm8YTTzxBWVkZ7du354EHHvBpvgV4+umn2bVrFwEBAXTr1o3p06dz5ZVX1vdLckQWWxAAAdiprMc/MhGRRsNiqXMzbEO7+uqrue+++/joo494//33ufPOOz39AefPn8+ll17K7373O8C0em3evJkePXrUad/du3dn9+7dpKene1qkDl2gYMGCBbRr144///nPnut27drls01QUBB2u/2Ij/Xuu+9SVFTkqQLOnz8fq9VaY1ep4+V+frt37/ZUAdevX09ubq7Pa9SlSxe6dOnCAw88wHXXXcc777zDZZddBkCbNm244447uOOOO5g4cSJvvfWWAuAxOCG9y+6++27uvvvuam9zd/qs6qqrruKqq66qcX8Wi4WnnnqKp556qtrbBwwYcMQVPW666SZuuummWrdpMDbzbSvIUqkmYBGRRiY8PJxrrrmGiRMnkp+fz8033+y5rXPnznz22WcsWLCAmJgYXnzxRTIzM+scAEeOHEmXLl246aabeP7558nPz/cJeu7HSEtLY9q0aQwePJivv/6a//73vz7bJCcns2PHDlauXEnr1q2JiIg4bPqXG264gccff5ybbrqJJ554gv3793PPPfdw4403HjbTxtGy2+2sXLnS57rg4GBGjhxJ7969ueGGG5g6dSqVlZX84Q9/YMSIEQwaNIiSkhIeeughrrzyStq3b8+ePXtYsmQJV1xxBQD3338/F1xwAV26dCEnJ4cffviB7t27H9exnqq0FnBj5KoABlKpJmARkUZo3Lhx5OTkkJqa6tNfb9KkSQwYMIDU1FTOOussEhISPN2T6sJqtfLf//6XkpIShgwZwq233spf/vIXn21Gjx7NAw88wN13302/fv1YsGABjz32mM82V1xxBaNGjeLss8+mRYsW1U5FExoayrfffsvBgwcZPHgwV155Jeeee65n4YXjUVhYSP/+/X1+LrnkEiwWC19++SUxMTGceeaZjBw5kg4dOjB9+nQAbDYbBw4cYOzYsXTp0oWrr76aCy64wDMDh91u56677qJ79+6MGjWKLl268M9//vO4j/dUZHE6nSoxHaP8/HyioqLIy8vz74CQxW/BrAeZZR9Cx7u+oGtChP/2LSLSCJSWlrJjxw7at2/v6b4j4k+1vcfq7fx9ElEFsDGqUgGsUAVQRERE/EwBsDFy9QEMxK4AKCIiIn6nANgYVakAaj1gERER8TcFwMbIagZnB1hUARQRERH/UwBsjFwVwCAqqdA0MCIiIuJnCoCNkWci6EoqVQEUkSZME1FIfdF7q3YKgI2RzTQBm0EgegOLSNPjXlvWn0ukiVRVXFwMHL6UnRgnZCUQOUo+g0BUARSRpicgIIDQ0FD2799PYGCgz5KgIsfD6XRSXFxMVlYW0dHRni8b4ksBsDGyuqeB0TyAItI0WSwWEhMT2bFjx2Hr2Ir4Q3R0NAkJCQ19GI2WAmBj5JoH0IwCVhOwiDRNQUFBdO7cWc3A4neBgYGq/B2BAmBjZPNWACsVAEWkCbNarVoKTqQBqNNFY+QzDYyagEVERMS/FAAbI/dE0FoKTkREROqBAmBjpKXgREREpB4pADZGrj6AQRY7FRX2Bj4YERERaWoUABsjm3fSSru9sgEPRERERJoiBcDGyNUEDOCo1PQIIiIi4l8KgI2R1VsBdFSWNeCBiIiISFOkANgY2aoGwIoGPBARERFpihQAGyOLBbvFzGDutKsJWERERPxLAbCRclhMFdCpCqCIiIj4mQJgI+VwTQatCqCIiIj4mwJgI+WpANpVARQRERH/UgBspJyqAIqIiEg9UQBspBxW11yA6gMoIiIifqYA2Ei5K4A4FABFRETEvxQAGymnezJoNQGLiIiInykANlKeAKgKoIiIiPiZAmAj5XStBmLRKGARERHxMwXAxspVAbSoAigiIiJ+pgDYWLnXA1YFUERERPxMAbCxsplpYCyOygY+EBEREWlqFAAbK9c0MFaHRgGLiIiIfykANlYBqgCKiIhI/VAAbKQsGgQiIiIi9UQBsJGyuCqANqcCoIiIiPiXAmBj5Z4HUE3AIiIi4mcKgI2UVRVAERERqScKgI2UxVUBtDpVARQRERH/UgBspLx9ACtxOp0NfDQiIiLSlCgANlJW10TQgdipsCsAioiIiP+ckAD42muvkZycTEhICCkpKSxevLjW7T/99FO6detGSEgIvXv3ZtasWT63O51OJk+eTGJiIs2aNWPkyJFs2bLFZ5vk5GQsFovPz7PPPuuzzerVqznjjDMICQmhTZs2PPfcc/55wn5gC3QHwEoqHY4GPhoRERFpSuo9AE6fPp0JEybw+OOPs3z5cvr27UtqaipZWVnVbr9gwQKuu+46xo0bx4oVKxgzZgxjxoxh7dq1nm2ee+45Xn75Zd544w0WLVpEWFgYqamplJaW+uzrqaeeIj093fNzzz33eG7Lz8/n/PPPp127dixbtoznn3+eJ554gjfffLN+Xoij5G4CDqCSikpVAEVERMR/6j0Avvjii9x2223ccsst9OjRgzfeeIPQ0FDefvvtard/6aWXGDVqFA899BDdu3fn6aefZsCAAbz66quAqf5NnTqVSZMmcemll9KnTx/ef/999u3bx4wZM3z2FRERQUJCgucnLCzMc9uHH35IeXk5b7/9Nj179uTaa6/l3nvv5cUXX6y31+Jo2FwBMMhip0IVQBEREfGjeg2A5eXlLFu2jJEjR3of0Gpl5MiRLFy4sNr7LFy40Gd7gNTUVM/2O3bsICMjw2ebqKgoUlJSDtvns88+S2xsLP379+f555+nstI7onbhwoWceeaZBAUF+TzOpk2byMnJOfYn7ScWm7cCWKk+gCIiIuJHAfW58+zsbOx2O/Hx8T7Xx8fHs3Hjxmrvk5GRUe32GRkZntvd19W0DcC9997LgAEDaN68OQsWLGDixImkp6d7KnwZGRm0b9/+sH24b4uJiTns2MrKyigrK/P8Pz8/v+Ynf7xc08AEUkmFXRVAERER8Z96DYANacKECZ5/9+nTh6CgIG6//XamTJlCcHDwMe1zypQpPPnkk/46xNp5AqBdAVBERET8ql6bgOPi4rDZbGRmZvpcn5mZSUJCQrX3SUhIqHV79+XR7BMgJSWFyspKdu7cWevjVH2MQ02cOJG8vDzPz+7du2t8vONm9VYAKx1qAhYRERH/qdcAGBQUxMCBA5k3b57nOofDwbx58xg6dGi19xk6dKjP9gBz5szxbN++fXsSEhJ8tsnPz2fRokU17hNg5cqVWK1WWrZs6Xmcn3/+mYoK71Jrc+bMoWvXrtU2/wIEBwcTGRnp81NvbN5pYMorVQEUERER/6n3UcATJkzgrbfe4r333mPDhg3ceeedFBUVccsttwAwduxYJk6c6Nn+vvvuY/bs2bzwwgts3LiRJ554gqVLl3L33XcDYLFYuP/++3nmmWeYOXMma9asYezYsSQlJTFmzBjADPCYOnUqq1atYvv27Xz44Yc88MAD/O53v/OEu+uvv56goCDGjRvHunXrmD59Oi+99JJP03GDspnW+UCLXRVAERER8at67wN4zTXXsH//fiZPnkxGRgb9+vVj9uzZngEXaWlpWK3eHDps2DA++ugjJk2axKOPPkrnzp2ZMWMGvXr18mzz8MMPU1RUxPjx48nNzWX48OHMnj2bkJAQwFTqpk2bxhNPPEFZWRnt27fngQce8Al3UVFRfPfdd9x1110MHDiQuLg4Jk+ezPjx4+v7JambKhXASvUBFBERET+yOLXQ7DHLz88nKiqKvLw8/zcHb/4OPrqK1Y72FN00j6EdY/27fxERkVNUvZ6/TxJaC7ix0jQwIiIiUk8UABurKtPAaC1gERER8ScFwMaqSh/ACq0EIiIiIn6kANhYuSqAARZNBC0iIiL+pQDYWLkmgg7SWsAiIiLiZwqAjZWrCThAS8GJiIiInykANlbuiaDVB1BERET8TAGwsao6EbRGAYuIiIgfKQA2VlbvNDAVWgtYRERE/EgBsLFyjQK2WpxUVlY08MGIiIhIU6IA2Fi5AiCAo7K8AQ9EREREmhoFwMbK1QcQwKEKoIiIiPiRAmBjZVUFUEREROqHAmBjZbXiwAaA064AKCIiIv6jANiI2S1mLkBVAEVERMSfFAAbMYfVBEBVAEVERMSfFAAbMYerH6BTg0BERETEjxQAGzGHxV0BVAAUERER/1EAbMRUARQREZH6oADYiDndU8E41AdQRERE/EcBsBFzVwDRIBARERHxIwXARsxpVR9AERER8T8FwMbMapaDsygAioiIiB8pADZi7gogDgVAERER8R8FwEbMaTN9AC0KgCIiIuJHCoCNmWsQiJqARURExJ8UABszm6sPoCqAIiIi4kcKgI2ZzfQBtDgqG/hAREREpClRAGzELJ4KoOYBFBEREf9RAGzMPAFQFUARERHxHwXARsziGgVsc6oPoIiIiPiPAmAjZgkwFUCrKoAiIiLiRwqAjZi7AmhVBVBERET8SAGwEbO6KoA2VQBFRETEjxQAGzFvBVABUERERPxHAbAR81QAnRU4nc4GPhoRERFpKhQAGzF3AAzETqVDAVBERET8QwGwEfMGwEoq7I4GPhoRERFpKhQAGzF3AAyw2KmwqwIoIiIi/qEA2IjZAr0VwEpVAEVERMRPFAAbMfdawIGoAigiIiL+owDYmLmmgVEfQBEREfEnBcDGzFUBDNAoYBEREfGjExIAX3vtNZKTkwkJCSElJYXFixfXuv2nn35Kt27dCAkJoXfv3syaNcvndqfTyeTJk0lMTKRZs2aMHDmSLVu2VLuvsrIy+vXrh8ViYeXKlZ7rd+7cicViOeznt99+O+7n6zfWAACCLKoAioiIiP/UewCcPn06EyZM4PHHH2f58uX07duX1NRUsrKyqt1+wYIFXHfddYwbN44VK1YwZswYxowZw9q1az3bPPfcc7z88su88cYbLFq0iLCwMFJTUyktLT1sfw8//DBJSUk1Ht/cuXNJT0/3/AwcOPD4n7S/2DQNjIiIiPhfvQfAF198kdtuu41bbrmFHj168MYbbxAaGsrbb79d7fYvvfQSo0aN4qGHHqJ79+48/fTTDBgwgFdffRUw1b+pU6cyadIkLr30Uvr06cP777/Pvn37mDFjhs++vvnmG7777jv+/ve/13h8sbGxJCQkeH4CAwP99tyPm6sPYAB2KjUIRERERPykXgNgeXk5y5YtY+TIkd4HtFoZOXIkCxcurPY+Cxcu9NkeIDU11bP9jh07yMjI8NkmKiqKlJQUn31mZmZy22238cEHHxAaGlrjMY4ePZqWLVsyfPhwZs6ceUzPs964AmAQlVQ6VAEUERER/6jXAJidnY3dbic+Pt7n+vj4eDIyMqq9T0ZGRq3buy9r28bpdHLzzTdzxx13MGjQoGofJzw8nBdeeIFPP/2Ur7/+muHDhzNmzJhaQ2BZWRn5+fk+P/XK6q0AlleqAigiIiL+EdDQB1AfXnnlFQoKCpg4cWKN28TFxTFhwgTP/wcPHsy+fft4/vnnGT16dLX3mTJlCk8++aTfj7dGVfoAqgIoIiIi/lKvFcC4uDhsNhuZmZk+12dmZpKQkFDtfRISEmrd3n1Z2zbff/89CxcuJDg4mICAADp16gTAoEGDuOmmm2o83pSUFLZu3Vrj7RMnTiQvL8/zs3v37hq39QubyecBFvUBFBEREf+p1wAYFBTEwIEDmTdvnuc6h8PBvHnzGDp0aLX3GTp0qM/2AHPmzPFs3759exISEny2yc/PZ9GiRZ5tXn75ZVatWsXKlStZuXKlZxqZ6dOn85e//KXG4125ciWJiYk13h4cHExkZKTPT71yVQCDqKRco4BFRETET+q9CXjChAncdNNNDBo0iCFDhjB16lSKioq45ZZbABg7diytWrViypQpANx3332MGDGCF154gYsuuohp06axdOlS3nzzTQAsFgv3338/zzzzDJ07d6Z9+/Y89thjJCUlMWbMGADatm3rcwzh4eEAdOzYkdatWwPw3nvvERQURP/+/QH44osvePvtt/n3v/9d3y9J3Xn6AFaqAigiIiJ+U+8B8JprrmH//v1MnjyZjIwM+vXrx+zZsz2DONLS0rBavYXIYcOG8dFHHzFp0iQeffRROnfuzIwZM+jVq5dnm4cffpiioiLGjx9Pbm4uw4cPZ/bs2YSEhBzVsT399NPs2rWLgIAAunXrxvTp07nyyiv988T9wbMUnF19AEVERMRvLE6nU6WlY5Sfn09UVBR5eXn10xycuxum9qLUGcj/LlnBVYPa+P8xRERETjH1fv4+CWgt4MbMUwGs1FrAIiIi4jcKgI2ZaxCIzeKksrKigQ9GREREmgoFwMbM6u2iWVJS1oAHIiIiIk2JAmBj5qoAAhSXFDfggYiIiEhTogDYmLn6AAKUlKkCKCIiIv6hANiYWW04XL+i0pLSBj4YERERaSoUABs5p6sfYElZSQMfiYiIiDQVCoCNnMO1GkhJqZqARURExD8UABs7VwAsUx9AERER8RMFwMbONRCkXE3AIiIi4icKgI2dzV0BLG/gAxEREZGmQgGwkbO45gKsrChDyzaLiIiIPygANnLWABMArY5KisvtDXw0IiIi0hQoADZylgDTBBxoqaSgtLKBj0ZERESaAgXARs7dBBxIJQWlFQ18NCIiItIUKAA2dq5pYAKpJF8VQBEREfEDBcDGzlMBtKsCKCIiIn6hANjY2cxScAGoD6CIiIj4hwJgY+eqAAZZKiksUwAUERGR46cA2Ni5+gAGqAlYRERE/EQBsLFzzQMYTIWagEVERMQvFAAbu+AIAMIoVQAUERERv6gxAO7evZs9e/Z4/r948WLuv/9+3nzzzRNyYOISHAlApKWIfDUBi4iIiB/UGACvv/56fvjhBwAyMjI477zzWLx4MX/+85956qmnTtgBnvJCogGIpFgVQBEREfGLGgPg2rVrGTJkCACffPIJvXr1YsGCBXz44Ye8++67J+r4JMRUACMsxRoEIiIiIn5RYwCsqKggODgYgLlz5zJ69GgAunXrRnp6+ok5OoGQKEAVQBEREfGfGgNgz549eeONN/jll1+YM2cOo0aNAmDfvn3ExsaesAM85Xn6ACoAioiIiH/UGAD/9re/8a9//YuzzjqL6667jr59+wIwc+ZMT9OwnACuCmAEagIWERER/wio6YazzjqL7Oxs8vPziYmJ8Vw/fvx4QkNDT8jBCZ4+gO4KoNPpxGKxNPBBiYiIyMmsxgpgSUkJZWVlnvC3a9cupk6dyqZNm2jZsuUJO8BTXpU+gJUOJ6UVjgY+IBERETnZ1RgAL730Ut5//30AcnNzSUlJ4YUXXmDMmDG8/vrrJ+wAT3muPoDBlgqCKVczsIiIiBy3GgPg8uXLOeOMMwD47LPPiI+PZ9euXbz//vu8/PLLJ+wAT3nBkYBp8o2ghHwNBBEREZHjVGMALC4uJiLCLEP23Xffcfnll2O1WjnttNPYtWvXCTvAU57V6qkCRliKKSxTABQREZHjU2MA7NSpEzNmzGD37t18++23nH/++QBkZWURGRl5wg5Q8A4EoUhNwCIiInLcagyAkydP5sEHHyQ5OZkhQ4YwdOhQwFQD+/fvf8IOUPAOBNFcgCIiIuIHNU4Dc+WVVzJ8+HDS09M9cwACnHvuuVx22WUn5ODExd0ErLkARURExA9qDIAACQkJJCQksGfPHgBat26tSaAbgiqAIiIi4kc1NgE7HA6eeuopoqKiaNeuHe3atSM6Opqnn34ah0Nz0Z1QId4KoEYBi4iIyPGqsQL45z//mf/85z88++yznH766QD8+uuvPPHEE5SWlvKXv/zlhB3kKa9KBfCgmoBFRETkONUYAN977z3+/e9/M3r0aM91ffr0oVWrVvzhD39QADyRqvQB3KUKoIiIiBynGpuADx48SLdu3Q67vlu3bhw8eLBeD0oO4dMHUBVAEREROT41BsC+ffvy6quvHnb9q6++Sp8+fer1oOQQIVVHAasCKCIiIsenxibg5557josuuoi5c+d65gBcuHAhu3fvZtasWSfsAAWNAhYRERG/qrECOGLECDZv3sxll11Gbm4uubm5XH755axbt44PPvjgqB7ktddeIzk5mZCQEFJSUli8eHGt23/66ad069aNkJAQevfufVjgdDqdTJ48mcTERJo1a8bIkSPZsmVLtfsqKyujX79+WCwWVq5c6XPb6tWrOeOMMwgJCaFNmzY899xzR/W8Tphg90ogagIWERGR41djAARISkriL3/5C59//jmff/45zzzzDDk5OfznP/+p8wNMnz6dCRMm8Pjjj7N8+XL69u1LamoqWVlZ1W6/YMECrrvuOsaNG8eKFSsYM2YMY8aMYe3atZ5tnnvuOV5++WXeeOMNFi1aRFhYGKmpqZSWlh62v4cffpikpKTDrs/Pz+f888+nXbt2LFu2jOeff54nnniCN998s87P7YQJiQbMWsCqAIqIiMhxcx6llStXOq1Wa523HzJkiPOuu+7y/N9utzuTkpKcU6ZMqXb7q6++2nnRRRf5XJeSkuK8/fbbnU6n0+lwOJwJCQnO559/3nN7bm6uMzg42Pnxxx/73G/WrFnObt26OdetW+cEnCtWrPDc9s9//tMZExPjLCsr81z3yCOPOLt27Vrn55aXl+cEnHl5eXW+zzHZv8XpfDzSmTc5wdn50Vn1+1giIiJN3Ak7fzditVYAj1d5eTnLli1j5MiRnuusVisjR45k4cKF1d5n4cKFPtsDpKamerbfsWMHGRkZPttERUWRkpLis8/MzExuu+02PvjgA0JDQ6t9nDPPPJOgoCCfx9m0aRM5OTnH9oTri2sQSDglVNgrKau0N/ABiYiIyMmsXgNgdnY2drud+Ph4n+vj4+PJyMio9j4ZGRm1bu++rG0bp9PJzTffzB133MGgQYOO6nGqPsahysrKyM/P9/k5IVx9AK0WJxGUqBlYREREjstho4Avv/zyWu+Qm5tbX8fiN6+88goFBQVMnDjRr/udMmUKTz75pF/3WSeBIWALBnuZZyqYuPDgE38cIiIi0iQcVgGMioqq9addu3aMHTu2TjuPi4vDZrORmZnpc31mZiYJCQnV3ichIaHW7d2XtW3z/fffs3DhQoKDgwkICKBTp04ADBo0iJtuuqnWx6n6GIeaOHEieXl5np/du3fX/gL4kyaDFhERET85rAL4zjvv+G3nQUFBDBw4kHnz5jFmzBgAHA4H8+bN4+677672PkOHDmXevHncf//9nuvmzJnjmYuwffv2JCQkMG/ePPr16weYEb2LFi3izjvvBODll1/mmWee8dx/3759pKamMn36dFJSUjyP8+c//5mKigoCAwM9j9O1a1diYmKqPbbg4GCCgxuo8hYSCUVZRFDMkp059Gkd3TDHISIiIie9eu0DCDBhwgTeeust3nvvPTZs2MCdd95JUVERt9xyCwBjx471aaq97777mD17Ni+88AIbN27kiSeeYOnSpZ7AaLFYuP/++3nmmWeYOXMma9asYezYsSQlJXlCZtu2benVq5fnp0uXLgB07NiR1q1bA3D99dcTFBTEuHHjWLduHdOnT+ell15iwoQJ9f2SHJsqFcBXv99CvqqAIiIicoxqXAnEX6655hr279/P5MmTycjIoF+/fsyePdsz4CItLQ2r1ZtDhw0bxkcffcSkSZN49NFH6dy5MzNmzKBXr16ebR5++GGKiooYP348ubm5DB8+nNmzZxMSElLn44qKiuK7777jrrvuYuDAgcTFxTF58mTGjx/vvyfvT66BIB0j7czNreBfP23jodTD12oWERERORKL0+l0NvRBnKzy8/OJiooiLy+PyMjI+n2wT26C9TPY0G8SF/zWg5BAKz8+eDYJUXUPvSIiInKCz9+NVL03AYufuOYC7BbjZGC7GEorHEydu7mBD0pERERORgqAJwtXH0BLaR6PXmiafj9Zult9AUVEROSoKQCeLIJNAKQsn4HtmhMRHIDDCdkFZQ17XCIiInLSUQA8WbgqgJTmARDZzExdk69VQUREROQoKQCeLFx9AN0BMCLEDODOL1ETsIiIiBwdBcCThacCaNYfjvJUABUARURE5OgoAJ4samgCzlMFUERERI6SAuDJwjURNGWmAhgZ4qoAlqgPoIiIiBwdBcCTxWEVQFcfQDUBi4iIyFFSADxZuAeB2MuhorRKBVABUERERI6OAuDJIigCsJh/l+ZpGhgRERE5ZgqAJwur1acfYKSmgREREZFjpAB4MnH3AyzJrVIBVAAUERGRo6MAeDKJbmsu132hPoAiIiJyzBQATyZn/tFcLn6TuLI0QH0ARURE5OgpAJ5MOp4DnVPBUUnrpVMATQQtIiIiR08B8GRz/jNgDaDZ9m8Zal1HeaWD0gp7Qx+ViIiInEQUAE82LbrAoHEATA74AHBqIIiIiIgcFQXAk9FZfwJrAN2taSRwUMvBiYiIyFFRADwZhTaHZjEARFuKVAEUERGRo6IAeLIKiQYgiiJNBSMiIiJHRQHwZOWaFDrSUqSpYEREROSoKACerJpFAxBlUQVQREREjo4C4MmqahOw+gCKiIjIUVAAPFm5KoCRliKNAhYREZGjogB4snL1AYyiSKuBiIiIyFFRADxZuZqAIy3FagIWERGRo6IAeLJyDwLRNDAiIiJylBQAT1buQSCaBkZERESOkgLgyapKBbBAFUARERE5CgqAJyufiaAVAEVERKTuFABPVj5LwVXidDob9nhERETkpKEAeLJyNQGHWCqw2Espq3Q07PGIiIjISUMB8GQVFIHTYn59kRoJLCIiIkdBAfBkZbViCY4ENBegiIiIHB0FwJNZlZHAWg1ERERE6koB8GRWdS5ArQcsIiIidaQAeDKruhqImoBFRESkjhQAT2ZV5wJUE7CIiIjUkQLgyazqXIBaDk5ERETqSAHwZOZuAlYFUERERI6CAuDJzKcCqAAoIiIidaMAeDJzVQAjLcUaBSwiIiJ1dkIC4GuvvUZycjIhISGkpKSwePHiWrf/9NNP6datGyEhIfTu3ZtZs2b53O50Opk8eTKJiYk0a9aMkSNHsmXLFp9tRo8eTdu2bQkJCSExMZEbb7yRffv2eW7fuXMnFovlsJ/ffvvNf0+8vrkGgURZVAEUERGRuqv3ADh9+nQmTJjA448/zvLly+nbty+pqalkZWVVu/2CBQu47rrrGDduHCtWrGDMmDGMGTOGtWvXerZ57rnnePnll3njjTdYtGgRYWFhpKamUlpa6tnm7LPP5pNPPmHTpk18/vnnbNu2jSuvvPKwx5s7dy7p6emen4EDB/r/RagvVZqANRG0iIiI1JXF6XQ66/MBUlJSGDx4MK+++ioADoeDNm3acM899/CnP/3psO2vueYaioqK+OqrrzzXnXbaafTr14833ngDp9NJUlISf/zjH3nwwQcByMvLIz4+nnfffZdrr7222uOYOXMmY8aMoaysjMDAQHbu3En79u1ZsWIF/fr1O6bnlp+fT1RUFHl5eURGRh7TPo7L3mXw1jnsdcZyQ/h/+PGhs0/8MYiIiJxkGvz83QjUawWwvLycZcuWMXLkSO8DWq2MHDmShQsXVnufhQsX+mwPkJqa6tl+x44dZGRk+GwTFRVFSkpKjfs8ePAgH374IcOGDSMwMNDnttGjR9OyZUuGDx/OzJkzj+l5NpgqFcBcVQBFRESkjuo1AGZnZ2O324mPj/e5Pj4+noyMjGrvk5GRUev27su67PORRx4hLCyM2NhY0tLS+PLLLz23hYeH88ILL/Dpp5/y9ddfM3z4cMaMGVNrCCwrKyM/P9/np0G5AmC4pZSC4lLyihUCRURE5Mia9Cjghx56iBUrVvDdd99hs9kYO3Ys7hbvuLg4JkyY4GmifvbZZ/nd737H888/X+P+pkyZQlRUlOenTZs2J+qpVM81CAQgkiK27i9owIMRERGRk0W9BsC4uDhsNhuZmZk+12dmZpKQkFDtfRISEmrd3n1Zl33GxcXRpUsXzjvvPKZNm8asWbNqHeWbkpLC1q1ba7x94sSJ5OXleX52795d47YnhC0AgiIAMxJ4a1Zhwx6PiIiInBTqNQAGBQUxcOBA5s2b57nO4XAwb948hg4dWu19hg4d6rM9wJw5czzbt2/fnoSEBJ9t8vPzWbRoUY37dD8umGbcmqxcuZLExMQabw8ODiYyMtLnp8G5VwOhiG37ixr2WEREROSkEFDfDzBhwgRuuukmBg0axJAhQ5g6dSpFRUXccsstAIwdO5ZWrVoxZcoUAO677z5GjBjBCy+8wEUXXcS0adNYunQpb775JgAWi4X777+fZ555hs6dO9O+fXsee+wxkpKSGDNmDACLFi1iyZIlDB8+nJiYGLZt28Zjjz1Gx44dPSHxvffeIygoiP79+wPwxRdf8Pbbb/Pvf/+7vl8S/wqJgrzdRFqKVQEUERGROqn3AHjNNdewf/9+Jk+eTEZGBv369WP27NmeQRxpaWlYrd5C5LBhw/joo4+YNGkSjz76KJ07d2bGjBn06tXLs83DDz9MUVER48ePJzc3l+HDhzN79mxCQkIACA0N5YsvvuDxxx+nqKiIxMRERo0axaRJkwgODvbs5+mnn2bXrl0EBATQrVs3pk+fXu1cgY1alZHAqxUARUREpA7qfR7ApqxRzCM07QbY+BV/rvg9HzlGsuGpUYQE2hrmWERERE4CjeL83cCa9CjgU4KrAtgysBSnE7arH6CIiIgcgQLgyc41FUzb0HIAtu1XM7CIiIjUTgHwZOcaBZwUbEY3ayCIiIiIHIkC4MnO1QTcIqAEgK2qAIqIiMgRKACe7FwVwGir6fu3TRVAEREROQIFwJOdqwIY5jQBcHt2EXaHBnaLiIhIzRQAT3auQSBBFfkEB1gpr3SwJ6e4gQ9KREREGjMFwJNdaHMALEUHaB8bCmggiIiIiNROAfBkF90WLDYoL2BgrEYCi4iIyJEpAJ7sAoKheQcABoRmAgqAIiIiUjsFwKagRVcAuln3ArBZAVBERERqoQDYFLTsDkCbyjQANmXkU2l3NOQRiYiISCOmANgUtOgGQETBNsKCbJRWONierTWBRUREpHoKgE2BqwnYsn8jPRIjAFi3L68hj0hEREQaMQXApiC2M1isUJpLSstKANbuzW/ggxIREZHGSgGwKQgMgZj2AAwOywJUARQREZGaKQA2Fa6BIF1dI4HX7cvH6dSScCIiInI4BcCmwtUPsEXpDoJsVgpKK9l9sKSBD0pEREQaIwXApsI1EtiWvYmuCRoIIiIiIjVTAGwqXAGQrA30SjIBcK0CoIiIiFRDAbCpiPOOBB4QZ0YCr9unkcAiIiJyOAXApiKwGcQkA9AvOAPQVDAiIiJSPQXApsTVDNzOsRurBbILy8jKL23ggxIREZHGRgGwKXEFwKCDm+jYIhxQP0ARERE5nAJgU1J1IEirKAD+77c01qsvoIiIiFShANiUJPQ2lxlrGNY+GoDvN2Zx4cu/cMkrv7L7YHHDHZuIiIg0GgqATUlcFwgMhfJCrkwu5d1bBnNR70SCbFbW7M3j06W7G/oI/a680tHQhyAiInLSUQBsSmwBniqgJX0VZ3VtyWs3DGDSxWaZuFV7mlZ/wGe+Wk/fJ79j2/7Chj4UERGRk4oCYFOT1N9c7lvhuapv62gAVu3JbVLrA/+0eT8lFXaW7cpp6EMRERE5qSgANjWJ/cxl+krPVd0SIwi0WcgtrmhS6wNnuKa40VQ3IiIiR0cBsKlxVwDTV4HDDkBwgI3uiZGAqQI2BUVllRSUmhVPsgrKGvhompamVCUWEZHqKQA2NXGdITAMKoohe4vn6j6tzbQwq5tIAMyoUvXLVAXQb95fuJNBz8zV1EEiIk2cAmBTY7VBYh/z7yr9APt4+gE2jYEgmXne0KcKoP/MWZ/JgaJy5m/NbuhDERGReqQA2BRV0w/QPRBk7d487A7fJr6ySjtPzFzHBwt3npDD84f0qgEwXwHQX3KLKwDIKlBVVUSkKVMAbIqqGQncqWU4oUE2isvth02b8sTM9by7YCdPf7WBSvvJMa9e1Sbg/QVl6rfmJ7kl5YCqqiIiTZ0CYFOU1M9cpq8GuxkoYbNaPMvDrdqd69n0o0VpfLw4DYByu4M9OSfHKOGMKhXAcrvDU7mS4+OpAKqqKiLSpCkANkWxnSAoHCpLIHuz5+q+noEgph/g8rQcHp+5FjABEWB79skxqXLGIQM/VLE6fpV2R5WR1WoCFhFpyhQAmyKrDRLcA0GWe67uU2VC6LnrM/n9u0uosDsZ1TOB1J7xAGzfX3Sij/aYHDryVyOBj1++K/yBArWISFOnANhUufsBfv1H+PQW2DKXvq4m4DV787j1/aXkFlfQt3UUf7+6Lx1bhAOw7SQJgO5BIDGhgYACiz/kFJd7/l1QWklphb0Bj0ZEROqTAmBTNWAstOgOlaWw7gv48Ara7PuamNBA3OMlfn96ez65YyjhwQF0aBEGwPaTYF3dCruD7EIT+NxVTTVZHr9D+1GqH6CISNOlANhUtewGf1gI43+ETiMBsGz/iRtPa0dybChv3zyIyZf0IDjABkCHOFMB3J7trQBW2B3MXLWP/NLGNcDCjPqF0wI2cUfFewRTrrDiB3kl5T7/V6gWEWm6FACbMovFNAUPvtX8f+9SJpzflR8fOptzusX7bNreVQHcX1BGgSvwvbdgJ/d+vIIpszae0MM+Enfz76OB0xma/n+cbV2psOIHh1UA1awuItJkKQCeCloNMpf7N0Fp9SuBRIYEEhceDMAOVxXwp837zeWmrEY1z557wEdrSxYArSzZqgD6weFNwArVIiJN1QkJgK+99hrJycmEhISQkpLC4sWLa93+008/pVu3boSEhNC7d29mzZrlc7vT6WTy5MkkJibSrFkzRo4cyZYtW3y2GT16NG3btiUkJITExERuvPFG9u3b57PN6tWrOeOMMwgJCaFNmzY899xz/nnCjU14C4huBzhh7/IaN/P2AyyivNLB0p05AOzLKyXtYPGJONI6ycgrJYBKoh3m+FpacshUBfC45RYf2gSsUC0i0lTVewCcPn06EyZM4PHHH2f58uX07duX1NRUsrKyqt1+wYIFXHfddYwbN44VK1YwZswYxowZw9q1az3bPPfcc7z88su88cYbLFq0iLCwMFJTUykt9YaAs88+m08++YRNmzbx+eefs23bNq688krP7fn5+Zx//vm0a9eOZcuW8fzzz/PEE0/w5ptv1t+L0ZBau6qAe5fWuEnHKgNB1uzNpaTKKNCF2w7U6+EdjYz8UuLJwYqpSiZYcsjK12ogxyu3pILBlo1MDXqd5uQrAIqINGH1HgBffPFFbrvtNm655RZ69OjBG2+8QWhoKG+//Xa127/00kuMGjWKhx56iO7du/P0008zYMAAXn31VcBU/6ZOncqkSZO49NJL6dOnD++//z779u1jxowZnv088MADnHbaabRr145hw4bxpz/9id9++42KCtPM9eGHH1JeXs7bb79Nz549ufbaa7n33nt58cUX6/slaRitB5vLPctq3MQ9EGRbdhG/bT/oc9vC7Y0oAOaVkmDxHl+8JYeySofPPHZy9HKLKxgf8BVjrL9woW2RAqCISBNWrwGwvLycZcuWMXLkSO8DWq2MHDmShQsXVnufhQsX+mwPkJqa6tl+x44dZGRk+GwTFRVFSkpKjfs8ePAgH374IcOGDSMwMNDzOGeeeSZBQUE+j7Np0yZycnKq3U9ZWRn5+fk+PycNdz/APUvg0EqZ0wkrPmSgYxVgmoB/cwW+UT0TAFiw7UCjqbBl5JeSZPEG0gRrLqA+a8crt6SCOIt5TydYDur1FBFpwuo1AGZnZ2O324mP9x1xGh8fT0ZGRrX3ycjIqHV792Vd9vnII48QFhZGbGwsaWlpfPnll0d8nKqPcagpU6YQFRXl+WnTpk212zVKCb3BGgjF2ZC7y/e2+VPhyz/Qd+F9WHCwI7vQ0//vzrM6EhRgZX9BWaOZJPqwCiAHAacqVscpr7icaAoAiCeH/Xo9RUSarCY9Cvihhx5ixYoVfPfdd9hsNsaOHXtcVayJEyeSl5fn+dm9e7cfj7aeBYZAomt5uD1V+gFunAVznwTAVpZHa2sOpRUOSirsxIQG0rtVFAPaRgONoxnY6XSSkV9KYpUA2IwyIijRVDDHKbekghiLmQg83pLDgaJyKuyOBj4qERGpD/UaAOPi4rDZbGRmZvpcn5mZSUJCQrX3SUhIqHV792Vd9hkXF0eXLl0477zzmDZtGrNmzeK3336r9XGqPsahgoODiYyM9Pk5qXiagV0BMHMdfHEb4A3FQ6OyPf9OaR+L1WphWMc4AH5rBANBcoorKK90kGjxPZaWlhwyNRXMcckrKiUSM9o7wWIqwO4VV0SamqKySqYtTqOwTH2H5dRUrwEwKCiIgQMHMm/ePM91DoeDefPmMXTo0GrvM3ToUJ/tAebMmePZvn379iQkJPhsk5+fz6JFi2rcp/txwfTjcz/Ozz//7BkU4n6crl27EhMTc5TP9CRRdSTw1nnwwWVQXgjJZ0CXCwDo32y/Z/PTOjQHYGjHWAB+297w/QAzXJNAt7H59tM0fdYUVo6V3eHEUpqL1WJ+v/GefpV6TaVpem/hTv70xRqem924JroXOVHqvQl4woQJvPXWW7z33nts2LCBO++8k6KiIm655RYAxo4dy8SJEz3b33fffcyePZsXXniBjRs38sQTT7B06VLuvvtuACwWC/fffz/PPPMMM2fOZM2aNYwdO5akpCTGjBkDwKJFi3j11VdZuXIlu3bt4vvvv+e6666jY8eOnpB4/fXXExQUxLhx41i3bh3Tp0/npZdeYsKECfX9kjSc1lUqgP93ORRmmvWCr34f4nsA0NWW7tn8NFfw69s6mmaBNg4UlbM5s2HXCnZPAu1pAm5mwno8mgvweORXaf4FiKLQLLHXiPsB1teXkY0Z+Yx+9Vd+2Fj9VFXSNOx0TXg/b0Pjmuhe5ESp9wB4zTXX8Pe//53JkyfTr18/Vq5cyezZsz0DLtLS0khP94aOYcOG8dFHH/Hmm2/St29fPvvsM2bMmEGvXr082zz88MPcc889jB8/nsGDB1NYWMjs2bMJCQkBIDQ0lC+++IJzzz2Xrl27Mm7cOPr06cNPP/1EcLBZ7SIqKorvvvuOHTt2MHDgQP74xz8yefJkxo8fX98vScOJaQ+hsXiafAffBrd9D6HNIa4LAK3tpl9jTGggXVpGABAUYGVQsglaT3+1/rAJg0+kdNck0DFOVwWw1UDANFnuV7XqiBbvOMjuaib1zi2pIBrfcN/SktNg/SqX7TrIXR8tr3EgSmmFndSpP3P3RzVPbH6sZq1OZ/WePD5enOb3fUvj4f5ysze3xLP6kdTu+42ZfLRIfxdNRcCJeJC7777bU8E71I8//njYdVdddRVXXXVVjfuzWCw89dRTPPXUU9Xe3rt3b77//vsjHlefPn345Zdfjrhdk2GxQMqdsPYzOP8Z6Hye9zZXAIwr3UmHuDDG9G+F1V4Ki96B3ldy51kdWbLzIL9uzWb0q/P5140D6Z544vtA+kwCbQuC+F6wdW6DhpWaHCwqJ8BmITIksKEPBYBdB4q4+l8L6dgijHl/PMvnttzicmIsBT7XxZPTYE3AU2ZtZOmuHLq0jOC+kZ0Pu31Dej6bMwvZnFnIlMsriPDja7w317yPGtPqN+J/Vb9c/Lx5Px1ahDfg0TR+TqeT+6atpKC0kpQOzemo1+uk16RHAUs1RjwEdy3yDX8AceYkay3O5vs/9OHeczvDglfg24nw7Z8Z1jGOL+48nTbNm5F2sJjL/7mAmav2VfMA9SvtQJF3CpiIRIhsBZhRq5mNZDWQrVkFTJi+ksF/mcvFL//aaEbSbswwAW/b/qLDBnfkFlcQjW8VJN6S2yBNwHnFFSxPMxXetfuqX7t6b26J598b0guq3eZYpeeZfe86UNwo3k9SP3wC4JbsWrYUMJ8RBa7J9tfsqf7vUk4uCoBiBEd4whTZrnWVt33vvXQ46JEUycy7hnNG5zhKKuzc+/EK/jprA5UnMOCs2J3rnQQ6qjVEJgKmCbikwt7gI/pe/X4L5/3jZ75YsRe7w0nawWK2ZjVsv0m3qk2/a/b6foDnlpQTfWgF0JLD/gaoqv6ydT8OV+5av6/6ydb3VQmA62oIiccq3TXQqKTCrrkQmyi7w+nzJWjhtgOUVdpruYfsy6u/vzlpGAqA4uWqApK9GcoKzaohYCaPzloPQExYEO/eMoQ7RnQE4M2ftzP27cXsyTn25rJH/7uGG/79G6UVtX8AZxeWsetAsbcCGJlkqoBAgtVUjKpWhk608koHL3+/FacTRnaPp2u86UN5aNhqKHtyvK/Nod/gc4t9B4GAuw/giQ9AP2z0jkTfm1tCTtHhfU735lQ9GflvRR6n0+kTLnf5oRl4wbZsLvvn/EbzRUBM9wyH0/SKiQsPoqTCzrJd1a8AVZ3yysZR1d+ZXUTRCfrSuy/X+2Vw7d6TaBUsqZECoHjFdTWX2Zsh7TdwVPlg2f6j5582q4U/XdCN164fQGiQjQXbDnD+P37mnfk7sDuOrsksK7+UjxalMX/rAX49QjPMirRcALqHuSpVka08AbAFuVhwsGp37lE9fk22ZBYcdcfwjRn5lFc6iA4N5K2xAzmjs5k/cV0jCYBVK4CrqwuA7kEgQaZvT7zlxPcBdDic/LTZBECb1QJUH/CqBv21fnx9DxaVU1bl5L7TD4MD3pm/kxVpuUzToJJGw13ZjQ0L4szOLQD4eXPdmoG3ZBbQ98nvmPLNhno7vrpYty+Ps1/4kYc/W31CHi/9kAqgukec/BQAxatqBXDHj+bfAc3MZZUA6HZRn0T+d89whiQ3p7jczpP/W8+1by48qsmDf6kS+n7cXPu0G+5+YZ1DXIEgshWEtwQsBGAnlgJPSDweucXljHltPmNem39UTcrux+7bOhqLxULv1lFA46kA7s6p2gSc63NbXkmFtwm4ZXfADALJLizDcZSh/nisT88nu7CMsCAb53RrCVTfD3BvlWrE1qxCvzXfuZt/3fwxEGRLpnld3X0wpeG5B4y1iAjhjC7mi9rPm/fXdhePhdsPUFJhZ96Ghp0maEVaLk4nzNuYeUIqklUrgPmllT4tCnJyUgAUrxZVKoA7fjb/TrndXO6aD5WHN8V1bBHOtPGn8ZfLehEeHMCSnTlc+up8NmbUrYng161VAuCm/bV+q1zuaqLx9gFsBbZACDPf4OMtOZ6QeDyW7MyhqNxOXkkFc9ZXvy600+k8bDqcla7qY7820QD0TDIBcH16/lFXRv3N6XT6fGBn5peRle/9QM8tLvdWAFuaOSHjLTlUOpwcPIHT/vy4yZxUh3WKo79rCcLqKnx7q4TZSoeTzRn+aV7dd0gXgp0Hji8AllbYPc3IG9LzVTVpJNwVwBYRwZzhqgCuT8+vU59P99/RrgNFDfp37a6Cl1Y4ahws5U+H/m2oH+DJTwFQvFxTwZCzE9JdzQopd5iAVVHs7RN4CKvVwg0p7fjy7tNJjg1lb24JV/xzAR8vTqOkvObKjNPp9KkA7skpYdv+6pvcKuwOT7NlVIXrm3pkkuvSNAPHWw6yJauQ/NKK6nZRZ0t2etcZnrmy+pHOHy5Ko99Tc/hi+R7PdZ4A6AouHeLCCAuyUVrhYNv+4wsoJeV2bnp7MVPnbj6m+x8sKqe43I7FAu1iQwHfymRO1T6A8T3NhWs1kMz8EzcQ5IdN5nd7VtcW3gB9SBNwQWkF+a7RiO6w7a8ToPskFxxgPhrTDhxfE/DWrELcme9AUTn7tbReo+D+PbQIDyYuPJieSWZKqwXbjtwM7O5KUWF3+vRFPdGqfqFbsuNgLVv6h7sJODLEzB7nz7630jAUAMUrPB6Co8DpAJymT2BkIrQfYW6vphm4qo4twplx1+kM7RBLUbmdiV+sIeWvc3li5jrPEm5VbcwoILuwjGaBNoYkm2Xn3BWgw7ZNL6Ckwk7zELAVu7aJbG0uXf0Au4UX4XRy3P0AF1f5MP1lS3a1gxDcwfD9hbsAU0Fz9xns1zoaMMHYHWKOd9qEnzZn8dPm/bzy/dZjWp93t+tkER8RwsB2ZlLvqv0Ac0sqiLb4VgDDKSGMEjZnnpimy9zicla4KrhndW3pOSlvzy6ioEqod1c+okMDSWlv3jf+qka4m4DdE58fbwVwS5bva7fRz1PWyLFxV/paRpqFAYa43kerdh/5fVQ1eG3P9u/AHofDWedBHVWr4FW/tNYXdxOwu2uGPwNgaYWdP36yqkGmFjuVKQCKl8Xi7QcI0MEV/DqcZS53/HTEXUSHBvH+uCH86YJutI5pRn5pJe8u2MkFL/3MvA2ZPtu6B32kdGjO+T3NyjA/1dAPx920OyLJgcU9CXSoWarOHQD7RJgPxOW7co94nDUpKbd7mhwTIkOodDiZtTbdZ5vSCrun2rdydy57coo9/0+ODSUmLMizbc9WJsQcb4VqyU7z/O0OJ1+vTj/C1odzVy3aNG9Gn1aH903MKy4nBlc4iW4DQWYEc0tLrl/6VdbFL1uycTihS3w4raKbERceTGKUWd2n6lx/7ipdUlQzerhCor9ORvtcATClvXlv5ZVUHNfKN5sOaZqua9eIpsjpdJKeV8K36zJ4f+HO467UH4+sgjL6WrYyfs11sP1Herm+qNVlQFHVvrT+XkHkXz9vp+fj39apEulTAdyZU699de0OJxmuloDzeiQA/h189euWbD5fvkfrMp9gCoDiy90PEKD9mebSHQT3LIXSI5/AAm1W7hjRkZ8fOpv3fj+EXq0iySmuYNx7S3nqf+s9HZZ/3mLC3vBOcZzV1fTDWbT9IMXlh38DdgfAobGuD73IJLC63r6uANjBNThkxe5j7we4Yrfp95YQGcItpycD8OUhzcArd+dSXmXuw2/WZHgCYP+2MT7b9m5V9xNLbZZW+Yb/5cq9R31/90mrTUwovV0VytV7vCP5SosLCbG4TsjNmkOE+ZD3V7/KunB/IXCPygQ8VcCqFT53s1urmGaeCusGVz/LLZkF3P3Rcs/v42il55YQSCWnVS6mfbjpvrDrOKqA7gEgCZEmyJ6qFcDt+ws547kfGDrle27/YBmTv1zHP3/YVq+PWVRWWe1nCZgK4BjbfGKKtsOvU+nl+jtdty+v1iBVUFpBbrE3uPpjlHhVs9eZPsffrcusdbuySrtniqYAq4W8kgq2Hmc3k9rsLyjD7nASYLVwRpc4LBYTov01T6Y7SO/JKanxdyb+pwAovjwVQAskDzf/jG4LzTuA0w7rZ9R5V1arhRFdWvD5ncM8Yert+Tu466PlFJZVeppaz+jcgo4tTNWn3O5g4bYDFJZV8sFvuzzBxx1Ceke4PnDdk1aDdzJoV5+1FWm5x/xteMkO8ziD2zfnkr6mj+GSnQd9pkBYtN0cU0ig+fP5ek36YQNA3Hp7TizHPhCkuLzSp8K1PC2XtKMMJbsPmuNvHdOMHomR2KwWsgvLyMgvxeFwYi01z9tpDTCTgrsCYEty2JBecEI+lBduN4N7hnWKhYpS2LOMnq7lBqvOO7bHVQG80P4D7QuWEurqZ7lk50FufmcJX61OP+ZKwr7cEq60/cSQhX/gwaDPgeObC3Czqwn44j7mPbo+vfovUBvS85v0erTfrM1gT04JNquFJFdVty5VrmNVWmHngpd+4bwXf652hHh2QRktLLnmP7vm0zHK/D0XldvZUUu/z0NHvm734+/M7nCyyVUh3lDD+8Qt3dUc2yzQ5mm+XlyP/QDd3S6SIgKItJbTPi4M8F/Xi51VXnPNl3niKACKr6T+5rLNEGhWpZrV/RJzOfNe+OGv4Kj7tBvBATYev6Qn/7pxIEEBVuasz+TK1xdQVumgZUQwXeLDsVgsnirgS/O2cOZzP/DYjLVc+cZCbn1vKbsPlmCxQPtgVzWqagB0VQAjyvcTHGAlr6Si1g/x2rj70gxJjiEpuhlDkpvjdMJXq7zNrot2mKAy/syOWCymIugOhYcGwA4twmkWaKO43H7MJ/iVu3OpdDhJigpheCczZcXRVgH35BQTTDm/23QXzX56is4tzVx/q/fkkV9aQbS7+bdZc9MVwPWadmpWgN3hrPeln/bmlpB2sBib1cLg5Obw3Z/h3+dwjmM+4Hui2ZdbSltLJpftegbbp2PpmWBORrd/sMxzovpt+4Gjrk7YHU4yC8roYjEDe7qzHYBdx/h7Ky6v9ATv0f3Ml4lt+wsPm7Iju7CMy/453/U30TRXo3AH3wfP78pndw4DzJei+prEeNaadNIOFrM3t6TaqmtWQRkt3QHQXk5A2q+etc1rq9a7u1IEuOao9Gdo35FdRGmFeW8cacT4nipV8MGu/tP12Q/Q/QX4LcdkmNqbgfE2wH9dL6oGwC2ZCoAnigKg+Go/Aq75P7ji377Xn/1nGPR7wAk//Q3+73IorNu8WW6pPRN488aBBNmsnjnRhneOw2IxH6ZndTWdi1fvyeNgUTmJUSFYLTDX1XewS8sIQopcQcw9Ahg81SpLQQZ9XHPvLT+KWf3dKu0OT6VxkOtD1X3i/mzZHhwOJ+WV3m0u6ZPoGbxSUmEnKMBqTiJOpxkwM/132OY94emndqzNwEt3eo/pUtfxzFi596imFNl9sJgB1i20PLAEfvsn/ZOaeY4pt9g7AMQSap6P+zXtGW4+mJfXcz/AhdtMqO7dKoqIICusNdW3ToVLAdiSVehZKWZvTjEdLK73QWkeZ8Sa1zWvpILw4ACSY0NxOOGbtUfXVzKroBS7w0kbq6lMxVeakH2sFUD3iSwuPMg8r+AAKuzOwwYOLN15kNIKBweKylm288Q0t59oG1xBoWdSJEnRzWgV3Qy7w1lv3QumLd7t+ffqQ/7uissrKSyrpCW53iu3fOfpB1hbqHEHrwGugVR7c0uOuIJRXVWt+uWXVnr6o1Znb655T7auGgD9WAF0Op0+X0bSc0sJppyuFRug+AAjQncCfqwAZnv/xjZnnZrdJBqCAqD4slhMtS+6re/1AcFw8T/gsjchMNQEnH+daVYMOQpndW1pKoE289Yb0cXb3+v0TrF0ammagp+9vDe/PHw2X997BkM7xLru2wL2rTAbt+jm3WmEKwwWZzO4takGrTiGPmDr0/MpLrcTGRLgWcbtkj5JhAcHsCmzgO/WZ7Bmby6lFQ5iw4Lo1DKci1xNe2BObkHpy+DNs+D9S2HD/2D+VIa1MIMIjjUAur/ZD0qOYVSvBIIDrGzbX1Tnb98Oh5O9uSW0s7j6FdnLOTPKjKSevTaD/YVl3jkAm7kDoHleycHmw7i++wG6A+DQjrFmuqES83ih2WtoHhaE3eH0nCD35pbQ2uL98jEkyKywYbHAS9f244aUdgB8dZSDZdyjHNvazOsdVn6AMErYdYzVZPfo6c4tI7BYLHRLNO+pQytSVZcg+2nL0X2pOlbzNmRy78crfFaHqS9FZZWeiry7ylafzZZbswpYXKUatvaQ6nV2QTngJN5S5T29ZS69XV/Uaqt2u/vS9msTTURIAE6nfyYLh8O7B9S0DjZUqQBGN6N/22hsVgv78kr9thTm2/N30nXSbH5wzcqwN7fEO/8q0MtiquP+WBKutMLus87wVlUATxgFQDk6fa+B2743cwYW7IN3L4L5Lx9Vk/DZ3Vry4W0pTDivCxf2ToT1M+G31wkNtDF3wgjm/+kcrh3SlgCbqah9dFsKPz54Fg+f2w72rTQ7aXuad4ehzc2oYCDFFbYWbM0+6g9D98loUHJzrK4mnqjQQE//xX/M2eIJKkPaN8disTCqVwKuAib9WkfBJzdC+kqzgkqwqSicFrITgOlLd3Ptmwt5YPrKI/bxcbM7nJ5RuIPaNSciJJCR3c2I6S+W160ZOLOglAq7k2Srd4qdM0PTaB4WxJasQv72zUbvFDCHVABbutZdNqsO1M8oQ6fTyW+u/n9DO8TCpm88t1my1jO0rQn132/MorzSQVZBGa0t3v5jAwJ3cn6PeJ67og/ndo/3hPIlOw8e1RyGntHFeENYsiXzmAeBbHH1ZRoYUwI/P0/flmb+tA2HjASuGgDruhzZ8Xrm6w3MXLWPy19f4NfRnNXZmFGA0wktI4JpEeE77Up9BMCPXdW/qGaBwOEr8WQVlBJBCc0srtHdtiDIS2NAmPmCtLaWZc7cwatNTDM6uPrBba9m7tK3f93BTW8vJq+k7iOd3Z8J7i/HtX1GuAdCtY4JJSw4gF6u8OqPKqDd4eTNn80Anc+Wmu4Q6XklJFX5m0sq3oTFYsKve1WVY7X7YDFVX25VAE8cBUA5ei27w20/QK8rzHrBcx6Df5/rrc7VweDk5tx7bmcCK4vh81th9p9g77Jqt7VYLCTHhWHLWAmOCghPgJjkqht41jHuF7ALq8XM3zb8b99z09uLmb02nQq7o9p9V1W10oa9Euzmw/vW4R2IcFUB3/plB4Bn/rmWEd5+eSPji6Ag3ZxQ7l8DPUy/yd6W7QTZrBSUVvLb9oP8d8Vexr69uNr5BQ+1MSOfwrJKIoID6JpgKkhXDjTzH368OK1OAcfdD61LkPcbfFj2Kp4cbSZ8Xrorh2hPBdDV79NVAQwryybQZgaM1NfST7sPlrA3t4RAm8W89pu/9d7oqOSqNrmAGUiQkVeK0wltrd6QFpS1mjfHDuKqQW0ASIpuxsB2MTidHNWUOel5Zt7DcKe3ApFsySCroOyYBsG4K4Bjct+F75/hkpIvAd8KYGmF3aeKsiE9/7hPqEeybX+hp+/a/oIyrn3zN+Zvrb/g6a5subtCAJ5my5W7c+vc79HpdLJgW3atoaq0ws7nrsnZH0o1nwmbMwt8mmn3F5TR0l39C46C5DMASD64wPN3WlNVb/fBYmLI58LV93JZ0GLg8H6AFXYHL87ZzE+b9x9VX113xe/c7qYrTG0BcE9uCS3I4cYll8HPz3teT38MrFm47QCZrjXAf92ajd3hJD2vlFZVAmBQ1mp6uKq5C7YeqHY/deV+/VpFm24pGgl84igAyrEJDocr/gMXT4XgSBP+3joHvv2zJzjVyc5fwe7qrL95du3bpi00l21T8JTd3NoMASBq/3LeGjuIoR1icTrNvIJ3/N9yhk6Zx5RvNrAiLYfKQ8JgbnE5E79YzbeuqRdOaxMKrw4yTbn2ClMFHN4ewHPySXE1SwNMvaYf79wymGHBrmktkvpDeAtIGgBA5ME1/Pqns/nothReurYfHVuEsb+gjMe+XHvEl8fd/29AuxhsVndfyRYMaBtNSYW9TiuDuJv52lUJTexdxsV9Ekl1zb8Y414H2F0BdI2sthZmeD7o66sZ2H3S6ts6mtCiPbB/A1hs0GoQACkhuwm0WdiaVchPrvWi2wdUOemkrz6sAu0edfvV6rpPLLsvt9SnmQuge7B5vGNp5tvs6ueaVLwJgHZl5rLqiX3t3jzK7Q7iwoPo5Zoz8pd6rgK65+McnBzDaR2aU1hWyS3vLqm35uD1Vfr/uXVsEUZsWBBllY46VyBnrcng+rcWcckrv9Y4Cv7bdRnkFleQGBXCdUPa0jwsiEqHk01V1mHeX1hlAEhEPHQ+H4CAbXM8zfTVNW06nWblj5G25cSm/8QFedOBw6eCWZGW61lD/Js11S8leajswjKyCsqwWGBMfzPA7UgVwBG21YQX7YLfXucc1wC6b9cd/7rAVVc3yiupYPWeXPblltCq6t9G3m7Oa2cGghzvlwd3hb1f22hiw4JwOmFbVtMdEd+YKADKsbNYYNAtcPcS6HWlWUFk4avw/hgoquOHwtY53n8fMQAuMpdthx5+m7tJePdvnNs9no/Hn8YPD57FnWd1JC48mOzCcv7103Yu++cC+j81h5veXswfPlzGHz5cxrkv/ORpNho7tB39LZshZwdkroVtPwAwbnh7IlxLIEU1C/T0EQSIDQ/m7K4tsbiXyms92Fy2MgGQfStoGR7MsI5xXNqvFf+4ph82q4WvVqfzvyPMfO+pSrbzjsi2WCw8emF3AKYv2e2Za64m7n5LCY4qJ6PszVjK8nl6TC+iQwO9y8C5K4DhpgmYylKGtTIf9PU1IbR7+pehHWO91b+2Q6Hj2eaQ9q/mdFeV9Z35OwHfZloqiiB7i88+L+ydiMViBq/UtSuAOcn5vm+7B5nHqdpJHWDq3M088tnqGqtXBaUV7MsrJYBKmuWbLwaReWZqmqyCMg64VnNxN/8OaBvjmf/w53ruBzh3vQm1F/dJ4r3fD2FQuxjKKx18uCitXh7PUwFMjPJcZ7FYPKutLKpjs+V/V5hgknawmCvfWOAT6sDMNfjyPPM+uHpQG2xWi2d+v6rNwFn5ZbTE9WUmPB46n2f+nfYbA+LN33h1E7fnlVRQUFZJW4t5/WJL0wDnYRXAn6tMZr9ox4E6rdzjDnvtmod6/tZ3HSyudpR0pd1BRn4pbdz9YIsPkBKxn5YRweSVVPDLcbx/isoq+Wat+ZxwLxk5d0Mm2YXlh/1tnBtlPrvmb80+ru4h7v6h7WPD6BxvZic4dAUdqR8KgHL8IhLgyv/ANR9CUDjs+tVUz7b9ALV9MDidsKVKAMxYA3k1NJk4HLDbNeCkTcrht7uvS18FFeaE3z4ujEdGdWPhxHP4140DGdUzgciQAArKKvlp835mrclg1poMDhSV0yU+nE9uH8pTl/bCsmuBd7+rpwEm9N06vANgJq62bvoanusIW+d5t9292HUsphpJy56mObgkxwRKlz6to7n77E4APPblWhZsyz7sW3tecQVfrtzLAlefw0FtI2HWQ7DiQ/P/5Oak9ozH4YRnv6l9zrvdB0uIpIgwu6uiEG6qfuxbQcuIEJ6/si8Jga6A4x4EEhjiCYND4kxTdX1UAJ1Op3cASIdY75eALqmQ2M91nCu5oJcJpNuziwihjChHrrnNPRgofaXPfuMjQzwjtP/9y/Y6HYtPM5fFhN72VlMt+26dNzx/ty6DqXO3MH3pbv769YZq9+Xp/xd+EIvdvH7WvN30bG5+z+4w7Q6Ag5JjPAOiftmSXW+rOuQUlbN0lwlc53ZvSXCAjdvONO/rT5fu9vs0NJV2BxuraQIGGOJabaUu/dbySys8/SPbNG9GVkEZV/9rIS98t4kfNmXxwcKdXPTyr2zbX0TzsCCuTzGD2Hq3Onxgx/6qU8BEJEJsRzPPqaOCs4PWA9UP2HJ3pegcaI4jwF5MAgcPmwvQHeCtFnA4jzypM3gDYI+kSGLDg2kZEYzTiWe2hKrS88xo9aoVfVvafE/f1+NZTm322gxKKuwkx4Zy+5kdAfh8mflMbm11VQADTFNtN6fp2rIvr/S4lkx0V1CT48Lo3NJ8sd6sgSAnREBDH4A0Id0vhth5MO16OLgNPhgDMe1hwI1mCpmq8woCHNwOubvAGmhO5JlrYMu3rulmDpG9CUrzzAjkhN6H3x7d1nyYF6TD3uWQfLrnpkCbldSeCaT2TMDucLJuXx5r9npn/I8ODSK1ZwJBAa7vQzvne/e78Wuz+klIJHed3ZHkuFBTqfrvU1CcDb/+AzqdC2UFkGVOHrR2BcCAIIjvBfuWm2Nq3sGz27vP6cS8jZms3ZvP9W8tIjTIRq+kKEor7eSVVLAnp8QzcXR4cAADKpbD4jchIMS8ziFRPDyqG3M3ZDFvYxa3vreE6NAgYsODOKdrSwYlN/c0Ge/OKaaNq2pBWEtodzqs+8L0uexwFuf1iIckK+zB2wTsfk1LcugTnAGEs25fPl+u3Mul/UwT1YHCMmau2kf/tjGHzX94JKUVdtbszePXLdlkFZQRFGBlQEKA6RIA0GUUBJlO9mRtYGSnSM8J1RPSgiPNMoX7N5rBQX2v9XmMO87qyKIdB3l3wU4u7J3o6SdVk/S8Eka5991qIOxZTBtnOlYLfLFiL+f3jGdYpzifpvv3Fu5iaMdYRvVK9NnXSlfAGx6ZBVXyzVWtcll3sDmv/LCVc7u39ITqge1i6NM6mvDgAA4WlbNuXz69W0fhbz9uzsLhhG4JEbSOMRWec7u1JCEyhIz8UmavzfD8fv1h54EiyiodhAbZaNc81Oc2d0BfuisHu8Ppeb9WZ96GTMrtDjq2CDMTy7+7hBVpubzy/Vaf7U7vFMvfr+pLvGvlld7VVAD3F5bR2d0HMML1Zaj9mXBwO90rNwLxrN1rBoJYqnQ12eOqpLe37QdXYa6DNZ0FhbHkl1YQGRLIwaJyz2ONHZrMuwt28s3adE8grYl7qcPuCSawdk+MJKtgPxvS8z1rd7u5K9rtAw6A+3vjzl8ZfdqVvDN/J3PWZ1JcXklo0NGf3v+7woS9ywe05swupuruXgKurfUAODGfdxu/IjBzFQPancFv2w/y69Zsz+TQR2vXgWJs2Bm+8xWig/rwAdFsVQXwhFAFUPyrZTczSnjQOLOebM4OmPcUvH467PjZd9utc81lu6HQ6zLz76oDAKpyTzfTehDYAg+/3WLxVgHdlcJq2KwW+rSO5oaUdtw4NJkbhyZzSd8kb/irKDXTkICphlWWwoaZAATYrFzarxUtm1lht6s5euevkJ9uwpTTAVFtPf3nAJ9m4KoCbVbevHEQl/VvRWxYEMXldhbvPMjqPXnsOlCM3eGkS3w4d57Vkf/+YRjBe139HytLYd0MADq2COcG14ll7oYsPlu2h3/9tJ1r3vyNoVPm8chnq3nth61syyr0NFsRk2zCDZhQ6lZ80Puc3VxN2c0PLOe8HvHYHU7um7aShz9bxbPfbOSM537gyf+tZ8xr8/nDh8vYkV1EeaWDA4VlZOWXVtssVGF38M78HaT8dR5XvbGQl1xNdqd1iCUk7Wewl5svDXGdzVyPYS3BaSe2cItnfV7PCODott6Jy6sZgHR215ZcObA1Tic89OkqSsoPr26t3pPLFtcggezCcm8fQNfyh4GlB7j3dBMSJn6xhomfryEzv4z2cWHcPCwZgIc+W+3Tfy6roNTzvIZHekdeA1zR6iDNAm2s2p3Lmz9vJ7uwnCCblZ5JUQTarObLBUffDFxUVsk1/1pIv6e+Y8hf5jL8b99z7gs/csFLv3DVGws8VaG5G8zxuAcagHlfXzvEDKDxdzOwe6qi7omRZmR90QHY9j2s/IjusRbCgmwUlFYecVS8ezDPRb0TiQ4N4uPbTuPZy3tz+YBWJMeG0jwsiEkXdeeD36eQGNXMcz93E3DVgSBZBaXeCqC7q4Orv25s/noCrBZyiisOa9p1d6VIcnorev1CzOvprmL9ujUbpytg3+R6fyzcduCI60m7+0meVzgTnm7JueG7gOr7AXpGAFuqvLd2zadf6yjaNg+luNzu+T0fjfS8Eua7+uNe1r8VrWNC6dDChDoLDlo6XX937kUB0ld5BsDN33Js/QDdU8Ccbl1Lwpo3OH3zc4AqgCeKKoDif82i4eIX4fynTVj55e+m2vfeaBh2D5zzmKmOuZt/O400P/OeMvMLlhdDkG+1wBMA25xGjdqkmKXq3H0Fj8XepWZQSlhLSBkP3z8Dq6ZB/99V2WYZVLhP+E7zmGWuD6w2g333l1R9AAQzWvUf1/TD4XCyISOfrVmFhAcHENkskMSoEE+FBvCtSq76GAbeBMCjF3bntA6xHCwqp6C0kq1ZhXy33oxcnb7UOxluW1s1AXDPUtMMb7FAiSsAVq0AtjkNlvwby+5FvD5uCi9/v5VXvt/CJ0u9ncTbx4Wx60CRpzm9qvjIYAYnN6d7YiRBNitOnHyydI9nqae48GAGJ8cwsF2M6fj+g2nepkuqd5BPUn9TFd63ggt6n8/C7Qe8cwBGt/U2E2e4BoIc2AY/Pw9D/wBJ/Xns4h78uiWbnQeKee7bjTx+iRn5nFtcztNfbfCMGHVXMN2TQNOyu3kPFGVxVx8Lc7ZHsm5fPl+vMUHk2ct7M6BdDKv35LI8LZfb3l/Kv28aROuYUB7/ch15JRX0TIqkb5CrS4NrXxE5G7ntjFG8/P1WnvvWDArp1SqSkEDT5HxmlxbMWZ/J58v3cENKW6JDgw5731Tnqf+tr7Uv3ZKdOWzJLODnTea1O9c1lZDbtYPb8sr3W1m84yCbMwvoUqWP6/FwB5vhzfPhlUFwwNtXM+CMrZzW4QLmbczi3o9X8MGtKZ6RoFVVbf69qI+Z8zMk0Ma1Q9py7ZBaKmtlBbQKhZjQQHKKK9iUUUDfNtGHNAG7AqDri5otYxUD20SxaFcud/7fcqbffprnd7Anx4wSj7Dneh6id0gWFJuRrH1aR3v6/53ROY72cWF0S4hgY0YBc9ZnekapH6q0ws421zq+HTJmgb2MYWW/AKnVLh24J6eEICqIsbu+rFhsULQfy4GtjO6bxKs/bGXmyn2M7pt02H1r8+bP23E6zRQ9bVzV2jM7t2D7/iJakEcAleaxuqSaO+Tt5sxWFv6O6cd7pCpuddJcU8D0DDKfHSEFu2hGKbtzoKTcTrMg21HtT46OKoBSf4LCoP8NcPsvMOAmwAkLXjZz5ZXkepv7Oo2Elj0gqo2pcO38xVSkFr7mGYThqeq1rSUAtnVXABeZPoPHwh20kodDn2tc1/0Ked7Q46lkBphmJtZ85q0Iupt/3TwVqpU1zpVotVromRTFpf1acW73eAYnN/cNf2WFvn3c0haaQI05EV7YO5HfndaOO8/qyAtX92XppJH856ZB3HNOJ64Y0JphHWO5oJVrIERMMiT2MR/khRmQv88cV0muub1qBdD9eqavJsBewoTzuvDhrSm0iw2lX5to/nPTIL7/4whm3XcGZ3f1TugNpv9TZn4ZX61O5/lvN/GXWRv466yNbM0qJDYsiCmX92bRo+fy+u8GcusZHYgLDzbhH6DjOVVev36uY1hJak9zsvYJgHGdITDMBPJd8+H/roA1n8CcxwHTd3PKFabLwDvzdzJsyjzu/mg55/3jZz5fvgeLxRyrey3nNlZXiIpqY/qGAYF5O5h6TT9Plfj6lLakdIgl0GbllesHEBsWxMaMAi555VemfLOBb9ZmEGC18NyVfbC6uwX0vtJcZqzhtjM7eCa3BtP8y97lkLWRC3olEBcexPb9Rdz4n8XkFR95RP03a9KZvnQ3Fgu8fsMAvr53OP/9wzCmjT+N938/hFtdI9hf+X4rBWWVxIUH0a91tM8+EqJCGOmqCr7x4zbW7s2rdtm6o+UOMOfYF3jDX5jrvbLteyZf0oNW0c3Ynl3Ela8vqHYd2KrNv11cgwSOqLwYXj8dyz+Hela9cXf7yC4sp4V7FRB3AGzRzfw9l+Xzj/MiaBkRzKbMAm5+Z4lnIMbug8XegRcuHa3mC8Fv2w/idDo9AzDOdPXnvLC3aQ1wD6xw25JZwEUv/8Kt7y3lnfk7qXQ4iQmxEpht3i9JJWZ0/6aMgsP6g+7NLSbRcgArTtMlpp1ZWo+dv3hWLvppc1ad3jtui11dJQDucvVPNs/DVPg8f3ORSaYrT6zZpifbiQgOIK+k4phWBXFXTnuHmP1bcDIgNMuMBN6vKmB9UwVQ6l9wOIx+2QS9L24zHf3fOgcqS8wqHi17mIpPl1RY8m+Y+wTk7oZyVz+Q5DMgZydYrN4RttVJ6GM+EEtzzcmmRdejP9ZdrlCafLoJGO2Gm+tWfwJnTDC37fzFXJ5+P/z8nKkaujpGewaAuLXo6gooRZC92VSWjtaeJWa+xag2JvBs+x5WTYezJ1a7eXCAjXO7x/tWed6fAlmYABgUZl7zzDWmmpk8HNO5B99+mlFtzO+nYJ/Zrv2ZDOsYx08Pne3zeN0SInnnliEcKCzDZrUQ7lrybOXuXJbsPMjOA0U4HE4cTtPRe9zw9p5Jej0O7jC/Y2uA94QGPk288ZEhTLm8N0OWvmueS3RbsNpMoE1bCB9f733P7PjZNM1HJnJ215bcc04n/vnjNvbllbLP1ZzYsUUYz13Zh5YRIby3YCczlu2ihbNKAGze0ez3wDY6947g1ev688uWbB4e5X1ftYpuxpd3n84fPlzO6j15/OsnE8z/cFZHesZaTR9XMF8mfvsn7N9IRICTe8/pxBP/Myf7YS0r4e1REBRK3ISNfHjraVz31m+s2ZvHjW8vYvLFPYiPDCEmLIjiskrySiootzuICQ2iwu7gT1+sAeDOER25oLdvX0QwYaRjy3AmzViL3eHknG4tPROdV3VDSju+XZfJFyv28oWrL1hsWBBXD27D9UPaeqpCdeV0Oj0VwHblrvA38kkThv/RE9JX0S6sks/uHMqN/1nM1qxCRr74E8EBVoIDrLSPC+PyAa09S0Fe1DvRp09erdZ94Xntz26dwfeEsnZvHjnF5dgdVVYBcTcB2wLN58eexSQVb+SDcRdw9b8WsnJ3LuPeW8Kr1w9gT04J7d2r6VgDwVFBa7v5Yvjx4jTS80rIzC8jOMDq6W96Qa8EXpyzmV+27GfhtgMM7Wiq9b9/bwm7D5awbl++5/md06IAy37TstDswDqCAiwUl9tZtSeX/m29f5d7ckq8QTS6rfn73fkL7JpPl8HjPFXHx2eu5dkr+niqyzUpKbfz8GercDrh6kGtfVZnSmkfS6DNQpLTVW2MclUxk/rDga3YMldxWsezmbM+k1+2ZNPnkC8WR+JeA7ijzRuQh0VkMb+4LVuyCjxN+FI/FADlxOkx2jQPf3SNGSQCpkOx+0O9yygTAN1Vk9hOkLPLG7jie0JI5GG79bAFmubNnb+YJuOjDYCVZbDb1f+v3XBz2fcaEwCXvw/D7jUTUburfb2vMgFhx08mzAY0O3yAitUGiX0hbYFpBj6WAOgeldxumAnR2743zcAjHgFrHYv4OTvNpXsC7VYDvAGwZQ9zXVCEaZp3s1hMFXDdf02zevsza32I2PBgz78DbGZaF3eftiPa8ZPruAZBcJXmR3cT7/6NUF7EdUPawipXSHMvV5jYz/weygtMgA2PN9uv+wKG3gXAH8/vyh0jOrJqdy5LduYQ1SyAa4e09ZwcJ13cg0nDI2Cq3Zzcw+Mh1jVox/VePb9nAue7qpBVtY4J5ZPbh/Lk/9bx8eLddEuI4K5zOkG6q49leLx5D4REmy8n+zdyfUovpi3ZTUZ+KYOtG0y3g5Iy2PUrXTuN5KPbUrjuzd9YvSePK99YeMSXr2/rKB44r0uNt183pC1tYkL5aPEubh/RsdpthneK48qBrVm2K4eScjv5pRUcKCrn9R+38fqP2zwrVNisFjq0CKN7olnXNz23hLSDxeSXVhIWZCM02JxWissqOVBUjtUCkbmuv+mk/hDV2vTzzNkBab+R2CWVT24fyvj3l7J0Vw5llQ7KKh2s2pPHqiqjd93Nv3WyxLuW+cDAHUBP5m3Mom1sKKGUEm5xTbYdUeVLUlJ/2LMY9q2ga5+ree/3Q7jhrd/4bftBRk39hfzSCs5097trNwx2/ERoSTpPXNCep2bv4EdX83pKh1jP+6pzfATndmvJvI1Z3PzOYl6+rj//+XUHuw+W0LZ5KBf0SmDGyr1k5pdxYVwm7tmNLGX5XNS6nP/uDOS6t37j0Qu7c+Np7bBYLOzNLWGY+zii25lBXWBaL5xO7jq7E/dNW8GMlfvYnFnIs1f0Zl9uCUt25hAaZOOmYcmm4u7y/Leb2HmgmMSoECZd7PoscNjh4A7C4jpxfs8E2qx3dY2IMpPQk9gP1nwK+1ZyescrmbM+k+e/3cQbP20jKaoZo/slcfOwZMKCa48YO1zTKyVVeltY+gaZ/qob0wugf613l+OkACgnVvsz4XdfwIdXmRO2uz+J+7Z2w021bPgD0O0SyN1p+gau+y/0ve7I+2+TYgLg7kWefnJ1tne5CXKhcd7w2PMyU5HM2QGrPjIfuPZy7/QRva/0hpek/tUPUGk1wATAvcuh3/VHd0xQJQCeDt0uNkEtd5dpFq9aLauJvdJUVAGam+ZAWg+G5e/B2s+hvVkJgdCYw+/b5jTz2tcysMYvtrteww5n+V4fmWiqNIUZJkAnD4dc10AFdwB0D7SxBsI1/wdZG2DWg6Zq6wqAAGHBAQzrFMcwV8f1w+S5XqOoViZYN3cFpQPbjnj4IYE2plzeh7FDk2nbPJTgABtkrTM3uivcCb3NezNjDUGJffjvH07H7nQSPvdP3h1tmQOdRtItIZKPx5/GX77ewPb9RewvKKPc7sBigciQQIICrOQUlVPpcBIdGsjUa/sTaKv9y8DwznEM7+x67kvfMV9qLvibp2pttVr4+1V9PdtX2h3M3ZDFh4t28cuWbMrdE6jbzeCOuq5FPbx1ANb9O81/EvuYy+Th5m9q56/QJZXmYUF8esdQsgvLKau0U1ph55ct2UxfspuNGQX0axNd9+bfvct8+tx2qthCfOQAMvPLeG72JpLd1b+gcN8vG+5qs2twVL820Xx25zDum7bCMyihbaArobUaYKatKjnIzV0q6Zg0hLs/WkFeSYVnUma3124YwN0fLWfuhixu/8CsdhQRHMB/bhpE5/gIHh7VzcxBuXiBz/0mD6okKyCB+VsPMPnLdXy+fC9ndo5jX+4hFcDWg8EWbP5GDm7nkr4daR4WxL0fr2B9ej6jX53vs9935u/kjhEdaBkZwn+X7/XMw/nXy3sTGeL6/Pr+aTPDweVv8cJVV2D/qhmsAqLdFcB+5nLfSi68MJG3ftnB3twSCkor2VRawPPfbuLtX3dwx4iOnN2tBcmxYQRU8/7cdaCIZpQSUe4dtNLJmeY5zv5tow8bYS/+owAoJ167oXDbPNO02e1i7/UBwXDL177bNu8AV71rVh2x1KHa5e4juHUubJxlJnmtLpRVp2rzr7sqGRwBZ/wRvn0UfnwWel3u2uYMs033S+CrCaYyeOgAEDf3iWXJW7D2M9OsevZE72i62lSWeUcltzvdDI7peSms+D9Y9l7dAmD+HnDazUnC3eTV0ywhRe4uM78g+Pb/c/P0q1xi+lXWteJ4NBwOb4g+NACCGZG7ejps+MpUeItcJwt3c1T30ZCyDDqdZ4JFi+5macH0lWaC6LjOdTsOdz9P935dfQA91eo66J5YpUKd6ap6xZuBJyT08QRAwNvBPa1KuN4yx4QyTNP6B+PM6+90OimpsBMSYPM03zqdTvJLKwmyWY+us7zDYd7LhRnw7sVw+b/M++EQATYro3olMKpXAjlF5ZS4RtGWVtjZnFnI+vR89heUkhTVjLaxoUQ1C6S0wk5hmdkuLMhGsyAbg1kLH2O+PLm7GCSfASs+8PYDxkwO7V4rGKBTywhuHpZM2sFimocF1b35d8l/zGVUG8jbTVDmSmbd+yrvzN/Jewt3El+Wa24Pj/e9n/uLRMZq86XJFkD3xEhm3j2cZ7/ZyLsLdtI9+KCZAiYm2byvdi+CA1s4o1cfvr53OL9uyeayAa3MZ8Lm2TBuDiFRrXj9dwOZ8Mkq/rdqH1YLvHx9fzq7BtrYrBbTvJ652jx+UDiUFxKTt4EPfn8F7y/cybOzN7Jqdy6r3H1V3UE0pp2Zs7P1INMHducvENuR0zvF8dW9w7l/2kqW7DxIl/gIBraLYc3ePFbvyePv3/muIHT7iA6c3dU1MryiFJa+bf69+hNC+lwNJa65BatWAK0BkL+HlpXpzP/TORSUVpCZX8rK3Xm8+v0Wdh4o5i+zNvCXWRsIDrDSOqYZZZUOSsrtRDULZFSvBDZnFpLsblZ3iS/bwaieCcxel8EfPlzOXy/rXftgHzlmCoDSMFp0PbomWmsdT3Bthpg+d4WZMO060+G8zzXQ7waI71Hz/ewVsMU9Lc1w39sGjTMDUvL3wm+vm+vczaHNYkxT8KqPoeuF1e+7w9kQ2doEsZIc8/P5rTD+JzNtTm32LvOOSnYHkoG/NwFw9XRT4XJXVWpy0DUJdUw7b4ALDofL3oB3LvQMKPEZAewW39u8nmV5Zok2d5jxp8y1UHzAnPhaDzr89p6Xmee6fgYMvNlcFxThDROBIZ7QBEBYrBlIsuU700x19qN1Ow53ZdEdAN3zNpbkmEFJ1b0+tXF3ZXA3sbu7B7gCoNl3rnn+YAbmHNxmKo6xvs20FovlsHndLBbL4X0p62LvMhP+wLy3Pr3ZPPfT76vxLjFhQVStD3doEc6oXoc3h1drgasSmuitLnrm6Uxf6ZlnszoWi4V2sa755SpKzSCyTiO9Ye1QxQdNVRvgwufh42shezOxAaU8mNqV8SM6sOG7XbAc7wAQt9hOnvBF9mbP50VIoI0nRvfk+pS2dJj+uJnXsWoAdK1C0zom1ASVskJTXXVUwMqPYMRDBNqsTL2mHyntm9O2eahnkIiH02kmsQfzJXP5+5CxGqvVws2nt+e8ngn8uCmL5btyWb0nlwH2fCjChGowX3x2zTdffF1/I4lRzZh++1Aq7A5PddjhcPK/1fv45w/mS83ofklc2i/Jd9DZxq/MnKtgAmVFSZUvR64gFhxuWlt2zTddUpqPIyIkkIiQQDq1jODSfkl8vmwPnyw1Fdzicjvb9nun1TlQVM4/fzTHMMQ1kIYW3WH/BiwF6bx2R3v+HBrItCW7+dMXa8gpruDOs6rvuiDHTqOApWkJiYLbf4ahd5vwV7TfLE/3+lD41wj46TnTpFpZZXmmbT+YeQp3/wZYDq9CBYbAiIfNvx2uGWDdzaYAl0yFB9bWPEI5LBbuXwMPbYc//GbCSWUpfHGr73FUZ5er+abdMG9VsvVA6HUF4DSVySMtw3Ro/z+3dsNg2N3e/1dXAbQFmMcD30qVP7lH/7YbVn21tuM5EBxlJvle86m5Lrrt4etBV9X7KnO55tMjvz5unpOcq8oRFGaa+sEbkt0cDlMlqonTCZmu4BNfTQB0H9OeJYDT9IlLdn3xqLo6Tn3Y+JW57HEppNxh/j1nsrf/q7+5g03VABjV2rwfnY66v6+Wvg0//MUMmFk/s/ptVn5o/rYSeps+xe7Asm8lYJrPU1q4RsceGgCttiqrzyznUF1ahBGQ5+5+0A5iXZXlQ5YhZMdPJvyB6YfqYrNa+N1p7Q4Pf2ACeGme6cbgnn0gfbXn5lbRzbghpR0vXN2XORNG0Ap3H0DX83O3Jmz+1nxhqaJq1wCr1cKl/Vrx7QNn8u0DZ3LX2Z18wx+YL5dulaWmb6G7C4n7bwM8SzWy7fvDnk6gzcq1Q9ryxR9OZ+0Tqfzw4Fl8dGsK//3DML69/0xevb4/qT3jCQqwcnq063iT+nt+X7bsjUy5vLcn9EWHHsMXHTkiBUBpeuI6QepfYMIGuG6aaWa2Bphqww9/gXcugL8kwtMtzc8HY8xKI6FxcPlb0KKazvT9bvBWhKLa+oapgGDfD8bqWK0mCLbsDmNeh9BYEwS+f7r2+7n7/yUfUpUc+YSZtmLnL2a1ktrUFAABzp5kvnkDhLc8/Hbwzr3oXurO32pr/gXz+na7yPx7yVvmMvoITUJdLzQjwg9uNxWvusir5iTn6QdYZcWJilL497kwtZf3tT1UYaaZW9Fi9S5XF9fFLA1YlucdHZzmGuDRbhh0Pt/8e8t3dTveY+V+v/S41FRO3YFj0Rv183ieANjP93r3e9o9yOtI3OHfXgafjPUZ6IHDAYvfgh/+av4/+FbzBcEzEXuVQFfgqjiFV1PB9PRtO3zeTgozzGNbbOY94u5acOCQAFg1wGeth6zal2oETLMzmM+HpP6AxTxeYTUTOpcXmy+2YKr6YAJvy56mf7Jrovhjkrvb+4Wsgyvgrf3cvGfhkAB4rrnc8bNpQamB1WqhfVwYwzrF0b9tDF0TIri4TxL/unEQa59I5fpOrkmyYzt6vyxlrcdisfDIqG7MuOt0M/hL/E4BUJouWyB0vQCu/RD+uAku/odpTgxrYfrE2cu8H+gpd8A9y6DPVTXv6/xnzAndPafbsYpIgNGvmn8veAVm3mM+ZA/uMCeLtEWmH9NH13jnHDy0r190WzOpNsB3k0zTVw3zDNYaAANDzOsz8BZz0qyOux9g2sJjn1+xJpVl3pBbUwAEbx81d9PUkQJgcLi3f+nsibVX69zcFUB3R3fwVu1+nepZY5ofp5hAUZBugkhF6eH7clf/mneAQNcUQQFB3lHgm74xl7tcAbDtad4AuPNXKPddhcJv9m82gcUaaPpMgnegzPoZUJBR412PSVmBt0J2aFeFZFcV3V3lrs2BbeY1t9ig99WAE77+I7zcH74YD+9dYgb+VBSb91Ef17KA7gBYddWbAlefs4hD+gBCrSvLeP6Oolqbz4M41xfF7K3eim7V9c1DXQNuqlQBa+QJyX1M5dkdLqtUAT3cXRWCo3ynberrCvKrpx/58Wqy6mPAaX437s8D9/E3izF/V26JfU2rQVl+3b9kHSIowIrFPcgqtpP378PdfxaOeplJqTv1AZRTQ1icWWN40O/Nh3RBujcwBUeY6WmOpNtF8PB288F7vLpdCINvMxWt5e+bn5q0HuKt0lV1+v2w/AMzmvI51+je0FjTR6r7aDPFTmCz2gMgmG/el0yt5fEHm8CQuwv+73JTwQyJMse87gvzoX3mQ0eugrrZK03g3f6D6UNVUWxCecta+mh2OMs8Zl0DIMC5j5mgtWcxzJ8KZz5Y87ZOZ5VmrioB8IwJ5lj3b4Bv/2xGcS942dwWGGZO3N88BKNf8d3fWtdJ89A+kwNugq8nmK4Iva7wnjjbDjO/h+h25nXe8Qt0HXXk51hVxhpTqbQFmQE/Aa7L4HDz/rFavc2/HUZ4+90l9jVV3t2/wbJ34aw/1fgQRy1jLeA0A58OrTC7py/Zt7LWfoCA9/XsMAIuf9OErx+nmAqvu3k+MNTMMzj4Vm9f1+pW4nH3f6yuAugZCLIGKst9p0U69O8oJtm0LFQUmQnVo1qZEej5e0x1/tzH4H/3mffPWRNr77LgDnruKmlCH9MPMWMVdB7pu627enzo30Dvq8wE6GkLzbHW9PdeE4fDNKGDWfmowwjzd1/p+oJT9e8CTJN5h7PMZ8DWebVP0l8Tp9NbQY3rbCqYYF5HqXcKgHLqsVjMjPbHouo37uN14fOm6rP9B1Pp27/JnKxDoiGyFXQ6BzqnmhBR3ckjOBwufA7+e6c5CYEZTLF6uvmxWM1IR09zUftjO86QKBNwvnrAHOvrQ00lptg1N9juRbDyY9P5PDLJVAQcdlewSDEnRjAf9pu/Nf3Nsjf5Poa7ya4mAUFmWqCVrv5JdQmA0W3NazzjDhMWOo30NvGBqaR8/xdTBe11pfc1rBpkw1uawTL/dzks/Y9ZF9rpMFWovtealUeWv2/mL3RPO7T5W9dxWrx97NwG3ASL3zTzFH5yk2uATwsT/iwWM2p9yb/NCNKjCYC7l8A7o7x9VA/V7nS4+n1vAHQ3qbsNuc0EwKVvw/AJvsHneFTX/88tuo0JKTk7TfA47c6a9+Me2NHrSvM6jXgIhtxqAvSepWYwzZDbDhs8Y37fFtO8X5hlfp+eCmA1ATCmvXe+xtXTYMBY7205ruDlDla2QPPvA1tNWItqBVtd1b/k4dDzcpj1sLk9Y03tg7XcTcAJrm0S+5gZA2qrALqbf90ik8zgtB0/wepPzWt0NHb+Yn4XQRHmC2RQqJmxwd0KcWgABPMlc90Xph/gOX8+uscD83nl/lLXvIP52wLTdO5eplLqjQKgSEOxWKDL+ebnWPW41HxYV5aZ5rYDW2DD/0wn+fw93v5OwZFHXxGoqt91ZgqWz8d5T1bRbU1w2/ydmUJn8b+qv29ItDlZOp3e0NisOQy6BdoONfutywjbXpcdXQAEE9I2zTLB7fNxcMaDpqK5ebbpD+pe03nZu+YyNM7bZOvW6VwzCfiCl02YDo83fedCm8PZf4YfnjGVnrzdMOR206QPpmn10KZ7W4DpSvDhlWZuSDCVE89k6BeYALj8fRPaauqSUFVJDnz2exP+mnc0X1LsZaaCZS8zzbq75sObZ7n6OVqg6yEBsMelpsJZmGFeq+Pt5uBWWwAEM7fnj1PMtD3lheb3c+hJP3OdqcDagnyDa7MY7zriNQmOMLMN7N9omoG7jvI2c1cXAC0WGDwOfnnB/E6DwlwDrqi+kh7XxQS8A1vNoAh382/n801Fs/N5JnSv+8I3ADocZsRupKsyWpAOWCChl7ndHQQzqgmA7uOIbnf4bX2vdQXAaabiXdcAVVHinQ6qz1Xetdg7necNgNHVBEB3P8F9y49tpLy7b21UG/N3F9fFfLkszTW/p0jNAVifFABFTnYWi6liBYZAeAsTOlL/aioeBftM81RsJ++H+rFq0QVunQfL3jFNzT3GmEAz7F7X6iTTTLNQcKQJI3uXmibA0lzvPmzBptJzxgRTWTwa7UeYKkFZgWct0iOyWODiqa752raaamBVbYeZvmDrZ5p+oTVNTXTOY6av4r7lcMlL3hPdGX80J++l/zHzKi5603SYj+tq7lOdTiPNyGb36Mm2VUJip3Oh3+9M0P3iNhPg+v+u5ufndMKXd0Nemqlejf/x8KbU/ZtMf9Ic13RArQcf3v/NFmi6R/z4VxMEV083J+RWA6Hv9eZ9dSyOFABHPGLCx/yp8P0zJuy17GHCXmxHE0DWfGa27Xx+3bpqHCppgAmA+5abZk33gIZD5wF0O3uSCfrL34fPbzPNoD1G1xwAN80yfXnje3oH9bhDaa/LTQBc+4VpBg5wzXM470nznME0j4NpAg1yTXnjfr0Obj+8ebymJmDwzkt6YKsJbh1G1OEFwky2n73JvCZnT/Je3/l8mON6H1dXAYxqZQY57d9ogmc180nWyh0A3ZXbgGDzt529yVQBFQDrlQKgSFNksZiTfES8t2O7PwQEQcrthz9Wp3PNz6HKCs3gCqfdNO9EJJnR0MfCFgi3fW9CT9XO6EcSFgu/n20G1uxZYvqDBYXBeU+ZsGW1Qt5e2PwNJNew3F1AENz8lRndWzUAWK1w8YsmdP/vPhMuLDbTbBwYUv2+LBZTBXxjuHlN2g31vW30K+a5LnsHvrzLVCfD403Fq6LYNJlVlpkQ6rCbgGELMhOmV9ePrkVX87p9epMJBX2urv64Bt5sQklhBmxxVcnWfwnznjaDqdyj4K0B5oTdsodpLs/fa5pHy/JNP7wg1++mvNAEA6g5AFoscN6TphL2zSNm1Zl1//XeXvVLgrsSd7RaDTCr+Oyc750eKKBZzV9ArFa4+CUzsnXVx2agz7C7vX0Nq/7+B99qjjd3l5ldAEwV1h1ouowyX4hyd8FHV5uVatZ86g1/tiDzJQ18X6PQ5t65Q2feAxe9YPoxQ81NwGAqnj3HmOP+8Cq44FkzwAvMMdiCDw9V238061QDXPqa799ni65m1oO8tJqr7h3PNb/nX/9hBrFFtTJdV6obZHMoTwCs8oWuZXdvAKzuM0X8xuJ01nWSLDlUfn4+UVFR5OXlERlZSwdmEWk8KstNiPH3qibZW00FrXOqd0RmbdZ8Zqqzw+45vKnO6TSjlxe9XrfHvuC5w4P5oRx2c8KN7Vzzc9+/2UxMXVFsmpbXzTCV3OMR1gIe3HLk5sjtP5pBO5WlZmT1zl9MuAQz4OahrcdWxc5YY8I2mDBWlm9C3H2rar+fw24G7Li7B7g9vMO3qbP4oBmJ7O7/l3KnCV5u236AaTeYPqZxXc3vwGmHsx41v7MNM80Xk6H3+E5Btfx9+N/9ZtvQODOopMNZZj7T0ly4c2H1k9sXH4T/3u6dTihpgPkSVpQFWEyz+9kTTRV/0zfw3WMmhA76vZkp4VDbvjfdPM57qvq+odt/gvdH+14XEGIm0D/9vtqD4PTfmS4ro/4Gp7mq8z/+zfwdJfSBG2cc+xfGI9D5WwHwuOgNJCL1KmOtqTwVZppAFhRumkFtQeZEX5xtqoODfl9/HeYz1ppKoLu/ZEWJGfSQudYcU1gL7zJvFSVmjW8srmpgmBk57V5C8Wg47GZKnI1fmUEVPS499uew5D9m+Tv3MoJtToNx39btvhtnmepuUZapGj6y6/DX2uEw/QbXzzDLVh66ws/eZaYiV2zW3aXv9TDmn0f+ne1dbqrA7lVlqpq4t+ZKuMMBv71m1jF3DwyyBnonqLYFuUYwu36nzTvAHb96m6CPhtNpQlzWBtMdYt8KM+eq+3Hie5qf6GRXuC82/YK7XwyfjTP9O2/43Dva+cA2eOtsU+mO7QQ3fOZdw9yPdP5WADwuegOJyCnL6TTTdrj7tTV2FaXeEfKDfn90A12KDsAvfzfTtNSlulud7C2mUti8PYx5o+4jrSvLTB/DjV+baqajwjS//2Hhke+bsdaM7o7vZY49cx3Mfdw7+XZMshlZPWR83Zps68LpNFXDH6d41zE/kntX+oa8rI1moFTebvMF4/pPal7+7xjp/K0AeFz0BhIRkROmotRUA6PbHXvTaNV1hxP71l/l2Ok01evMtSZ45u81VeHAUBOGt841g5yaNTfN+4eu956fDh9dZUJv3+tMv1o/0vlbAfC46A0kIiJyDErzTb/P5u29K+4cqqzAjK4/69GaB1UdI52/FQCPi95AIiIiJx+dv7UWsIiIiMgp54QEwNdee43k/2/v7qOiqtM4gH8HBoYB5UUJhtFQKjZMDVnAWZQ9bisncD0RaqWeyVjXs6yGBlpmb0h72sKXTFfrQPRinZOFyx51DVMX0SiLF+XFlyTCTbEVR3QNeTHEdZ79o+Ndb6CSgMPMfD/n3CNzf7+5PF/AO8+5c++d4cPh4eEBk8mE8vLy687Pz89HWFgYPDw8MHr0aHzyySeqcRHB0qVLERQUBL1ej7i4ONTV1Snjx48fx5w5cxASEgK9Xo8777wTmZmZ6OjoUM3RaDSdltLS0t4NT0RERNTP9HkDuHHjRixatAiZmZmorKxEeHg44uPj0djY2OX8L7/8EjNnzsScOXNQVVWFpKQkJCUl4fDhw8qcFStWYO3atcjJyUFZWRm8vLwQHx+P9vYfP7T666+/htVqxZtvvomvvvoKq1evRk5ODp577rlO32/Xrl04deqUskRGRvbND4KIiIion+jzcwBNJhOio6Px+uuvAwCsVituv/12LFiwAM8880yn+dOnT0dbWxsKCgqUdb/61a8wZswY5OTkQERgNBrx5JNP4qmnngIAnD9/HoGBgXjvvfcwY8aMLutYuXIlsrOz8e23P97N/fjx4wgJCUFVVRXGjBlzU9l4DgEREZH94et3Hx8B7OjoQEVFBeLi/v9h3S4uLoiLi0NJSdf3MCopKVHNB4D4+Hhl/rFjx2CxWFRzfHx8YDKZrrlN4McmcdCgzh9UnZiYiICAAMTGxmLr1q3XzXPx4kU0NzerFiIiIiJ706cN4NmzZ3H58mUEBqpvMBkYGAiLxdLlcywWy3XnX/n352zz6NGjWLduHf70p/9/VNKAAQOwatUq5OfnY9u2bYiNjUVSUtJ1m8CsrCz4+Pgoy+23d/Hh2ERERET9nNbWBfS1kydPIiEhAQ8//DD++Mc/Kuv9/f2xaNEi5XF0dDQaGhqwcuVKJCYmdrUpPPvss6rnNDc3swkkIiIiu9OnRwD9/f3h6uqK06dPq9afPn0aBoOhy+cYDIbrzr/yb3e22dDQgPvuuw/jxo1Dbm7uDes1mUw4evToNcd1Oh28vb1VCxEREZG96dMG0N3dHZGRkSgqKlLWWa1WFBUVISYmpsvnxMTEqOYDQGFhoTI/JCQEBoNBNae5uRllZWWqbZ48eRK/+c1vEBkZifXr18PF5cZRq6urERQU9LMyEhEREdmbPn8LeNGiRUhOTkZUVBTGjh2LNWvWoK2tDbNnzwYAPPbYYxgyZAiysrIAAGlpaZgwYQJWrVqFyZMnIy8vD/v371eO4Gk0GqSnp+Mvf/kLQkNDERISgoyMDBiNRiQlJQH4f/M3bNgwvPrqqzhz5oxSz5WjhO+//z7c3d0REREBANi0aRPeffddvP322339IyEiIiKyqT5vAKdPn44zZ85g6dKlsFgsGDNmDHbs2KFcxHHixAnV0blx48bhww8/xAsvvIDnnnsOoaGh2LJlC0aNGqXMefrpp9HW1oaUlBQ0NTUhNjYWO3bsgIfHj58VWFhYiKNHj+Lo0aMYOnSoqp6r73rz0ksvob6+HlqtFmFhYdi4cSMeeuihvvxxEBEREdkcPwu4B3gfISIiIvvD129+FjARERGR03H428D0pSsHT3lDaCIiIvtx5XXbmd8EZQPYAy0tLQDAewESERHZoZaWFvj4+Ni6DJvgOYA9YLVa0dDQgIEDB0Kj0fTqtq/cZPq7775zyPMTHD0fwIyOwNHzAczoKBw9Y2/nExG0tLTAaDR26zZxjohHAHvAxcWl01XGvc3Rbzjt6PkAZnQEjp4PYEZH4egZezOfsx75u8I5214iIiIiJ8YGkIiIiMjJsAHsp3Q6HTIzM6HT6WxdSp9w9HwAMzoCR88HMKOjcPSMjp7PFngRCBEREZGT4RFAIiIiIifDBpCIiIjIybABJCIiInIybACJiIiInAwbwH7ojTfewPDhw+Hh4QGTyYTy8nJbl3TTsrKyEB0djYEDByIgIABJSUmora1VzWlvb0dqaioGDx6MAQMGYNq0aTh9+rSNKu6ZZcuWQaPRID09XVnnCPlOnjyJRx99FIMHD4Zer8fo0aOxf/9+ZVxEsHTpUgQFBUGv1yMuLg51dXU2rPjnuXz5MjIyMhASEgK9Xo8777wTL730kupzQu0t42effYYHHngARqMRGo0GW7ZsUY13J8+5c+dgNpvh7e0NX19fzJkzB62trbcwxbVdL9+lS5ewZMkSjB49Gl5eXjAajXjsscfQ0NCg2kZ/zgfc+Hd4tblz50Kj0WDNmjWq9Y6QsaamBomJifDx8YGXlxeio6Nx4sQJZdwR9rG2wAawn9m4cSMWLVqEzMxMVFZWIjw8HPHx8WhsbLR1aTeluLgYqampKC0tRWFhIS5duoT7778fbW1typyFCxfi448/Rn5+PoqLi9HQ0ICpU6fasOqbs2/fPrz55pu49957VevtPd/333+P8ePHw83NDdu3b8eRI0ewatUq+Pn5KXNWrFiBtWvXIicnB2VlZfDy8kJ8fDza29ttWHn3LV++HNnZ2Xj99ddRU1OD5cuXY8WKFVi3bp0yx94ytrW1ITw8HG+88UaX493JYzab8dVXX6GwsBAFBQX47LPPkJKScqsiXNf18l24cAGVlZXIyMhAZWUlNm3ahNraWiQmJqrm9ed8wI1/h1ds3rwZpaWlMBqNncbsPeO//vUvxMbGIiwsDJ9++ikOHjyIjIwMeHh4KHPsfR9rM0L9ytixYyU1NVV5fPnyZTEajZKVlWXDqnpPY2OjAJDi4mIREWlqahI3NzfJz89X5tTU1AgAKSkpsVWZP1tLS4uEhoZKYWGhTJgwQdLS0kTEMfItWbJEYmNjrzlutVrFYDDIypUrlXVNTU2i0+nko48+uhUl9tjkyZPlD3/4g2rd1KlTxWw2i4j9ZwQgmzdvVh53J8+RI0cEgOzbt0+Zs337dtFoNHLy5MlbVnt3/DRfV8rLywWA1NfXi4h95RO5dsZ///vfMmTIEDl8+LAMGzZMVq9erYw5Qsbp06fLo48+es3nOMI+1lZ4BLAf6ejoQEVFBeLi4pR1Li4uiIuLQ0lJiQ0r6z3nz58HAAwaNAgAUFFRgUuXLqkyh4WFITg42K4yp6amYvLkyaocgGPk27p1K6KiovDwww8jICAAEREReOutt5TxY8eOwWKxqDL6+PjAZDLZTcZx48ahqKgI33zzDQDgwIED2Lt3LyZNmgTAMTJerTt5SkpK4Ovri6ioKGVOXFwcXFxcUFZWdstr7qnz589Do9HA19cXgGPks1qtmDVrFhYvXoyRI0d2Grf3jFarFdu2bcMvfvELxMfHIyAgACaTSfU2sSPsY22FDWA/cvbsWVy+fBmBgYGq9YGBgbBYLDaqqvdYrVakp6dj/PjxGDVqFADAYrHA3d1d2SlfYU+Z8/LyUFlZiaysrE5jjpDv22+/RXZ2NkJDQ7Fz507MmzcPTzzxBN5//30AUHLY89/tM888gxkzZiAsLAxubm6IiIhAeno6zGYzAMfIeLXu5LFYLAgICFCNa7VaDBo0yO4yt7e3Y8mSJZg5cya8vb0BOEa+5cuXQ6vV4oknnuhy3N4zNjY2orW1FcuWLUNCQgL++c9/YsqUKZg6dSqKi4sBOMY+1la0ti6AnEdqaioOHz6MvXv32rqUXvPdd98hLS0NhYWFqnNSHInVakVUVBReeeUVAEBERAQOHz6MnJwcJCcn27i63vG3v/0NGzZswIcffoiRI0eiuroa6enpMBqNDpPRWV26dAmPPPIIRATZ2dm2LqfXVFRU4K9//SsqKyuh0WhsXU6fsFqtAIAHH3wQCxcuBACMGTMGX375JXJycjBhwgRblmf3eASwH/H394erq2unq5dOnz4Ng8Fgo6p6x/z581FQUIA9e/Zg6NChynqDwYCOjg40NTWp5ttL5oqKCjQ2NuKXv/wltFottFotiouLsXbtWmi1WgQGBtp1PgAICgrCPffco1o3YsQI5Sq8Kzns+e928eLFylHA0aNHY9asWVi4cKFyVNcRMl6tO3kMBkOni8/++9//4ty5c3aT+UrzV19fj8LCQuXoH2D/+T7//HM0NjYiODhY2ffU19fjySefxPDhwwHYf0Z/f39otdob7n/sfR9rK2wA+xF3d3dERkaiqKhIWWe1WlFUVISYmBgbVnbzRATz58/H5s2bsXv3boSEhKjGIyMj4ebmpspcW1uLEydO2EXmiRMn4tChQ6iurlaWqKgomM1m5Wt7zgcA48eP73Trnm+++QbDhg0DAISEhMBgMKgyNjc3o6yszG4yXrhwAS4u6t2hq6urcgTCETJerTt5YmJi0NTUhIqKCmXO7t27YbVaYTKZbnnNP9eV5q+urg67du3C4MGDVeP2nm/WrFk4ePCgat9jNBqxePFi7Ny5E4D9Z3R3d0d0dPR19z/2/hpiU7a+CoXU8vLyRKfTyXvvvSdHjhyRlJQU8fX1FYvFYuvSbsq8efPEx8dHPv30Uzl16pSyXLhwQZkzd+5cCQ4Olt27d8v+/fslJiZGYmJibFh1z1x9FbCI/ecrLy8XrVYrL7/8stTV1cmGDRvE09NTPvjgA2XOsmXLxNfXV/7xj3/IwYMH5cEHH5SQkBD54YcfbFh59yUnJ8uQIUOkoKBAjh07Jps2bRJ/f395+umnlTn2lrGlpUWqqqqkqqpKAMhrr70mVVVVylWw3cmTkJAgERERUlZWJnv37pXQ0FCZOXOmrSKpXC9fR0eHJCYmytChQ6W6ulq177l48aKyjf6cT+TGv8Of+ulVwCL2n3HTpk3i5uYmubm5UldXJ+vWrRNXV1f5/PPPlW3Y+z7WVtgA9kPr1q2T4OBgcXd3l7Fjx0ppaamtS7ppALpc1q9fr8z54Ycf5PHHHxc/Pz/x9PSUKVOmyKlTp2xXdA/9tAF0hHwff/yxjBo1SnQ6nYSFhUlubq5q3Gq1SkZGhgQGBopOp5OJEydKbW2tjar9+ZqbmyUtLU2Cg4PFw8ND7rjjDnn++edVzYK9ZdyzZ0+X//eSk5NFpHt5/vOf/8jMmTNlwIAB4u3tLbNnz5aWlhYbpOnsevmOHTt2zX3Pnj17lG3053wiN/4d/lRXDaAjZHznnXfkrrvuEg8PDwkPD5ctW7aotuEI+1hb0Ihcdat7IiIiInJ4PAeQiIiIyMmwASQiIiJyMmwAiYiIiJwMG0AiIiIiJ8MGkIiIiMjJsAEkIiIicjJsAImIiIicDBtAIqIe0mg02LJli63LICLqNjaARGTXfv/730Oj0XRaEhISbF0aEVG/pbV1AUREPZWQkID169er1ul0OhtVQ0TU//EIIBHZPZ1OB4PBoFr8/PwA/Pj2bHZ2NiZNmgS9Xo877rgDf//731XPP3ToEH77299Cr9dj8ODBSElJQWtrq2rOu+++i5EjR0Kn0yEoKAjz589XjZ89exZTpkyBp6cnQkNDsXXrVmXs+++/h9lsxm233Qa9Xo/Q0NBODSsR0a3EBpCIHF5GRgamTZuGAwcOwGw2Y8aMGaipqQEAtLW1IT4+Hn5+fti3bx/y8/Oxa9cuVYOXnZ2N1NRUpKSk4NChQ9i6dSvuuusu1ff485//jEceeQQHDx7E7373O5jNZpw7d075/keOHMH27dtRU1OD7Oxs+Pv737ofABHRTwkRkR1LTk4WV1dX8fLyUi0vv/yyiIgAkLlz56qeYzKZZN68eSIikpubK35+ftLa2qqMb9u2TVxcXMRisYiIiNFolOeff/6aNQCQF154QXnc2toqAGT79u0iIvLAAw/I7NmzeycwEVEv4DmARGT37rvvPmRnZ6vWDRo0SPk6JiZGNRYTE4Pq6moAQE1NDcLDw+Hl5aWMjx8/HlarFbW1tdBoNGhoaMDEiROvW8O9996rfO3l5QVvb280NjYCAObNm4dp06ahsrIS999/P5KSkjBu3LibykpE1BvYABKR3fPy8ur0lmxv0ev13Zrn5uameqzRaGC1WgEAkyZNQn19PT755BMUFhZi4sSJSE1Nxauvvtrr9RIRdQfPASQih1daWtrp8YgRIwAAI0aMwIEDB9DW1qaMf/HFF3BxccHdd9+NgQMHYvjw4SgqKupRDbfddhuSk5PxwQcfYM2aNcjNze3R9oiIeoJHAInI7l28eBEWi0W1TqvVKhda5OfnIyoqCrGxsdiwYQPKy8vxzjvvAADMZjMyMzORnJyMF198EWfOnMGCBQswa9YsBAYGAgBefPFFzJ07FwEBAZg0aRJaWlrwxRdfYMGCBd2qb+nSpYiMjMTIkSNx8eJFFBQUKA0oEZEtsAEkIru3Y8cOBAUFqdbdfffd+PrrrwH8eIVuXl4eHn/8cQQFBeGjjz7CPffcAwDw9PTEzp07kZaWhujoaHh6emLatGl47bXXlG0lJyejvb0dq1evxlNPPQV/f3889NBD3a7P3d0dzz77LI4fPw69Xo9f//rXyMvL64XkREQ3RyMiYusiiIj6ikajwebNm5GUlGTrUoiI+g2eA0hERETkZNgAEhERETkZngNIRA6NZ7kQEXXGI4BEREREToYNIBEREZGTYQNIRERE5GTYABIRERE5GTaARERERE6GDSARERGRk2EDSERERORk2AASERERORk2gERERERO5n8acCczSAHCfwAAAABJRU5ErkJggg==;" vertex="1" parent="1">
          <mxGeometry x="1280" y="699.63" width="670" height="480" as="geometry" />
        </mxCell>
        <mxCell id="zEoZg1Jp4J7SSyQUYtt9-5" value="" style="shape=image;verticalLabelPosition=bottom;labelBackgroundColor=default;verticalAlign=top;imageAspect=0;image=data:image/png,iVBORw0KGgoAAAANSUhEUgAAAssAAAHgCAYAAABTiyCzAAAAOnRFWHRTb2Z0d2FyZQBNYXRwbG90bGliIHZlcnNpb24zLjEwLjAsIGh0dHBzOi8vbWF0cGxvdGxpYi5vcmcvlHJYcgAAAAlwSFlzAAAPYQAAD2EBqD+naQAAprBJREFUeJzs3Xl4VOXZx/HvmckeyEaAEIhssu+yRMC1oqAWxaWiUnFBqRZcSq27uLa4tkqxUrWKbVFRq5QXEUUEUaBh33cIJEBWsq+TmTnvH2cyyUACAbLA+PtcV64k5zwz50lIyD33uZ/7MUzTNBERERERkWPYmnoCIiIiIiJnKgXLIiIiIiK1ULAsIiIiIlILBcsiIiIiIrVQsCwiIiIiUgsFyyIiIiIitVCwLCIiIiJSCwXLIiIiIiK1ULAsIiIiIlILBcsiIiIiIrVQsCwiIiIiUgsFyyIiIiIitVCwLCIiIiJSCwXLIiIiIiK1ULAsIiIiIlILBcsiIiIiIrVQsCwiIiIiUgsFyyIiIiIitVCwLCIiIiJSCwXLIiIiIiK1ULAsIiIiIlILBcsiIiIiIrVQsCwiIiIiUgsFyyIiIiIitVCwLCIiIiJSCwXLIiIiIiK1ULAsIiIiIlILBcsiIiIiIrVQsCwiIiIiUgsFyyIiIiIitVCwLCIiIiJSCwXLIiIiIiK1ULAsIiIiIlILBcsiIiIiIrVQsCwiIiIiUgsFyyIiIiIitVCwLCIiIiJSCwXLIiIiIiK1ULAsIiIiIlILBcsiIiIiIrVQsCwiIiIiUgsFyyIiIiIitVCwLCIiIiJSCwXLIiIiIiK1ULAsIiIiIlILBcsiIiIiIrVQsCwiIiIiUgsFyyIiIiIitVCwLCIiIiJSCwXLIiIiIiK1ULAsIiIiIlILBcsiIiIiIrVQsCwiIiIiUgsFyyIiIiIitVCwLCIiIiJSCwXLIiIiIiK1CGjqCfg7t9vN4cOHad68OYZhNPV0RERERHyYpklhYSHx8fHYbMqjHk3BcgM7fPgwCQkJTT0NERERkeNKTU2lXbt2TT2NM46C5QbWvHlzwPoBjIiIaOLZiIiIiPgqKCggISHBG7OILwXLDayy9CIiIkLBsoiIiJyxVC5aMxWmiIiIiIjUQsGyiIiIiEgtFCyLiIiIiNRCNcsiIiJnANM0cTqduFyupp6K+Bm73U5AQIBqkk+RgmUREZEm5nA4SEtLo6SkpKmnIn4qLCyMNm3aEBQU1NRTOesoWBYREWlCbreb5ORk7HY78fHxBAUFKQMo9cY0TRwOB1lZWSQnJ9OlSxdtPHKSFCyLiIg0IYfDgdvtJiEhgbCwsKaejvih0NBQAgMDOXDgAA6Hg5CQkKae0llFLy1ERETOAMr2SUPSz9ep03dORERERKQWCpZFRETkjNGhQwfeeOONOo9funQphmGQl5fXYHOSnzcFyyIiInLSDMM47tuzzz57Ss+7evVqJk6cWOfxw4YNIy0tjcjIyFO6Xl0pKP/50gI/EREROWlpaWnej+fMmcPUqVPZuXOn91izZs28H5umicvlIiDgxGFHy5YtT2oeQUFBxMXFndRjRE6GMst+4Nut6Tz0yXo+WZXS1FMREZGfibi4OO9bZGQkhmF4P9+xYwfNmzfn66+/ZuDAgQQHB/PTTz+xd+9err32Wlq3bk2zZs0YPHgw3333nc/zHl2GYRgG7733Htdddx1hYWF06dKFefPmec8fnfGdNWsWUVFRfPPNN/To0YNmzZoxatQon+De6XTywAMPEBUVRYsWLXj00Ue5/fbbGTNmzCl/P3Jzcxk/fjzR0dGEhYVx5ZVXsnv3bu/5AwcOMHr0aKKjowkPD6dXr14sWLDA+9hx48bRsmVLQkND6dKlCx988MEpz0Xql4JlP7Aro5C5Gw6zITWvqaciIiL1wDRNShzORn8zTbNev47HHnuMl156ie3bt9O3b1+Kioq46qqrWLx4MevXr2fUqFGMHj2alJTjJ3uee+45brrpJjZt2sRVV13FuHHjyMnJqXV8SUkJr732Gv/6179YtmwZKSkpPPzww97zL7/8MrNnz+aDDz5g+fLlFBQUMHfu3NP6Wu+44w7WrFnDvHnzWLlyJaZpctVVV1FRUQHApEmTKC8vZ9myZWzevJmXX37Zm31/+umn2bZtG19//TXbt2/n7bffJjY29rTmI/VHZRh+INBuveZxuNxNPBMREakPpRUuek79ptGvu+35kYQF1V9o8Pzzz3P55Zd7P4+JiaFfv37ez1944QW+/PJL5s2bx+TJk2t9njvuuINbbrkFgD/96U9Mnz6dVatWMWrUqBrHV1RUMHPmTDp37gzA5MmTef75573n//rXv/L4449z3XXXATBjxgxvlvdU7N69m3nz5rF8+XKGDRsGwOzZs0lISGDu3Ln86le/IiUlhRtuuIE+ffoA0KlTJ+/jU1JSGDBgAIMGDQKs7LqcOZRZ9gMBnmDZ6arfjICIiMjpqAz+KhUVFfHwww/To0cPoqKiaNasGdu3bz9hZrlv377ej8PDw4mIiCAzM7PW8WFhYd5AGaBNmzbe8fn5+WRkZDBkyBDvebvdzsCBA0/qa6tu+/btBAQEkJiY6D3WokULunXrxvbt2wF44IEHePHFFxk+fDjPPPMMmzZt8o697777+OSTT+jfvz+PPPIIK1asOOW5SP1TZtkPBNmtbVErlFkWEfELoYF2tj0/skmuW5/Cw8N9Pn/44YdZtGgRr732Gueeey6hoaHceOONOByO4z5PYGCgz+eGYeB21/43r6bx9V1icrLuvvtuRo4cyVdffcW3337LtGnTeP3117n//vu58sorOXDgAAsWLGDRokVcdtllTJo0iddee61J5ywWZZb9QGVmuUKZZRERv2AYBmFBAY3+ZhhGg35dy5cv54477uC6666jT58+xMXFsX///ga95tEiIyNp3bo1q1ev9h5zuVysW7fulJ+zR48eOJ1OkpKSvMeOHDnCzp076dmzp/dYQkIC9957L1988QW///3veffdd73nWrZsye23386///1v3njjDd55551Tno/UL2WW/UCgN1hWZllERM5cXbp04YsvvmD06NEYhsHTTz993AxxQ7n//vuZNm0a5557Lt27d+evf/0rubm5dXqxsHnzZpo3b+793DAM+vXrx7XXXss999zD3//+d5o3b85jjz1G27ZtufbaawF46KGHuPLKK+natSu5ubksWbKEHj16ADB16lQGDhxIr169KC8vZ/78+d5z0vQULPuBQE8ZhrMJ/sMRERGpqz//+c/cddddDBs2jNjYWB599FEKCgoafR6PPvoo6enpjB8/HrvdzsSJExk5ciR2+4nLUC666CKfz+12O06nkw8++IAHH3yQX/7ylzgcDi666CIWLFjgLQlxuVxMmjSJgwcPEhERwahRo/jLX/4CWL2iH3/8cfbv309oaCgXXnghn3zySf1/4XJKDLOpi3j8XEFBAZGRkeTn5xMREdEg11iwOY3fzl7HkA4xfHrv0Aa5hoiINIyysjKSk5Pp2LEjISEhTT2dnyW3202PHj246aabeOGFF5p6Og3ieD9njRGrnM2UWfYDATbPAj9llkVERE7owIEDfPvtt1x88cWUl5czY8YMkpOTufXWW5t6anIG0gI/PxAYoJplERGRurLZbMyaNYvBgwczfPhwNm/ezHfffac6YamRMst+INCmPssiIiJ1lZCQwPLly5t6GnKWUGbZD1Qu8NMOfiIiIiL1S8GyH9AOfiIiIiINQ8GyHwhSn2URERGRBqFg2Q8EeLe7VmZZREREpD4pWPYD2sFPREREpGEoWPYD3h38FCyLiIiI1CsFy36gKrOsMgwRETm7XHLJJTz00EPezzt06MAbb7xx3McYhsHcuXNP+9r19Tzi3xQs+wFvzbLbjXYvFxGRxjB69GhGjRpV47kff/wRwzDYtGnTST/v6tWrmThx4ulOz8ezzz5L//79jzmelpbGlVdeWa/XOtqsWbOIiopq0GtIw1Kw7Acqu2GYJrjcCpZFRKThTZgwgUWLFnHw4MFjzn3wwQcMGjSIvn37nvTztmzZkrCwsPqY4gnFxcURHBzcKNeSs5eCZT9Q2WcZwKlgWUREGsEvf/lLWrZsyaxZs3yOFxUV8dlnnzFhwgSOHDnCLbfcQtu2bQkLC6NPnz58/PHHx33eo8swdu/ezUUXXURISAg9e/Zk0aJFxzzm0UcfpWvXroSFhdGpUyeefvppKioqACuz+9xzz7Fx40YMw8AwDO+cjy7D2Lx5M7/4xS8IDQ2lRYsWTJw4kaKiIu/5O+64gzFjxvDaa6/Rpk0bWrRowaRJk7zXOhUpKSlce+21NGvWjIiICG666SYyMjK85zdu3Mill15K8+bNiYiIYODAgaxZswaAAwcOMHr0aKKjowkPD6dXr14sWLDglOciNdN2136gcoEfWLv4hQTam3A2IiJy2kwTKkoa/7qBYWAYJx4HBAQEMH78eGbNmsWTTz6J4XncZ599hsvl4pZbbqGoqIiBAwfy6KOPEhERwVdffcVtt91G586dGTJkyAmv4Xa7uf7662ndujVJSUnk5+f71DdXat68ObNmzSI+Pp7Nmzdzzz330Lx5cx555BHGjh3Lli1bWLhwId999x0AkZGRxzxHcXExI0eOZOjQoaxevZrMzEzuvvtuJk+e7POCYMmSJbRp04YlS5awZ88exo4dS//+/bnnnnvq9H07+uurDJR/+OEHnE4nkyZNYuzYsSxduhSAcePGMWDAAN5++23sdjsbNmwgMDAQgEmTJuFwOFi2bBnh4eFs27aNZs2anfQ85PgULPuBQFu1zLIW+YmInP0qSuBP8Y1/3ScOQ1B4nYffddddvPrqq/zwww9ccsklgFWCccMNNxAZGUlkZCQPP/ywd/z999/PN998w6efflqnYPm7775jx44dfPPNN8THW9+PP/3pT8fUGT/11FPejzt06MDDDz/MJ598wiOPPEJoaCjNmjUjICCAuLi4Wq/10UcfUVZWxj//+U/Cw63vwYwZMxg9ejQvv/wyrVu3BiA6OpoZM2Zgt9vp3r07V199NYsXLz6lYHnx4sVs3ryZ5ORkEhISAPjnP/9Jr169WL16NYMHDyYlJYU//OEPdO/eHYAuXbp4H5+SksINN9xAnz59AOjUqdNJz0FOTGUYfsBmM7DbKjcmUfs4ERFpHN27d2fYsGG8//77AOzZs4cff/yRCRMmAOByuXjhhRfo06cPMTExNGvWjG+++YaUlJQ6Pf/27dtJSEjwBsoAQ4cOPWbcnDlzGD58OHFxcTRr1oynnnqqzteofq1+/fp5A2WA4cOH43a72blzp/dYr169sNur7uC2adOGzMzMk7pW9WsmJCR4A2WAnj17EhUVxfbt2wGYMmUKd999NyNGjOCll15i79693rEPPPAAL774IsOHD+eZZ545pQWVcmLKLPuJAJuBy20qWBYR8QeBYVaWtymue5ImTJjA/fffz1tvvcUHH3xA586dufjiiwF49dVXefPNN3njjTfo06cP4eHhPPTQQzgcjnqb8sqVKxk3bhzPPfccI0eOJDIykk8++YTXX3+93q5RXWUJRCXDMHC7G+5v77PPPsutt97KV199xddff80zzzzDJ598wnXXXcfdd9/NyJEj+eqrr/j222+ZNm0ar7/+Ovfff3+DzefnSJllPxGkXssiIv7DMKxyiMZ+q2O9cnU33XQTNpuNjz76iH/+85/cdddd3vrl5cuXc+211/LrX/+afv360alTJ3bt2lXn5+7RowepqamkpaV5j/3vf//zGbNixQrat2/Pk08+yaBBg+jSpQsHDhzwGRMUFITL5TrhtTZu3EhxcbH32PLly7HZbHTr1q3Ocz4ZlV9famqq99i2bdvIy8ujZ8+e3mNdu3bld7/7Hd9++y3XX389H3zwgfdcQkIC9957L1988QW///3veffddxtkrj9nCpb9RIB28RMRkSbQrFkzxo4dy+OPP05aWhp33HGH91yXLl1YtGgRK1asYPv27fzmN7/x6fRwIiNGjKBr167cfvvtbNy4kR9//JEnn3zSZ0yXLl1ISUnhk08+Ye/evUyfPp0vv/zSZ0yHDh1ITk5mw4YNZGdnU15efsy1xo0bR0hICLfffjtbtmxhyZIl3H///dx2223eeuVT5XK52LBhg8/b9u3bGTFiBH369GHcuHGsW7eOVatWMX78eC6++GIGDRpEaWkpkydPZunSpRw4cIDly5ezevVqevToAcBDDz3EN998Q3JyMuvWrWPJkiXec1J/FCz7icpd/BwKlkVEpJFNmDCB3NxcRo4c6VNf/NRTT3HeeecxcuRILrnkEuLi4hgzZkydn9dms/Hll19SWlrKkCFDuPvuu/njH//oM+aaa67hd7/7HZMnT6Z///6sWLGCp59+2mfMDTfcwKhRo7j00ktp2bJlje3rwsLC+Oabb8jJyWHw4MHceOONXHbZZcyYMePkvhk1KCoqYsCAAT5vo0ePxjAM/vvf/xIdHc1FF13EiBEj6NSpE3PmzAHAbrdz5MgRxo8fT9euXbnpppu48soree655wArCJ80aRI9evRg1KhRdO3alb/97W+nPV85itlIZsyYYbZv394MDg42hwwZYiYlJR13/Keffmp269bNDA4ONnv37m1+9dVXPufdbrf59NNPm3FxcWZISIh52WWXmbt27fIZc+TIEfPWW281mzdvbkZGRpp33XWXWVhY6D1fWlpq3n777Wbv3r1Nu91uXnvttcfM4z//+Y85YsQIMzY21mzevLl5/vnnmwsXLqzz152fn28CZn5+fp0fc9K2/Z/5zXO/NP/wxO/NDSm5DXcdERGpd6Wlpea2bdvM0tLSpp6K+LHj/Zw1SqxyFmuUzPKcOXOYMmUKzzzzDOvWraNfv36MHDmy1tWjK1as4JZbbmHChAmsX7+eMWPGMGbMGLZs2eId88orrzB9+nRmzpxJUlIS4eHhjBw5krKyMu+YcePGsXXrVhYtWsT8+fNZtmyZzxaaLpeL0NBQHnjgAUaMGFHjXJYtW8bll1/OggULWLt2LZdeeimjR49m/fr19fTdqQdZ27nCvYz+xh4t8BMRERGpR4Zpmg2+IiwxMZHBgwd7b2W43W4SEhK4//77eeyxx44ZP3bsWIqLi5k/f7732Pnnn0///v2ZOXMmpmkSHx/P73//e2//xvz8fFq3bs2sWbO4+eab2b59Oz179mT16tUMGjQIgIULF3LVVVdx8OBBn9tEYO3Kk5eX57OTT2169erF2LFjmTp16gnHFhQUEBkZSX5+PhERESccf0qWvwmLpvK56yLa3jGLoZ1bNMx1RESk3pWVlZGcnEzHjh0JCQlp6umInzrez1mjxCpnsQbPLDscDtauXeuTubXZbIwYMYKVK1fW+JiVK1cek+kdOXKkd3xycjLp6ek+YyIjI0lMTPSOWblyJVFRUd5AGayFAjabjaSkpFP+etxuN4WFhcTExNR4vry8nIKCAp+3BmcPAiAQpzLLIiIiIvWowYPl7OxsXC7XMStJW7duTXp6eo2PSU9PP+74yvcnGtOqVSuf8wEBAcTExNR63bp47bXXKCoq4qabbqrx/LRp07y7FkVGRvo0Gm8wdqvnYyBOnA3Y61FERETk50bdME7CRx99xHPPPcenn356TCBe6fHHHyc/P9/7Vr13YoOplll2ONVnWURERKS+NHiwHBsbi91uP6avYkZGRq17tMfFxR13fOX7E405egGh0+kkJyfnuHvD1+aTTz7h7rvv5tNPP611MSBAcHAwERERPm8NzhMsBymzLCJy1mqEJUTyM6afr1PX4MFyUFAQAwcOZPHixd5jbrebxYsX17i/O1j7vlcfD7Bo0SLv+I4dOxIXF+czpqCggKSkJO+YoUOHkpeXx9q1a71jvv/+e9xuN4mJiSf1NXz88cfceeedfPzxx1x99dUn9dhGUa0MQzXLIiJnl8rtk0tKSpp4JuLPKn++jt6uW04soDEuMmXKFG6//XYGDRrEkCFDeOONNyguLubOO+8EYPz48bRt25Zp06YB8OCDD3LxxRfz+uuvc/XVV/PJJ5+wZs0a3nnnHcDah/2hhx7ixRdfpEuXLnTs2JGnn36a+Ph4b7Pzygbd99xzDzNnzqSiooLJkydz8803+3TC2LZtGw6Hg5ycHAoLC9mwYQMA/fv3B6zSi9tvv50333yTxMREb71zaGgokZGRjfDdq4PKMgzDqe2uRUTOMna7naioKO/d0LCwMO920SKnyzRNSkpKyMzMJCoqCrvd3tRTOus0SrA8duxYsrKymDp1Kunp6fTv35+FCxd6F+ilpKRgs1UluYcNG8ZHH33EU089xRNPPEGXLl2YO3cuvXv39o555JFHKC4uZuLEieTl5XHBBRewcOFCn3Yos2fPZvLkyVx22WXYbDZuuOEGpk+f7jO3q666ymcP+QEDBgBVtyveeecdnE4nkyZNYtKkSd5xt99+O7Nmzaq/b9LpUDcMEZGzWmV5YG37D4icrqioqFMqQ5VG6rP8c9YovQv3fg//uo5t7vasHjWP24d1aJjriIhIg3K5XFRUVDT1NMTPBAYGHjejrD7Lx9comWVpYMosi4j4BbvdrtvkImcYtY7zBz7Bsm4UiIiIiNQXBcv+oLIbhqHMsoiIiEh9UrDsD6r3WVawLCIiIlJvFCz7g+o7+KkMQ0RERKTeKFj2B9U2JVFmWURERKT+KFj2B+qGISIiItIgFCz7g8qaZcOlYFlERESkHilY9ge2qnbZ7gpHE05ERERExL8oWPYHnswygOlWsCwiIiJSXxQs+4NqwbLbqWBZREREpL4oWPYHNjsmhvWxgmURERGReqNg2R8YBm6b1T7OdClYFhEREakvCpb9hDdYVmZZREREpN4oWPYTpjezXNHEMxERERHxHwqW/URlZtlQsCwiIiJSbxQs+wnT5umIoZplERERkXqjYNlPmHZPZtmtzLKIiIhIfVGw7C88ZRjKLIuIiIjUHwXLfsL0bExiU2ZZREREpN4oWPYXlbv4aYGfiIiISL1RsOwvPDXLNlNlGCIiIiL1RcGyv/Bklg2Xs4knIiIiIuI/FCz7CaOyZlmZZREREZF6o2DZXwR4yjC0wE9ERESk3ihY9hOGPRgAu1tlGCIiIiL1RcGyn7B5Mst2swLTNJt4NiIiIiL+QcGynzACrMxyIE4qXAqWRUREROqDgmU/YQuwFvhZwbK7iWcjIiIi4h8ULPsJozJYNpw4lVkWERERqRcKlv1EZWY5CBcOZZZFRERE6oWCZT9R2Wc5ECdOt4JlERERkfqgYNlfVAuWK5wqwxARERGpDwqW/YXdah0XiJMKZZZFRERE6oWCZX/hCZaDDHXDEBEREakvCpb9RfWaZXXDEBEREakXCpb9RbUyDHXDEBEREakfCpb9hSezHIBLmWURERGReqJg2V/YK/ssq2ZZREREpL4oWPYX1bthKFgWERERqRcKlv2FvWq76wqVYYiIiIjUCwXL/sKnG4YyyyIiIiL1QcGyv6jss4xL3TBERERE6omCZX+hPssiIiIi9U7Bsr+oFixrgZ+IiIhI/VCw7C8qu2EYTircyiyLiIiI1IdGC5bfeustOnToQEhICImJiaxateq44z/77DO6d+9OSEgIffr0YcGCBT7nTdNk6tSptGnThtDQUEaMGMHu3bt9xuTk5DBu3DgiIiKIiopiwoQJFBUVec+XlZVxxx130KdPHwICAhgzZkyNc1m6dCnnnXcewcHBnHvuucyaNeuUvgcNqnqfZacyyyIiIiL1oVGC5Tlz5jBlyhSeeeYZ1q1bR79+/Rg5ciSZmZk1jl+xYgW33HILEyZMYP369YwZM4YxY8awZcsW75hXXnmF6dOnM3PmTJKSkggPD2fkyJGUlZV5x4wbN46tW7eyaNEi5s+fz7Jly5g4caL3vMvlIjQ0lAceeIARI0bUOJfk5GSuvvpqLr30UjZs2MBDDz3E3XffzTfffFNP3516Ur1m2a1gWURERKQ+GKZpNvg9+8TERAYPHsyMGTMAcLvdJCQkcP/99/PYY48dM37s2LEUFxczf/5877Hzzz+f/v37M3PmTEzTJD4+nt///vc8/PDDAOTn59O6dWtmzZrFzTffzPbt2+nZsyerV69m0KBBACxcuJCrrrqKgwcPEh8f73PNO+64g7y8PObOnetz/NFHH+Wrr77yCdRvvvlm8vLyWLhw4Qm/9oKCAiIjI8nPzyciIqJu37BTkbsf3uxHsRnMrEtWMOnScxvuWiIiIuI3Gi1WOUs1eGbZ4XCwdu1an8ytzWZjxIgRrFy5ssbHrFy58phM78iRI73jk5OTSU9P9xkTGRlJYmKid8zKlSuJioryBsoAI0aMwGazkZSUVOf5n2guZwwt8BMRERGpdwENfYHs7GxcLhetW7f2Od66dWt27NhR42PS09NrHJ+enu49X3nseGNatWrlcz4gIICYmBjvmLqobS4FBQWUlpYSGhrqc668vJzy8nLv5wUFBXW+1mmprFk2XFQ4XY1zTRERERE/p24Y9WzatGlERkZ63xISEhrnwp5uGABuZ0XjXFNERETEzzV4sBwbG4vdbicjI8PneEZGBnFxcTU+Ji4u7rjjK9+faMzRCwidTic5OTm1Xvdk5hIREXFMVhng8ccfJz8/3/uWmppa52udFk9mGcDlLD/OQBERERGpqwYPloOCghg4cCCLFy/2HnO73SxevJihQ4fW+JihQ4f6jAdYtGiRd3zHjh2Ji4vzGVNQUEBSUpJ3zNChQ8nLy2Pt2rXeMd9//z1ut5vExMQ6z/9EczlacHAwERERPm+NolqwjDLLIiIiIvWiwWuWAaZMmcLtt9/OoEGDGDJkCG+88QbFxcXceeedAIwfP562bdsybdo0AB588EEuvvhiXn/9da6++mo++eQT1qxZwzvvvAOAYRg89NBDvPjii3Tp0oWOHTvy9NNPEx8f7+2V3KNHD0aNGsU999zDzJkzqaioYPLkydx8880+nTC2bduGw+EgJyeHwsJCNmzYAED//v0BuPfee5kxYwaPPPIId911F99//z2ffvopX331VWN86+rOZseNDRtu3Mosi4iIiNSLRgmWx44dS1ZWFlOnTiU9PZ3+/fuzcOFC78K5lJQUbLaqJPewYcP46KOPeOqpp3jiiSfo0qULc+fOpXfv3t4xjzzyCMXFxUycOJG8vDwuuOACFi5cSEhIiHfM7NmzmTx5Mpdddhk2m40bbriB6dOn+8ztqquu4sCBA97PBwwYAFibnoCVxf7qq6/43e9+x5tvvkm7du147733GDlyZP1/o06T2xaIzV2O6VJmWURERKQ+NEqf5Z+zxuxd6HihLUGuIp7v+G+m3j66Qa8lIiIi/kF9lo9P3TD8iNvm6YjhcjTtRERERET8hIJlP1IZLJta4CciIiJSLxQs+xGzMrPsVmZZREREpD4oWPYjpl1lGCIiIiL1ScGyH/Fmll3Opp2IiIiIiJ9QsOxHTC3wExEREalXCpb9SGUZhuHWAj8RERGR+qBg2Z/YrC2vDWWWRUREROqFgmV/osyyiIiISL1SsOxP7FZm2aZgWURERKReKFj2JwEKlkVERETqk4JlP2J4MssqwxARERGpHwqW/YjhqVm2mwqWRUREROqDgmU/YlSWYbgULIuIiIjUBwXLfsQICAbApsyyiIiISL1QsOxHjACVYYiIiIjUJwXLfsRmtzLLgbhwuc0mno2IiIjI2U/Bsh+xBVo1y4E4qXC5m3g2IiIiImc/Bct+xBagYFlERESkPilY9iO2gMoyDCcVLpVhiIiIiJwuBct+pDKzHGQ4cSqzLCIiInLaFCz7E3tVGYZDwbKIiIjIaVOw7E88O/gF4sSpMgwRERGR06Zg2Z/YtcBPREREpD4pWPYnnmA5SAv8REREROqFgmV/4i3DcCmzLCIiIlIPFCz7k8oyDMOJ061gWUREROR0KVj2J55gOQAnDqfKMEREREROl4Jlf+IpwwjCpcyyiIiISD1QsOxP1A1DREREpF4pWPYnPsGyyjBERERETpeCZX9iDwCsBX7KLIuIiIicPgXL/qRan2Xt4CciIiJy+hQs+5NqZRgOZZZFRERETpuCZX/i3ZREmWURERGR+qBg2Z+oG4aIiIhIvVKw7E8qa5YNFxVOVxNPRkREROTsp2DZn3jKMABczoomnIiIiIiIf1Cw7E88mWUA01nehBMRERER8Q8Klv1JtWDZXaFgWUREROR0KVj2JzY7bs8/qdulMgwRERGR06Vg2c+4DKtuWZllERERkdOnYNnPuG3WltcosywiIiJy2hQs+xlvZtmlzLKIiIjI6VKw7GfcNitYNp2OJp6JiIiIyNlPwbKfMT3BssowRERERE6fgmU/480su5RZFhERETldjRYsv/XWW3To0IGQkBASExNZtWrVccd/9tlndO/enZCQEPr06cOCBQt8zpumydSpU2nTpg2hoaGMGDGC3bt3+4zJyclh3LhxREREEBUVxYQJEygqKvIZs2nTJi688EJCQkJISEjglVdeOWYub7zxBt26dSM0NJSEhAR+97vfUVZWdorfiYZVGSyjMgwRERGR09YowfKcOXOYMmUKzzzzDOvWraNfv36MHDmSzMzMGsevWLGCW265hQkTJrB+/XrGjBnDmDFj2LJli3fMK6+8wvTp05k5cyZJSUmEh4czcuRInyB23LhxbN26lUWLFjF//nyWLVvGxIkTvecLCgq44ooraN++PWvXruXVV1/l2Wef5Z133vGO+eijj3jsscd45pln2L59O//4xz+YM2cOTzzxRAN8p05fVRmGgmURERGR02Y2giFDhpiTJk3yfu5yucz4+Hhz2rRpNY6/6aabzKuvvtrnWGJiovmb3/zGNE3TdLvdZlxcnPnqq696z+fl5ZnBwcHmxx9/bJqmaW7bts0EzNWrV3vHfP3116ZhGOahQ4dM0zTNv/3tb2Z0dLRZXl7uHfPoo4+a3bp1834+adIk8xe/+IXPXKZMmWIOHz68Tl97fn6+CZj5+fl1Gn+6st+40DSfiTBf/+tfGuV6IiIicnZr7FjlbNPgmWWHw8HatWsZMWKE95jNZmPEiBGsXLmyxsesXLnSZzzAyJEjveOTk5NJT0/3GRMZGUliYqJ3zMqVK4mKimLQoEHeMSNGjMBms5GUlOQdc9FFFxEUFORznZ07d5KbmwvAsGHDWLt2rbdsZN++fSxYsICrrrqqxrmXl5dTUFDg89aYKjPLhjLLIiIiIqctoKEvkJ2djcvlonXr1j7HW7duzY4dO2p8THp6eo3j09PTvecrjx1vTKtWrXzOBwQEEBMT4zOmY8eOxzxH5bno6GhuvfVWsrOzueCCCzBNE6fTyb333ltrGca0adN47rnnav5mNAa7J/B3OZtuDiIiIiJ+Qt0wTmDp0qX86U9/4m9/+xvr1q3jiy++4KuvvuKFF16ocfzjjz9Ofn6+9y01NbVR52sLsIJlp7a7FhERETltDZ5Zjo2NxW63k5GR4XM8IyODuLi4Gh8TFxd33PGV7zMyMmjTpo3PmP79+3vHHL2A0Ol0kpOT4/M8NV2n+jWefvppbrvtNu6++24A+vTpQ3FxMRMnTuTJJ5/EZvN9vREcHExwcPBxviMNKyDQurbDcWZ26xARERE5mzR4ZjkoKIiBAweyePFi7zG3283ixYsZOnRojY8ZOnSoz3iARYsWecd37NiRuLg4nzEFBQUkJSV5xwwdOpS8vDzWrl3rHfP999/jdrtJTEz0jlm2bBkVFRU+1+nWrRvR0dEAlJSUHBMQ2+12wGpfd6YJCLKCZaej/Iycn4iIiMjZpFHKMKZMmcK7777Lhx9+yPbt27nvvvsoLi7mzjvvBGD8+PE8/vjj3vEPPvggCxcu5PXXX2fHjh08++yzrFmzhsmTJwNgGAYPPfQQL774IvPmzWPz5s2MHz+e+Ph4xowZA0CPHj0YNWoU99xzD6tWrWL58uVMnjyZm2++mfj4eABuvfVWgoKCmDBhAlu3bmXOnDm8+eabTJkyxTuX0aNH8/bbb/PJJ5+QnJzMokWLePrppxk9erQ3aD6TBHmCZZu7ghKHq4lnIyIiInJ2a/AyDICxY8eSlZXF1KlTSU9Pp3///ixcuNC7mC4lJcUnezts2DA++ugjnnrqKZ544gm6dOnC3Llz6d27t3fMI4884i2HyMvL44ILLmDhwoWEhIR4x8yePZvJkydz2WWXYbPZuOGGG5g+fbr3fGRkJN9++y2TJk1i4MCBxMbGMnXqVJ9ezE899RSGYfDUU09x6NAhWrZsyejRo/njH//YkN+yU2b3lGEE4iS3xEF4cKP8E4uIiIj4JcPUvfoGVVBQQGRkJPn5+URERDT8Bf/vIVj7Aa9X3MjI3/6Z3m0jG/6aIiIictZq9FjlLKNuGP7G0zou0LAyyyIiIiJy6hQs+xu7tSlJEC7ySipOMFhEREREjkfBsr+pzCzjJE+ZZREREZHTUmuwnJqaysGDB72fr1q1ioceeoh33nmnUSYmp6hasJyrzLKIiIjIaak1WL711ltZsmQJYG39fPnll7Nq1SqefPJJnn/++UaboJwkTxlGZTcMERERETl1tQbLW7ZsYciQIQB8+umn9O7dmxUrVjB79mxmzZrVWPOTk+XJLAcZTtUsi4iIiJymWoPliooK77bN3333Hddccw0A3bt3Jy0trXFmJyfPpwxDmWURERGR01FrsNyrVy9mzpzJjz/+yKJFixg1ahQAhw8fpkWLFo02QTlJPmUYyiyLiIiInI5ag+WXX36Zv//971xyySXccsst9OvXD4B58+Z5yzPkDKRuGCIiIiL1pta9kC+55BKys7MpKCggOjrae3zixImEhYU1yuTkFFTWLOMkt1jBsoiIiMjpqDWzXFpaSnl5uTdQPnDgAG+88QY7d+6kVatWjTZBOUneMgwXBWVOnC53E09IRERE5OxVa7B87bXX8s9//hOAvLw8EhMTef311xkzZgxvv/12o01QTlKAtSgz2LCyyvmlqlsWEREROVW1Bsvr1q3jwgsvBODzzz+ndevWHDhwgH/+859Mnz690SYoJynUuhMQYysG0CI/ERERkdNQa7BcUlJC8+bNAfj222+5/vrrsdlsnH/++Rw4cKDRJignKSwWgBgKAbTIT0REROQ01Bosn3vuucydO5fU1FS++eYbrrjiCgAyMzOJiIhotAnKSQqz2vpFUESA2seJiIiInJZag+WpU6fy8MMP06FDB4YMGcLQoUMBK8s8YMCARpugnKTQKDCsf9ZoipRZFhERETkNtbaOu/HGG7ngggtIS0vz9lgGuOyyy7juuusaZXJyCmx2q2655AjRRqG2vBYRERE5DbUGywBxcXHExcVx8OBBANq1a6cNSc4GYbFQcoQWRoG2vBYRERE5DbWWYbjdbp5//nkiIyNp37497du3JyoqihdeeAG3W717z2ieuuVoClWzLCIiInIaas0sP/nkk/zjH//gpZdeYvjw4QD89NNPPPvss5SVlfHHP/6x0SYpJyncCpZjjEKOKLMsIiIicspqDZY//PBD3nvvPa655hrvsb59+9K2bVt++9vfKlg+k3kyyzEUskfBsoiIiMgpq7UMIycnh+7dux9zvHv37uTk5DTopOQ0VfZaNgq0wE9ERETkNNQaLPfr148ZM2Ycc3zGjBn07du3QSclpymsqgxDC/xERERETl2tZRivvPIKV199Nd999523x/LKlStJTU1lwYIFjTZBOQXhlbv4FZBbUoFpmhiG0cSTEhERETn71JpZvvjii9m1axfXXXcdeXl55OXlcf3117N161b+9a9/NeYc5WSFxQAQYxThcLoprXA18YREREREzk7H7bMcHx9/zEK+jRs38o9//IN33nmnQScmp6FazTJAbkkFYUHH/acWERERkRrUmlmWs5inZrmFUQiY5BarbllERETkVChY9keeYDkQJ80oVUcMERERkVOkYNkfBYVBYBigjhgiIiIip+OYQtbrr7/+uA/Iy8trqLlIfQqLhfwUYigkT8GyiIiIyCk5JliOjIw87gMiIyMZP358g01I6klYjBUsa2MSERERkVN2TLD8wQcfNMU8pL5V9lo2CslVsCwiIiJySlSz7K8qd/GjQGUYIiIiIqdIwbK/8vZaLtICPxEREZFTpGDZX1Xu4ufZ8lpERERETp6CZX/lqVmONtQNQ0RERORUKVj2V54yjBZGAUeKHJim2cQTEhERETn7KFj2V54FftEUUljuJEdbXouIiIicNAXL/spThhFrKwRgT2aRz+kDR4pZuCVNGWcRERGR41Cw7K88meXmlBCIk71ZxT6nfzdnA/f+ex3rUnKbYnYiIiIiZwUFy/4qJAoM6583ikKfzLLD6WbLoQIAdmcU1fRoEREREUHBsv+y2SDUah/Xwihkb1ZVULw3qwiHyw3A4bzSJpmeiIiIyNlAwbI/q9Y+rnpmeXtagffjQ3lljT4tERERkbOFgmV/5qlbbkEBh/JKKXE4Adh2uHqwXNIkUxMRERE5GyhY9meeYLldsBUQ7/Ms8tueXhUsH1ZmWURERKRWCpb9mSdY7hRmBcR7s4owTdMns5yWX4rbrfZxIiIiIjVptGD5rbfeokOHDoSEhJCYmMiqVauOO/6zzz6je/fuhISE0KdPHxYsWOBz3jRNpk6dSps2bQgNDWXEiBHs3r3bZ0xOTg7jxo0jIiKCqKgoJkyYQFGRb/eHTZs2ceGFFxISEkJCQgKvvPLKMXPJy8tj0qRJtGnThuDgYLp27XrMfM5InprlhBBrEd/ezCIyCsrJLanAbjOwGVDhMskqKm/KWYqIiIicsRolWJ4zZw5TpkzhmWeeYd26dfTr14+RI0eSmZlZ4/gVK1Zwyy23MGHCBNavX8+YMWMYM2YMW7Zs8Y555ZVXmD59OjNnziQpKYnw8HBGjhxJWVlVWcG4cePYunUrixYtYv78+SxbtoyJEyd6zxcUFHDFFVfQvn171q5dy6uvvsqzzz7LO++84x3jcDi4/PLL2b9/P59//jk7d+7k3XffpW3btg3wnapnnsxya7v1AmFPVhHb0vIB6NwynLiIEAAOqSOGiIiISI0MsxG2cEtMTGTw4MHMmDEDALfbTUJCAvfffz+PPfbYMePHjh1LcXEx8+fP9x47//zz6d+/PzNnzsQ0TeLj4/n973/Pww8/DEB+fj6tW7dm1qxZ3HzzzWzfvp2ePXuyevVqBg0aBMDChQu56qqrOHjwIPHx8bz99ts8+eSTpKenExQUBMBjjz3G3Llz2bFjBwAzZ87k1VdfZceOHQQGBp70115QUEBkZCT5+flERESc9ONPy6bP4Iu7yW09lAEH7qdb6+Zc0z+eV7/ZybX94zmcV8rq/bnMuHUAv+wb37hzExERkTNCk8YqZ4EGzyw7HA7Wrl3LiBEjqi5qszFixAhWrlxZ42NWrlzpMx5g5MiR3vHJycmkp6f7jImMjCQxMdE7ZuXKlURFRXkDZYARI0Zgs9lISkryjrnooou8gXLldXbu3ElurrWz3bx58xg6dCiTJk2idevW9O7dmz/96U+4XK7T+bY0jjCrz3K4Mw+A5OxiNh+0Mss920QQHxUKwKFcZZZFREREahLQ0BfIzs7G5XLRunVrn+OtW7f2Zm+Plp6eXuP49PR07/nKY8cb06pVK5/zAQEBxMTE+Izp2LHjMc9ReS46Opp9+/bx/fffM27cOBYsWMCePXv47W9/S0VFBc8888wxcy8vL6e8vKoGuKCg4JgxjcZTsxxYnkNwgI1yp5tlu7MA6NEmgrzSCkAbk4iIiIjURt0wTsDtdtOqVSveeecdBg4cyNixY3nyySeZOXNmjeOnTZtGZGSk9y0hIaGRZ1xNhFVXbRRl0CPWel1U4rAy4j3aRNC2MrOs9nEiIiIiNWrwYDk2Nha73U5GRobP8YyMDOLi4mp8TFxc3HHHV74/0ZijFxA6nU5ycnJ8xtT0HNWv0aZNG7p27YrdbveO6dGjB+np6TgcjmPm/vjjj5Ofn+99S01NrfFrbBThsRDeEoDhEdnewy2bB9MyoISu5n5AC/xEREREatPgwXJQUBADBw5k8eLF3mNut5vFixczdOjQGh8zdOhQn/EAixYt8o7v2LEjcXFxPmMKCgpISkryjhk6dCh5eXmsXbvWO+b777/H7XaTmJjoHbNs2TIqKip8rtOtWzeio6MBGD58OHv27MHtdnvH7Nq1izZt2vjUOlcKDg4mIiLC561JteoBQL/gQ95DPdtEwOd3MeSba+hp7FcZhoiIiEgtGqUMY8qUKbz77rt8+OGHbN++nfvuu4/i4mLuvPNOAMaPH8/jjz/uHf/ggw+ycOFCXn/9dXbs2MGzzz7LmjVrmDx5MgCGYfDQQw/x4osvMm/ePDZv3sz48eOJj49nzJgxgJX9HTVqFPfccw+rVq1i+fLlTJ48mZtvvpn4eKvzw6233kpQUBATJkxg69atzJkzhzfffJMpU6Z453LfffeRk5PDgw8+yK5du/jqq6/405/+xKRJkxrjW3f6WvUEoDMHvYd6tQ6D/cutj237yS+toKjc2STTExERETmTNfgCP7BawWVlZTF16lTS09Pp378/Cxcu9C6mS0lJwWarituHDRvGRx99xFNPPcUTTzxBly5dmDt3Lr179/aOeeSRRyguLmbixInk5eVxwQUXsHDhQkJCQrxjZs+ezeTJk7nsssuw2WzccMMNTJ8+3Xs+MjKSb7/9lkmTJjFw4EBiY2OZOnWqTy/mhIQEvvnmG373u9/Rt29f2rZty4MPPsijjz7akN+y+uPJLLcu3ec9NKR5JrisRYjnBmaDy1rk17V18yaZooiIiMiZqlH6LP+cNXnvwtRV8I/LMZu34dwjf8blNkm6Mo3WS34PwPeBl3BX4UQ+uHMwl3ZrdYInExEREX/T5LHKGa5RMsvShFp2B8AoTOOVqxNId4TSurCq1vscm9VKTnXLIiIiIsdSsOzvQiIgoh0UHOSGdkXQvg+8u8F7upXL6jmtjUlEREREjqU+yz8HnrplMreBqwLSt3hPRTiPEIxDmWURERGRGihY/jnwBsvbrTdXOQRHQlAzANoa2RzWxiQiIiIix1Cw/HPgaR9H5nZI22B9HN8Pos4BIMHI0sYkIiIiIjVQsPxzUL0M4/B66+P4ARDVHoAEI5P0gjKcLnctTyAiIiLy86Rg+eegZTfAgNIc2P2ddaxNf4i2guX2tixcbpPMwvImm6KIiIjImUjB8s9BYCjEdLI+zk+x3sf392aWzw06AqBSDBEREZGjKFj+uagsxQAIiYTojt7M8jm2bEC9lkVERESOpmD556J6sNymPxiGd4FfnDsTgJQjJU0wMREREZEzl4Lln4vqwXJ8f+u9pwwj3JVPOKUkZxc3/rxEREREzmAKln8uKtvHgdUJA6zd/UKjAat93F4FyyIiIiI+FCz/XLQ417MJiQFtB1Ydr9Y+bl9mEaZpNs38RERERM5AAU09AWkk9kC45WMoK/DWKgPWIr+0DbSzZVFY7iSrqJxWzUOabp4iIiIiZxAFyz8nHS869pgns9wjJBeKYF9WsYJlEREREQ+VYfzcebLM5wZavZb3ZaluWURERKSSguWfu+gOALTFah+3L6uoCScjIiIicmZRsPxz5ynDiHGkASb71BFDRERExEs1yz93njKMQFcJ0RSyLyu8iSckIiIicuZQZvnnLjAEmsUB0M7IJjW3lHKnq4knJSIiInJmULAsVvs44NzAbFxuU9tei4iIiHgoWBZv3XL/ZrkA7FVHDBERERFAwbIAtOwKQI+ANAD2ZasjhoiIiAgoWBaAlj0A6OBOAdRrWURERKSSgmWBlt0BaFG6HwO3ei2LiIiIeKh1nFgbk9iDsLvKaGdksS87uKlnJCIiInJGUGZZwB4AsVbdchfjEHklFeQUO5p4UiIiIiJNT8GyWFp2A2BgmLa9FhEREamkYFksnkV+fYMOA7BXwbKIiIiIgmXx8GSWO3EQUK9lEREREVCwLJVaWZnl1uUHMHCTtO9IE09IREREpOkpWBZLdEewBRLgKqWtcYSNB/PJLChr6lmJiIiINCkFy2KxB0BsFwCuaGlte714R2ZTzkhERESkySlYliqezUl+0SIHgMXbM5pyNiIiIiJNTsGyVPEEy70D0wD4aU82pQ5XU85IREREpEkpWJYqraxgObJoL22jQimrcLN8T3YTT0pERESk6ShYliqezLKRtZPLurcEYPEOlWKIiIjIz5eCZakS0wlsgVBRzFXtrfKLxdszcbvNJp6YiIiISNNQsCxV7IHQ4lwABoamEx5kJ7OwnM2H8pt4YiIiIiJNQ8Gy+PLs5BeYs5uLunpKMdQVQ0RERH6mFCyLr1Y9rfeH1nFZj9YALNutRX4iIiLy86RgWXx1/oX1fvciBrQJBmBXRqHqlkVERORnScGy+Go7ECLagqOQDvmrCLLbKHG4OJRX2tQzExEREWl0CpbFl80GPa4BwL7j/+jcqhkAO9ILm3JWIiIiIk1CwbIcq+e11vsdC+jZqqoUQ0REROTnRsGyHCshEZrFQXk+vwjaAcBOZZZFRETkZ0jBshzLZoMevwRgQPEPgDLLIiIi8vPUaMHyW2+9RYcOHQgJCSExMZFVq1Ydd/xnn31G9+7dCQkJoU+fPixYsMDnvGmaTJ06lTZt2hAaGsqIESPYvXu3z5icnBzGjRtHREQEUVFRTJgwgaKiIp8xmzZt4sILLyQkJISEhAReeeWVWuf0ySefYBgGY8aMObkv/mzkKcVofXgxATjZm1VEhcvdxJMSERERaVyNEizPmTOHKVOm8Mwzz7Bu3Tr69evHyJEjyczMrHH8ihUruOWWW5gwYQLr169nzJgxjBkzhi1btnjHvPLKK0yfPp2ZM2eSlJREeHg4I0eOpKyszDtm3LhxbN26lUWLFjF//nyWLVvGxIkTvecLCgq44ooraN++PWvXruXVV1/l2Wef5Z133jlmTvv37+fhhx/mwgsvrMfvzBnsnGEQFou9LJdLgndR4TJJzi5u6lmdtbYezmfZrqymnoaIiIicLLMRDBkyxJw0aZL3c5fLZcbHx5vTpk2rcfxNN91kXn311T7HEhMTzd/85jemaZqm2+024+LizFdffdV7Pi8vzwwODjY//vhj0zRNc9u2bSZgrl692jvm66+/Ng3DMA8dOmSapmn+7W9/M6Ojo83y8nLvmEcffdTs1q2bz7WdTqc5bNgw87333jNvv/1289prr63z156fn28CZn5+fp0fc8aY94BpPhNhfjNtrNn+0fnmvA2HmnpGZ60LXl5stn90vrkq+UhTT0VERMTHWR2rNIIGzyw7HA7Wrl3LiBEjvMdsNhsjRoxg5cqVNT5m5cqVPuMBRo4c6R2fnJxMenq6z5jIyEgSExO9Y1auXElUVBSDBg3yjhkxYgQ2m42kpCTvmIsuuoigoCCf6+zcuZPc3Fzvseeff55WrVoxYcKEE3695eXlFBQU+LydtbpdDcB57s2A6pZPlWmaHM6z7ni8tWRPE89GRERETkaDB8vZ2dm4XC5at27tc7x169akp6fX+Jj09PTjjq98f6IxrVq18jkfEBBATEyMz5ianqP6NX766Sf+8Y9/8O6779bp6502bRqRkZHet4SEhDo97owUPwCAFo5DhFGmXsunqMThwuXZAXHpziy2Hs5v4hmJiIhIXakbxnEUFhZy22238e677xIbG1unxzz++OPk5+d731JTUxt4lg2oWUtoFoeBSXcjRZnlU1RU7vT5/G9L9zbRTEQa3hNfbmbSR+swTbOppyIiUi8CGvoCsbGx2O12MjIyfI5nZGQQFxdX42Pi4uKOO77yfUZGBm3atPEZ079/f++YoxcQOp1OcnJyfJ6nputUntu7dy/79+9n9OjR3vNut9URIiAggJ07d9K5c2efxwcHBxMcHFzLd+MsFNcH9qTT03aA2TldKXE4CQtq8B8bv1JYVgFAgM3A6Tb5enMaydnFdIwNb+KZidQvh9PNR0kpADx1dQ/aRIY28YxERE5fg2eWg4KCGDhwIIsXL/Yec7vdLF68mKFDh9b4mKFDh/qMB1i0aJF3fMeOHYmLi/MZU1BQQFJSknfM0KFDycvLY+3atd4x33//PW63m8TERO+YZcuWUVFR4XOdbt26ER0dTffu3dm8eTMbNmzwvl1zzTVceumlbNiw4ewusairuD4AnBd0ENOE3RlFJ3iAHK2gzMosx0WG8IvurXCb8PcflF0W/1Nc7S5KbnHFcUaKiJw9GqUMY8qUKbz77rt8+OGHbN++nfvuu4/i4mLuvPNOAMaPH8/jjz/uHf/ggw+ycOFCXn/9dXbs2MGzzz7LmjVrmDx5MgCGYfDQQw/x4osvMm/ePDZv3sz48eOJj4/39kDu0aMHo0aN4p577mHVqlUsX76cyZMnc/PNNxMfHw/ArbfeSlBQEBMmTGDr1q3MmTOHN998kylTpgAQEhJC7969fd6ioqJo3rw5vXv39lkY6Lc8wXLfACtbtFOlGCet0BMsNw8JZNKl1p2I/6w7SHp+2fEeJnLWKXZUC5ZLHE04ExGR+tMo99PHjh1LVlYWU6dOJT09nf79+7Nw4ULvYrqUlBRstqq4fdiwYXz00Uc89dRTPPHEE3Tp0oW5c+fSu3dv75hHHnmE4uJiJk6cSF5eHhdccAELFy4kJCTEO2b27NlMnjyZyy67DJvNxg033MD06dO95yMjI/n222+ZNGkSAwcOJDY2lqlTp/r0Yv7Zi+sLQHtnMnZc7NIiv5NWWYbRPCSAge1j6Nsukk0H81m5L5vrBrRr4tmJ1J/icpf3YwXLIuIvDFOrMBpUQUEBkZGR5OfnExER0dTTOXluF0xLgIpiLit/lfhz+/GvCYlNPauzyierUvjXl/O44hx48L7JTPl0A1+sO8QfRnZj0qXnNvX0ROrN2gO53PD2CgBeGNOb285v38QzEpG6OOtjlQamlVpyfDY7tO4FB1fRyzjA1/va8eAn67luQFviIkNYsiOLJTsyKXe6+ODOIcSE/wxKU05SYZmTvwf9hXYZ2bCvD/GR1gLTtPzSJp6ZSP2qXrOcV6zMsoj4BwXLcmJxfeDgKi6OTGdersl/NxzmvxsOHzPsm63p3DLknCaY4JmtsLScNhyxPlnyR+J7WT270/JUsyz+pcSnZlkL/ETEP6jPspxYnFUrfn18Ll/+dhi3D21PTHgQwQE2Lu3WkgvOtXpQr0/JPd6z/GyVlxRiNzzVTqlJ9CpdBcBhLfATP1NU7iKEcsIpVc2yiPgNZZblxDyL/Iz0zQw4J5oB50TzzOheuE2TALuNxdsz+GlPNutS8pp2nmcoZ0mez+fdtk0HHlUZhvid4rIK5gc9SYRRwhPFs5t6OiIi9UKZZTmxVj3BsEFxJhRam7bYbAYBduvHp39CFAB7MovIL9Wt16O5S6yMu8MeDkHNCMnaxBW2NeSVVPjcthY525WVFnGu7TCtjDzsRelNPR0RkXqhYFlOLCgMWni6NqRvPuZ0i2bBtG8RBsDG1LxGnNjZwSgvAMAR2hISfwPAw4GfY+DmsOqWxY+4Sgu8H9tKsptwJiIi9UfBstSNZ3MS0jfVePq8c6IBWK9SjGMY5fkAuIIiYOhkCI6gq5HKcNtWlWKIX6keLNvLjjThTERE6o+CZakbb7B8bGYZYMA5UQCs0yK/Y9g9mWVCIiEsBjpdDEBn47A6YohfcZVVBcuhFXk4Xe4mnI2ISP1QsCx1UxksJ/8Aq/8BRVngdMD+n+D7F7ny8N8IwMmG1Dzcbu1zU11ghRVAGKFR1oEoa6OGdkYWh5VZFj9illXt8BlDIXlawyAifkDdMKRu4s+DoGZQcgS+mgILHoaAEKgoAaAlcE1QMF+Unk/ykWI6t2zWtPM9gwQ5i8AO9jCrVIXIBMAKlpcqsyx+xHAUeT+OMQrIK3EQ2yy4CWckInL6lFmWugmLgUmr4PLnrcDZdFuBclgsxHQGYGT4PgDWHVApRqWyChfhphVABIRHWQejrI1b2hrZyiyLX7E5qjLLLYxCbUwiIn5BmWWpu8i2MPxB6y0vBRzFENsNdsyHT29jANsBWJ+ax68GJfg8NC2/lPv+vY620aHc/4tz6R5n7T3vcLpZsTeb8OAABneIOekpud0mz8/fRlxkCPde3Pn0v8Z6VlTuJAIr+x5YmVmOqsosH85TsCz+w15RLbNMATna8lpE/ICCZTk1UdW2tT5nKACtSvcSSVGNHTH+/O0uNqTmsSE1j682pXF1nzZEhgWyYHMaeSUVBNgMfnjkUtpGhZ7UNDYezGPWiv0YBtx2fnvCg+vvRzo1p4Sicic92kSc8nMUljmJNIoBsIVGWgc9ZRgxRhH5+XmYpolhGKc9X5GmFuD0LcPYqV38RMQPqAxDTl+zltCiCwCDbDvZmV5AUXnVZhvJ2cV8sf4QABd3bQnAV5vT+CgphTzPbVqn2yRp38m3mvrfvhwATBN2pBeeYPTJuf2DVVz71nJSc0pO+TkKyyq8mWVCPMFyaBSm5+PoigwKSrUxifiHQGex9+MYVIYhIv5BwbLUj/ZWdvkXoXtxm7Cp2uYkb363C5fb5BfdW/HhXUNY+NCF3Dw4gVuGnMPsuxO5c3gHANacQq3z/6oF2NvTCo4z8uSUVbjYl1WMw+lm6c7MU36ewjInEZ7MMiFR3uNGpJWZV0cM8SdBrmrBslFIrjLLIuIHFCxL/ThnGADDAncB8NR/t5CaU8KujEL+u/EwAFMu7wpA97gIXrqhL9Ou78Pwc2NJ7NgCgLX7Ty5YrnC5WbM/x/v5tnoMltPzq7pULNt96juR1ZhZBp9FftqYRPxBhctNqFl1F6aZUUZhYf3e7RERaQqqWZb64cksd3DsolOkjX1ZxVz3t+V0jA3HNGFUrzh6t42s8aED21sL33ZmFJJfUkFkWGCdLrn5UD7FDpf38/rMLKdVC5ZX7j1ChctNoP3kX1sW+GSWqwfL1Rf5qX2cnP1Kyl00x/eFn7NIW16LyNlPmWWpH1HtoXk8htvJ56MD6dkmguwiB6v352IY8DtPVrkmLZsH06FFGHByOwBWlmB0aWX1dN6RVoirnjZESS+o+qNfVG5ttnIqikodVQFEDZnldsosi58ocjhpdlSwTLGCZRE5+ylYlvphGN7sckz2Wj69dygXdokF4Lr+benWKhzW/Qv2fm+txqvONBnY3mobt+ZADnVVubhvUrcCegSmUVrhYv+R4hM8qm7S88t9Pv9xV9YpPU95cQE2w/P11hgsK7Ms/qG43Em44fuzbCs9+UW7IiJnGgXLUn88LeRIWUGz4AA+uGMw/7lvKC/f2BdWvwvzJsO/roO/XwibP4dd38B/J8ErnXhm/22EUcaaOtYtV9Yrt+EI16y9i48CXsSGu95KMdI92d645tbuYz+cYt2ys9gK6J1GEASGVJ3wtI9ra2Sr17L4haLyqsyy22793gSU1f3Fr4jImUrBstSf9tYiP1JXg8tJgN3GwPYxBDoKYOlL1jlbAKRvhv9MgI9ugvX/htIcIkoOkGjbzobUPBxO9wkvtflQPiUOF6NCt2JzO4g2c+lkHGbb4XoKlgvKeDfwdb62PUhzSth0MI+8U1jZ7yrJB6A8oLnvCU9muaWRz5G8/NOer0hTKyl30dzwBMuebi/BjlzMo+8k1bOUIyXc//F6thzS75GINAwFy1J/Wvaw2qNVFEP6xqrjP74OpTnQsjtM2QGXPgXN4qB5Gxh8D3S+DIBLgnZQ7nSz9fCJ/+hV1itfHbbde6yvsa/eMsvZeYVcZltHdPlBbo3ejmnC8j0nf0vZLMsDoCLoqI1NQqNxB4YDEFBwEHc91VqLNJXqmWUjpiMA0RRQUNawfcT/s+4g/7fxMB8s39+g1xGRny8Fy1J/bLaqUowFj0BhOuQegKSZ1rHLX7A2MLn4D/DwTvj9Drj6Neh3MwAXBe0EYG0d+i2v3HsEG256OzZ4j/WxJddb+zhnfpq31nh06CYAftx9CnXL5Vbg7zo6WDYMDE92uZWZyRFtCyxnuZLSMsIMq9bf3qITYG15fSp3ZE7GkWLrmik59bNeQUTkaAqWpX5d/Acru3xoDbxziVWT7HJAx4uhy+U1P6b9cOudYw/NKamxbjlp3xEGvfgd1761nJcX7mDtgVx6G8mEVFRlofvYkskoKOdIkfXHs9zpOqXd9ypcbkJKDns/71aYhB0Xy3ZlnfQtZVu5FbybwcdumW1EtwfUEUP8Q3lptReqUdbPdguj4Xfxyy22nj81R79DItIwFCxL/Wo7EO75HmK7QWEa7P8RMOCKF62OGTWJbAsxnbDhZpBtJ2sO5PgEpW63yTPztpJdVM7G1DzeXrqXEoeLy0O2WQNiuwHQy3YAOy62pxVS4XIz7t0kLnp1yUnXMmYVltOGqpKLwIoCEgP2cDi/jC2HTi5zHeDwjA+poce0d5GfOmLI2c9ZYv2sVxhBENEGgBijoMF38cvx3JVJLyijrMJ1gtEiIidPwbLUvxad4e7voNtV1ucDb4c2fY//mA4XAHCBfRvZRQ72ZVfdUp2/OY0d6YU0Dw7g5Rv6cMN57ejSqhk3RO62Bgy+G4KaEUo5nY3DbE8r4K+Ld7PmQC6mCT+cZNu3tPwy4g3f7hfjW1i10Xd9uJrdGXXflSywwhprhEYde7Jar+X67ojhdptsTM1T8CCNxuXJLDvsYRBmtY2MoZDcBi4xqh6MH1JnGRFpAAqWpWGERMDY2fDbJLj6Lyce3+EiAC4NsbbLfvw/m3E43VS43Pz5W6uWeeJFnRg7+Bxev6kfiyYNJL7As4jw3MugTT8A+hjJ/GfdQWYs2eN96k0H805q6hkFZbQ1PJnlWGszlRH2DXSPa05WYTk3v/O/Oi8kDHZawXJAWNSxJ6Oq2sftzSo6qTmeyDdb07n2reX88avtJx4sfiu7qJy/Lt7ts317Q6kKlptBuCdYboQyjJxiBwZWB52UUyi7kjNPfkkFo//6E29V+39cpCkpWJaGY7NBq+7W+xPpYNUtd3TuJT64nFX7c3jyy818vvYg+4+U0CI8iDsv6Fg1/sAKcFdY2dmYTtCmPwB9bPvYkV6I24TucVa7tk0HT64MwyezfN54sAUQkLOLOTe2pnfbCI4UO7jl3f+xJ/P4AW6Fy02Y2xoTGB597IBqG5NsqaeWd5XWe3YcXL1ffW5/zv658gCvL9rF20sbPugwPfX5zsBwb2Y52igiv7jhAljTNOlZuobNwXdzvW3ZKa1RaEgHc0vU6eYULN+bzeZD+Xy8KqWppyICKFiWM0VEPMR0xjDd/P1iBzYDPlt7kGfnbQVg0qXn0iw4oGr83u+t951/YdVCxw8ArEV+AG2jQpl15xAMwwp+MwvrnlnLKCgjvjKz3LqXt8NH5MHvmX33+fRLiCKvpIK3l+497vMUlzuJNKxykuBmNQTLnl60cUYue9OO4HSduL90Xe3Lsq67J7OIcqdKMX6uDuZawePmxuhBXG69MHQFNoOwGEysNQrlBQ235XVRuZPz2Uwzo4zL7WvrPVg+UlSO6xSCXdM0eXbeVi54eYmyo6fgwBHr3zGzoLzB+3SL1IWCZTlzeOqW+1Rs5smrewJQ7nQTHxnCrefFQtLfYft8KD4C+5ZYj+l0qfU+vj9gLfILsrl54+b+xEWGcG7LZgBsSq17sJCWV0rbysxyZAJ0HWV9vGshkaGBTP1lDwAWbkmjxFF7D9nCMicRhvWfvr2mMozwWMyAUABauLJ86rRPV3K2Fbg43SZ7M9VS6+cqs8DqDLMjvbDBM5yGwyo5cgc2A5ud8kBrUaursOGC5dziClpgZbQ7GOn1WoaxM72QwX/8jj98vvHEg6sxTZM/frWdWSv2A7C6Dq0wxVdlG0CHy+1dwCnSlBQsy5mjw4XW+/0/ctfwDowfarWfevTK7oR8/wx8/QjMGQevdoKsHWDYoKNV60xMZwhqTggOvrutNYM7xMC6f/EX98veHfjqqiAvm2aGJxMd0bYqWN6/HMoKOO+caNq3CKPY4eLbrRm1P09ZBRF4/njX1A2jWq/ldkZWnTZjqQuny+0TNOxIr98SDzl7ZBRYP8clDleD1/PaHZ6ypGCr/KkiOAYAs6QBg+USBy2MymA5g9Qj9fc1bkzNw23C8j11n79pmrzyzU7e+ynZeyzliF6snqwD1f4d0xqh3l7kRBQsy5nDU7dM2iaMsnyev7Y3G6ZezrVt8mHtB9a5FudWjW8/HMKsP8jYbN5FfueU7YK9S2De/fQuWs7V9v+x6SRuQxsFBwHPH/ugMIg91wrG3RUw9z4MZznXDWgLWLuH1cbKLHv+UIZE1Tyo2iK/k21LV5uDuaVUuKqyiPW1q6GcfTILy70fN/TPgd1ZGSxbPcXdodbvpq204ermc0ocxHiC5VDDQXnuoXq7bV/5QiOjoJz80rotUpyzOtVbnvXbSzoD1u9jfZZY/RxUD5Yr/x1EmpKCZTlzRMR7gmETlk4D0yQqNBC+fRJMN3T/Jdy/Fv6wD26bC7/60PfxnlIMdn4N/7nbeh7gPGM3mw7m1+mPqGmaBBVZG5KYEfFVJ0b+CexBsGM+/Os6buhhlXcs35Nd63/mhWXO42eWAaI7ANDJSKu3zHJydjFdjVT+FzyJsfYl7Eive6u7nzt/qo8sq3BRUlrKUNtWgnE0eLAc5AmWbSFWZpmwFtbx8pPfJr6ucosdxBpVX1es4xB59dR9I6PaOocTLeat9PWWdMAKlB++ohtBATacbrPe+6hvO1xAQVnDdhlpKuVOF1n5hTwZ8G8usW1QZlnOCAqW5cxy6RPW+6SZsPxN2L3IWsxnC4QrXrDOhbeAzpda76vzLPJjx3woyYZgK0A9z76bnGIHB3NP3IM1p9hBK9O67RoQfU7ViW6j4NdfWFmzlBUkzL2ey9qB24T/bjhU43MVlpbTDM81awuW46z+032NfWw7XHDSwVp2UTkrjrpNvC+7mKvt/yPOyOUW+/dsT1OwfCI70wvp8fRC/naCRZtnk8yCcm6zL+LjoD9yX8A8tjXwz0Ggy1OfH2oFy/bmLQEIcTRczW5OsYMYqr6u9rZ0UnPrpxQjPb8qK78ns27fu/2ekouLurbEZjPoHB3oc7w+bD6Yz1XTf+ShTzbU23OeSQ7mljLM2MI9AQt4ImC2MstyRlCwLGeW3jdYu/0BfPcMzL3P+vj8e60WccdTGSyDFSjf9gUA5xqHiaSoTi3k0vLLvIv7bJ4SCa+OF8KdX0PzNpC1nUfD/gvAf9bWfOu3vDgPm+E5Xluw3PY8APrakiksqwroTdNkwea0E2a0Hv18E7e+l8SSnZneY/uyijjXsAL4HkYKeUXFZFW7HS/HWrozk9IKFx8l+U+rqozCMroaqQAkGjsaPLMc7LICwoBQ62c9KKIVABHufEodDdORpagwnzCj6me7Yz0u8sssLKMZJYDJ7owTZ5YdTre3G0fHFmHw4+v8X+FYbrN/y4F6rBevvAOVtO+IX7alSzlSQmfDurvXzsgmTRvNyBlAwbKceYbdD0MnWx+XZFs9Wy/6w4kfF90RmsVZH4/5G7QbZNUaAwNse+q0yC89v4w2lW3jItsdOyCut/XcQJeMr4mwV7Azo5BtNQQiFcXW9RxGMAQE13zBlj0gIJRmRqlPKcbXW9L57ex13P/x+lrn6nC6+cmTVf5hZ9UuhcnZxXTxBMvBRgWdjcNa5HcCldnIQ3mlZ1yv3lOVWVBOG8OqF+5lS+ZwXnGda29PltPlJsy0vm9B4VawHOjJLLcwChtsy+vyAt/dOdsbGaTm1E9wFZa/m3XBv2FawHvsrkMZRmpuCW4TwoJstEqaBoufJwAnv7Ct50A9dro57ClLKG6ERZtN4cCRYjoaaQCEGeUU553cDqwiDUHBspyZLn8B+t3q+fj52jOz1dlsMP6/cOdC6PFL61jCEADOs+1iY12C5eo9lmsKlgE6XgJR7THKC/h9u20AzF1/bClGRbF1+7k8oHntF7QHeBcm9jP2suWQVYrx92X7AGtRVm21iZsP5VHutBYOVd98JCUrnw5Guvfz3sZ+dtThFvyyXVn84bONFJXX3g7PX6VUC7D+t6/hamwbU0ZBGXGeYDnCKKW9kcGOBsouFztcNDOs72FQmPW7aoRbwXI0DRcsm4WZPp/XV2bZ5TbpULKVIMPFpfYNdapZTs4qxsDNqyEfYqx402dO9ZlZrp5p3VrPmxmdCQ7klNCx2v9fZn5qE85GxKJgWc5MNpuVwX14NwwYV/fHteoO7YdWfd5uMGAt8ttyqOCEty3T86sHywk1D7LZrJ39gGuc3wKweEfmMcPcpXkAOI4XLEO1Uox9bD2cz5oDuWz07MAHVo1iTZKSqwLkbZ6gusThJLjwAEFG1W3v3rbkOt2Cf/GrbXy29iCfrv75/XE6WC2Y+d8+/9j1MKOwzJtZBmsr+IYqxSgud3rr8wPDrG4YlWsKYoyChttu29OWriLAWnDb3sggtR7qg48UldMa63sXZ+RSkpdxwheR+48U8xv7fK52fA0YcIm1/iLByCQtu/42ham+4G1bWiNsNtPIUo6U0NGW5v28csG1SFNSsCxnLsOAZq1O7zkSEgEYYNtLSbmDfdnHzxBl5BUR5/kjWWtmGWDAr8GwE31kPd3tB9mXVXzs7ftS6w+ZM+hEwfJAAPrZ9rH1cAHveLLKlTZUC5yrW1UtWDZNWHsgl+TsYs41fP+49LLtZ/sJOmLkFDvY5anLXOknmdW6crtNDuaWMNDYSTNK/CaznJ+b690UBypfNDXMIj8rWPYEcZ7WcZXdMFoYhd6frfoWUGr9WxXH9sE0bNZt+5yaF9yejPSCauVYQHdbKntPkF3el13MRbZN1icjnoGLH8EdGI7dMHHnJtdbp5X0vCIm2BfQy0j2y8xyxpEc4qu9yItyZlLop50/5OyhYFn8W6seENSccKOMbkYqa/b7rsw/nFfKbf9I4vVvd+Jym5TnHibAcOM2AqBZ69qft3kcdLsSgPsjVwDwwy7f2jqj3AqW3UEnKCHxLEzsaewnt7CYRdusjU5uGWJ146gpWHa5Tdbuz2WobSszIv9NCOWsTs7xBMueYKFNfwB6GfvZm5lPxXF6va5KrgoM/rfvyClt8Xu2yiwsZ5i5jv8EP8cfAz/wm7plZ55vD/A+RjLbT7J2PbfYwaJtGScM9KqXYVRuSkJYLGCVYexsoAxosMPzc9u8La4I605QSMH+0/75zahW7w3QzUg9Yd3y/uxizrV5Xqh2uMh6sR/bBYC2rkM+Pa9PlWmadMhfzdOB/+blwHfZ5mfBstttYstN9jkWbxxRRwxpcgqWxb/Z7N4yh/Nsu3n1m53e/3gdTjeTPlrHj7uz+ev3e3jg4/W48qwSBEd4G6vc4ngG3gHAZY4lBOM4Jli2l1t/yMyQiOM/T0wnCIki2HDSzbC6MYzpGsxj2Y8xwb6ADal5xwQr29MKKCx38kLgh/yyfAE32pexen8OyVnFnGvzBMs9fokZEEq4UU6C+zB7s2r/Y1+99KCwzFlvPZ/PBqm5JQywWS3jrghYRwBOv8gu24qsW9luWxAAvW372ZlecFIbZEz7ejv3/HMNX6w7fra2uKyiqk1iZbAcbgXLgYaLg2nptTzy1LndJqEVedY1Ilpib2Et5m1HOmn5p7fIr3q9N0B3I4XdGcfPymdlZdLKsOZDrLV5ks2ziVInI4399bDIL6+kgrZuKyDvYRygoLDArzrdZBSW0c7t+7PW1sj2aeMn0hQULIv/8yzyuzR8P0eKHdz/8XqcLjevLNzB+pQ8mgUHEGg3+GpzGvYC6z9qM6LtiZ+38y8gMoEQZz4jbatZsScbh7MqEAmosP64GqFRx38ew/Bml/vZrBKMR5otJPLwT9wf8CXZhaXHNOZflZxDK3I517Cyh8NsW9mYms/29AJvJwxa9cSI6wNY2eXjLfJblZxDKGX0CrKCmhV7z5xgsajcWWvddn1IzSmhvWdBUahZygBjj1/ULQeVWF9TWZvBmPZgIowS4lxpJ9Xzd2Oq9X1fvvf4Wz6XlBYTWFknH2TVDxMQjDvQ+jj/SNpx72ycisIyJ9FY8wuKbI3Rwmot2cGzyK/E4eSpuZv518r9J/3cmceUYaQcN7Nc6nDRrND63XU3i6takOwJljsaafWyyO9wfintDOtFud0w6WXsr7ETz9nqwJFqi/s8ffLjjSOn/eJH5HQpWBb/56lbvig0mfAgO6uSc7hz1mre+8m63ffnm/rxwR1DCA+yE+/psRwYU8vivupsdqt2GRgbvJxih4u1B6rKPIKc1h8x24mCZfDWLfc19jG8DbTZPRuAKKOYzsbhY0oxViXnMMy21fv5MPs2KlxOvt+e7u1RSsvu3k4bvW37a70Fn19Swfb0AqYFvsdXtikMtW09o4LlRz7fyOgZP7Fgc9qJB5+C1JxSOhgZ3s8vsG8+6zPLJQ4nURVWUBXQogNG616AVYpR181JXG6TZE82dH1K3nHHVrZJBKqCZcBoZmWXI9153ueqL7klDlp4NiQJbN7S2yayg5HOzvRC7vhgNf/+XwrPz99GWcXJ9XnOy80hwqgK0Loah9ibkVfr+P1Hqu7o2Fp2qzrhKcPoaEvnQD0sPEzLq+oDD1WLgv1FypESOlUu7ut4IaAyDDkzKFgW/9duEABB+cn8+ZfWor0fd1t/cO65sCNX9Irjgi6xfDJxKF2C84Cjdu87nl7XAZDIVsIo8ynFCPFs/xsQFnXi5/GUilwWkcpbnVZiVFRloQbZdvl0xzBNk9X7cxhu2+I9FkURPY0UYl2ZhBoO69Z7VHvvFuC9jeRa6xtX788hwHQy0r4WgKtt/2N1co5PlrypZBeV881WK5D9+1ELH+tLam4J7asFyxfZtpz1dcvVeywHRrer+jmoY2cUgIO5JTg82eDk7GJyi2tv/+YosYLWUiPMp3zJiO4IQBfboXrfdj2nxEELwxMohrf0blrUwchg2oId3gWwFS7zpAPKinzrjk1FQDhmQAhhRjm2/AOUOGruiLE/u5jOnt7AxHatOuEpDelkHObAkdP/eUqrllkG6GOr/ff6bHQgp6rHMp0uAaA1uWTkNcwCUZG6UrAs/i802vsHbGRECr8+3wqEB7aP5pHL2sMPr8LuRfRpF8l1nT21wcfrhFFdbFeI6USAWcGFtk3eYNntNglzW//BBzWLPvHzxFvBcmxpMlGbZ1nHPFnhQbZdPpnlvVnFHCkuZ7h9a9XXBwy1ba1a3Bd7rk8P5962/azYm13jtr1JyUcYYOwmFKsu8NKAzZRWOOvUl7qhzd942LtYa2NqHutT6n/r5JzsDKKNqj/GfW17iaD4rM4uV6+5NSLaVv0cGMlsOVS3wHFvVhF2XLTE+p6vT639e+/0dH4pt4f7nmhjbefey7DqpetTbrGDGMPz8xwWWy1YTsfhctE8OIDucVb99Iky40cz8q3fI0d4PEbL7gB0JZV9WTVnh/dlF9O58nevembZk+1uaRSQnXVse8mTdTi/zCdY7mfs9a9guXoZRkIiLlsQNsOkvB46nIicDgXL8vPQfrj1/vsXeH5kez66J5HZE4YQOP8BWPIizL4Rlr6MzZNRqrXH8tEMA7pdBcDl9nVsTysgo6CMAzklRBjWH9bgugTLEW2sbbRNNzgKoXVvuPQpAAYaO9l8KN8bNK5KzqGDkW71g7YFwvmTABhu2+KtV/beCm7ZHexBRBglxJsZvDB/+zGXTkrO4QL7Zu/nbcmko5HOij1NHyzO3WCVlESGBgLw4Yr99X4NI9d6zorQlhDbFTtuhtq2ntV1y5mF1bo5RLT1dkbpbdvP2gN1u2uwN7OY3wV8zuqQSQy3bT5uwOkqtQI2R8BRwXKcFSz3tB1gZ3r9ZgdzisqJxRMohsdCdHtMw0a4UU6H4GL+dXcio/vFAycfLAd76r3NiLbW7yLQw5bC7hpebIKnE4b3hWq1zHJIBM4wq6uOkbv3pOZQk+ycI8RUe2HX2ZZG1pEsiv1kI6Hc7PSqF64tzqU8rI31cbWNSZ6au5lb3vnfSZfWiJyORguW33rrLTp06EBISAiJiYmsWrXquOM/++wzunfvTkhICH369GHBggU+503TZOrUqbRp04bQ0FBGjBjB7t27fcbk5OQwbtw4IiIiiIqKYsKECRQV+f6HvWnTJi688EJCQkJISEjglVde8Tn/7rvvcuGFFxIdHU10dDQjRow44dzlDHTxI1YruMxt2P57H8M6xhCS9CZs+RwMz6/B0j9BpidbW9fMMnhbyF0RsAEbbp74YjNXvfkjEVRu/1uHYBm8dcsAXPQwJFgbqnS0ZRDmyPH+oV6VfIRhNmvnQBKGQLdRACTadtDDZnXTwJMNwx4InnrV/vYD/LAriyU7qzJchWUVbDmUzwWVJR22AOvytk2sOMGiroaWnF3MhtQ8wmwV/P0qq6PIV5vTyKzH+sUKl5vw4gMAmDGdoNOlAFxo28zyPdkn3MTmTGVllj0vdiLioVVPTHsQUUYxLSrS6pSh35ddxCW2jQBcbUs6bsBpllk/m86jM8ueYLm7kcru9Pq9K1BUmEuw4em/Gx5rbSnv+b2dfX1L+rcJ5ZqcD7jGtoJ1J3FHotzpornDU+8d3Q5a96z6GmrpF52alcs5huf3qnqwDBiezhitHQfJO82dDF1HrN9vR2AERFp3yHobyae8nX2pw8UrC3ewcEvDrAc4WbYc6wVFRbN4CArD7VloHVRsvWhOyy/l3/9LYeW+Iz7rQ46nuNzJhFmr+WB58okHi9SiUYLlOXPmMGXKFJ555hnWrVtHv379GDlyJJmZNd+WWrFiBbfccgsTJkxg/fr1jBkzhjFjxrBlS1WN5iuvvML06dOZOXMmSUlJhIeHM3LkSMrKqv6Qjhs3jq1bt7Jo0SLmz5/PsmXLmDhxovd8QUEBV1xxBe3bt2ft2rW8+uqrPPvss7zzzjveMUuXLuWWW25hyZIlrFy5koSEBK644goOHdJtobNKRDyMnQ32INgxH+aMg8UvWOeufh1GT/cGitb4OnTDqJRwPoREEWEWcJ6xi8U7MimtcBEb4PlZDImq2/NUBsux3aDHtVZ5RcsegLVd94aUPFYl57B4eybDKoPbjhdDq14QGkOYUc4VtjWe56j2B9tzC/6WBCvT+OL8bd7OBGsO5BJulni7cDDoLgAutm1kfUoepY6my95UbiH+j6hZnP/VSO5rvZ0Kl8nspJR6u8bhvFLOwapXDmzZGTpbwfJF9i2kF5Qdt/TgTJaTn1+VgYyIh4AgjFZW0NfHSOanPSd+IbQvo8CbLR1s28mG1Lza+xd72iQ6A48Kllt0xgwMI8woJyAvuV63Ui/PtwJahy0EgqzrGp5SjLalu2D2jSRsnsErgX/nSH5hnTsqZBWWezthBMckeF9sdjNq74hhHtmL3TBxBTa3erBXY/cEyx1taew/zbple6GVYXU2bwdtrQ46fYx9p1yKMf373fxt6V7u/fc6/vztznrbOOVU5JdU0NJh3dmzeb5ngdHWHb6I8gzKnS4Wb6+KGepaJrZ4RyaLd2Qy7esd5Byn7l7keBolWP7zn//MPffcw5133knPnj2ZOXMmYWFhvP/++zWOf/PNNxk1ahR/+MMf6NGjBy+88ALnnXceM2bMAKys8htvvMFTTz3FtddeS9++ffnnP//J4cOHmTt3LgDbt29n4cKFvPfeeyQmJnLBBRfw17/+lU8++YTDh61XqbNnz8bhcPD+++/Tq1cvbr75Zh544AH+/Oc/e+cye/Zsfvvb39K/f3+6d+/Oe++9h9vtZvHixQ37TZP6lzAYfvmG9fHOBYAJg++2AsSBt8Ntc62FQm0HwYl6I1dnD4CuIwEYGbCe6LBAXr2xL7GBnmC5Lt0wwJrHkN/Ajf+oWiR1jtXJY6BtFx8s38+49/5HUbmDiwI85RSdLrbGelaONzM816zMLIM3WB4StJ8W4UHszSrm7aV7OVJUTtK+HM63bcOO22pzdd7tAAy1b8dwldU5e3O0tQdyeXbe1lPuAGCaJnM3HKIVuSSWLgPgXj4HrGC5vhYfpuaU0sFmBctGdCfocAHYAjjHyCDByOD/NtYt41ZQVsH7PyWzen9OvWSjs4tOr69seY5ngZo9tKqNmWeRXx9b3YLl8qx9hHgyt11shwgsz2FPbe3THNZx99G7Vdrs3k4cvYwD7DpBr+KT4Sq0AqfSwJiqg54aYb59EpKtn5sQo4I+xj421LEUo/qGJEZEW+vFKNDeyORg+rEJnvzSCmJKrbsTtOxqlWZV5+mI0clIO62OGG63SVip9bfLiDrH226yr2fnz5OVnF3MP36syrZO/34PUz7dSLmzaV4gH8gppqPNKn+xe75nQS2s7Hm8kU1mQTmLt1ctxK1rO8nKGn2H081na1JPMFqkZg0eLDscDtauXcuIESOqLmqzMWLECFauXFnjY1auXOkzHmDkyJHe8cnJyaSnp/uMiYyMJDEx0Ttm5cqVREVFMWjQIO+YESNGYLPZSEpK8o656KKLCAoK8rnOzp07yc2tOUgoKSmhoqKCmJiYGs/LGW7AOG+NLx0vglEvVZ3reCH8bhtM+Pbkn9dTinFH7HZ+evQX/Oq8eAxPts0brJxIaBRc9Qp4eiMDVtYaa5HfzoxCKlwmd3cpIcIsgMBw78JAOl5c9RjD5l2FD8A5wwAIOLCMl4ZY2bU/L9rFwBe/Y+YPe6u6anS6xMqiNYsjlHIG2XbywfJjt+lNzSk5bsbZ4XQzafY6Zq3Yz6g3fuRfK/efdAC5PjWPA0dKuCXoR2ymda3I/O2MbraT7KJyvtp8+ATPUDepuSWcU9kJI6ajtaFGO6sv94W2LSzYnFan3eBe/noHz8/fxq9mrmT4y9/zwvxtpxzwzlmdwqAXv+P9n079trHpWaBWFhpXFbx56pYH2PawMTWP/NLatxDOLXbQqsy3+8hg285ayzdsDisINmva2t1bt7yfnfXYEcMstgL+ipDqwbKVWcbttLbbrnyhaNtZ51IMnw1JIuKhWUvcYS2xGSbBubuP2Vyker2yvfrivkrVNiY5nY4Y2UXltDGtbHpwbAfv735fY98p9Vp+cf42HC43F3dtyUvX98FuM/hy/SEmzV5/ynM8HdbiPs+LU8/3zPCsHYk3jpCcXczyvUcIooIQytlUx2C5elD976QDZ21plTStBg+Ws7OzcblctG7tu3Vw69atSU+veVen9PT0446vfH+iMa1atfI5HxAQQExMjM+Ymp6j+jWO9uijjxIfH39MMF+pvLycgoICnzc5w4z8I/zmR/j1l1ZNb3UBQVb/5JPV+TKwBRKYu4fwwmTY8p+qc8EnkaU+miez3NtIJhgHv72kM4939wR37YdZ8wXfYDmmk1W/WalVd+hv9YMesXcad5zfltYRVecvtFcLlg3D2mwFuNS+mcU7MvnX/w54x36UlMKFryxh5BvLyCysuXb4y/UHSS8owzCgtMLF0//dyvj3V9U5eEzPL/MEiia/Dv7ROhjdAbA2awH4+w/76uWWcWpOSVWP5cpAy1OKcUngFjILy1m9//gL/UodLuZ5FiKGBNpIyy/jHz8lc/eHa05pjh+usL7fby3Zc8qLmAKKrf+/XM3aVB3seBEAA227CTNLjtvtY192UdXmNh5DbDtqDTgDKqwA0ghuduxJT0eMnsaBeg2W7SVWsOwObVF10NOCkYh2cOdC6HszAENs2+u8yC+joMxaPAveGmhbnLXIr5stlXkbfV+oWT2WK3ub+9YrA9DC02vZSOfAafSaPpRXSjtPj2VbdHvvC4FzbFmkHT7I4by6b9yxxFOaEGAzmDq6JzcPOYf37xiM3Wbw3fYMUuqhzd3J2pleSKfKThieYLny+x9vHOHztQdxOF18GjqNn4IfpDgvkyMn+D/FNE22HM4nhHKCbS5Sc0r5YXfWcR8jUhN1wzgJL730Ep988glffvklISEhNY6ZNm0akZGR3reEhDp2VZDGYxjWH3B7wInH1lVIhLcUgg+uhC/usT5u078qoD0V0R0hvBXBhpNPfhnMIyO7Ydu3xDrXqVqA3KIzNLdW/hNbQ3br8uchNAYjcxvPxi4l6YkR7HhhFEt/08XaxMSwWSUIAOdeBsD1ETsAePGr7exML+STVSk88aXVNSMlp4Q7P1h9TA2qy20y8wcrI/n4ld15ZnRPQgJt/LQnm0c/31Rr8GiaJm8t2cMlry7h/GmLmb8pjURjBy0rDlmbXNwyBww7CXmrGBx0gB3phSzdefp/9DKOHKnaojjG6glc+WLhItsmQihn/qbjZ7EXbk2jsNxJQkwoG6Zewd9vG0hIoI0NqXks3XVyc9yTWeTNEh4pdvDl+lNbGxFaar0AsEdVq71v0RliOhOIk+G2Lfy0u/ZSjL1ZxXS1eTrDeMoQrMxyHgB5JQ7+tnSPN/gN8PQUN0Jqyix7dpG07WdHWv1toBFQ7nkR49lWG4BzhsKERXDfT1bg2n4oYJUxbT2UW6fyndzcHCIMT7AY4fmd8pSSdDdSmLvhkM/P8b6s4qqNgGr63Ytuj9uwE2aUs3nHdtYeOLUuK2nV28ZFJVh3ojxBZQ/28d6PdbsT4XC6eX6+tUD494PsdP70MvjPPVzcPoRB7a3FyN/vyDjeUzSINcnZdPAGy547Y9Uyy19vSaOncYD+5g5ijQISbdvZdII2iAeOlBBZfph1wffyZct3AZhd7cW/SF01eLAcGxuL3W4nI8P3ly8jI4O4uLgaHxMXF3fc8ZXvTzTm6AWETqeTnJwcnzE1PUf1a1R67bXXeOmll/j222/p27dvrV/v448/Tn5+vvctNVU1Uj8bnhZyFGdBYBhc8gTc+fXpPadheLPLA5ybYN5k2Pu9dc4T1HnHeTKieLJgPsJbWBl1gKUvQe4BQgLtdMj3LAiMH+Dt12w9r0FM8R7GdDZwON2Mfz+Jx76wAuUbB7YjtlkQWw8XcO+/1voEIF9vSSM5u5io0ADGndeSO4d35D/3DSPQbrB4RybfbK35js3XW9J59Zud7D9Sgs2APm0jeTbB2iSF3tdb2fE+NwLwfOx3APxt6Z6T+EbWzJVtBfaOoKiqrz/+PIhqT4i7lCtsa1i4JR3ncbZq/myNFVTeeF4CIYF2RvaK47bz2wPwxne7a32BcCivlDVHZa0rA/OQQOu/5vd+3FfjbWPTNHnp6x28MH/bMeeLyp3EuDy362OO6urS5QoALrVtYPlx6pb3ZhXR1bOVOoOtRZ+9jP0cysxm9f4crpmxnFcW7uSuWatxON0EuayMqb2mWv9WvTANOy2MQnLSD9TbIrJQh/W9szevdgfRMKwOMZX/lq37YAY1I8IopaNrf502ZHF46r3L7c2sshzwBss97Snsyyr2qRE+kF1YLViuIbNsD/TeGWlRnsrN7/yPT1ef/N+Fw3mltPUGy55Nkyrrlo19fLwqpU4L2P6z7iDJ2cW0DA/knty/QNYO2PwpvHsZ17e3stOLd5x+T+iT4XC6OXwwmTCjHNMWYG2oBBBpvdiLMEoIcRVzpb2qE9UA254T1i1vPpTPJbaNhBnl9MxfRh9jH4t3ZJ7VGw5J02jwYDkoKIiBAwf6LIirXCA3dOjQGh8zdOjQYxbQLVq0yDu+Y8eOxMXF+YwpKCggKSnJO2bo0KHk5eWxdu1a75jvv/8et9tNYmKid8yyZcuoqKjwuU63bt2Ijq5q9/XKK6/wwgsvsHDhQp8a6JoEBwcTERHh8yY/E31+BeeOgAG3wf1r4ZJHISjs9J/XU7fM0mmw/t9WFvjy571/wL1GPAuXPgnn/7bm5+l3C3S4EJylMPtXMH8KrLKyLZW7ZQEQFuO9nf1i9/3ENgsmo8C63XnHsA68emNf3r9jMGFBdn7ak83kj9aRWVDmyQ5brZ/+2XoO4a+dA/On0CsGfnORlSl6dt62Y7LRReVOnv8/K9N11/CObHjmCv7v7t70yPG8KPAsOmT4gwB0z13CufZMVu/PPWGJxIkE5e8HwBnZoeqgzQb9rNv3Y4N+IrvIQZJnNzjTNH2C09ScElbsPcKl9vVMXjsK/jkGVr/HveeFExJoY2Mt2eXDeaVcO+Mnbpy50tvKzzRN5m08TBuO8N8OX9Aj+Ah7s4p9Wv1V+vf/DjDzh73846dkvjgq+5xZUOZdoBYUfXSwfDkAl9o3sC+7iEO13LpPziigU2UAeO4IiDyHAMPNebbd3PT3laR4go1DeaV8se5gVbAcVkN9fmAIpieIbFe+h6zTXLwI1h2MZi6rJCQosnXtA+0BGAlWDfrxaq6rMwusYLksrFrCxPO71teeQhAV3lKMonInB5J3eXbNrAqKj2bzLFgb3baYCpfJI//ZxMsLd5xwLtVl5ebR0vAE6UcFy8PDUimtcDGrDu3Rvt5ivWB9pfNGAlJXWi/sm7eB7J3cuO52LrJtJGlfTr12LjmRLYfzaev2/LxFd6y66xcUTlmg9TMVb2Tzy2rB8nm23SesW95yKJ8BtqoX1Y9HLcY04eNV9dNR56tNaSza1vhZeGl8jVKGMWXKFN59910+/PBDtm/fzn333UdxcTF33nknAOPHj+fxxx/3jn/wwQdZuHAhr7/+Ojt27ODZZ59lzZo1TJ48GQDDMHjooYd48cUXmTdvHps3b2b8+PHEx8czZswYAHr06MGoUaO45557WLVqFcuXL2fy5MncfPPNxMdbt9ZuvfVWgoKCmDBhAlu3bmXOnDm8+eabTJkyxTuXl19+maeffpr333+fDh06kJ6eTnp6+jH9mkUIjYJf/weunVF1+7Y+nHN+tWvEwK+/8AaOPpq1svpJ19Z9wzDg6j9DQChk74Q1/4DD66xz1YNlgJ5jrKf88U+8e1Vz4iND+M3FnXjmouYYH99C373v8va48wiwGXy7LYOLX13Kg59sYHtaAQOCDtI3/T+AaV1jxhAeaLOV9jGhpBeU8edvd/lcavri3aQXlJEQE8ojo7oRERJo9b92llmt8ypb6rXuBV2uwDDdTGu1CIC3l1Zt9GCa5kllLYvLnUSXW4FmQMvOvif7jgVgKJtpRS7v/riPqf/dwrCXvmfQH7/z1vt+vvYgYPJM2BfYS7Nh3xL46ve0+Htf3mpv1VsfnV0uq3Dxm3+tJbvIygI+N28r5U4X29IK2JdVzBNBn9At9VPejvwQgHeO2uZ7b1YRf1xQtbnMS19vp6Cs6gV/RkF5tQVqR7VA7HABBIbR2sijp3GA5bWUYpRn7ibYcOKyh1r9fD3lDINtOzBNGH5uC+7/hVUCMGPJHkJcnp7iNQXLgM1nJ7/Tr1vOL60gBut5Qo8XLIN3getg2w7W1aFuOaDICibd1eu9W/eG5m0IdRdzmW0d8zZYO0s+89+tRBRZAaoZ07n20i5PucQtnRxMudx64fD20r0+O3OeiOOIVT7gsIdXtaP0LPI7z7YHOy5mrdhPYVntCzcLyypYuTebluRx0YG/Wgd/8RRM/AESzsfuKODtoOnYXKX81Ii1vWv253gXSRotfH8Xy8Os/0svtm2ko3EYsBas9jX2sS31+HPcdDCf/kZVsHx+2TLiyWbO6tTT7qizITWPSR+tY+K/1pzUv6OcnRolWB47diyvvfYaU6dOpX///mzYsIGFCxd6F9OlpKSQllbVomnYsGF89NFHvPPOO/Tr14/PP/+cuXPn0rt31e3lRx55hPvvv5+JEycyePBgioqKWLhwoU8t8ezZs+nevTuXXXYZV111FRdccIFPD+XIyEi+/fZbkpOTGThwIL///e+ZOnWqTy/mt99+G4fDwY033kibNm28b6+99lpDfstEqrTpD+0vsLLCv/mhqtziVLTsCr9dCaPfhAsfthZADX/Iev7qzv+tdcxRyIAV97N8yhAeH2THeH8U7PoalrzIxQemM2fi+Qw4J4rSCpc32/ZSi6+s5zhnmNXKqyidoC/u5IOuVqeaWSuSWbIzE7fbZFdGobfrw+sXGoQsfR7evxIWPmE9x3m3+bbiuvBhAAblLaS9kcH3OzJ57ZudjH9/FT2mLmTgi99x+/ureP3bnfzfxsOsS8kls6CsxlKGg7mltPfUSAa1PNf3ZIvOkJCIDTfX2pezdGcW/1x5gLT8MnKKHYx/fxVfb07j87UHGWDsoUPFXggIgV88De2szWR+cfgdOgdm+2SXTdPkiS83s/lQPtFhgcQ2C2b/kRL+8VMy/7cxjeaUMNK+GoAOBWsYYt9FUnIOmzw9ZStcbn43ZwNlFW6GdW5Bp5bhZBc5eGNR1YZMmYVl1XbvO+pFW0Cw94XRpbYNNbaQczjdhOdbz+eO7WZl2s+xguVhATuZeFEnPrxjMJN6OogPNziYW0qYZwOewLBa7qRV28lvxvd7vH2+T1VuiYNYT5Y1oHoZRk08gf4Q207Wp5z4TkRYqfUzYYuqtt7EZvfebbglaBnpBWU8O28r/1l3kC62yk4YNZRgVPIEgMaBn3hgeGtuOM/K+E9bsL3OL/DMPCsbWt6sbdXvRPwACIsluDyb30StoqDMyUfH6UP+4+5sKlwmrzSbjb083/q/ZchvoHlruP3/IPIcwinlYtsmn57GDW31/lwSbZ5Me2WHHw/TU4pxR8A31oEuV2CGRBFiVNCieA8ZtWxSZJomKYcP0dnmiS3a9MNmuvht2HccKXbw3fbTywj/ZdEuz3XgiS82H7dUS85+9bjC6fgmT57szQwfbenSpccc+9WvfsWvfvWrWp/PMAyef/55nn/++VrHxMTE8NFHHx13Xn379uXHH3+s9fz+/fuP+3iRBmcPgDu/qr/ni+lYtZjteNf81Qfw94sgeyfGnNsgfROUHLFu2RamwYq/MjAghC/ue5Jvtmbw+rc7OadsJ91yf7BKRUa/YdUeLv0TLH+TTpv+wsRuM3lnZyh3frCa2GbBhAbZcLpN7upcxJBFt4O7WlYsppNVOlLdOYlw7giMPd/xcuxCbs66nRlLqjJHZRUOftiVxQ9HlT4E2W20iQqhbVQoHWLDGdGjFeUV7mM7YVTX7xZITeK20BXMM67n0u6tGdGjNXPWpLJoWwb3zbay8o+EeMrBel1v7bx40cPwz2sx9i3ljZZfMfrw7dz7r7X0io+gZfNgvtmagd1mMOOWARzJzeGBL/Yw4/s9NAsO4Gr7/wgyq+pOn4tawJVHunLru0lc2CWWQLuNTQfziQgJYMbAdNJyi7h6UTQfrtzP2MEJdItrTnZeES0Nz+3pmjbX6XI57FzApfYN/HpbOpsP5tOnXVVGOCWnmHOxShEC4qxNcSq3ix8UsI/BF7eEL+8mYOsXfBaTyPDiB2iOVc4RHB517PXA2xGjt+0ASck5/PGr7Tx7Ta+ax9ZBbrGDdpUlCeEtjj+47UBMWyCt3HnY8vazPiWXAefUvKtmcbmTaFcWBEBIi6NKWPr/Gn76Cxewkdbk8K//WYevaVsMGUBNbeMqdbzY2hApfRO8czGPjnqH/9tkIyk5h6W7sri02wkCfiC40ArKTc/OfQAEhsAFv4Nvn2SS8R/eZTDv/pjMNf3jaRMZesxzfLctgwtsm7nUuRwMO1wzvSobHhAEPUbD/95ipH01f9o5HLfbxGYzWLE3m+V7srnnwk5EhZ3GguUauN0ma5KP8KfKXUkrF0p7BMWcAykQX/kCsNcYDNMNexZ5SzEu73nsgvsDR0ro7NgJQWBGd8S49En46CZ+ZSzmJa7hk9WpXNWnzTGPq4u1B3L4YVcWdptBWJCdbWkFzFqxn7svPPb/EdM0yS5y0LJ5cA3PJGcLdcMQkZo1awW/+hBsgVZ5QckRK5N173K40rMt/LJXMRY/x6hukSyacjHvnePJ/vQdawUPgSEw4jnoeiW4K3ik9A1u7N+a5sEBZBeVk5pTSrNAN485pluBckIiXPsWTF4D96+z6qePdqmVdU4sWsTIuAJ+0b0VT/+yJ18/eCH/nTScF8b05lcD2zG4QzTxkSHYDHC43Bw4YtUXf5SUwl2z1vDbj9bR3nacYLnXGLAHc45zP0l3teKlG/oyomdr3h53HrcMsbKOURRyleGJmgbfXfXYEc8B0CfnG66KzaTc6WZdSh7fbLWu98wVCQxfOpbR31/OjfFHKHG4yCwsZ2yAtZEGg+4Cw06P4lVcHplKUbmTr7eke7P37w7NJWbe7fT6cRIPdrRKAh77YhNfbUpj/wGrNMVpBFq9ho92rlW3fJ5tDyEV+Uz4cLXP7nbVO2EYrTzBcmwXCIvFcJbBjMGw9QsA2uYkcW3YVpoZ1uODassst7buCiYYmURQzKwV+/nP2oM1j62DnKJyYqgMllsef3BgKIanlGeIbQcPf7ax1pZ8mYXltdd7x54L5wzFhpvr7T8BMCihGX3cnpKYmhb3VWrRGe5YYHV3yNlHqzlX83qXrYDVo/tEvbwdTjeRDitDGtiive/JwROgWRzhpYe5L2I52UXlXPfWimMWMzpdbr7fmclYu6ebzqA7ve3nvHpeA8AI2zryi0rYeDCPJTszuf39Vby1ZC+jZ/xUp0WSJ2NfdhGxZftpaRRgBoRWlV15hMVW+3ptAVZPe08duhUs59X4vJsP5TPAU4JhtBts/dzHdiXYVcxY+1J+3J3FwdwTL/RLOVLCff9e6ym5svzFcyfndz0KeeUCK4z686Jdx7TvK3e6mPzxegb/8Tte+2bnCa8lZy4FyyJSu3MS4cqXAcPq0zt+npXJS/wNXO7ZLvynv8Cb/WDhExh7vrP+oF38SNVzGIaVZQ6JIiBzM6/FLWbt05cz++5E7rukM/MGrCcoa4tVh3nTv2DAr63g7Oid0Cq1HQhdr8Qw3fw9YTHv3zGYCRd0pEebCPolRHHb+e159Vf9+OzeYax4/DJ2vnglPz16KXMmns9fxvbjjmEdaNU8mCDTQRs82aqaguXQaO9mM/z0Biz5E7xzKQF/v4A/ne/mDyO7MTk6iUDTYQUdbavdPo7vby34BN5qNY/vf38xb4ztz53DO/D0ledyW8rTcGgtRlk+L9j+ToDhoqORxgBjl5WVv/hR6HsTAO+0X8LcScN54LIuDGofzaNDm5G44THvpe4v+SuRARWsT7FqKLfvsIK3kpDWNX8PoxKgVU9suLkpeheZheVMmLWGYs+Crr1ZRXSp7ITh2W7d6sriqZ0vzbHqmHteC8DU0M9o5sksG7XtfBkWYz0GeGqgFag+/uVm3vtxH7szCmssRcgqLOd3czbwm3+tOWar6qKCIwQZnoA3LPaYxx7DU4pxYdAe9mYV8+dFVXXzmQVlfLctg5xiBxnVFkcake2OfZ7+4wAYF7yMmLBA3m/7FUbWDghq7u1jXauEwfCbZdYLR1c5vzwwjX4h6exIL/Ru7V6bjIKqtnEhsR18TwaGWnczgAcD/0vPloGkF5Txq5krfdoDrj2QS2lJMZfZPZuO9Lv12Au1GwLNWhNhlDDMtpU3F+/m3n+tpcJlEhRgIzWnlOv/tuKYXtOnY/X+XIbarBcOxjmJvj3iwdtrGbBKiEKjvaVOA4zaF/ltOZRP/8rFfe0GWeVEQ60Nqe4NWYTNdHk72dSmwuVm8sfr+HpLOg9/tpHH/rOJH3dn8dOebLrbDjEp+beMWjmOMW0LKHG4eHruFm/NeHG5k7s/XMNXm6wXOTOW7OG/G06tFaQ0PQXLInJ8gyfAw7utQLl6MDT8Abju71a2rCgD/veWdXzAr48NPpvHwVWeOv9lrxC0ZyHDO0Tw6HnQaatnodGVL1u1k3VxqWdB8ObP4fsX4d83wrRz4PXuVqeP756DjZ9A8o8E5iXTrpmNxE4tuG5AO569phf/e/wyPhvbFpthYgY1qzkDC1VlIFu/gB9ethZEZm7F+OBKJrXawt0hnizd4LuPDUx/8RTYAjH2fU+nglWMGdCWZ37Zkwn/396dx8d47Q8c/8xkXyRCyGIpKhVram8s1y1KVO29Wjd10+VWabRoq+7Vqt6f9lJdKNUoVV0orV5UtUpqp9ZExBIRRSwRiSWykHXO74+TTDJkIkqE8X2/XnmR53kyc75PJjPf5zzfc07aDAxH1+tZCJw8cTm3nzkBuxhsX1gO1rC7Pl+dXwWDEcPhX3nQPpFXHnmAH4a1ZUTqO3Dlok7QPWphfymRH5tsJKSpL23u86KFh56Z4pqe0ZIKp5AbVVcvgX7wTDpD5+1g3pZj7PrjLA2KVlKrWWLZ9KYD9L+N+8DwTbru3dmT6lkJuBkKZ7goawGewuW2/3Z5ET0aeZGbb+Kdn+N4ZNomHpq8ljeX7yMq8SJKKVYfSCZk+iaW7TnN6gNnefTjzRZLHWen6XrabKOrvntxPYWD/Lq76V73uZuPsvFwKh+tiafL+xv459e7af/f33h7xQH8ihYkKa2EpWl/cHCjtimJ7a3X4RHzmd4+IEL/zq7HtRoMWaQv9kz5fOL1HaCY8ushVsYmWe1hPnMpm1qFC5IYvO679oBW/wCP2thlJfO/tvG0r1+NzJx8np6/k18LZ7/4Le6snkaNHP03W/LirojRCIGPARBi3MmG+FRy8k10DazJ1nFd6RzgzZW8Al5etIfeMzYza/0Rjqbe3GD3XccvEFxUglGv87UHeJaoHW+se76p1RqFgbrGVE6fKn06wn2n0njQWDgAuHbhLFYtngCXatQoOEs3YzRLdp8ss1f/0/V/EHvqEi4OdhgMsHjXSZ6er8cUTPNehsGUj6Egh8nGCJyMJtYeSqHtu78xevEe/v75DjYnnMPV0Y7eheUer/8Qa7UnXNzZJFkWQlyfe43SeymDntTlEn0+1j2H7j7wl7GlP0bzx3WiZcqHxUNgan34uh8U5OrkrXAGinLxC9KPhYJN78ORSMi5pGupE9bAlo9g2Qvw1WMwsxW86wNTG8DsTvDdUxijv6RF4e1zQ7UG1nuxG3bTpSfOnnqGkL6f6Hmo8y7DkjC4eAycPKHZoGt/1qtecWnGgkHwSTv4um/x9H+Pz4ee7wDQNWkuwz1+LzynhQm6d4Cugwb4vDt8+RgsDoVTO/VzDv5az24C1Ev4ktldDfwwogNvddH1uM7Vy1gQqTBZdjuykm8fycPR3kj0iTQmrTzIqSP7cTAUkG/vapmoNH8c/nUCnlige/dcvHRCX5JjKSv4FenyOji4YTi2kU89v+GNXoF0auiNo72Rs+k5LNh+gkERv/PQ5LW88E0U57NyCfStQrNaHly8nMdzX+1m/LJ9/Lr/DOfO6h66Kw6l1x5fo047MBhxzUzk9UapKAVhX+xkxrojXMkroEYVJ/IKFCeSU/G8ekGSkpyqmC8aHHdF6G0dXi58LZaTwQAhk8HOiToXdxDquY/UjBxGfruHrh9u4Ottx0kpMWitwKSIPnGxeEESz1J+r/ZO5rs5Ltun8U0/Tx5r4Ue+SfHSomjWxp0l8uBZetnt0Mc36Wf9NV9YitHDbjd2FNDh/urMbnWSGuvH8uUAX1786/3YGQ0cSErn/dXxdP1wI098to31h1LKXHTIWlIadew8DxkLS1lK6533qgcY9B2rwN56m7MHqoa+kGuQfYDjV604qJQiPSkeL0MmJjsn8NEL4+DgAq31VJTPOUaSdCmbTYWzfiSez2JDfAqXc/UdlthTacxcp8stpgxqzlfPtKOqqwMFJkUn+zgap/+u2+TkgUvqXpa3jKJBDTey80wsj0li78k0vFwdWPRsK2b8RdGtkTc5+SaGfR1l8fsVdweDulUzxItSpaen4+npyaVLl2TOZWHblAJTQdkrI16+AJFvQfwqKFyuGCcPeHG7eQGCcrtwFJYN1zWr93XUt9oL8vQgqjOxcPE4pJ+GS6f13NLWNOkPg7+6fmxFyUVBPqx5A3bM1t+3HwG9ppT+c5cv6ES5aIq+Ir0/1Im0UvBVHzhe2Kvs7AmvHi7uLb14HL59Qi8cUdITC6Gx7gHkh2f18urVG+rk+sQ2/XgdR+n5uK3F891TcGglOFYhse8SVpz1Zu+pNGqc+IXJBR+R79ca+xfWlX1e8q7AzNb6PBsdYEKq9SQM4PAaWPQEKJPuef/LWLLzCth+9DwrYpL49UAyl3MLMBj03NxjujcEZWLK6gTmbz1ufpiexl185jiN5CrN8X11S9ltLLLiJYj+GpO7L71yphCf4Ui96q6MCwkkpJkvh5IzWLdlC+EHhpDv4I79G1ZumSf+rlfpBD1jzD9+/HOrga6dBJs/oMCzLrMaL+SLncmkXS4e4NqslgeBvh5sOpzKpYwM4p2f1jvGHi19UGNBHszuDKlx4FiFggGfMTrGn5/2JmFvNGBnyiHKaYSuL38u0lz3W+rjfBAAVy4SUe9jnm2Ui9PqwgtgZ0/oN4sLdXuy5kAyv+xPZuuRc+ZEuJFPFV7o0oA+Qf442Om+uK1HzjFxxQHOZebwz071CetQjyrODoAuL3lm8jx+cRqPcnTDMC5RL+Jytdgl4OReXBYF5t9nRH4fZtkN5e/t6/JMx3r4ebqQeD6LaR++w3THTzHVaovx+d+Kfy7tJHzcApSJ7jlTca/dDDcnO7Ye0XcU3Bzt6N3Cj6jEi/yRmkV4wEVey5mFIeARTgaNYfr6Y7yRNJJqlw5A2+d1Wdjy4WB0QA3bQExuLf4XfYrE85f5T9eaNFg7DE7tJK/JQHqdGMqRc1eoVdWFjwYH0b7Btb/Hw2czeOfnOE5fvMwLf7mfga1qYW9X8f2akquUTZLlCiYvQCFKYTLppDZxqx7UV3SbtCIoBdlpOmlOT4LkvXDol+IE9pFJuqTkRu1ZAHE/wWPTweM6o+ozzup4k2PBozYElehFP/8HRHTQ80q3eQ4e++ja9p//Qw+yTNyqp3Fr/0Lx/sxUmNVO1xKX1Ot9aD8Mq/Ku6EQ+cau+4Hh2NVS/H7XuXQybpupymn6zrn8eor/RK0u6+8Brh69//K7P4efCHunAx/St93odoWZTsvJMbIhPpU41F1pkR+nj8rPhselsoBU/xiRxNDWTVqnLmWiYS1rd7lR99n/Xf06A3Cz4rAucT+BK/R5saj2DhxvVwDHhF50A3xcMdk46ma8RCOE7Sn8cpeCbAfq1FPZT+UuHSmvPzDaQkQQPv8nl4DEs3nmSH2NOs/eqOtxmzqmsZBQmB1eM45OsX5BknYPvwyBRX0AUdBnPyFPdWHXgLN2NUXzu+KEuLxm9X5dcWLM8HGIW6OW7zxUOTKvir9sK+kKv86vg4U9S2hXmbz3GtztOkJWr68j9PZ15pmN9Yk9f4qer6ps9XRz4e/u61PZyIfH8ZQq2fsIEhwV6AN5TP5T//BW+7mLtmtI3641rdr9t/yVP26/R02CGTLbcuTgUDq3km/zuTMjXK1QaDFDD3YmUjOJFcxq657DGeTzGzOLp52jcF9ZN0nXqL+/Ry60vGqKn1KzZRF+gNvgrnD8C3w6GtOKp/C61epE+h3pw4oJeqfTFvzbkn531zEQ5+SbmbDrKl78ft+iFb+DtxuhHHuCx5n4YjWVciN4kyVXKJslyBZMXoBB3qPQkOHdY17Pa39rpsG5YzCKdRA76/PrT+pXmwlGI/V4vtZ6Vqnt5e029/rRq2Zfgy96QvE/XUPsFQUayLi/p8S50KH26TwumAj3Is0aj8pcjRL4FWz+23OZRS5cHPBACexfpr5JaPgU9J+tb8BunYlj/rl4ts98n5XtO0HccPu+mS3/aPAsnd8HZfcX7DUbd631/Nxi6tOzHKnm34c/a9wP87zk9jVuTvtB+ONRpT2qmngIxISWDh+pXp5NxHw7fDiw7iS9SkAerx8NOvaZAQcswRqSFEnLk//QsHmXdCSkS/6u+aCjScbReHXTdJPh9RvF2/5bQ6FFoMZhLzrVYuCORL7Yc51yJVRqNBhj60H0E1anKrPV6gGVJcx0+4BG7aJ1klrbYkjWp8TCrHcrehQ0Do5i9+YR5pU2AHx3fJMh4FAbN0yVEJR3bBF/1IcfgQj/nuXR/8AGeaFuH2l4u7Dp+kR+iThKTeIHFHh9T7fR6vWJiToYeK1Ck8M4IoP9mPn2oeL+Ll74DlZuhVyRs+ZQ+d0DOI1N4I6mDxewaV+vZ1IegOlWZu+koFwvvNrzctSGv9ChjesKbJLlK2SRZrmDyAhRC3NEyU3TteMpBy+1Dl+n67IpyKgqObYDjW+HEdsjLuuoAg+5BN9rDtlmA0gMxfZvrnvrUOOj0CnSfeGPPu+MzWFVithbHKrqk5dhmKFzqmnbD4NH3byK4clIKlg6Dfd8Xb/NpDg/01IsPeTeCYxsh6ktdWhPQA0KXlO+xd8+Hn18BZUI1HYhKiMSYm6HvIJRcFbQ0+TnwwQP6jkyXcfDXfxdfGBz5DTZMgVO7gaL0waBLJNo9T3adv7A8Jon5W4/j6erAW70b0yx7N2SmUNC4PyvjLrLp8DnSs/PIvJLN58mDcVNZ8Pz60gcdWmMywdR6+oKv65vQ7gUuKRe9OEh+NtVm3I/BlAejYuHqQZFKwafB+jUU8p6+s7F3sb6D07CbLs2KXQxr3tR3G55fq197S4fp30MVf3gpChxdix/z3BF9gXJgGWQVLuhSN1iXTLlVh00fFCbMBujzMSvtu/P2TwfNK3kCBNR0583HmtDFMwXSz5BZuzNf/H6Cr7cd58eRnahV9dq5s28VyVXKJslyBZMXoBDijmcq0D11ybFwZm/haoRv6pXrboe8bPhjLRxYrgdoetXTdd1F5TnHt+q60BK3tAE9w0q752/suZTSgz/jf4V2/4TgkXqWCpMJTu6A01F62r8/W17xZyTv00n8viW67MSabhOh8yvlf9z9S2Hp83pQLegFhcYcLLsEo0hSjJ7l5oGepe/PTIHDq3W9/NH1xdu9H9AXG0FP6jseq98orsl39da9522f0+f8dDTMfVgPWB137MZfb9+HwcHl+v+O7tBsoC4HyjoHUfN1edFrCaXfAdg1T19MGO2Lz08RgxEwgCrQg2jbPqe3mwp0zDUbW78DVJCvy2AuHteDdYumwlMKVo7R7QII6IGp9zTy3f0xGPQi3nbpJ/Udk9jv9DHVA6DTGHKaDMLJqRyzvtwEyVXKJslyBZMXoBBC3AJ52ZC0By78oXsAC3L1bXCXqjf+WEUfezdbRnGrZZ2Hw7/q5PPoBl1SUyNQ99o26q0vHm60zYfXwPdDdRLe7gV4dOqtb/e5BN2rGvMt5BZOJeforuuyUbp31s1bDwQt4uCqy09yM/Tc039ffOPPm3sZYhbCzrnFtdUlBT4GTy4s/WdzMmFaE90zbeeoy3/8guDQz8XjGZoO0LPW3KrXiakAtk7XPfMFuXpwc4BeJIj8HH2hWFDY0+zoXnwuPetAz/+aZyqpCJKrlE2S5QomL0AhhBA3zGTS0yG6lHN6vLKc2AF7vtF1x9cbjHozstN1rfnOOXqAG+hpFbtN1DXpB5frZDF5n+XP9fsUWob++edVStchJ6zRNdugZ9Vo86xePdGapBhIidO95yVXCz3/B5yJ0cn21Yuk3Aqp8fBjOJzade2+ep2hxyQ9u82ueboEKSvFcgacCiC5StkkWa5g8gIUQghxTzGZ4PRuPS910ZLpRZTSA+Fy0vWgOYOdPuZO6+WvaKYCOPijHhxoMAAGfR7q/8XyXORd0eVJLZ4oX/nMnyS5StkkWa5g8gIUQgghxJ1McpWyyQp+QgghhBBCWCHJshBCCCGEEFZIsiyEEEIIIYQVkiwLIYQQQghhhSTLQgghhBBCWCHJshBCCCGEEFZIsiyEEEIIIYQVkiwLIYQQQghhhSTLQgghhBBCWCHJshBCCCGEEFZIsiyEEEIIIYQVkiwLIYQQQghhhSTLQgghhBBCWGFf2Q2wdUopANLT0yu5JUIIIYQQ1yrKUYpyFmFJkuUKlpGRAUCdOnUquSVCCCGEENZlZGTg6elZ2c244xiUXEZUKJPJRFJSElWqVMFgMFTY86Snp1OnTh1OnjyJh4dHhT3PnUhivzdjh3s7fon93owd7u34JfaKiV0pRUZGBv7+/hiNUqF7NelZrmBGo5HatWvftufz8PC4595Aikjs92bscG/HL7Hfm7HDvR2/xH7rY5ceZevk8kEIIYQQQggrJFkWQgghhBDCCkmWbYSTkxMTJ07Eycmpspty20ns92bscG/HL7Hfm7HDvR2/xH5vxl7ZZICfEEIIIYQQVkjPshBCCCGEEFZIsiyEEEIIIYQVkiwLIYQQQghhhSTLQgghhBBCWCHJsg2YNWsW9erVw9nZmfbt27Nz587KbtItN3nyZNq2bUuVKlWoWbMm/fv3Jz4+3uKY7OxswsPDqV69Ou7u7gwaNIizZ89WUosrzpQpUzAYDIwePdq8zdZjP336NE899RTVq1fHxcWF5s2bs3v3bvN+pRRvvfUWfn5+uLi40L17dxISEiqxxbdGQUEBEyZMoH79+ri4uHD//fczadIkSo7LtqXYN23aRJ8+ffD398dgMLB8+XKL/eWJ9cKFC4SGhuLh4UHVqlV57rnnyMzMvI1R/DllxZ6Xl8e4ceNo3rw5bm5u+Pv7849//IOkpCSLx7DF2K82fPhwDAYD06dPt9h+t8YO5Ys/Li6Ovn374unpiZubG23btuXEiRPm/bb+GVDZJFm+y3333Xe88sorTJw4kejoaIKCgujZsycpKSmV3bRbauPGjYSHh7N9+3YiIyPJy8ujR48eZGVlmY8ZM2YMP/30E0uWLGHjxo0kJSUxcODASmz1rbdr1y4+++wzWrRoYbHdlmO/ePEiHTt2xMHBgVWrVnHw4EE+/PBDvLy8zMdMnTqVGTNmMHv2bHbs2IGbmxs9e/YkOzu7Elt+89577z0iIiL45JNPiIuL47333mPq1KnMnDnTfIwtxZ6VlUVQUBCzZs0qdX95Yg0NDeXAgQNERkaycuVKNm3axLBhw25XCH9aWbFfvnyZ6OhoJkyYQHR0NEuXLiU+Pp6+fftaHGeLsZe0bNkytm/fjr+//zX77tbY4frx//HHH3Tq1InAwEA2bNhAbGwsEyZMwNnZ2XyMLX8G3BGUuKu1a9dOhYeHm78vKChQ/v7+avLkyZXYqoqXkpKiALVx40allFJpaWnKwcFBLVmyxHxMXFycAtS2bdsqq5m3VEZGhgoICFCRkZGqS5cuatSoUUop24993LhxqlOnTlb3m0wm5evrq95//33ztrS0NOXk5KQWLVp0O5pYYXr37q2effZZi20DBw5UoaGhSinbjh1Qy5YtM39fnlgPHjyoALVr1y7zMatWrVIGg0GdPn36trX9Zl0de2l27typAJWYmKiUsv3YT506pWrVqqX279+v7rvvPjVt2jTzPluJXanS43/iiSfUU089ZfVnbP0z4E4gPct3sdzcXKKioujevbt5m9FopHv37mzbtq0SW1bxLl26BEC1atUAiIqKIi8vz+JcBAYGUrduXZs5F+Hh4fTu3dsiRrD92FesWEGbNm3429/+Rs2aNWnZsiVz58417z927BjJyckW8Xt6etK+ffu7Pv4OHTqwdu1aDh8+DMDevXvZsmULvXr1Amw79quVJ9Zt27ZRtWpV2rRpYz6me/fuGI1GduzYcdvbXJEuXbqEwWCgatWqgG3HbjKZGDp0KGPHjqVp06bX7Lf12H/++WceeOABevbsSc2aNWnfvr1FqYatfwbcCSRZvoudO3eOgoICfHx8LLb7+PiQnJxcSa2qeCaTidGjR9OxY0eaNWsGQHJyMo6OjuYPjiK2ci4WL15MdHQ0kydPvmafrcd+9OhRIiIiCAgIYPXq1YwYMYKXX36Zr776CsAcoy3+HfzrX//iySefJDAwEAcHB1q2bMno0aMJDQ0FbDv2q5Un1uTkZGrWrGmx397enmrVqtnU+cjOzmbcuHEMGTIEDw8PwLZjf++997C3t+fll18udb8tx56SkkJmZiZTpkwhJCSENWvWMGDAAAYOHMjGjRsB2/8MuBPYV3YDhLhR4eHh7N+/ny1btlR2U26LkydPMmrUKCIjIy1q1O4VJpOJNm3a8N///heAli1bsn//fmbPnk1YWFglt65iff/99yxcuJBvv/2Wpk2bEhMTw+jRo/H397f52EXp8vLyGDx4MEopIiIiKrs5FS4qKoqPP/6Y6OhoDAZDZTfntjOZTAD069ePMWPGAPDggw/y+++/M3v2bLp06VKZzbtnSM/yXczb2xs7O7trRryePXsWX1/fSmpVxRo5ciQrV65k/fr11K5d27zd19eX3Nxc0tLSLI63hXMRFRVFSkoKrVq1wt7eHnt7ezZu3MiMGTOwt7fHx8fHZmMH8PPzo0mTJhbbGjdubB4JXhSjLf4djB071ty73Lx5c4YOHcqYMWPMdxhsOfarlSdWX1/fawY35+fnc+HCBZs4H0WJcmJiIpGRkeZeZbDd2Ddv3kxKSgp169Y1v/8lJiby6quvUq9ePcB2Ywf9OW9vb3/d90Bb/gy4E0iyfBdzdHSkdevWrF271rzNZDKxdu1agoODK7Flt55SipEjR7Js2TLWrVtH/fr1Lfa3bt0aBwcHi3MRHx/PiRMn7vpz0a1bN/bt20dMTIz5q02bNoSGhpr/b6uxA3Ts2PGaaQIPHz7MfffdB0D9+vXx9fW1iD89PZ0dO3bc9fFfvnwZo9HybdrOzs7c22TLsV+tPLEGBweTlpZGVFSU+Zh169ZhMplo3779bW/zrVSUKCckJPDbb79RvXp1i/22GvvQoUOJjY21eP/z9/dn7NixrF69GrDd2EF/zrdt27bM90Bb/vy7Y1T2CENxcxYvXqycnJzUl19+qQ4ePKiGDRumqlatqpKTkyu7abfUiBEjlKenp9qwYYM6c+aM+evy5cvmY4YPH67q1q2r1q1bp3bv3q2Cg4NVcHBwJba64pScDUMp2459586dyt7eXr377rsqISFBLVy4ULm6uqoFCxaYj5kyZYqqWrWq+vHHH1VsbKzq16+fql+/vrpy5UoltvzmhYWFqVq1aqmVK1eqY8eOqaVLlypvb2/1+uuvm4+xpdgzMjLUnj171J49exSgPvroI7Vnzx7zjA/liTUkJES1bNlS7dixQ23ZskUFBASoIUOGVFZI5VZW7Lm5uapv376qdu3aKiYmxuI9MCcnx/wYthh7aa6eDUOpuzd2pa4f/9KlS5WDg4OaM2eOSkhIUDNnzlR2dnZq8+bN5sew5c+AO4EkyzZg5syZqm7dusrR0VG1a9dObd++vbKbdMsBpX7Nnz/ffMyVK1fUiy++qLy8vJSrq6saMGCAOnPmTOU1ugJdnSzbeuw//fSTatasmXJyclKBgYFqzpw5FvtNJpOaMGGC8vHxUU5OTqpbt24qPj6+klp766Snp6tRo0apunXrKmdnZ9WgQQP1xhtvWCRIthT7+vXrS/07DwsLU0qVL9bz58+rIUOGKHd3d+Xh4aGeeeYZlZGRUQnR3JiyYj927JjV98D169ebH8MWYy9Nacny3Rq7UuWLf968eaphw4bK2dlZBQUFqeXLl1s8hq1/BlQ2g1IlloISQgghhBBCmEnNshBCCCGEEFZIsiyEEEIIIYQVkiwLIYQQQghhhSTLQgghhBBCWCHJshBCCCGEEFZIsiyEEEIIIYQVkiwLIYQQQghhhSTLQghhowwGA8uXL6/sZgghxF1NkmUhhKgATz/9NAaD4ZqvkJCQym6aEEKIG2Bf2Q0QQghbFRISwvz58y22OTk5VVJrhBBC/BnSsyyEEBXEyckJX19fiy8vLy9Al0hERETQq1cvXFxcaNCgAT/88IPFz+/bt4+uXbvi4uJC9erVGTZsGJmZmRbHfPHFFzRt2hQnJyf8/PwYOXKkxf5z584xYMAAXF1dCQgIYMWKFeZ9Fy9eJDQ0lBo1auDi4kJAQMA1yb0QQtzrJFkWQohKMmHCBAYNGsTevXsJDQ3lySefJC4uDoCsrCx69uyJl5cXu3btYsmSJfz2228WyXBERATh4eEMGzaMffv2sWLFCho2bGjxHP/5z38YPHgwsbGxPProo4SGhnLhwgXz8x88eJBVq1YRFxdHREQE3t7et+8ECCHEXcCglFKV3QghhLA1Tz/9NAsWLMDZ2dli+/jx4xk/fjwGg4Hhw4cTERFh3vfQQw/RqlUrPv30U+bOncu4ceM4efIkbm5uAPzyyy/06dOHpKQkfHx8qFWrFs888wzvvPNOqW0wGAy8+eabTJo0CdAJuLu7O6tWrSIkJIS+ffvi7e3NF198UUFnQQgh7n5SsyyEEBXk4YcftkiGAapVq2b+f3BwsMW+4OBgYmJiAIiLiyMoKMicKAN07NgRk8lEfHw8BoOBpKQkunXrVmYbWrRoYf6/m5sbHh4epKSkADBixAgGDRpEdHQ0PXr0oH///nTo0OFPxSqEELZKkmUhhKggbm5u15RF3CouLi7lOs7BwcHie4PBgMlkAqBXr14kJibyyy+/EBkZSbdu3QgPD+eDDz645e0VQoi7ldQsCyFEJdm+ffs13zdu3BiAxo0bs3fvXrKyssz7t27ditFopFGjRlSpUoV69eqxdu3am2pDjRo1CAsLY8GCBUyfPp05c+bc1OMJIYStkZ5lIYSoIDk5OSQnJ1tss7e3Nw+iW7JkCW3atKFTp04sXLiQnTt3Mm/ePABCQ0OZOHEiYWFhvP3226SmpvLSSy8xdOhQfHx8AHj77bcZPnw4NWvWpFevXmRkZLB161ZeeumlcrXvrbfeonXr1jRt2pScnBxWrlxpTtaFEEJokiwLIUQF+fXXX/Hz87PY1qhRIw4dOgTomSoWL17Miy++iJ+fH4sWLaJJkyYAuLq6snr1akaNGkXbtm1xdXVl0KBBfPTRR+bHCgsLIzs7m2nTpvHaa6/h7e3N448/Xu72OTo68u9//5vjx4/j4uJC586dWbx48S2IXAghbIfMhiGEEJXAYDCwbNky+vfvX9lNEUIIUQapWRZCCCGEEMIKSZaFEEIIIYSwQmqWhRCiEkgFnBBC3B2kZ1kIIYQQQggrJFkWQgghhBDCCkmWhRBCCCGEsEKSZSGEEEIIIayQZFkIIYQQQggrJFkWQgghhBDCCkmWhRBCCCGEsEKSZSGEEEIIIayQZFkIIYQQQggr/h+HyyCOqICd7wAAAABJRU5ErkJggg==;" vertex="1" parent="1">
          <mxGeometry x="1270" y="111" width="680" height="509" as="geometry" />
        </mxCell>
      </root>
    </mxGraphModel>
  </diagram>
</mxfile>
